<?xml version="1.0" encoding="utf-8" standalone="no"?>
<!DOCTYPE svg PUBLIC "-//W3C//DTD SVG 1.1//EN"
  "http://www.w3.org/Graphics/SVG/1.1/DTD/svg11.dtd">
<svg xmlns:xlink="http://www.w3.org/1999/xlink" width="864pt" height="576pt" viewBox="0 0 864 576" xmlns="http://www.w3.org/2000/svg" version="1.1">
 <metadata>
  <rdf:RDF xmlns:dc="http://purl.org/dc/elements/1.1/" xmlns:cc="http://creativecommons.org/ns#" xmlns:rdf="http://www.w3.org/1999/02/22-rdf-syntax-ns#">
   <cc:Work>
    <dc:type rdf:resource="http://purl.org/dc/dcmitype/StillImage"/>
    <dc:date>2024-08-15T16:09:10.326283</dc:date>
    <dc:format>image/svg+xml</dc:format>
    <dc:creator>
     <cc:Agent>
      <dc:title>Matplotlib v3.8.0, https://matplotlib.org/</dc:title>
     </cc:Agent>
    </dc:creator>
   </cc:Work>
  </rdf:RDF>
 </metadata>
 <defs>
  <style type="text/css">*{stroke-linejoin: round; stroke-linecap: butt}</style>
 </defs>
 <g id="figure_1">
  <g id="patch_1">
   <path d="M 0 576 
L 864 576 
L 864 0 
L 0 0 
z
" style="fill: #ffffff"/>
  </g>
  <g id="axes_1">
   <g id="patch_2">
    <path d="M 108 512.64 
L 777.6 512.64 
L 777.6 69.12 
L 108 69.12 
z
" style="fill: #ffffff"/>
   </g>
   <g id="PolyCollection_1">
    <defs>
     <path id="m7b75dd3093" d="M 138.436364 -93.599131 
L 138.436364 -83.52 
L 140.472241 -98.495278 
L 142.508118 -115.070574 
L 144.543995 -130.905002 
L 146.579872 -146.319732 
L 148.615749 -160.905944 
L 150.651627 -176.290268 
L 152.687504 -191.595308 
L 154.723381 -207.294566 
L 156.759258 -222.72179 
L 158.795135 -238.224673 
L 160.831012 -236.140607 
L 162.86689 -234.084056 
L 164.902767 -232.36878 
L 166.938644 -233.713327 
L 168.974521 -234.22944 
L 171.010398 -234.273718 
L 173.046275 -233.679373 
L 175.082153 -231.445557 
L 177.11803 -231.815172 
L 179.153907 -230.398897 
L 181.189784 -230.034733 
L 183.225661 -229.373824 
L 185.261538 -228.053931 
L 187.297416 -228.181263 
L 189.333293 -230.04162 
L 191.36917 -229.225235 
L 193.405047 -228.694545 
L 195.440924 -228.236462 
L 197.476801 -229.114608 
L 199.512679 -227.968608 
L 201.548556 -227.853337 
L 203.584433 -228.440195 
L 205.62031 -229.483377 
L 207.656187 -229.081299 
L 209.692064 -227.356535 
L 211.727942 -228.245034 
L 213.763819 -228.916989 
L 215.799696 -229.456397 
L 217.835573 -228.461707 
L 219.87145 -227.59351 
L 221.907327 -228.254914 
L 223.943205 -227.432 
L 225.979082 -226.752005 
L 228.014959 -226.889695 
L 230.050836 -224.521656 
L 232.086713 -224.694721 
L 234.12259 -224.672089 
L 236.158468 -224.165273 
L 238.194345 -223.025996 
L 240.230222 -223.677409 
L 242.266099 -222.539195 
L 244.301976 -221.576845 
L 246.337853 -221.73455 
L 248.373731 -220.126195 
L 250.409608 -220.355475 
L 252.445485 -219.987726 
L 254.481362 -219.564777 
L 256.517239 -218.552996 
L 258.553116 -219.589865 
L 260.588994 -220.543789 
L 262.624871 -220.14363 
L 264.660748 -218.571221 
L 266.696625 -220.192391 
L 268.732502 -221.979301 
L 270.768379 -224.565927 
L 272.804257 -224.216109 
L 274.840134 -223.76001 
L 276.876011 -223.983329 
L 278.911888 -222.003648 
L 280.947765 -222.724468 
L 282.983642 -224.8756 
L 285.01952 -226.3947 
L 287.055397 -226.688933 
L 289.091274 -226.768938 
L 291.127151 -225.898036 
L 293.163028 -226.290718 
L 295.198905 -225.905546 
L 297.234783 -226.013739 
L 299.27066 -225.178983 
L 301.306537 -224.571019 
L 303.342414 -224.648514 
L 305.378291 -226.073697 
L 307.414168 -224.60531 
L 309.450046 -221.74338 
L 311.485923 -222.051365 
L 313.5218 -221.985459 
L 315.557677 -221.85465 
L 317.593554 -221.617639 
L 319.629431 -221.825449 
L 321.665309 -220.196593 
L 323.701186 -217.016977 
L 325.737063 -215.186144 
L 327.77294 -213.139405 
L 329.808817 -213.084157 
L 331.844694 -214.568889 
L 333.880572 -212.10877 
L 335.916449 -211.485785 
L 337.952326 -210.392866 
L 339.988203 -209.204512 
L 342.02408 -210.460593 
L 344.059957 -210.213355 
L 346.095835 -210.411743 
L 348.131712 -210.27695 
L 350.167589 -210.003077 
L 352.203466 -208.511801 
L 354.239343 -207.56389 
L 356.27522 -206.961019 
L 358.311098 -206.639236 
L 360.346975 -208.071601 
L 362.382852 -207.649561 
L 364.418729 -208.500168 
L 366.454606 -208.821548 
L 368.490483 -208.704525 
L 370.526361 -208.649226 
L 372.562238 -206.884652 
L 374.598115 -207.051399 
L 376.633992 -208.089059 
L 378.669869 -209.224802 
L 380.705746 -210.645891 
L 382.741624 -210.891743 
L 384.777501 -210.389931 
L 386.813378 -212.281939 
L 388.849255 -212.889477 
L 390.885132 -213.882704 
L 392.921009 -213.728564 
L 394.956887 -217.005696 
L 396.992764 -219.219617 
L 399.028641 -221.296542 
L 401.064518 -223.210972 
L 403.100395 -225.153944 
L 405.136272 -229.553965 
L 407.17215 -234.141818 
L 409.208027 -237.839094 
L 411.243904 -241.022427 
L 413.279781 -245.338137 
L 415.315658 -247.477642 
L 417.351535 -251.708668 
L 419.387413 -255.161509 
L 421.42329 -257.630627 
L 423.459167 -259.619969 
L 425.495044 -262.967833 
L 427.530921 -263.681694 
L 429.566798 -266.114857 
L 431.602676 -269.116465 
L 433.638553 -270.846165 
L 435.67443 -272.713874 
L 437.710307 -274.357732 
L 439.746184 -275.643547 
L 441.782061 -276.579906 
L 443.817939 -280.73272 
L 445.853816 -279.106684 
L 447.889693 -278.134573 
L 449.92557 -278.83316 
L 451.961447 -278.249301 
L 453.997324 -277.246625 
L 456.033202 -278.92892 
L 458.069079 -277.116116 
L 460.104956 -276.515585 
L 462.140833 -276.950029 
L 464.17671 -275.766237 
L 466.212587 -275.65883 
L 468.248465 -274.577858 
L 470.284342 -276.219357 
L 472.320219 -275.719191 
L 474.356096 -277.531277 
L 476.391973 -277.207763 
L 478.42785 -278.285044 
L 480.463728 -279.917379 
L 482.499605 -280.924489 
L 484.535482 -280.558978 
L 486.571359 -282.03032 
L 488.607236 -284.203311 
L 490.643113 -284.391052 
L 492.678991 -287.431542 
L 494.714868 -289.24533 
L 496.750745 -292.637205 
L 498.786622 -297.102802 
L 500.822499 -300.627836 
L 502.858376 -305.103114 
L 504.894254 -310.16812 
L 506.930131 -315.620346 
L 508.966008 -322.101901 
L 511.001885 -326.198554 
L 513.037762 -331.263255 
L 515.073639 -335.587515 
L 517.109517 -343.772996 
L 519.145394 -350.286379 
L 521.181271 -357.160519 
L 523.217148 -364.515607 
L 525.253025 -370.418808 
L 527.288902 -377.685611 
L 529.32478 -382.656075 
L 531.360657 -390.214194 
L 533.396534 -396.93849 
L 535.432411 -404.181653 
L 537.468288 -408.236792 
L 539.504165 -412.468543 
L 541.540043 -416.842932 
L 543.57592 -423.200056 
L 545.611797 -427.549012 
L 547.647674 -432.062871 
L 549.683551 -435.855356 
L 551.719428 -438.868179 
L 553.755306 -441.983389 
L 555.791183 -444.501374 
L 557.82706 -444.023354 
L 559.862937 -446.867867 
L 561.898814 -444.383643 
L 563.934691 -443.559109 
L 565.970569 -443.450231 
L 568.006446 -443.268049 
L 570.042323 -443.241206 
L 572.0782 -441.257056 
L 574.114077 -439.784494 
L 576.149954 -438.090012 
L 578.185832 -438.176572 
L 580.221709 -437.578994 
L 582.257586 -436.039311 
L 584.293463 -432.328546 
L 586.32934 -431.48597 
L 588.365217 -428.800266 
L 590.401095 -428.089527 
L 592.436972 -426.941692 
L 594.472849 -426.21963 
L 596.508726 -426.169521 
L 598.544603 -425.604444 
L 600.58048 -423.309366 
L 602.616358 -424.346794 
L 604.652235 -423.12252 
L 606.688112 -422.426317 
L 608.723989 -422.101191 
L 610.759866 -421.704992 
L 612.795743 -422.419647 
L 614.831621 -422.243628 
L 616.867498 -422.627151 
L 618.903375 -421.741918 
L 620.939252 -421.24544 
L 622.975129 -422.366237 
L 625.011006 -423.070179 
L 627.046884 -423.644492 
L 629.082761 -423.470511 
L 631.118638 -420.761338 
L 633.154515 -421.08392 
L 635.190392 -421.05599 
L 637.226269 -422.019349 
L 639.262147 -422.468646 
L 641.298024 -421.201445 
L 643.333901 -421.076374 
L 645.369778 -421.686745 
L 647.405655 -420.929682 
L 649.441532 -419.909547 
L 651.47741 -419.71291 
L 653.513287 -419.521878 
L 655.549164 -419.493371 
L 657.585041 -419.639935 
L 659.620918 -418.929843 
L 661.656795 -418.509936 
L 663.692673 -419.115955 
L 665.72855 -417.430282 
L 667.764427 -415.677383 
L 669.800304 -415.996882 
L 671.836181 -417.765002 
L 673.872058 -418.566823 
L 675.907936 -417.68494 
L 677.943813 -416.143773 
L 679.97969 -414.892619 
L 682.015567 -414.739393 
L 684.051444 -414.349611 
L 686.087321 -413.814367 
L 688.123199 -412.82052 
L 690.159076 -411.667505 
L 692.194953 -410.816658 
L 694.23083 -409.476493 
L 696.266707 -408.240505 
L 698.302584 -405.774449 
L 700.338462 -404.398931 
L 702.374339 -403.124073 
L 704.410216 -398.957869 
L 706.446093 -398.21335 
L 708.48197 -396.880237 
L 710.517847 -395.770421 
L 712.553725 -393.978218 
L 714.589602 -390.150218 
L 716.625479 -388.993184 
L 718.661356 -387.532634 
L 720.697233 -384.37112 
L 722.73311 -382.29893 
L 724.768988 -381.497877 
L 726.804865 -380.941717 
L 728.840742 -380.43565 
L 730.876619 -357.176807 
L 732.912496 -333.489721 
L 734.948373 -310.490527 
L 736.984251 -286.678071 
L 739.020128 -264.389794 
L 741.056005 -241.908143 
L 743.091882 -218.855857 
L 745.127759 -197.005923 
L 747.163636 -173.921268 
L 747.163636 -184.303595 
L 747.163636 -184.303595 
L 745.127759 -207.984446 
L 743.091882 -230.521732 
L 741.056005 -254.388589 
L 739.020128 -277.631754 
L 736.984251 -300.713177 
L 734.948373 -325.276912 
L 732.912496 -349.138353 
L 730.876619 -373.630046 
L 728.840742 -397.61121 
L 726.804865 -398.046458 
L 724.768988 -398.583689 
L 722.73311 -399.304313 
L 720.697233 -401.398412 
L 718.661356 -404.650932 
L 716.625479 -405.900214 
L 714.589602 -407.022984 
L 712.553725 -410.756421 
L 710.517847 -412.532641 
L 708.48197 -413.655563 
L 706.446093 -414.999223 
L 704.410216 -415.741362 
L 702.374339 -419.924427 
L 700.338462 -421.235767 
L 698.302584 -422.554809 
L 696.266707 -424.992666 
L 694.23083 -426.172016 
L 692.194953 -427.479287 
L 690.159076 -428.345894 
L 688.123199 -429.569655 
L 686.087321 -430.683218 
L 684.051444 -431.236141 
L 682.015567 -431.717399 
L 679.97969 -431.793753 
L 677.943813 -432.808617 
L 675.907936 -434.366394 
L 673.872058 -435.249223 
L 671.836181 -434.596737 
L 669.800304 -432.702908 
L 667.764427 -432.501323 
L 665.72855 -434.353343 
L 663.692673 -436.015986 
L 661.656795 -435.448089 
L 659.620918 -435.824462 
L 657.585041 -436.571635 
L 655.549164 -436.560815 
L 653.513287 -436.615672 
L 651.47741 -436.82117 
L 649.441532 -437.037021 
L 647.405655 -437.919724 
L 645.369778 -438.746807 
L 643.333901 -438.168207 
L 641.298024 -438.136857 
L 639.262147 -439.42207 
L 637.226269 -439.061874 
L 635.190392 -438.129748 
L 633.154515 -438.233278 
L 631.118638 -437.820703 
L 629.082761 -440.538686 
L 627.046884 -440.605107 
L 625.011006 -440.11076 
L 622.975129 -439.3942 
L 620.939252 -438.426115 
L 618.903375 -438.949597 
L 616.867498 -439.771388 
L 614.831621 -439.47036 
L 612.795743 -439.721592 
L 610.759866 -439.065673 
L 608.723989 -439.4891 
L 606.688112 -439.672482 
L 604.652235 -440.394595 
L 602.616358 -441.708318 
L 600.58048 -440.716402 
L 598.544603 -442.865607 
L 596.508726 -443.483088 
L 594.472849 -443.582079 
L 592.436972 -444.297193 
L 590.401095 -445.436634 
L 588.365217 -446.35034 
L 586.32934 -448.948061 
L 584.293463 -449.812434 
L 582.257586 -453.471549 
L 580.221709 -454.876401 
L 578.185832 -455.3758 
L 576.149954 -455.427064 
L 574.114077 -457.230863 
L 572.0782 -458.809463 
L 570.042323 -460.898002 
L 568.006446 -460.947626 
L 565.970569 -461.056665 
L 563.934691 -461.264015 
L 561.898814 -462.047244 
L 559.862937 -464.460325 
L 557.82706 -461.780605 
L 555.791183 -462.397225 
L 553.755306 -459.774252 
L 551.719428 -456.740212 
L 549.683551 -453.628583 
L 547.647674 -449.92783 
L 545.611797 -445.518384 
L 543.57592 -441.30843 
L 541.540043 -434.896923 
L 539.504165 -430.547752 
L 537.468288 -426.425933 
L 535.432411 -422.317479 
L 533.396534 -415.199991 
L 531.360657 -408.590259 
L 529.32478 -401.11049 
L 527.288902 -396.186403 
L 525.253025 -388.933125 
L 523.217148 -383.133095 
L 521.181271 -375.710052 
L 519.145394 -368.787709 
L 517.109517 -362.401997 
L 515.073639 -354.31198 
L 513.037762 -349.997233 
L 511.001885 -344.898904 
L 508.966008 -340.858268 
L 506.930131 -334.347543 
L 504.894254 -328.923605 
L 502.858376 -323.87212 
L 500.822499 -319.345483 
L 498.786622 -315.695839 
L 496.750745 -311.146037 
L 494.714868 -307.855767 
L 492.678991 -305.985853 
L 490.643113 -303.11234 
L 488.607236 -303.101359 
L 486.571359 -301.06232 
L 484.535482 -299.673483 
L 482.499605 -300.1179 
L 480.463728 -299.105088 
L 478.42785 -297.553114 
L 476.391973 -296.44141 
L 474.356096 -296.750853 
L 472.320219 -295.211963 
L 470.284342 -295.87892 
L 468.248465 -294.318831 
L 466.212587 -295.454254 
L 464.17671 -295.595086 
L 462.140833 -296.818564 
L 460.104956 -296.309078 
L 458.069079 -296.993972 
L 456.033202 -299.075265 
L 453.997324 -297.410757 
L 451.961447 -298.484201 
L 449.92557 -298.97081 
L 447.889693 -298.237026 
L 445.853816 -299.193872 
L 443.817939 -300.854609 
L 441.782061 -296.588528 
L 439.746184 -295.675798 
L 437.710307 -294.249997 
L 435.67443 -292.595281 
L 433.638553 -290.70853 
L 431.602676 -288.948212 
L 429.566798 -285.915985 
L 427.530921 -283.385695 
L 425.495044 -282.534157 
L 423.459167 -279.130171 
L 421.42329 -277.085861 
L 419.387413 -274.576208 
L 417.351535 -270.869799 
L 415.315658 -266.488759 
L 413.279781 -264.243021 
L 411.243904 -259.788591 
L 409.208027 -256.566202 
L 407.17215 -252.653635 
L 405.136272 -247.987984 
L 403.100395 -243.42936 
L 401.064518 -241.403561 
L 399.028641 -239.287845 
L 396.992764 -237.210873 
L 394.956887 -234.882747 
L 392.921009 -231.307293 
L 390.885132 -231.372526 
L 388.849255 -230.340021 
L 386.813378 -229.702527 
L 384.777501 -227.722657 
L 382.741624 -228.124648 
L 380.705746 -227.795608 
L 378.669869 -226.338093 
L 376.633992 -225.165699 
L 374.598115 -224.06913 
L 372.562238 -223.940018 
L 370.526361 -225.820671 
L 368.490483 -225.960541 
L 366.454606 -226.022344 
L 364.418729 -225.63276 
L 362.382852 -224.725087 
L 360.346975 -225.369816 
L 358.311098 -224.026155 
L 356.27522 -224.302624 
L 354.239343 -224.980062 
L 352.203466 -226.014826 
L 350.167589 -227.535398 
L 348.131712 -227.870428 
L 346.095835 -227.978279 
L 344.059957 -227.734573 
L 342.02408 -227.979436 
L 339.988203 -226.745845 
L 337.952326 -228.045715 
L 335.916449 -229.054917 
L 333.880572 -229.810415 
L 331.844694 -232.264611 
L 329.808817 -230.738876 
L 327.77294 -230.624249 
L 325.737063 -232.768046 
L 323.701186 -234.677675 
L 321.665309 -237.962062 
L 319.629431 -239.617431 
L 317.593554 -239.407807 
L 315.557677 -239.73635 
L 313.5218 -239.873179 
L 311.485923 -239.939135 
L 309.450046 -239.524178 
L 307.414168 -242.606314 
L 305.378291 -244.084032 
L 303.342414 -242.471996 
L 301.306537 -242.442244 
L 299.27066 -243.206301 
L 297.234783 -244.169262 
L 295.198905 -244.072931 
L 293.163028 -244.447049 
L 291.127151 -244.267339 
L 289.091274 -245.25245 
L 287.055397 -245.075994 
L 285.01952 -244.790536 
L 282.983642 -243.136129 
L 280.947765 -240.764164 
L 278.911888 -240.034844 
L 276.876011 -242.136494 
L 274.840134 -241.901924 
L 272.804257 -242.341524 
L 270.768379 -242.672406 
L 268.732502 -239.724333 
L 266.696625 -237.684201 
L 264.660748 -236.007759 
L 262.624871 -237.727371 
L 260.588994 -238.072865 
L 258.553116 -237.004861 
L 256.517239 -235.851665 
L 254.481362 -236.957553 
L 252.445485 -237.404421 
L 250.409608 -237.885559 
L 248.373731 -237.680694 
L 246.337853 -239.297435 
L 244.301976 -239.221093 
L 242.266099 -240.189087 
L 240.230222 -241.344744 
L 238.194345 -240.733273 
L 236.158468 -241.891573 
L 234.12259 -242.423278 
L 232.086713 -242.373234 
L 230.050836 -242.239099 
L 228.014959 -244.604877 
L 225.979082 -244.451793 
L 223.943205 -245.17849 
L 221.907327 -246.131518 
L 219.87145 -245.450892 
L 217.835573 -246.449807 
L 215.799696 -247.565878 
L 213.763819 -247.063632 
L 211.727942 -246.4763 
L 209.692064 -245.54041 
L 207.656187 -247.182048 
L 205.62031 -247.55729 
L 203.584433 -246.42752 
L 201.548556 -245.716164 
L 199.512679 -245.903497 
L 197.476801 -247.128442 
L 195.440924 -246.178052 
L 193.405047 -246.735902 
L 191.36917 -247.410137 
L 189.333293 -248.361043 
L 187.297416 -246.584847 
L 185.261538 -246.415103 
L 183.225661 -247.753063 
L 181.189784 -248.403421 
L 179.153907 -248.824839 
L 177.11803 -250.242932 
L 175.082153 -249.851733 
L 173.046275 -252.199087 
L 171.010398 -252.822921 
L 168.974521 -252.581326 
L 166.938644 -252.039452 
L 164.902767 -250.666939 
L 162.86689 -252.499442 
L 160.831012 -254.679908 
L 158.795135 -256.800438 
L 156.759258 -240.3924 
L 154.723381 -224.053395 
L 152.687504 -207.464025 
L 150.651627 -191.374299 
L 148.615749 -175.114694 
L 146.579872 -159.768191 
L 144.543995 -143.511673 
L 142.508118 -126.773727 
L 140.472241 -109.405935 
L 138.436364 -93.599131 
z
" style="stroke: #0000ff; stroke-opacity: 0.3"/>
    </defs>
    <g clip-path="url(#p828ad901cc)">
     <use xlink:href="#m7b75dd3093" x="0" y="576" style="fill: #0000ff; fill-opacity: 0.3; stroke: #0000ff; stroke-opacity: 0.3"/>
    </g>
   </g>
   <g id="PolyCollection_2">
    <defs>
     <path id="mf0070e7103" d="M 138.436364 -95.553508 
L 138.436364 -85.514662 
L 140.472241 -103.475079 
L 142.508118 -119.428249 
L 144.543995 -135.140973 
L 146.579872 -151.057582 
L 148.615749 -166.885409 
L 150.651627 -185.48794 
L 152.687504 -202.023712 
L 154.723381 -216.364212 
L 156.759258 -231.901235 
L 158.795135 -247.016753 
L 160.831012 -247.008834 
L 162.86689 -246.950755 
L 164.902767 -246.299987 
L 166.938644 -245.472875 
L 168.974521 -241.099341 
L 171.010398 -241.926353 
L 173.046275 -243.115571 
L 175.082153 -243.885469 
L 177.11803 -244.182747 
L 179.153907 -243.320765 
L 181.189784 -243.094228 
L 183.225661 -242.430564 
L 185.261538 -243.274837 
L 187.297416 -243.041826 
L 189.333293 -240.793561 
L 191.36917 -237.846568 
L 193.405047 -236.812871 
L 195.440924 -238.175974 
L 197.476801 -239.606404 
L 199.512679 -240.516819 
L 201.548556 -239.435783 
L 203.584433 -239.115865 
L 205.62031 -238.645513 
L 207.656187 -238.761591 
L 209.692064 -238.798692 
L 211.727942 -237.882916 
L 213.763819 -236.036414 
L 215.799696 -234.505275 
L 217.835573 -235.674129 
L 219.87145 -235.344613 
L 221.907327 -233.339101 
L 223.943205 -233.773767 
L 225.979082 -232.527511 
L 228.014959 -231.914794 
L 230.050836 -234.886689 
L 232.086713 -235.192047 
L 234.12259 -236.409078 
L 236.158468 -236.551587 
L 238.194345 -236.15255 
L 240.230222 -236.687219 
L 242.266099 -240.796082 
L 244.301976 -241.757577 
L 246.337853 -241.014566 
L 248.373731 -239.810478 
L 250.409608 -239.825414 
L 252.445485 -239.662934 
L 254.481362 -239.788011 
L 256.517239 -238.293977 
L 258.553116 -235.630496 
L 260.588994 -237.02415 
L 262.624871 -236.875133 
L 264.660748 -236.19601 
L 266.696625 -235.430778 
L 268.732502 -236.442937 
L 270.768379 -234.839841 
L 272.804257 -234.166067 
L 274.840134 -231.730315 
L 276.876011 -230.140701 
L 278.911888 -229.300025 
L 280.947765 -227.319473 
L 282.983642 -223.992562 
L 285.01952 -223.765277 
L 287.055397 -224.585411 
L 289.091274 -224.384866 
L 291.127151 -223.735497 
L 293.163028 -222.591743 
L 295.198905 -220.506804 
L 297.234783 -219.523374 
L 299.27066 -220.587088 
L 301.306537 -220.657627 
L 303.342414 -221.69213 
L 305.378291 -221.312342 
L 307.414168 -220.851015 
L 309.450046 -218.998723 
L 311.485923 -219.856259 
L 313.5218 -219.754488 
L 315.557677 -222.776411 
L 317.593554 -222.105363 
L 319.629431 -220.90208 
L 321.665309 -219.559571 
L 323.701186 -219.332871 
L 325.737063 -218.353815 
L 327.77294 -217.908209 
L 329.808817 -218.99867 
L 331.844694 -218.832106 
L 333.880572 -218.808457 
L 335.916449 -218.640366 
L 337.952326 -220.032697 
L 339.988203 -218.954874 
L 342.02408 -218.732835 
L 344.059957 -217.101292 
L 346.095835 -216.443284 
L 348.131712 -216.522107 
L 350.167589 -216.001382 
L 352.203466 -214.527465 
L 354.239343 -214.405898 
L 356.27522 -211.306065 
L 358.311098 -211.700984 
L 360.346975 -213.852433 
L 362.382852 -216.35328 
L 364.418729 -216.336212 
L 366.454606 -216.013592 
L 368.490483 -216.238179 
L 370.526361 -216.300238 
L 372.562238 -216.855139 
L 374.598115 -218.035381 
L 376.633992 -219.100041 
L 378.669869 -219.737181 
L 380.705746 -222.446013 
L 382.741624 -221.580447 
L 384.777501 -221.782452 
L 386.813378 -223.79526 
L 388.849255 -224.931495 
L 390.885132 -227.240963 
L 392.921009 -229.135274 
L 394.956887 -230.704981 
L 396.992764 -232.961922 
L 399.028641 -235.109032 
L 401.064518 -238.001311 
L 403.100395 -239.713121 
L 405.136272 -242.304584 
L 407.17215 -245.142258 
L 409.208027 -247.747166 
L 411.243904 -249.782948 
L 413.279781 -252.741174 
L 415.315658 -254.239841 
L 417.351535 -258.023418 
L 419.387413 -258.724178 
L 421.42329 -260.639567 
L 423.459167 -264.377613 
L 425.495044 -267.115096 
L 427.530921 -269.165542 
L 429.566798 -272.010265 
L 431.602676 -274.051679 
L 433.638553 -276.035804 
L 435.67443 -277.567434 
L 437.710307 -279.347965 
L 439.746184 -283.439653 
L 441.782061 -281.644589 
L 443.817939 -283.068625 
L 445.853816 -284.748883 
L 447.889693 -285.326435 
L 449.92557 -286.868766 
L 451.961447 -287.73719 
L 453.997324 -288.479111 
L 456.033202 -290.385619 
L 458.069079 -290.498076 
L 460.104956 -292.818666 
L 462.140833 -293.552978 
L 464.17671 -294.393442 
L 466.212587 -294.629177 
L 468.248465 -294.53718 
L 470.284342 -296.391744 
L 472.320219 -296.701021 
L 474.356096 -296.749014 
L 476.391973 -298.585451 
L 478.42785 -300.583106 
L 480.463728 -298.568016 
L 482.499605 -301.051955 
L 484.535482 -302.608107 
L 486.571359 -303.10277 
L 488.607236 -306.038101 
L 490.643113 -308.488549 
L 492.678991 -312.737984 
L 494.714868 -317.18505 
L 496.750745 -320.946242 
L 498.786622 -325.687463 
L 500.822499 -330.514312 
L 502.858376 -335.418907 
L 504.894254 -340.606661 
L 506.930131 -346.167195 
L 508.966008 -353.915259 
L 511.001885 -358.770266 
L 513.037762 -364.653776 
L 515.073639 -371.967912 
L 517.109517 -378.72743 
L 519.145394 -384.781094 
L 521.181271 -393.782783 
L 523.217148 -401.935714 
L 525.253025 -409.16159 
L 527.288902 -418.769117 
L 529.32478 -426.974566 
L 531.360657 -431.779664 
L 533.396534 -436.524188 
L 535.432411 -440.57311 
L 537.468288 -444.735217 
L 539.504165 -447.656079 
L 541.540043 -451.077371 
L 543.57592 -457.901101 
L 545.611797 -460.159166 
L 547.647674 -463.673475 
L 549.683551 -463.542318 
L 551.719428 -464.135769 
L 553.755306 -467.309502 
L 555.791183 -469.660237 
L 557.82706 -469.721578 
L 559.862937 -469.276462 
L 561.898814 -469.575005 
L 563.934691 -468.172636 
L 565.970569 -466.748078 
L 568.006446 -463.31548 
L 570.042323 -459.690691 
L 572.0782 -457.788789 
L 574.114077 -457.183146 
L 576.149954 -456.142914 
L 578.185832 -454.144726 
L 580.221709 -453.856853 
L 582.257586 -451.103597 
L 584.293463 -445.9708 
L 586.32934 -444.951579 
L 588.365217 -443.545309 
L 590.401095 -441.980371 
L 592.436972 -442.035336 
L 594.472849 -439.12738 
L 596.508726 -437.203284 
L 598.544603 -437.783467 
L 600.58048 -435.501361 
L 602.616358 -433.699298 
L 604.652235 -431.803734 
L 606.688112 -431.707977 
L 608.723989 -431.691246 
L 610.759866 -432.25949 
L 612.795743 -433.056767 
L 614.831621 -432.353328 
L 616.867498 -431.45308 
L 618.903375 -432.37287 
L 620.939252 -431.280663 
L 622.975129 -431.999768 
L 625.011006 -431.404693 
L 627.046884 -430.192003 
L 629.082761 -429.171686 
L 631.118638 -431.155848 
L 633.154515 -430.281785 
L 635.190392 -429.878345 
L 637.226269 -430.669443 
L 639.262147 -428.580112 
L 641.298024 -432.115457 
L 643.333901 -431.110723 
L 645.369778 -430.62429 
L 647.405655 -428.731672 
L 649.441532 -427.992601 
L 651.47741 -427.252898 
L 653.513287 -425.809889 
L 655.549164 -424.78627 
L 657.585041 -423.593802 
L 659.620918 -424.373271 
L 661.656795 -423.611022 
L 663.692673 -423.578944 
L 665.72855 -423.379576 
L 667.764427 -423.065381 
L 669.800304 -422.753935 
L 671.836181 -420.634772 
L 673.872058 -419.043014 
L 675.907936 -419.321167 
L 677.943813 -416.650618 
L 679.97969 -415.793954 
L 682.015567 -412.762352 
L 684.051444 -412.80843 
L 686.087321 -411.105469 
L 688.123199 -411.053364 
L 690.159076 -409.081129 
L 692.194953 -407.357513 
L 694.23083 -405.219233 
L 696.266707 -404.20724 
L 698.302584 -403.115634 
L 700.338462 -399.591305 
L 702.374339 -399.131861 
L 704.410216 -397.24941 
L 706.446093 -396.017237 
L 708.48197 -394.307763 
L 710.517847 -393.207182 
L 712.553725 -392.385564 
L 714.589602 -392.578355 
L 716.625479 -390.059586 
L 718.661356 -392.19389 
L 720.697233 -389.058202 
L 722.73311 -386.215961 
L 724.768988 -385.590894 
L 726.804865 -386.472641 
L 728.840742 -385.301183 
L 730.876619 -362.493687 
L 732.912496 -339.029497 
L 734.948373 -317.189598 
L 736.984251 -293.626707 
L 739.020128 -270.825306 
L 741.056005 -247.588251 
L 743.091882 -223.909936 
L 745.127759 -200.774701 
L 747.163636 -176.658032 
L 747.163636 -186.295472 
L 747.163636 -186.295472 
L 745.127759 -211.135849 
L 743.091882 -235.004846 
L 741.056005 -259.463399 
L 739.020128 -283.527941 
L 736.984251 -307.064682 
L 734.948373 -331.451434 
L 732.912496 -354.131346 
L 730.876619 -378.466798 
L 728.840742 -402.116823 
L 726.804865 -403.195206 
L 724.768988 -402.383354 
L 722.73311 -403.043382 
L 720.697233 -405.967833 
L 718.661356 -409.118117 
L 716.625479 -407.360315 
L 714.589602 -409.944375 
L 712.553725 -409.748142 
L 710.517847 -410.683717 
L 708.48197 -411.872607 
L 706.446093 -413.726555 
L 704.410216 -414.970112 
L 702.374339 -416.949146 
L 700.338462 -417.485892 
L 698.302584 -420.586844 
L 696.266707 -421.649938 
L 694.23083 -422.627078 
L 692.194953 -424.803095 
L 690.159076 -426.411996 
L 688.123199 -428.343717 
L 686.087321 -428.421051 
L 684.051444 -430.127666 
L 682.015567 -430.063042 
L 679.97969 -432.993483 
L 677.943813 -433.880314 
L 675.907936 -436.441375 
L 673.872058 -436.045495 
L 671.836181 -437.61699 
L 669.800304 -439.723189 
L 667.764427 -439.909095 
L 665.72855 -440.033782 
L 663.692673 -440.270756 
L 661.656795 -440.346856 
L 659.620918 -441.038639 
L 657.585041 -440.297543 
L 655.549164 -441.499859 
L 653.513287 -442.495353 
L 651.47741 -443.896235 
L 649.441532 -444.635638 
L 647.405655 -445.344145 
L 645.369778 -447.22044 
L 643.333901 -447.730141 
L 641.298024 -448.80729 
L 639.262147 -445.374756 
L 637.226269 -447.350003 
L 635.190392 -446.588441 
L 633.154515 -447.062614 
L 631.118638 -447.946847 
L 629.082761 -446.039444 
L 627.046884 -447.041413 
L 625.011006 -448.315101 
L 622.975129 -448.826423 
L 620.939252 -448.096211 
L 618.903375 -449.140969 
L 616.867498 -448.350654 
L 614.831621 -449.282993 
L 612.795743 -449.825389 
L 610.759866 -449.252207 
L 608.723989 -448.823562 
L 606.688112 -448.851162 
L 604.652235 -448.928172 
L 602.616358 -450.863022 
L 600.58048 -452.636289 
L 598.544603 -454.951647 
L 596.508726 -454.596525 
L 594.472849 -456.4111 
L 592.436972 -459.355255 
L 590.401095 -459.26349 
L 588.365217 -460.819412 
L 586.32934 -462.287493 
L 584.293463 -463.294264 
L 582.257586 -468.27274 
L 580.221709 -471.013987 
L 578.185832 -471.295625 
L 576.149954 -473.245797 
L 574.114077 -474.347432 
L 572.0782 -475.096877 
L 570.042323 -477.060378 
L 568.006446 -480.647415 
L 565.970569 -483.936969 
L 563.934691 -485.209411 
L 561.898814 -486.592018 
L 559.862937 -486.291471 
L 557.82706 -486.72 
L 555.791183 -486.697396 
L 553.755306 -484.505715 
L 551.719428 -481.311672 
L 549.683551 -480.777091 
L 547.647674 -480.906673 
L 545.611797 -477.465989 
L 543.57592 -475.215569 
L 541.540043 -468.552091 
L 539.504165 -465.209215 
L 537.468288 -462.423884 
L 535.432411 -458.513944 
L 533.396534 -454.646924 
L 531.360657 -450.190337 
L 529.32478 -445.605594 
L 527.288902 -437.74816 
L 525.253025 -428.481391 
L 523.217148 -421.360361 
L 521.181271 -413.370006 
L 519.145394 -404.629211 
L 517.109517 -398.590302 
L 515.073639 -391.803437 
L 513.037762 -384.57189 
L 511.001885 -378.776699 
L 508.966008 -374.006666 
L 506.930131 -366.230063 
L 504.894254 -360.649819 
L 502.858376 -355.428951 
L 500.822499 -350.608573 
L 498.786622 -345.81353 
L 496.750745 -341.284953 
L 494.714868 -337.634421 
L 492.678991 -333.275754 
L 490.643113 -329.01943 
L 488.607236 -326.660735 
L 486.571359 -323.724519 
L 484.535482 -323.401237 
L 482.499605 -321.975849 
L 480.463728 -319.505929 
L 478.42785 -321.67723 
L 476.391973 -319.71984 
L 474.356096 -317.964295 
L 472.320219 -317.996015 
L 470.284342 -317.764903 
L 468.248465 -315.933268 
L 466.212587 -316.049848 
L 464.17671 -315.93653 
L 462.140833 -315.021398 
L 460.104956 -314.109381 
L 458.069079 -311.657308 
L 456.033202 -311.583547 
L 453.997324 -309.627918 
L 451.961447 -308.833267 
L 449.92557 -307.877939 
L 447.889693 -306.202842 
L 445.853816 -305.696647 
L 443.817939 -303.975356 
L 441.782061 -302.463505 
L 439.746184 -304.218321 
L 437.710307 -300.122496 
L 435.67443 -298.336123 
L 433.638553 -296.769299 
L 431.602676 -294.755334 
L 429.566798 -292.711416 
L 427.530921 -289.714789 
L 425.495044 -287.637781 
L 423.459167 -284.749081 
L 421.42329 -280.986031 
L 419.387413 -278.964211 
L 417.351535 -278.261535 
L 415.315658 -274.343675 
L 413.279781 -272.687168 
L 411.243904 -269.614124 
L 409.208027 -267.531479 
L 407.17215 -264.773779 
L 405.136272 -261.834143 
L 403.100395 -259.171623 
L 401.064518 -257.395549 
L 399.028641 -254.2147 
L 396.992764 -251.992361 
L 394.956887 -249.65963 
L 392.921009 -248.026873 
L 390.885132 -245.987906 
L 388.849255 -243.440622 
L 386.813378 -242.307569 
L 384.777501 -240.156017 
L 382.741624 -239.856735 
L 380.705746 -240.788381 
L 378.669869 -237.996191 
L 376.633992 -237.323003 
L 374.598115 -236.184837 
L 372.562238 -234.978946 
L 370.526361 -234.345424 
L 368.490483 -234.255551 
L 366.454606 -233.947325 
L 364.418729 -234.237132 
L 362.382852 -234.176707 
L 360.346975 -231.559266 
L 358.311098 -229.375992 
L 356.27522 -228.935608 
L 354.239343 -232.09778 
L 352.203466 -232.120524 
L 350.167589 -233.696064 
L 348.131712 -234.320777 
L 346.095835 -234.216242 
L 344.059957 -234.782277 
L 342.02408 -236.446437 
L 339.988203 -236.583445 
L 337.952326 -237.767094 
L 335.916449 -236.337403 
L 333.880572 -236.552678 
L 331.844694 -236.701117 
L 329.808817 -236.835204 
L 327.77294 -235.817543 
L 325.737063 -236.353522 
L 323.701186 -237.36059 
L 321.665309 -237.593293 
L 319.629431 -239.003667 
L 317.593554 -240.071315 
L 315.557677 -240.758091 
L 313.5218 -237.499842 
L 311.485923 -237.634918 
L 309.450046 -236.849012 
L 307.414168 -238.78452 
L 305.378291 -239.281988 
L 303.342414 -239.761404 
L 301.306537 -238.651968 
L 299.27066 -238.680526 
L 297.234783 -237.54902 
L 295.198905 -238.537589 
L 293.163028 -240.598411 
L 291.127151 -241.753803 
L 289.091274 -242.464967 
L 287.055397 -242.637434 
L 285.01952 -241.656131 
L 282.983642 -241.756844 
L 280.947765 -245.264855 
L 278.911888 -247.271993 
L 276.876011 -248.09736 
L 274.840134 -249.648759 
L 272.804257 -252.101532 
L 270.768379 -252.850533 
L 268.732502 -254.442581 
L 266.696625 -253.280072 
L 264.660748 -254.118566 
L 262.624871 -254.766455 
L 260.588994 -254.973208 
L 258.553116 -253.490215 
L 256.517239 -256.191972 
L 254.481362 -257.658709 
L 252.445485 -257.49405 
L 250.409608 -257.664901 
L 248.373731 -257.473569 
L 246.337853 -258.679984 
L 244.301976 -259.468399 
L 242.266099 -258.525796 
L 240.230222 -254.437444 
L 238.194345 -253.945458 
L 236.158468 -254.353781 
L 234.12259 -254.212803 
L 232.086713 -252.944329 
L 230.050836 -252.696513 
L 228.014959 -249.707745 
L 225.979082 -250.411119 
L 223.943205 -251.640782 
L 221.907327 -251.255029 
L 219.87145 -253.432922 
L 217.835573 -253.749914 
L 215.799696 -252.576702 
L 213.763819 -254.012783 
L 211.727942 -255.990839 
L 209.692064 -257.018327 
L 207.656187 -256.928008 
L 205.62031 -256.767361 
L 203.584433 -257.26763 
L 201.548556 -257.513414 
L 199.512679 -258.64747 
L 197.476801 -257.729646 
L 195.440924 -256.368423 
L 193.405047 -254.916597 
L 191.36917 -255.987716 
L 189.333293 -259.186285 
L 187.297416 -261.50915 
L 185.261538 -261.657632 
L 183.225661 -260.81749 
L 181.189784 -261.47019 
L 179.153907 -261.841474 
L 177.11803 -262.799954 
L 175.082153 -262.420918 
L 173.046275 -261.551237 
L 171.010398 -260.166831 
L 168.974521 -259.275456 
L 166.938644 -264.013623 
L 164.902767 -264.884592 
L 162.86689 -265.568508 
L 160.831012 -265.747319 
L 158.795135 -265.741323 
L 156.759258 -249.834705 
L 154.723381 -233.498861 
L 152.687504 -218.406045 
L 150.651627 -201.040467 
L 148.615749 -181.400081 
L 146.579872 -164.825966 
L 144.543995 -148.119758 
L 142.508118 -131.531542 
L 140.472241 -114.784182 
L 138.436364 -95.553508 
z
" style="stroke: #ff0000; stroke-opacity: 0.3"/>
    </defs>
    <g clip-path="url(#p828ad901cc)">
     <use xlink:href="#mf0070e7103" x="0" y="576" style="fill: #ff0000; fill-opacity: 0.3; stroke: #ff0000; stroke-opacity: 0.3"/>
    </g>
   </g>
   <g id="matplotlib.axis_1">
    <g id="xtick_1">
     <g id="line2d_1">
      <path d="M 138.436364 512.64 
L 138.436364 69.12 
" clip-path="url(#p828ad901cc)" style="fill: none; stroke-dasharray: 2.96,1.28; stroke-dashoffset: 0; stroke: #b0b0b0; stroke-opacity: 0.6; stroke-width: 0.8"/>
     </g>
     <g id="line2d_2">
      <defs>
       <path id="mea83b3565c" d="M 0 0 
L 0 3.5 
" style="stroke: #000000; stroke-width: 0.8"/>
      </defs>
      <g>
       <use xlink:href="#mea83b3565c" x="138.436364" y="512.64" style="stroke: #000000; stroke-width: 0.8"/>
      </g>
     </g>
     <g id="text_1">
      <!-- −0.15 -->
      <g transform="translate(123.113707 527.238438) scale(0.1 -0.1)">
       <defs>
        <path id="DejaVuSans-2212" d="M 678 2272 
L 4684 2272 
L 4684 1741 
L 678 1741 
L 678 2272 
z
" transform="scale(0.015625)"/>
        <path id="DejaVuSans-30" d="M 2034 4250 
Q 1547 4250 1301 3770 
Q 1056 3291 1056 2328 
Q 1056 1369 1301 889 
Q 1547 409 2034 409 
Q 2525 409 2770 889 
Q 3016 1369 3016 2328 
Q 3016 3291 2770 3770 
Q 2525 4250 2034 4250 
z
M 2034 4750 
Q 2819 4750 3233 4129 
Q 3647 3509 3647 2328 
Q 3647 1150 3233 529 
Q 2819 -91 2034 -91 
Q 1250 -91 836 529 
Q 422 1150 422 2328 
Q 422 3509 836 4129 
Q 1250 4750 2034 4750 
z
" transform="scale(0.015625)"/>
        <path id="DejaVuSans-2e" d="M 684 794 
L 1344 794 
L 1344 0 
L 684 0 
L 684 794 
z
" transform="scale(0.015625)"/>
        <path id="DejaVuSans-31" d="M 794 531 
L 1825 531 
L 1825 4091 
L 703 3866 
L 703 4441 
L 1819 4666 
L 2450 4666 
L 2450 531 
L 3481 531 
L 3481 0 
L 794 0 
L 794 531 
z
" transform="scale(0.015625)"/>
        <path id="DejaVuSans-35" d="M 691 4666 
L 3169 4666 
L 3169 4134 
L 1269 4134 
L 1269 2991 
Q 1406 3038 1543 3061 
Q 1681 3084 1819 3084 
Q 2600 3084 3056 2656 
Q 3513 2228 3513 1497 
Q 3513 744 3044 326 
Q 2575 -91 1722 -91 
Q 1428 -91 1123 -41 
Q 819 9 494 109 
L 494 744 
Q 775 591 1075 516 
Q 1375 441 1709 441 
Q 2250 441 2565 725 
Q 2881 1009 2881 1497 
Q 2881 1984 2565 2268 
Q 2250 2553 1709 2553 
Q 1456 2553 1204 2497 
Q 953 2441 691 2322 
L 691 4666 
z
" transform="scale(0.015625)"/>
       </defs>
       <use xlink:href="#DejaVuSans-2212"/>
       <use xlink:href="#DejaVuSans-30" x="83.789062"/>
       <use xlink:href="#DejaVuSans-2e" x="147.412109"/>
       <use xlink:href="#DejaVuSans-31" x="179.199219"/>
       <use xlink:href="#DejaVuSans-35" x="242.822266"/>
      </g>
     </g>
    </g>
    <g id="xtick_2">
     <g id="line2d_3">
      <path d="M 240.230222 512.64 
L 240.230222 69.12 
" clip-path="url(#p828ad901cc)" style="fill: none; stroke-dasharray: 2.96,1.28; stroke-dashoffset: 0; stroke: #b0b0b0; stroke-opacity: 0.6; stroke-width: 0.8"/>
     </g>
     <g id="line2d_4">
      <g>
       <use xlink:href="#mea83b3565c" x="240.230222" y="512.64" style="stroke: #000000; stroke-width: 0.8"/>
      </g>
     </g>
     <g id="text_2">
      <!-- −0.10 -->
      <g transform="translate(224.907566 527.238438) scale(0.1 -0.1)">
       <use xlink:href="#DejaVuSans-2212"/>
       <use xlink:href="#DejaVuSans-30" x="83.789062"/>
       <use xlink:href="#DejaVuSans-2e" x="147.412109"/>
       <use xlink:href="#DejaVuSans-31" x="179.199219"/>
       <use xlink:href="#DejaVuSans-30" x="242.822266"/>
      </g>
     </g>
    </g>
    <g id="xtick_3">
     <g id="line2d_5">
      <path d="M 342.02408 512.64 
L 342.02408 69.12 
" clip-path="url(#p828ad901cc)" style="fill: none; stroke-dasharray: 2.96,1.28; stroke-dashoffset: 0; stroke: #b0b0b0; stroke-opacity: 0.6; stroke-width: 0.8"/>
     </g>
     <g id="line2d_6">
      <g>
       <use xlink:href="#mea83b3565c" x="342.02408" y="512.64" style="stroke: #000000; stroke-width: 0.8"/>
      </g>
     </g>
     <g id="text_3">
      <!-- −0.05 -->
      <g transform="translate(326.701424 527.238438) scale(0.1 -0.1)">
       <use xlink:href="#DejaVuSans-2212"/>
       <use xlink:href="#DejaVuSans-30" x="83.789062"/>
       <use xlink:href="#DejaVuSans-2e" x="147.412109"/>
       <use xlink:href="#DejaVuSans-30" x="179.199219"/>
       <use xlink:href="#DejaVuSans-35" x="242.822266"/>
      </g>
     </g>
    </g>
    <g id="xtick_4">
     <g id="line2d_7">
      <path d="M 443.817939 512.64 
L 443.817939 69.12 
" clip-path="url(#p828ad901cc)" style="fill: none; stroke-dasharray: 2.96,1.28; stroke-dashoffset: 0; stroke: #b0b0b0; stroke-opacity: 0.6; stroke-width: 0.8"/>
     </g>
     <g id="line2d_8">
      <g>
       <use xlink:href="#mea83b3565c" x="443.817939" y="512.64" style="stroke: #000000; stroke-width: 0.8"/>
      </g>
     </g>
     <g id="text_4">
      <!-- 0.00 -->
      <g transform="translate(432.685126 527.238438) scale(0.1 -0.1)">
       <use xlink:href="#DejaVuSans-30"/>
       <use xlink:href="#DejaVuSans-2e" x="63.623047"/>
       <use xlink:href="#DejaVuSans-30" x="95.410156"/>
       <use xlink:href="#DejaVuSans-30" x="159.033203"/>
      </g>
     </g>
    </g>
    <g id="xtick_5">
     <g id="line2d_9">
      <path d="M 545.611797 512.64 
L 545.611797 69.12 
" clip-path="url(#p828ad901cc)" style="fill: none; stroke-dasharray: 2.96,1.28; stroke-dashoffset: 0; stroke: #b0b0b0; stroke-opacity: 0.6; stroke-width: 0.8"/>
     </g>
     <g id="line2d_10">
      <g>
       <use xlink:href="#mea83b3565c" x="545.611797" y="512.64" style="stroke: #000000; stroke-width: 0.8"/>
      </g>
     </g>
     <g id="text_5">
      <!-- 0.05 -->
      <g transform="translate(534.478984 527.238438) scale(0.1 -0.1)">
       <use xlink:href="#DejaVuSans-30"/>
       <use xlink:href="#DejaVuSans-2e" x="63.623047"/>
       <use xlink:href="#DejaVuSans-30" x="95.410156"/>
       <use xlink:href="#DejaVuSans-35" x="159.033203"/>
      </g>
     </g>
    </g>
    <g id="xtick_6">
     <g id="line2d_11">
      <path d="M 647.405655 512.64 
L 647.405655 69.12 
" clip-path="url(#p828ad901cc)" style="fill: none; stroke-dasharray: 2.96,1.28; stroke-dashoffset: 0; stroke: #b0b0b0; stroke-opacity: 0.6; stroke-width: 0.8"/>
     </g>
     <g id="line2d_12">
      <g>
       <use xlink:href="#mea83b3565c" x="647.405655" y="512.64" style="stroke: #000000; stroke-width: 0.8"/>
      </g>
     </g>
     <g id="text_6">
      <!-- 0.10 -->
      <g transform="translate(636.272843 527.238438) scale(0.1 -0.1)">
       <use xlink:href="#DejaVuSans-30"/>
       <use xlink:href="#DejaVuSans-2e" x="63.623047"/>
       <use xlink:href="#DejaVuSans-31" x="95.410156"/>
       <use xlink:href="#DejaVuSans-30" x="159.033203"/>
      </g>
     </g>
    </g>
    <g id="xtick_7">
     <g id="line2d_13">
      <path d="M 749.199514 512.64 
L 749.199514 69.12 
" clip-path="url(#p828ad901cc)" style="fill: none; stroke-dasharray: 2.96,1.28; stroke-dashoffset: 0; stroke: #b0b0b0; stroke-opacity: 0.6; stroke-width: 0.8"/>
     </g>
     <g id="line2d_14">
      <g>
       <use xlink:href="#mea83b3565c" x="749.199514" y="512.64" style="stroke: #000000; stroke-width: 0.8"/>
      </g>
     </g>
     <g id="text_7">
      <!-- 0.15 -->
      <g transform="translate(738.066701 527.238438) scale(0.1 -0.1)">
       <use xlink:href="#DejaVuSans-30"/>
       <use xlink:href="#DejaVuSans-2e" x="63.623047"/>
       <use xlink:href="#DejaVuSans-31" x="95.410156"/>
       <use xlink:href="#DejaVuSans-35" x="159.033203"/>
      </g>
     </g>
    </g>
    <g id="text_8">
     <!-- Time (s) -->
     <g transform="translate(414.339531 543.955938) scale(0.14 -0.14)">
      <defs>
       <path id="DejaVuSans-54" d="M -19 4666 
L 3928 4666 
L 3928 4134 
L 2272 4134 
L 2272 0 
L 1638 0 
L 1638 4134 
L -19 4134 
L -19 4666 
z
" transform="scale(0.015625)"/>
       <path id="DejaVuSans-69" d="M 603 3500 
L 1178 3500 
L 1178 0 
L 603 0 
L 603 3500 
z
M 603 4863 
L 1178 4863 
L 1178 4134 
L 603 4134 
L 603 4863 
z
" transform="scale(0.015625)"/>
       <path id="DejaVuSans-6d" d="M 3328 2828 
Q 3544 3216 3844 3400 
Q 4144 3584 4550 3584 
Q 5097 3584 5394 3201 
Q 5691 2819 5691 2113 
L 5691 0 
L 5113 0 
L 5113 2094 
Q 5113 2597 4934 2840 
Q 4756 3084 4391 3084 
Q 3944 3084 3684 2787 
Q 3425 2491 3425 1978 
L 3425 0 
L 2847 0 
L 2847 2094 
Q 2847 2600 2669 2842 
Q 2491 3084 2119 3084 
Q 1678 3084 1418 2786 
Q 1159 2488 1159 1978 
L 1159 0 
L 581 0 
L 581 3500 
L 1159 3500 
L 1159 2956 
Q 1356 3278 1631 3431 
Q 1906 3584 2284 3584 
Q 2666 3584 2933 3390 
Q 3200 3197 3328 2828 
z
" transform="scale(0.015625)"/>
       <path id="DejaVuSans-65" d="M 3597 1894 
L 3597 1613 
L 953 1613 
Q 991 1019 1311 708 
Q 1631 397 2203 397 
Q 2534 397 2845 478 
Q 3156 559 3463 722 
L 3463 178 
Q 3153 47 2828 -22 
Q 2503 -91 2169 -91 
Q 1331 -91 842 396 
Q 353 884 353 1716 
Q 353 2575 817 3079 
Q 1281 3584 2069 3584 
Q 2775 3584 3186 3129 
Q 3597 2675 3597 1894 
z
M 3022 2063 
Q 3016 2534 2758 2815 
Q 2500 3097 2075 3097 
Q 1594 3097 1305 2825 
Q 1016 2553 972 2059 
L 3022 2063 
z
" transform="scale(0.015625)"/>
       <path id="DejaVuSans-20" transform="scale(0.015625)"/>
       <path id="DejaVuSans-28" d="M 1984 4856 
Q 1566 4138 1362 3434 
Q 1159 2731 1159 2009 
Q 1159 1288 1364 580 
Q 1569 -128 1984 -844 
L 1484 -844 
Q 1016 -109 783 600 
Q 550 1309 550 2009 
Q 550 2706 781 3412 
Q 1013 4119 1484 4856 
L 1984 4856 
z
" transform="scale(0.015625)"/>
       <path id="DejaVuSans-73" d="M 2834 3397 
L 2834 2853 
Q 2591 2978 2328 3040 
Q 2066 3103 1784 3103 
Q 1356 3103 1142 2972 
Q 928 2841 928 2578 
Q 928 2378 1081 2264 
Q 1234 2150 1697 2047 
L 1894 2003 
Q 2506 1872 2764 1633 
Q 3022 1394 3022 966 
Q 3022 478 2636 193 
Q 2250 -91 1575 -91 
Q 1294 -91 989 -36 
Q 684 19 347 128 
L 347 722 
Q 666 556 975 473 
Q 1284 391 1588 391 
Q 1994 391 2212 530 
Q 2431 669 2431 922 
Q 2431 1156 2273 1281 
Q 2116 1406 1581 1522 
L 1381 1569 
Q 847 1681 609 1914 
Q 372 2147 372 2553 
Q 372 3047 722 3315 
Q 1072 3584 1716 3584 
Q 2034 3584 2315 3537 
Q 2597 3491 2834 3397 
z
" transform="scale(0.015625)"/>
       <path id="DejaVuSans-29" d="M 513 4856 
L 1013 4856 
Q 1481 4119 1714 3412 
Q 1947 2706 1947 2009 
Q 1947 1309 1714 600 
Q 1481 -109 1013 -844 
L 513 -844 
Q 928 -128 1133 580 
Q 1338 1288 1338 2009 
Q 1338 2731 1133 3434 
Q 928 4138 513 4856 
z
" transform="scale(0.015625)"/>
      </defs>
      <use xlink:href="#DejaVuSans-54"/>
      <use xlink:href="#DejaVuSans-69" x="57.958984"/>
      <use xlink:href="#DejaVuSans-6d" x="85.742188"/>
      <use xlink:href="#DejaVuSans-65" x="183.154297"/>
      <use xlink:href="#DejaVuSans-20" x="244.677734"/>
      <use xlink:href="#DejaVuSans-28" x="276.464844"/>
      <use xlink:href="#DejaVuSans-73" x="315.478516"/>
      <use xlink:href="#DejaVuSans-29" x="367.578125"/>
     </g>
    </g>
   </g>
   <g id="matplotlib.axis_2">
    <g id="ytick_1">
     <g id="line2d_15">
      <path d="M 108 476.697325 
L 777.6 476.697325 
" clip-path="url(#p828ad901cc)" style="fill: none; stroke-dasharray: 2.96,1.28; stroke-dashoffset: 0; stroke: #b0b0b0; stroke-opacity: 0.6; stroke-width: 0.8"/>
     </g>
     <g id="line2d_16">
      <defs>
       <path id="m5112fe6dc7" d="M 0 0 
L -3.5 0 
" style="stroke: #000000; stroke-width: 0.8"/>
      </defs>
      <g>
       <use xlink:href="#m5112fe6dc7" x="108" y="476.697325" style="stroke: #000000; stroke-width: 0.8"/>
      </g>
     </g>
     <g id="text_9">
      <!-- 0.2 -->
      <g transform="translate(85.096875 480.496543) scale(0.1 -0.1)">
       <defs>
        <path id="DejaVuSans-32" d="M 1228 531 
L 3431 531 
L 3431 0 
L 469 0 
L 469 531 
Q 828 903 1448 1529 
Q 2069 2156 2228 2338 
Q 2531 2678 2651 2914 
Q 2772 3150 2772 3378 
Q 2772 3750 2511 3984 
Q 2250 4219 1831 4219 
Q 1534 4219 1204 4116 
Q 875 4013 500 3803 
L 500 4441 
Q 881 4594 1212 4672 
Q 1544 4750 1819 4750 
Q 2544 4750 2975 4387 
Q 3406 4025 3406 3419 
Q 3406 3131 3298 2873 
Q 3191 2616 2906 2266 
Q 2828 2175 2409 1742 
Q 1991 1309 1228 531 
z
" transform="scale(0.015625)"/>
       </defs>
       <use xlink:href="#DejaVuSans-30"/>
       <use xlink:href="#DejaVuSans-2e" x="63.623047"/>
       <use xlink:href="#DejaVuSans-32" x="95.410156"/>
      </g>
     </g>
    </g>
    <g id="ytick_2">
     <g id="line2d_17">
      <path d="M 108 388.918328 
L 777.6 388.918328 
" clip-path="url(#p828ad901cc)" style="fill: none; stroke-dasharray: 2.96,1.28; stroke-dashoffset: 0; stroke: #b0b0b0; stroke-opacity: 0.6; stroke-width: 0.8"/>
     </g>
     <g id="line2d_18">
      <g>
       <use xlink:href="#m5112fe6dc7" x="108" y="388.918328" style="stroke: #000000; stroke-width: 0.8"/>
      </g>
     </g>
     <g id="text_10">
      <!-- 0.3 -->
      <g transform="translate(85.096875 392.717547) scale(0.1 -0.1)">
       <defs>
        <path id="DejaVuSans-33" d="M 2597 2516 
Q 3050 2419 3304 2112 
Q 3559 1806 3559 1356 
Q 3559 666 3084 287 
Q 2609 -91 1734 -91 
Q 1441 -91 1130 -33 
Q 819 25 488 141 
L 488 750 
Q 750 597 1062 519 
Q 1375 441 1716 441 
Q 2309 441 2620 675 
Q 2931 909 2931 1356 
Q 2931 1769 2642 2001 
Q 2353 2234 1838 2234 
L 1294 2234 
L 1294 2753 
L 1863 2753 
Q 2328 2753 2575 2939 
Q 2822 3125 2822 3475 
Q 2822 3834 2567 4026 
Q 2313 4219 1838 4219 
Q 1578 4219 1281 4162 
Q 984 4106 628 3988 
L 628 4550 
Q 988 4650 1302 4700 
Q 1616 4750 1894 4750 
Q 2613 4750 3031 4423 
Q 3450 4097 3450 3541 
Q 3450 3153 3228 2886 
Q 3006 2619 2597 2516 
z
" transform="scale(0.015625)"/>
       </defs>
       <use xlink:href="#DejaVuSans-30"/>
       <use xlink:href="#DejaVuSans-2e" x="63.623047"/>
       <use xlink:href="#DejaVuSans-33" x="95.410156"/>
      </g>
     </g>
    </g>
    <g id="ytick_3">
     <g id="line2d_19">
      <path d="M 108 301.139331 
L 777.6 301.139331 
" clip-path="url(#p828ad901cc)" style="fill: none; stroke-dasharray: 2.96,1.28; stroke-dashoffset: 0; stroke: #b0b0b0; stroke-opacity: 0.6; stroke-width: 0.8"/>
     </g>
     <g id="line2d_20">
      <g>
       <use xlink:href="#m5112fe6dc7" x="108" y="301.139331" style="stroke: #000000; stroke-width: 0.8"/>
      </g>
     </g>
     <g id="text_11">
      <!-- 0.4 -->
      <g transform="translate(85.096875 304.93855) scale(0.1 -0.1)">
       <defs>
        <path id="DejaVuSans-34" d="M 2419 4116 
L 825 1625 
L 2419 1625 
L 2419 4116 
z
M 2253 4666 
L 3047 4666 
L 3047 1625 
L 3713 1625 
L 3713 1100 
L 3047 1100 
L 3047 0 
L 2419 0 
L 2419 1100 
L 313 1100 
L 313 1709 
L 2253 4666 
z
" transform="scale(0.015625)"/>
       </defs>
       <use xlink:href="#DejaVuSans-30"/>
       <use xlink:href="#DejaVuSans-2e" x="63.623047"/>
       <use xlink:href="#DejaVuSans-34" x="95.410156"/>
      </g>
     </g>
    </g>
    <g id="ytick_4">
     <g id="line2d_21">
      <path d="M 108 213.360334 
L 777.6 213.360334 
" clip-path="url(#p828ad901cc)" style="fill: none; stroke-dasharray: 2.96,1.28; stroke-dashoffset: 0; stroke: #b0b0b0; stroke-opacity: 0.6; stroke-width: 0.8"/>
     </g>
     <g id="line2d_22">
      <g>
       <use xlink:href="#m5112fe6dc7" x="108" y="213.360334" style="stroke: #000000; stroke-width: 0.8"/>
      </g>
     </g>
     <g id="text_12">
      <!-- 0.5 -->
      <g transform="translate(85.096875 217.159553) scale(0.1 -0.1)">
       <use xlink:href="#DejaVuSans-30"/>
       <use xlink:href="#DejaVuSans-2e" x="63.623047"/>
       <use xlink:href="#DejaVuSans-35" x="95.410156"/>
      </g>
     </g>
    </g>
    <g id="ytick_5">
     <g id="line2d_23">
      <path d="M 108 125.581337 
L 777.6 125.581337 
" clip-path="url(#p828ad901cc)" style="fill: none; stroke-dasharray: 2.96,1.28; stroke-dashoffset: 0; stroke: #b0b0b0; stroke-opacity: 0.6; stroke-width: 0.8"/>
     </g>
     <g id="line2d_24">
      <g>
       <use xlink:href="#m5112fe6dc7" x="108" y="125.581337" style="stroke: #000000; stroke-width: 0.8"/>
      </g>
     </g>
     <g id="text_13">
      <!-- 0.6 -->
      <g transform="translate(85.096875 129.380556) scale(0.1 -0.1)">
       <defs>
        <path id="DejaVuSans-36" d="M 2113 2584 
Q 1688 2584 1439 2293 
Q 1191 2003 1191 1497 
Q 1191 994 1439 701 
Q 1688 409 2113 409 
Q 2538 409 2786 701 
Q 3034 994 3034 1497 
Q 3034 2003 2786 2293 
Q 2538 2584 2113 2584 
z
M 3366 4563 
L 3366 3988 
Q 3128 4100 2886 4159 
Q 2644 4219 2406 4219 
Q 1781 4219 1451 3797 
Q 1122 3375 1075 2522 
Q 1259 2794 1537 2939 
Q 1816 3084 2150 3084 
Q 2853 3084 3261 2657 
Q 3669 2231 3669 1497 
Q 3669 778 3244 343 
Q 2819 -91 2113 -91 
Q 1303 -91 875 529 
Q 447 1150 447 2328 
Q 447 3434 972 4092 
Q 1497 4750 2381 4750 
Q 2619 4750 2861 4703 
Q 3103 4656 3366 4563 
z
" transform="scale(0.015625)"/>
       </defs>
       <use xlink:href="#DejaVuSans-30"/>
       <use xlink:href="#DejaVuSans-2e" x="63.623047"/>
       <use xlink:href="#DejaVuSans-36" x="95.410156"/>
      </g>
     </g>
    </g>
    <g id="text_14">
     <!-- Normalized Spike Rate -->
     <g transform="translate(78.185312 370.013906) rotate(-90) scale(0.14 -0.14)">
      <defs>
       <path id="DejaVuSans-4e" d="M 628 4666 
L 1478 4666 
L 3547 763 
L 3547 4666 
L 4159 4666 
L 4159 0 
L 3309 0 
L 1241 3903 
L 1241 0 
L 628 0 
L 628 4666 
z
" transform="scale(0.015625)"/>
       <path id="DejaVuSans-6f" d="M 1959 3097 
Q 1497 3097 1228 2736 
Q 959 2375 959 1747 
Q 959 1119 1226 758 
Q 1494 397 1959 397 
Q 2419 397 2687 759 
Q 2956 1122 2956 1747 
Q 2956 2369 2687 2733 
Q 2419 3097 1959 3097 
z
M 1959 3584 
Q 2709 3584 3137 3096 
Q 3566 2609 3566 1747 
Q 3566 888 3137 398 
Q 2709 -91 1959 -91 
Q 1206 -91 779 398 
Q 353 888 353 1747 
Q 353 2609 779 3096 
Q 1206 3584 1959 3584 
z
" transform="scale(0.015625)"/>
       <path id="DejaVuSans-72" d="M 2631 2963 
Q 2534 3019 2420 3045 
Q 2306 3072 2169 3072 
Q 1681 3072 1420 2755 
Q 1159 2438 1159 1844 
L 1159 0 
L 581 0 
L 581 3500 
L 1159 3500 
L 1159 2956 
Q 1341 3275 1631 3429 
Q 1922 3584 2338 3584 
Q 2397 3584 2469 3576 
Q 2541 3569 2628 3553 
L 2631 2963 
z
" transform="scale(0.015625)"/>
       <path id="DejaVuSans-61" d="M 2194 1759 
Q 1497 1759 1228 1600 
Q 959 1441 959 1056 
Q 959 750 1161 570 
Q 1363 391 1709 391 
Q 2188 391 2477 730 
Q 2766 1069 2766 1631 
L 2766 1759 
L 2194 1759 
z
M 3341 1997 
L 3341 0 
L 2766 0 
L 2766 531 
Q 2569 213 2275 61 
Q 1981 -91 1556 -91 
Q 1019 -91 701 211 
Q 384 513 384 1019 
Q 384 1609 779 1909 
Q 1175 2209 1959 2209 
L 2766 2209 
L 2766 2266 
Q 2766 2663 2505 2880 
Q 2244 3097 1772 3097 
Q 1472 3097 1187 3025 
Q 903 2953 641 2809 
L 641 3341 
Q 956 3463 1253 3523 
Q 1550 3584 1831 3584 
Q 2591 3584 2966 3190 
Q 3341 2797 3341 1997 
z
" transform="scale(0.015625)"/>
       <path id="DejaVuSans-6c" d="M 603 4863 
L 1178 4863 
L 1178 0 
L 603 0 
L 603 4863 
z
" transform="scale(0.015625)"/>
       <path id="DejaVuSans-7a" d="M 353 3500 
L 3084 3500 
L 3084 2975 
L 922 459 
L 3084 459 
L 3084 0 
L 275 0 
L 275 525 
L 2438 3041 
L 353 3041 
L 353 3500 
z
" transform="scale(0.015625)"/>
       <path id="DejaVuSans-64" d="M 2906 2969 
L 2906 4863 
L 3481 4863 
L 3481 0 
L 2906 0 
L 2906 525 
Q 2725 213 2448 61 
Q 2172 -91 1784 -91 
Q 1150 -91 751 415 
Q 353 922 353 1747 
Q 353 2572 751 3078 
Q 1150 3584 1784 3584 
Q 2172 3584 2448 3432 
Q 2725 3281 2906 2969 
z
M 947 1747 
Q 947 1113 1208 752 
Q 1469 391 1925 391 
Q 2381 391 2643 752 
Q 2906 1113 2906 1747 
Q 2906 2381 2643 2742 
Q 2381 3103 1925 3103 
Q 1469 3103 1208 2742 
Q 947 2381 947 1747 
z
" transform="scale(0.015625)"/>
       <path id="DejaVuSans-53" d="M 3425 4513 
L 3425 3897 
Q 3066 4069 2747 4153 
Q 2428 4238 2131 4238 
Q 1616 4238 1336 4038 
Q 1056 3838 1056 3469 
Q 1056 3159 1242 3001 
Q 1428 2844 1947 2747 
L 2328 2669 
Q 3034 2534 3370 2195 
Q 3706 1856 3706 1288 
Q 3706 609 3251 259 
Q 2797 -91 1919 -91 
Q 1588 -91 1214 -16 
Q 841 59 441 206 
L 441 856 
Q 825 641 1194 531 
Q 1563 422 1919 422 
Q 2459 422 2753 634 
Q 3047 847 3047 1241 
Q 3047 1584 2836 1778 
Q 2625 1972 2144 2069 
L 1759 2144 
Q 1053 2284 737 2584 
Q 422 2884 422 3419 
Q 422 4038 858 4394 
Q 1294 4750 2059 4750 
Q 2388 4750 2728 4690 
Q 3069 4631 3425 4513 
z
" transform="scale(0.015625)"/>
       <path id="DejaVuSans-70" d="M 1159 525 
L 1159 -1331 
L 581 -1331 
L 581 3500 
L 1159 3500 
L 1159 2969 
Q 1341 3281 1617 3432 
Q 1894 3584 2278 3584 
Q 2916 3584 3314 3078 
Q 3713 2572 3713 1747 
Q 3713 922 3314 415 
Q 2916 -91 2278 -91 
Q 1894 -91 1617 61 
Q 1341 213 1159 525 
z
M 3116 1747 
Q 3116 2381 2855 2742 
Q 2594 3103 2138 3103 
Q 1681 3103 1420 2742 
Q 1159 2381 1159 1747 
Q 1159 1113 1420 752 
Q 1681 391 2138 391 
Q 2594 391 2855 752 
Q 3116 1113 3116 1747 
z
" transform="scale(0.015625)"/>
       <path id="DejaVuSans-6b" d="M 581 4863 
L 1159 4863 
L 1159 1991 
L 2875 3500 
L 3609 3500 
L 1753 1863 
L 3688 0 
L 2938 0 
L 1159 1709 
L 1159 0 
L 581 0 
L 581 4863 
z
" transform="scale(0.015625)"/>
       <path id="DejaVuSans-52" d="M 2841 2188 
Q 3044 2119 3236 1894 
Q 3428 1669 3622 1275 
L 4263 0 
L 3584 0 
L 2988 1197 
Q 2756 1666 2539 1819 
Q 2322 1972 1947 1972 
L 1259 1972 
L 1259 0 
L 628 0 
L 628 4666 
L 2053 4666 
Q 2853 4666 3247 4331 
Q 3641 3997 3641 3322 
Q 3641 2881 3436 2590 
Q 3231 2300 2841 2188 
z
M 1259 4147 
L 1259 2491 
L 2053 2491 
Q 2509 2491 2742 2702 
Q 2975 2913 2975 3322 
Q 2975 3731 2742 3939 
Q 2509 4147 2053 4147 
L 1259 4147 
z
" transform="scale(0.015625)"/>
       <path id="DejaVuSans-74" d="M 1172 4494 
L 1172 3500 
L 2356 3500 
L 2356 3053 
L 1172 3053 
L 1172 1153 
Q 1172 725 1289 603 
Q 1406 481 1766 481 
L 2356 481 
L 2356 0 
L 1766 0 
Q 1100 0 847 248 
Q 594 497 594 1153 
L 594 3053 
L 172 3053 
L 172 3500 
L 594 3500 
L 594 4494 
L 1172 4494 
z
" transform="scale(0.015625)"/>
      </defs>
      <use xlink:href="#DejaVuSans-4e"/>
      <use xlink:href="#DejaVuSans-6f" x="74.804688"/>
      <use xlink:href="#DejaVuSans-72" x="135.986328"/>
      <use xlink:href="#DejaVuSans-6d" x="175.349609"/>
      <use xlink:href="#DejaVuSans-61" x="272.761719"/>
      <use xlink:href="#DejaVuSans-6c" x="334.041016"/>
      <use xlink:href="#DejaVuSans-69" x="361.824219"/>
      <use xlink:href="#DejaVuSans-7a" x="389.607422"/>
      <use xlink:href="#DejaVuSans-65" x="442.097656"/>
      <use xlink:href="#DejaVuSans-64" x="503.621094"/>
      <use xlink:href="#DejaVuSans-20" x="567.097656"/>
      <use xlink:href="#DejaVuSans-53" x="598.884766"/>
      <use xlink:href="#DejaVuSans-70" x="662.361328"/>
      <use xlink:href="#DejaVuSans-69" x="725.837891"/>
      <use xlink:href="#DejaVuSans-6b" x="753.621094"/>
      <use xlink:href="#DejaVuSans-65" x="807.90625"/>
      <use xlink:href="#DejaVuSans-20" x="869.429688"/>
      <use xlink:href="#DejaVuSans-52" x="901.216797"/>
      <use xlink:href="#DejaVuSans-61" x="968.449219"/>
      <use xlink:href="#DejaVuSans-74" x="1029.728516"/>
      <use xlink:href="#DejaVuSans-65" x="1068.9375"/>
     </g>
    </g>
   </g>
   <g id="line2d_25">
    <path d="M 138.436364 487.440434 
L 140.472241 472.049394 
L 144.543995 438.791663 
L 148.615749 407.989681 
L 158.795135 328.487444 
L 162.86689 332.708251 
L 164.902767 334.48214 
L 166.938644 333.123611 
L 168.974521 332.594617 
L 171.010398 332.45168 
L 173.046275 333.06077 
L 175.082153 335.351355 
L 177.11803 334.970948 
L 179.153907 336.388132 
L 181.189784 336.780923 
L 183.225661 337.436557 
L 185.261538 338.765483 
L 187.297416 338.616945 
L 189.333293 336.798669 
L 191.36917 337.682314 
L 195.440924 338.792743 
L 197.476801 337.878475 
L 199.512679 339.063947 
L 201.548556 339.21525 
L 203.584433 338.566143 
L 205.62031 337.479666 
L 207.656187 337.868327 
L 209.692064 339.551528 
L 211.727942 338.639333 
L 215.799696 337.488862 
L 219.87145 339.477799 
L 221.907327 338.806784 
L 223.943205 339.694755 
L 225.979082 340.398101 
L 228.014959 340.252714 
L 230.050836 342.619623 
L 232.086713 342.466022 
L 234.12259 342.452317 
L 236.158468 342.971577 
L 238.194345 344.120365 
L 240.230222 343.488923 
L 242.266099 344.635859 
L 244.301976 345.601031 
L 246.337853 345.484008 
L 248.373731 347.096555 
L 250.409608 346.879483 
L 254.481362 347.738835 
L 256.517239 348.79767 
L 260.588994 346.691673 
L 262.624871 347.064499 
L 264.660748 348.71051 
L 266.696625 347.061704 
L 268.732502 345.148183 
L 270.768379 342.380834 
L 274.840134 343.169033 
L 276.876011 342.940089 
L 278.911888 344.980754 
L 280.947765 344.255684 
L 282.983642 341.994135 
L 285.01952 340.407382 
L 287.055397 340.117536 
L 289.091274 339.989306 
L 291.127151 340.917312 
L 293.163028 340.631116 
L 295.198905 341.010762 
L 297.234783 340.9085 
L 299.27066 341.807358 
L 301.306537 342.493368 
L 303.342414 342.439745 
L 305.378291 340.921136 
L 307.414168 342.394188 
L 309.450046 345.366221 
L 311.485923 345.00475 
L 315.557677 345.2045 
L 317.593554 345.487277 
L 319.629431 345.27856 
L 321.665309 346.920672 
L 323.701186 350.152674 
L 325.737063 352.022905 
L 327.77294 354.118173 
L 329.808817 354.088484 
L 331.844694 352.58325 
L 333.880572 355.040408 
L 335.916449 355.729649 
L 337.952326 356.780709 
L 339.988203 358.024822 
L 342.02408 356.779986 
L 344.059957 357.026036 
L 346.095835 356.804989 
L 348.131712 356.926311 
L 350.167589 357.230763 
L 352.203466 358.736686 
L 354.239343 359.728024 
L 356.27522 360.368179 
L 358.311098 360.667305 
L 360.346975 359.279291 
L 362.382852 359.812676 
L 364.418729 358.933536 
L 366.454606 358.578054 
L 370.526361 358.765052 
L 372.562238 360.587665 
L 374.598115 360.439736 
L 378.669869 358.218553 
L 380.705746 356.779251 
L 382.741624 356.491804 
L 384.777501 356.943706 
L 386.813378 355.007767 
L 388.849255 354.385251 
L 390.885132 353.372385 
L 392.921009 353.482072 
L 394.956887 350.055778 
L 396.992764 347.784755 
L 403.100395 341.708348 
L 407.17215 332.602274 
L 409.208027 328.797352 
L 411.243904 325.594491 
L 413.279781 321.209421 
L 415.315658 319.016799 
L 417.351535 314.710766 
L 419.387413 311.131142 
L 421.42329 308.641756 
L 423.459167 306.62493 
L 425.495044 303.249005 
L 427.530921 302.466305 
L 429.566798 299.984579 
L 431.602676 296.967661 
L 437.710307 291.696135 
L 439.746184 290.340328 
L 441.782061 289.415783 
L 443.817939 285.206336 
L 445.853816 286.849722 
L 447.889693 287.8142 
L 449.92557 287.098015 
L 451.961447 287.633249 
L 453.997324 288.671309 
L 456.033202 286.997907 
L 458.069079 288.944956 
L 460.104956 289.587668 
L 462.140833 289.115704 
L 464.17671 290.319339 
L 466.212587 290.443458 
L 468.248465 291.551655 
L 470.284342 289.950862 
L 472.320219 290.534423 
L 474.356096 288.858935 
L 476.391973 289.175413 
L 478.42785 288.080921 
L 480.463728 286.488766 
L 482.499605 285.478805 
L 484.535482 285.883769 
L 486.571359 284.45368 
L 488.607236 282.347665 
L 490.643113 282.248304 
L 492.678991 279.291303 
L 494.714868 277.449452 
L 496.750745 274.108379 
L 498.786622 269.60068 
L 500.822499 266.013341 
L 502.858376 261.512383 
L 504.894254 256.454137 
L 506.930131 251.016055 
L 508.966008 244.519915 
L 511.001885 240.451271 
L 513.037762 235.369756 
L 515.073639 231.050253 
L 517.109517 222.912503 
L 519.145394 216.462956 
L 521.181271 209.564714 
L 523.217148 202.175649 
L 525.253025 196.324033 
L 527.288902 189.063993 
L 529.32478 184.116717 
L 531.360657 176.597774 
L 533.396534 169.93076 
L 535.432411 162.750434 
L 539.504165 154.491853 
L 541.540043 150.130073 
L 543.57592 143.745757 
L 547.647674 135.004649 
L 549.683551 131.258031 
L 553.755306 125.12118 
L 555.791183 122.550701 
L 557.82706 123.09802 
L 559.862937 120.335904 
L 561.898814 122.784556 
L 563.934691 123.588438 
L 568.006446 123.892163 
L 570.042323 123.930396 
L 572.0782 125.96674 
L 574.114077 127.492321 
L 576.149954 129.241462 
L 578.185832 129.223814 
L 580.221709 129.772303 
L 582.257586 131.24457 
L 584.293463 134.92951 
L 586.32934 135.782985 
L 588.365217 138.424697 
L 590.401095 139.23692 
L 592.436972 140.380558 
L 594.472849 141.099145 
L 596.508726 141.173696 
L 598.544603 141.764974 
L 600.58048 143.987116 
L 602.616358 142.972444 
L 604.652235 144.241442 
L 606.688112 144.9506 
L 608.723989 145.204855 
L 610.759866 145.614668 
L 612.795743 144.929381 
L 614.831621 145.143006 
L 616.867498 144.80073 
L 618.903375 145.654243 
L 620.939252 146.164222 
L 622.975129 145.119782 
L 625.011006 144.409531 
L 627.046884 143.8752 
L 629.082761 143.995402 
L 631.118638 146.708979 
L 633.154515 146.341401 
L 635.190392 146.407131 
L 637.226269 145.459389 
L 639.262147 145.054642 
L 641.298024 146.330849 
L 643.333901 146.377709 
L 645.369778 145.783224 
L 647.405655 146.575297 
L 649.441532 147.526716 
L 653.513287 147.931225 
L 655.549164 147.972907 
L 657.585041 147.894215 
L 659.620918 148.622847 
L 661.656795 149.020988 
L 663.692673 148.434029 
L 667.764427 151.910647 
L 669.800304 151.650105 
L 671.836181 149.819131 
L 673.872058 149.091977 
L 675.907936 149.974333 
L 677.943813 151.523805 
L 679.97969 152.656814 
L 682.015567 152.771604 
L 686.087321 153.751207 
L 688.123199 154.804913 
L 690.159076 155.993301 
L 692.194953 156.852028 
L 696.266707 159.383414 
L 698.302584 161.835371 
L 702.374339 164.47575 
L 704.410216 168.650385 
L 706.446093 169.393714 
L 708.48197 170.7321 
L 710.517847 171.848469 
L 712.553725 173.632681 
L 714.589602 177.413399 
L 716.625479 178.553301 
L 718.661356 179.908217 
L 720.697233 183.115234 
L 722.73311 185.198378 
L 724.768988 185.959217 
L 728.840742 186.97657 
L 743.091882 351.311205 
L 747.163636 396.887569 
L 747.163636 396.887569 
" clip-path="url(#p828ad901cc)" style="fill: none; stroke: #0000ff; stroke-width: 3; stroke-linecap: square"/>
   </g>
   <g id="line2d_26">
    <path d="M 138.436364 485.465915 
L 140.472241 466.870369 
L 148.615749 401.857255 
L 150.651627 382.735797 
L 152.687504 365.785121 
L 154.723381 351.068463 
L 158.795135 319.620962 
L 160.831012 319.621923 
L 162.86689 319.740369 
L 164.902767 320.407711 
L 166.938644 321.256751 
L 168.974521 325.812602 
L 171.010398 324.953408 
L 173.046275 323.666596 
L 175.082153 322.846807 
L 177.11803 322.50865 
L 179.153907 323.41888 
L 181.189784 323.717791 
L 183.225661 324.375973 
L 185.261538 323.533765 
L 187.297416 323.724512 
L 189.333293 326.010077 
L 191.36917 329.082858 
L 193.405047 330.135266 
L 197.476801 327.331975 
L 199.512679 326.417856 
L 201.548556 327.525402 
L 203.584433 327.808252 
L 205.62031 328.293563 
L 209.692064 328.091491 
L 211.727942 329.063123 
L 213.763819 330.975401 
L 215.799696 332.459011 
L 217.835573 331.287978 
L 219.87145 331.611232 
L 221.907327 333.702935 
L 223.943205 333.292726 
L 225.979082 334.530685 
L 228.014959 335.18873 
L 230.050836 332.208399 
L 232.086713 331.931812 
L 234.12259 330.68906 
L 236.158468 330.547316 
L 238.194345 330.950996 
L 240.230222 330.437668 
L 242.266099 326.339061 
L 244.301976 325.387012 
L 246.337853 326.152725 
L 248.373731 327.357977 
L 250.409608 327.254842 
L 252.445485 327.421508 
L 254.481362 327.27664 
L 256.517239 328.757026 
L 258.553116 331.439644 
L 260.588994 330.001321 
L 262.624871 330.179206 
L 264.660748 330.842712 
L 266.696625 331.644575 
L 268.732502 330.557241 
L 270.768379 332.154813 
L 272.804257 332.866201 
L 274.840134 335.310463 
L 276.876011 336.88097 
L 278.911888 337.713991 
L 280.947765 339.707836 
L 282.983642 343.125297 
L 285.01952 343.289296 
L 287.055397 342.388577 
L 289.091274 342.575084 
L 291.127151 343.25535 
L 293.163028 344.404923 
L 295.198905 346.477804 
L 297.234783 347.463803 
L 299.27066 346.366193 
L 301.306537 346.345202 
L 303.342414 345.273233 
L 307.414168 346.182232 
L 309.450046 348.076132 
L 311.485923 347.254412 
L 313.5218 347.372835 
L 315.557677 344.232749 
L 317.593554 344.911661 
L 319.629431 346.047127 
L 321.665309 347.423568 
L 323.701186 347.65327 
L 325.737063 348.646332 
L 327.77294 349.137124 
L 329.808817 348.083063 
L 335.916449 348.511116 
L 337.952326 347.100105 
L 339.988203 348.23084 
L 342.02408 348.410364 
L 344.059957 350.058215 
L 346.095835 350.670237 
L 348.131712 350.578558 
L 350.167589 351.151277 
L 352.203466 352.676006 
L 354.239343 352.748161 
L 356.27522 355.879163 
L 358.311098 355.461512 
L 360.346975 353.29415 
L 362.382852 350.735006 
L 364.418729 350.713328 
L 366.454606 351.019542 
L 368.490483 350.753135 
L 370.526361 350.677169 
L 372.562238 350.082958 
L 376.633992 347.788478 
L 378.669869 347.133314 
L 380.705746 344.382803 
L 382.741624 345.281409 
L 384.777501 345.030765 
L 386.813378 342.948586 
L 388.849255 341.813942 
L 390.885132 339.385565 
L 392.921009 337.418926 
L 394.956887 335.817694 
L 399.028641 331.338134 
L 401.064518 328.30157 
L 403.100395 326.557628 
L 405.136272 323.930636 
L 407.17215 321.041982 
L 409.208027 318.360677 
L 411.243904 316.301464 
L 413.279781 313.285829 
L 415.315658 311.708242 
L 417.351535 307.857523 
L 419.387413 307.155806 
L 421.42329 305.187201 
L 423.459167 301.436653 
L 425.495044 298.623561 
L 427.530921 296.559835 
L 429.566798 293.639159 
L 433.638553 289.597448 
L 435.67443 288.048222 
L 437.710307 286.26477 
L 439.746184 282.171013 
L 441.782061 283.945953 
L 443.817939 282.478009 
L 445.853816 280.777235 
L 447.889693 280.235361 
L 449.92557 278.626647 
L 451.961447 277.714772 
L 453.997324 276.946485 
L 456.033202 275.015417 
L 458.069079 274.922308 
L 460.104956 272.535977 
L 464.17671 270.835014 
L 466.212587 270.660488 
L 468.248465 270.764776 
L 470.284342 268.921677 
L 472.320219 268.651482 
L 474.356096 268.643345 
L 476.391973 266.847355 
L 478.42785 264.869832 
L 480.463728 266.963027 
L 482.499605 264.486098 
L 484.535482 262.995328 
L 486.571359 262.586355 
L 488.607236 259.650582 
L 490.643113 257.246011 
L 494.714868 248.590265 
L 496.750745 244.884403 
L 500.822499 235.438558 
L 502.858376 230.576071 
L 504.894254 225.37176 
L 506.930131 219.801371 
L 508.966008 212.039037 
L 511.001885 207.226518 
L 513.037762 201.387167 
L 515.073639 194.114326 
L 517.109517 187.341134 
L 519.145394 181.294848 
L 521.181271 172.423605 
L 523.217148 164.351963 
L 525.253025 157.178509 
L 527.288902 147.741362 
L 529.32478 139.70992 
L 533.396534 130.414444 
L 537.468288 122.42045 
L 539.504165 119.567353 
L 541.540043 116.185269 
L 543.57592 109.441665 
L 545.611797 107.187422 
L 547.647674 103.709926 
L 549.683551 103.840295 
L 551.719428 103.27628 
L 553.755306 100.092392 
L 555.791183 97.821184 
L 557.82706 97.779211 
L 559.862937 98.216033 
L 561.898814 97.916489 
L 565.970569 100.657477 
L 568.006446 104.018552 
L 570.042323 107.624466 
L 572.0782 109.557167 
L 574.114077 110.234711 
L 576.149954 111.305645 
L 578.185832 113.279824 
L 580.221709 113.56458 
L 582.257586 116.311831 
L 584.293463 121.367468 
L 586.32934 122.380464 
L 590.401095 125.378069 
L 592.436972 125.304704 
L 594.472849 128.23076 
L 596.508726 130.100096 
L 598.544603 129.632443 
L 600.58048 131.931175 
L 604.652235 135.634047 
L 608.723989 135.742596 
L 610.759866 135.244152 
L 612.795743 134.558922 
L 614.831621 135.181839 
L 616.867498 136.098133 
L 618.903375 135.24308 
L 620.939252 136.311563 
L 622.975129 135.586904 
L 625.011006 136.140103 
L 627.046884 137.383292 
L 629.082761 138.394435 
L 631.118638 136.448652 
L 633.154515 137.327801 
L 635.190392 137.766607 
L 637.226269 136.990277 
L 639.262147 139.022566 
L 641.298024 135.538626 
L 643.333901 136.579568 
L 645.369778 137.077635 
L 647.405655 138.962091 
L 651.47741 140.425434 
L 653.513287 141.847379 
L 655.549164 142.856935 
L 657.585041 144.054327 
L 659.620918 143.294045 
L 661.656795 144.021061 
L 663.692673 144.07515 
L 669.800304 144.761438 
L 671.836181 146.874119 
L 673.872058 148.455745 
L 675.907936 148.118729 
L 677.943813 150.734534 
L 679.97969 151.606281 
L 682.015567 154.587303 
L 684.051444 154.531952 
L 686.087321 156.23674 
L 688.123199 156.301459 
L 690.159076 158.253437 
L 692.194953 159.919696 
L 694.23083 162.076845 
L 698.302584 164.148761 
L 700.338462 167.461402 
L 702.374339 167.959497 
L 704.410216 169.890239 
L 706.446093 171.128104 
L 708.48197 172.909815 
L 710.517847 174.054551 
L 712.553725 174.933147 
L 714.589602 174.738635 
L 716.625479 177.29005 
L 718.661356 175.343997 
L 720.697233 178.486982 
L 722.73311 181.370328 
L 724.768988 182.012876 
L 726.804865 181.166076 
L 728.840742 182.290997 
L 741.056005 322.474175 
L 747.163636 394.523248 
L 747.163636 394.523248 
" clip-path="url(#p828ad901cc)" style="fill: none; stroke: #ff0000; stroke-width: 3; stroke-linecap: square"/>
   </g>
   <g id="patch_3">
    <path d="M 108 512.64 
L 108 69.12 
" style="fill: none; stroke: #000000; stroke-width: 0.8; stroke-linejoin: miter; stroke-linecap: square"/>
   </g>
   <g id="patch_4">
    <path d="M 777.6 512.64 
L 777.6 69.12 
" style="fill: none; stroke: #000000; stroke-width: 0.8; stroke-linejoin: miter; stroke-linecap: square"/>
   </g>
   <g id="patch_5">
    <path d="M 108 512.64 
L 777.6 512.64 
" style="fill: none; stroke: #000000; stroke-width: 0.8; stroke-linejoin: miter; stroke-linecap: square"/>
   </g>
   <g id="patch_6">
    <path d="M 108 69.12 
L 777.6 69.12 
" style="fill: none; stroke: #000000; stroke-width: 0.8; stroke-linejoin: miter; stroke-linecap: square"/>
   </g>
   <g id="text_15">
    <!-- Average PSTH for Low and High Arousal Across All Datasets -->
    <g transform="translate(204.745 63.12) scale(0.16 -0.16)">
     <defs>
      <path id="DejaVuSans-41" d="M 2188 4044 
L 1331 1722 
L 3047 1722 
L 2188 4044 
z
M 1831 4666 
L 2547 4666 
L 4325 0 
L 3669 0 
L 3244 1197 
L 1141 1197 
L 716 0 
L 50 0 
L 1831 4666 
z
" transform="scale(0.015625)"/>
      <path id="DejaVuSans-76" d="M 191 3500 
L 800 3500 
L 1894 563 
L 2988 3500 
L 3597 3500 
L 2284 0 
L 1503 0 
L 191 3500 
z
" transform="scale(0.015625)"/>
      <path id="DejaVuSans-67" d="M 2906 1791 
Q 2906 2416 2648 2759 
Q 2391 3103 1925 3103 
Q 1463 3103 1205 2759 
Q 947 2416 947 1791 
Q 947 1169 1205 825 
Q 1463 481 1925 481 
Q 2391 481 2648 825 
Q 2906 1169 2906 1791 
z
M 3481 434 
Q 3481 -459 3084 -895 
Q 2688 -1331 1869 -1331 
Q 1566 -1331 1297 -1286 
Q 1028 -1241 775 -1147 
L 775 -588 
Q 1028 -725 1275 -790 
Q 1522 -856 1778 -856 
Q 2344 -856 2625 -561 
Q 2906 -266 2906 331 
L 2906 616 
Q 2728 306 2450 153 
Q 2172 0 1784 0 
Q 1141 0 747 490 
Q 353 981 353 1791 
Q 353 2603 747 3093 
Q 1141 3584 1784 3584 
Q 2172 3584 2450 3431 
Q 2728 3278 2906 2969 
L 2906 3500 
L 3481 3500 
L 3481 434 
z
" transform="scale(0.015625)"/>
      <path id="DejaVuSans-50" d="M 1259 4147 
L 1259 2394 
L 2053 2394 
Q 2494 2394 2734 2622 
Q 2975 2850 2975 3272 
Q 2975 3691 2734 3919 
Q 2494 4147 2053 4147 
L 1259 4147 
z
M 628 4666 
L 2053 4666 
Q 2838 4666 3239 4311 
Q 3641 3956 3641 3272 
Q 3641 2581 3239 2228 
Q 2838 1875 2053 1875 
L 1259 1875 
L 1259 0 
L 628 0 
L 628 4666 
z
" transform="scale(0.015625)"/>
      <path id="DejaVuSans-48" d="M 628 4666 
L 1259 4666 
L 1259 2753 
L 3553 2753 
L 3553 4666 
L 4184 4666 
L 4184 0 
L 3553 0 
L 3553 2222 
L 1259 2222 
L 1259 0 
L 628 0 
L 628 4666 
z
" transform="scale(0.015625)"/>
      <path id="DejaVuSans-66" d="M 2375 4863 
L 2375 4384 
L 1825 4384 
Q 1516 4384 1395 4259 
Q 1275 4134 1275 3809 
L 1275 3500 
L 2222 3500 
L 2222 3053 
L 1275 3053 
L 1275 0 
L 697 0 
L 697 3053 
L 147 3053 
L 147 3500 
L 697 3500 
L 697 3744 
Q 697 4328 969 4595 
Q 1241 4863 1831 4863 
L 2375 4863 
z
" transform="scale(0.015625)"/>
      <path id="DejaVuSans-4c" d="M 628 4666 
L 1259 4666 
L 1259 531 
L 3531 531 
L 3531 0 
L 628 0 
L 628 4666 
z
" transform="scale(0.015625)"/>
      <path id="DejaVuSans-77" d="M 269 3500 
L 844 3500 
L 1563 769 
L 2278 3500 
L 2956 3500 
L 3675 769 
L 4391 3500 
L 4966 3500 
L 4050 0 
L 3372 0 
L 2619 2869 
L 1863 0 
L 1184 0 
L 269 3500 
z
" transform="scale(0.015625)"/>
      <path id="DejaVuSans-6e" d="M 3513 2113 
L 3513 0 
L 2938 0 
L 2938 2094 
Q 2938 2591 2744 2837 
Q 2550 3084 2163 3084 
Q 1697 3084 1428 2787 
Q 1159 2491 1159 1978 
L 1159 0 
L 581 0 
L 581 3500 
L 1159 3500 
L 1159 2956 
Q 1366 3272 1645 3428 
Q 1925 3584 2291 3584 
Q 2894 3584 3203 3211 
Q 3513 2838 3513 2113 
z
" transform="scale(0.015625)"/>
      <path id="DejaVuSans-68" d="M 3513 2113 
L 3513 0 
L 2938 0 
L 2938 2094 
Q 2938 2591 2744 2837 
Q 2550 3084 2163 3084 
Q 1697 3084 1428 2787 
Q 1159 2491 1159 1978 
L 1159 0 
L 581 0 
L 581 4863 
L 1159 4863 
L 1159 2956 
Q 1366 3272 1645 3428 
Q 1925 3584 2291 3584 
Q 2894 3584 3203 3211 
Q 3513 2838 3513 2113 
z
" transform="scale(0.015625)"/>
      <path id="DejaVuSans-75" d="M 544 1381 
L 544 3500 
L 1119 3500 
L 1119 1403 
Q 1119 906 1312 657 
Q 1506 409 1894 409 
Q 2359 409 2629 706 
Q 2900 1003 2900 1516 
L 2900 3500 
L 3475 3500 
L 3475 0 
L 2900 0 
L 2900 538 
Q 2691 219 2414 64 
Q 2138 -91 1772 -91 
Q 1169 -91 856 284 
Q 544 659 544 1381 
z
M 1991 3584 
L 1991 3584 
z
" transform="scale(0.015625)"/>
      <path id="DejaVuSans-63" d="M 3122 3366 
L 3122 2828 
Q 2878 2963 2633 3030 
Q 2388 3097 2138 3097 
Q 1578 3097 1268 2742 
Q 959 2388 959 1747 
Q 959 1106 1268 751 
Q 1578 397 2138 397 
Q 2388 397 2633 464 
Q 2878 531 3122 666 
L 3122 134 
Q 2881 22 2623 -34 
Q 2366 -91 2075 -91 
Q 1284 -91 818 406 
Q 353 903 353 1747 
Q 353 2603 823 3093 
Q 1294 3584 2113 3584 
Q 2378 3584 2631 3529 
Q 2884 3475 3122 3366 
z
" transform="scale(0.015625)"/>
      <path id="DejaVuSans-44" d="M 1259 4147 
L 1259 519 
L 2022 519 
Q 2988 519 3436 956 
Q 3884 1394 3884 2338 
Q 3884 3275 3436 3711 
Q 2988 4147 2022 4147 
L 1259 4147 
z
M 628 4666 
L 1925 4666 
Q 3281 4666 3915 4102 
Q 4550 3538 4550 2338 
Q 4550 1131 3912 565 
Q 3275 0 1925 0 
L 628 0 
L 628 4666 
z
" transform="scale(0.015625)"/>
     </defs>
     <use xlink:href="#DejaVuSans-41"/>
     <use xlink:href="#DejaVuSans-76" x="62.533203"/>
     <use xlink:href="#DejaVuSans-65" x="121.712891"/>
     <use xlink:href="#DejaVuSans-72" x="183.236328"/>
     <use xlink:href="#DejaVuSans-61" x="224.349609"/>
     <use xlink:href="#DejaVuSans-67" x="285.628906"/>
     <use xlink:href="#DejaVuSans-65" x="349.105469"/>
     <use xlink:href="#DejaVuSans-20" x="410.628906"/>
     <use xlink:href="#DejaVuSans-50" x="442.416016"/>
     <use xlink:href="#DejaVuSans-53" x="502.71875"/>
     <use xlink:href="#DejaVuSans-54" x="566.195312"/>
     <use xlink:href="#DejaVuSans-48" x="627.279297"/>
     <use xlink:href="#DejaVuSans-20" x="702.474609"/>
     <use xlink:href="#DejaVuSans-66" x="734.261719"/>
     <use xlink:href="#DejaVuSans-6f" x="769.466797"/>
     <use xlink:href="#DejaVuSans-72" x="830.648438"/>
     <use xlink:href="#DejaVuSans-20" x="871.761719"/>
     <use xlink:href="#DejaVuSans-4c" x="903.548828"/>
     <use xlink:href="#DejaVuSans-6f" x="957.511719"/>
     <use xlink:href="#DejaVuSans-77" x="1018.693359"/>
     <use xlink:href="#DejaVuSans-20" x="1100.480469"/>
     <use xlink:href="#DejaVuSans-61" x="1132.267578"/>
     <use xlink:href="#DejaVuSans-6e" x="1193.546875"/>
     <use xlink:href="#DejaVuSans-64" x="1256.925781"/>
     <use xlink:href="#DejaVuSans-20" x="1320.402344"/>
     <use xlink:href="#DejaVuSans-48" x="1352.189453"/>
     <use xlink:href="#DejaVuSans-69" x="1427.384766"/>
     <use xlink:href="#DejaVuSans-67" x="1455.167969"/>
     <use xlink:href="#DejaVuSans-68" x="1518.644531"/>
     <use xlink:href="#DejaVuSans-20" x="1582.023438"/>
     <use xlink:href="#DejaVuSans-41" x="1613.810547"/>
     <use xlink:href="#DejaVuSans-72" x="1682.21875"/>
     <use xlink:href="#DejaVuSans-6f" x="1721.082031"/>
     <use xlink:href="#DejaVuSans-75" x="1782.263672"/>
     <use xlink:href="#DejaVuSans-73" x="1845.642578"/>
     <use xlink:href="#DejaVuSans-61" x="1897.742188"/>
     <use xlink:href="#DejaVuSans-6c" x="1959.021484"/>
     <use xlink:href="#DejaVuSans-20" x="1986.804688"/>
     <use xlink:href="#DejaVuSans-41" x="2018.591797"/>
     <use xlink:href="#DejaVuSans-63" x="2085.25"/>
     <use xlink:href="#DejaVuSans-72" x="2140.230469"/>
     <use xlink:href="#DejaVuSans-6f" x="2179.09375"/>
     <use xlink:href="#DejaVuSans-73" x="2240.275391"/>
     <use xlink:href="#DejaVuSans-73" x="2292.375"/>
     <use xlink:href="#DejaVuSans-20" x="2344.474609"/>
     <use xlink:href="#DejaVuSans-41" x="2376.261719"/>
     <use xlink:href="#DejaVuSans-6c" x="2444.669922"/>
     <use xlink:href="#DejaVuSans-6c" x="2472.453125"/>
     <use xlink:href="#DejaVuSans-20" x="2500.236328"/>
     <use xlink:href="#DejaVuSans-44" x="2532.023438"/>
     <use xlink:href="#DejaVuSans-61" x="2609.025391"/>
     <use xlink:href="#DejaVuSans-74" x="2670.304688"/>
     <use xlink:href="#DejaVuSans-61" x="2709.513672"/>
     <use xlink:href="#DejaVuSans-73" x="2770.792969"/>
     <use xlink:href="#DejaVuSans-65" x="2822.892578"/>
     <use xlink:href="#DejaVuSans-74" x="2884.416016"/>
     <use xlink:href="#DejaVuSans-73" x="2923.625"/>
    </g>
   </g>
   <g id="legend_1">
    <g id="patch_7">
     <path d="M 654.646875 113.9475 
L 769.2 113.9475 
Q 771.6 113.9475 771.6 111.5475 
L 771.6 77.52 
Q 771.6 75.12 769.2 75.12 
L 654.646875 75.12 
Q 652.246875 75.12 652.246875 77.52 
L 652.246875 111.5475 
Q 652.246875 113.9475 654.646875 113.9475 
z
" style="fill: #ffffff; opacity: 0.8; stroke: #cccccc; stroke-linejoin: miter"/>
    </g>
    <g id="line2d_27">
     <path d="M 657.046875 84.838125 
L 669.046875 84.838125 
L 681.046875 84.838125 
" style="fill: none; stroke: #0000ff; stroke-width: 3; stroke-linecap: square"/>
    </g>
    <g id="text_16">
     <!-- Low Arousal -->
     <g transform="translate(690.646875 89.038125) scale(0.12 -0.12)">
      <use xlink:href="#DejaVuSans-4c"/>
      <use xlink:href="#DejaVuSans-6f" x="53.962891"/>
      <use xlink:href="#DejaVuSans-77" x="115.144531"/>
      <use xlink:href="#DejaVuSans-20" x="196.931641"/>
      <use xlink:href="#DejaVuSans-41" x="228.71875"/>
      <use xlink:href="#DejaVuSans-72" x="297.126953"/>
      <use xlink:href="#DejaVuSans-6f" x="335.990234"/>
      <use xlink:href="#DejaVuSans-75" x="397.171875"/>
      <use xlink:href="#DejaVuSans-73" x="460.550781"/>
      <use xlink:href="#DejaVuSans-61" x="512.650391"/>
      <use xlink:href="#DejaVuSans-6c" x="573.929688"/>
     </g>
    </g>
    <g id="line2d_28">
     <path d="M 657.046875 102.451875 
L 669.046875 102.451875 
L 681.046875 102.451875 
" style="fill: none; stroke: #ff0000; stroke-width: 3; stroke-linecap: square"/>
    </g>
    <g id="text_17">
     <!-- High Arousal -->
     <g transform="translate(690.646875 106.651875) scale(0.12 -0.12)">
      <use xlink:href="#DejaVuSans-48"/>
      <use xlink:href="#DejaVuSans-69" x="75.195312"/>
      <use xlink:href="#DejaVuSans-67" x="102.978516"/>
      <use xlink:href="#DejaVuSans-68" x="166.455078"/>
      <use xlink:href="#DejaVuSans-20" x="229.833984"/>
      <use xlink:href="#DejaVuSans-41" x="261.621094"/>
      <use xlink:href="#DejaVuSans-72" x="330.029297"/>
      <use xlink:href="#DejaVuSans-6f" x="368.892578"/>
      <use xlink:href="#DejaVuSans-75" x="430.074219"/>
      <use xlink:href="#DejaVuSans-73" x="493.453125"/>
      <use xlink:href="#DejaVuSans-61" x="545.552734"/>
      <use xlink:href="#DejaVuSans-6c" x="606.832031"/>
     </g>
    </g>
   </g>
  </g>
 </g>
 <defs>
  <clipPath id="p828ad901cc">
   <rect x="108" y="69.12" width="669.6" height="443.52"/>
  </clipPath>
 </defs>
</svg>
