<?xml version="1.0" encoding="utf-8" standalone="no"?>
<!DOCTYPE svg PUBLIC "-//W3C//DTD SVG 1.1//EN"
  "http://www.w3.org/Graphics/SVG/1.1/DTD/svg11.dtd">
<svg xmlns:xlink="http://www.w3.org/1999/xlink" width="864pt" height="576pt" viewBox="0 0 864 576" xmlns="http://www.w3.org/2000/svg" version="1.1">
 <metadata>
  <rdf:RDF xmlns:dc="http://purl.org/dc/elements/1.1/" xmlns:cc="http://creativecommons.org/ns#" xmlns:rdf="http://www.w3.org/1999/02/22-rdf-syntax-ns#">
   <cc:Work>
    <dc:type rdf:resource="http://purl.org/dc/dcmitype/StillImage"/>
    <dc:date>2024-08-15T15:07:42.696678</dc:date>
    <dc:format>image/svg+xml</dc:format>
    <dc:creator>
     <cc:Agent>
      <dc:title>Matplotlib v3.8.0, https://matplotlib.org/</dc:title>
     </cc:Agent>
    </dc:creator>
   </cc:Work>
  </rdf:RDF>
 </metadata>
 <defs>
  <style type="text/css">*{stroke-linejoin: round; stroke-linecap: butt}</style>
 </defs>
 <g id="figure_1">
  <g id="patch_1">
   <path d="M 0 576 
L 864 576 
L 864 0 
L 0 0 
z
" style="fill: #ffffff"/>
  </g>
  <g id="axes_1">
   <g id="patch_2">
    <path d="M 108 512.64 
L 777.6 512.64 
L 777.6 69.12 
L 108 69.12 
z
" style="fill: #ffffff"/>
   </g>
   <g id="PolyCollection_1">
    <defs>
     <path id="m1057d431fd" d="M 138.436364 -98.500757 
L 138.436364 -88.128467 
L 140.472241 -103.520454 
L 142.508118 -120.068654 
L 144.543995 -134.335432 
L 146.579872 -148.37675 
L 148.615749 -161.669036 
L 150.651627 -176.524703 
L 152.687504 -191.166916 
L 154.723381 -206.563236 
L 156.759258 -221.811038 
L 158.795135 -235.786728 
L 160.831012 -230.55436 
L 162.86689 -228.126261 
L 164.902767 -225.056885 
L 166.938644 -227.031693 
L 168.974521 -225.532772 
L 171.010398 -224.925775 
L 173.046275 -224.544699 
L 175.082153 -225.609524 
L 177.11803 -225.270203 
L 179.153907 -224.551295 
L 181.189784 -222.601135 
L 183.225661 -220.496952 
L 185.261538 -220.231306 
L 187.297416 -221.69863 
L 189.333293 -227.744307 
L 191.36917 -226.599656 
L 193.405047 -225.536045 
L 195.440924 -224.725427 
L 197.476801 -224.966058 
L 199.512679 -225.407153 
L 201.548556 -225.214434 
L 203.584433 -225.090373 
L 205.62031 -226.144103 
L 207.656187 -230.355959 
L 209.692064 -229.096184 
L 211.727942 -230.501499 
L 213.763819 -231.043628 
L 215.799696 -228.601495 
L 217.835573 -227.664739 
L 219.87145 -226.335824 
L 221.907327 -226.855165 
L 223.943205 -226.882442 
L 225.979082 -226.551625 
L 228.014959 -227.382216 
L 230.050836 -221.159943 
L 232.086713 -222.015044 
L 234.12259 -222.990812 
L 236.158468 -223.741887 
L 238.194345 -222.991532 
L 240.230222 -225.732921 
L 242.266099 -225.647296 
L 244.301976 -224.913692 
L 246.337853 -225.340749 
L 248.373731 -219.833733 
L 250.409608 -219.059786 
L 252.445485 -216.25514 
L 254.481362 -215.924817 
L 256.517239 -216.773655 
L 258.553116 -218.45472 
L 260.588994 -219.421529 
L 262.624871 -219.594177 
L 264.660748 -218.802145 
L 266.696625 -221.295352 
L 268.732502 -222.221605 
L 270.768379 -224.856895 
L 272.804257 -223.483621 
L 274.840134 -222.869137 
L 276.876011 -220.485911 
L 278.911888 -218.00655 
L 280.947765 -215.386835 
L 282.983642 -216.156579 
L 285.01952 -218.667338 
L 287.055397 -218.726728 
L 289.091274 -218.417173 
L 291.127151 -219.289133 
L 293.163028 -222.109292 
L 295.198905 -220.306333 
L 297.234783 -220.737385 
L 299.27066 -219.614914 
L 301.306537 -220.095097 
L 303.342414 -220.865137 
L 305.378291 -221.025585 
L 307.414168 -218.008465 
L 309.450046 -213.67805 
L 311.485923 -215.402087 
L 313.5218 -215.603935 
L 315.557677 -214.649037 
L 317.593554 -215.930839 
L 319.629431 -216.092744 
L 321.665309 -216.618298 
L 323.701186 -214.290482 
L 325.737063 -212.365827 
L 327.77294 -210.290611 
L 329.808817 -209.931419 
L 331.844694 -212.927149 
L 333.880572 -209.276475 
L 335.916449 -210.472344 
L 337.952326 -207.678722 
L 339.988203 -207.522881 
L 342.02408 -208.69198 
L 344.059957 -209.446087 
L 346.095835 -210.592811 
L 348.131712 -210.890025 
L 350.167589 -211.076635 
L 352.203466 -208.355932 
L 354.239343 -207.564559 
L 356.27522 -208.376427 
L 358.311098 -207.665407 
L 360.346975 -209.517161 
L 362.382852 -207.169302 
L 364.418729 -209.049748 
L 366.454606 -209.044592 
L 368.490483 -208.839579 
L 370.526361 -209.06861 
L 372.562238 -205.09778 
L 374.598115 -205.316435 
L 376.633992 -205.371351 
L 378.669869 -206.059438 
L 380.705746 -206.577321 
L 382.741624 -206.723788 
L 384.777501 -204.027254 
L 386.813378 -204.502912 
L 388.849255 -204.626297 
L 390.885132 -205.498783 
L 392.921009 -204.328931 
L 394.956887 -207.669738 
L 396.992764 -208.949934 
L 399.028641 -209.553039 
L 401.064518 -210.758402 
L 403.100395 -213.29751 
L 405.136272 -217.343623 
L 407.17215 -220.506719 
L 409.208027 -224.623745 
L 411.243904 -228.932622 
L 413.279781 -232.735106 
L 415.315658 -235.017787 
L 417.351535 -239.135833 
L 419.387413 -241.621026 
L 421.42329 -244.120452 
L 423.459167 -246.074314 
L 425.495044 -248.654575 
L 427.530921 -249.957155 
L 429.566798 -252.165266 
L 431.602676 -255.125517 
L 433.638553 -257.460653 
L 435.67443 -259.326094 
L 437.710307 -261.755769 
L 439.746184 -264.268775 
L 441.782061 -265.052542 
L 443.817939 -267.672055 
L 445.853816 -264.002077 
L 447.889693 -263.709709 
L 449.92557 -263.30429 
L 451.961447 -260.930253 
L 453.997324 -260.307369 
L 456.033202 -261.817238 
L 458.069079 -260.409307 
L 460.104956 -260.582753 
L 462.140833 -262.639347 
L 464.17671 -261.129917 
L 466.212587 -262.00419 
L 468.248465 -260.360681 
L 470.284342 -262.702223 
L 472.320219 -263.396055 
L 474.356096 -265.294895 
L 476.391973 -264.766117 
L 478.42785 -264.045238 
L 480.463728 -267.885739 
L 482.499605 -269.60388 
L 484.535482 -270.212243 
L 486.571359 -272.921989 
L 488.607236 -276.387573 
L 490.643113 -277.867885 
L 492.678991 -282.5886 
L 494.714868 -285.329067 
L 496.750745 -289.669447 
L 498.786622 -295.379565 
L 500.822499 -300.402369 
L 502.858376 -304.363857 
L 504.894254 -310.183935 
L 506.930131 -317.047401 
L 508.966008 -325.16096 
L 511.001885 -330.767634 
L 513.037762 -336.251769 
L 515.073639 -341.446687 
L 517.109517 -352.241286 
L 519.145394 -360.672785 
L 521.181271 -367.588981 
L 523.217148 -374.951588 
L 525.253025 -381.777417 
L 527.288902 -389.700202 
L 529.32478 -395.651933 
L 531.360657 -402.610808 
L 533.396534 -409.537567 
L 535.432411 -417.305641 
L 537.468288 -421.053636 
L 539.504165 -423.823461 
L 541.540043 -428.134959 
L 543.57592 -434.327165 
L 545.611797 -438.008275 
L 547.647674 -441.621113 
L 549.683551 -443.892055 
L 551.719428 -444.921516 
L 553.755306 -446.705445 
L 555.791183 -449.330042 
L 557.82706 -445.746372 
L 559.862937 -449.589516 
L 561.898814 -445.740026 
L 563.934691 -444.595573 
L 565.970569 -442.724489 
L 568.006446 -440.906201 
L 570.042323 -438.392049 
L 572.0782 -436.088317 
L 574.114077 -435.410258 
L 576.149954 -431.873632 
L 578.185832 -431.315921 
L 580.221709 -430.102607 
L 582.257586 -428.049976 
L 584.293463 -422.631718 
L 586.32934 -420.632983 
L 588.365217 -417.584449 
L 590.401095 -418.001276 
L 592.436972 -416.906252 
L 594.472849 -416.027836 
L 596.508726 -417.642214 
L 598.544603 -416.664597 
L 600.58048 -412.58576 
L 602.616358 -412.722323 
L 604.652235 -411.811257 
L 606.688112 -412.03957 
L 608.723989 -411.562557 
L 610.759866 -412.304916 
L 612.795743 -413.494032 
L 614.831621 -411.326006 
L 616.867498 -411.651852 
L 618.903375 -411.052013 
L 620.939252 -411.416625 
L 622.975129 -412.851204 
L 625.011006 -413.383139 
L 627.046884 -414.133822 
L 629.082761 -413.467278 
L 631.118638 -409.90826 
L 633.154515 -409.173163 
L 635.190392 -409.782871 
L 637.226269 -408.113752 
L 639.262147 -409.69829 
L 641.298024 -407.413332 
L 643.333901 -407.006491 
L 645.369778 -407.178091 
L 647.405655 -406.600804 
L 649.441532 -406.203544 
L 651.47741 -405.196948 
L 653.513287 -403.391878 
L 655.549164 -402.88221 
L 657.585041 -402.926294 
L 659.620918 -402.139529 
L 661.656795 -401.673463 
L 663.692673 -401.465485 
L 665.72855 -402.324312 
L 667.764427 -400.99587 
L 669.800304 -401.081302 
L 671.836181 -401.612332 
L 673.872058 -403.095913 
L 675.907936 -401.072747 
L 677.943813 -400.097083 
L 679.97969 -397.588444 
L 682.015567 -397.053553 
L 684.051444 -395.530299 
L 686.087321 -394.929577 
L 688.123199 -393.102196 
L 690.159076 -392.074933 
L 692.194953 -391.389469 
L 694.23083 -390.886416 
L 696.266707 -390.018075 
L 698.302584 -387.661219 
L 700.338462 -385.746352 
L 702.374339 -383.681564 
L 704.410216 -379.761965 
L 706.446093 -376.903845 
L 708.48197 -375.343778 
L 710.517847 -371.706505 
L 712.553725 -370.465811 
L 714.589602 -367.055951 
L 716.625479 -365.769028 
L 718.661356 -363.472352 
L 720.697233 -360.93289 
L 722.73311 -359.213215 
L 724.768988 -358.597489 
L 726.804865 -357.856418 
L 728.840742 -356.467841 
L 730.876619 -334.05719 
L 732.912496 -311.539898 
L 734.948373 -289.932806 
L 736.984251 -267.002275 
L 739.020128 -246.187268 
L 741.056005 -225.401484 
L 743.091882 -204.168186 
L 745.127759 -183.433205 
L 747.163636 -161.651899 
L 747.163636 -171.953249 
L 747.163636 -171.953249 
L 745.127759 -194.439098 
L 743.091882 -215.985334 
L 741.056005 -238.107212 
L 739.020128 -259.747345 
L 736.984251 -281.396994 
L 734.948373 -305.138142 
L 732.912496 -327.61326 
L 730.876619 -350.96159 
L 728.840742 -374.142264 
L 726.804865 -375.523193 
L 724.768988 -376.221342 
L 722.73311 -376.767406 
L 720.697233 -378.497518 
L 718.661356 -381.08693 
L 716.625479 -383.063026 
L 714.589602 -384.377512 
L 712.553725 -387.684685 
L 710.517847 -388.920589 
L 708.48197 -392.454567 
L 706.446093 -394.061021 
L 704.410216 -396.658331 
L 702.374339 -400.578918 
L 700.338462 -402.70449 
L 698.302584 -404.500683 
L 696.266707 -406.8642 
L 694.23083 -407.57213 
L 692.194953 -408.057915 
L 690.159076 -408.716464 
L 688.123199 -409.845055 
L 686.087321 -411.810196 
L 684.051444 -412.464711 
L 682.015567 -413.934283 
L 679.97969 -414.422308 
L 677.943813 -416.795709 
L 675.907936 -417.825215 
L 673.872058 -419.755828 
L 671.836181 -418.402162 
L 669.800304 -417.765596 
L 667.764427 -417.751776 
L 665.72855 -419.0774 
L 663.692673 -418.497143 
L 661.656795 -418.840089 
L 659.620918 -419.300907 
L 657.585041 -420.155955 
L 655.549164 -420.232758 
L 653.513287 -420.784785 
L 651.47741 -422.672441 
L 649.441532 -423.671301 
L 647.405655 -423.804112 
L 645.369778 -424.419225 
L 643.333901 -424.312709 
L 641.298024 -424.472042 
L 639.262147 -426.699901 
L 637.226269 -425.078725 
L 635.190392 -426.451506 
L 633.154515 -425.933329 
L 631.118638 -426.574692 
L 629.082761 -430.106751 
L 627.046884 -430.656322 
L 625.011006 -429.926507 
L 622.975129 -429.33719 
L 620.939252 -428.145606 
L 618.903375 -427.799268 
L 616.867498 -428.405371 
L 614.831621 -428.109061 
L 612.795743 -430.251653 
L 610.759866 -429.142455 
L 608.723989 -428.44002 
L 606.688112 -428.880718 
L 604.652235 -428.682697 
L 602.616358 -429.639978 
L 600.58048 -429.47121 
L 598.544603 -433.451767 
L 596.508726 -434.465832 
L 594.472849 -432.905099 
L 592.436972 -433.848228 
L 590.401095 -434.883182 
L 588.365217 -434.688018 
L 586.32934 -437.658316 
L 584.293463 -439.621167 
L 582.257586 -445.043187 
L 580.221709 -446.968943 
L 578.185832 -448.08284 
L 576.149954 -448.698844 
L 574.114077 -452.476922 
L 572.0782 -453.29405 
L 570.042323 -455.651506 
L 568.006446 -458.030705 
L 565.970569 -459.69838 
L 563.934691 -461.581485 
L 561.898814 -462.738445 
L 559.862937 -466.499088 
L 557.82706 -462.87059 
L 555.791183 -466.548279 
L 553.755306 -463.965534 
L 551.719428 -462.293455 
L 549.683551 -461.303062 
L 547.647674 -459.233671 
L 545.611797 -455.705396 
L 543.57592 -452.206679 
L 541.540043 -445.958396 
L 539.504165 -441.759749 
L 537.468288 -439.151642 
L 535.432411 -435.499455 
L 533.396534 -428.003629 
L 531.360657 -421.234931 
L 529.32478 -414.398268 
L 527.288902 -408.619286 
L 525.253025 -400.698418 
L 523.217148 -393.940267 
L 521.181271 -386.519119 
L 519.145394 -379.481541 
L 517.109517 -371.221737 
L 515.073639 -360.594193 
L 513.037762 -355.260719 
L 511.001885 -349.625856 
L 508.966008 -344.050167 
L 506.930131 -335.80482 
L 504.894254 -328.898074 
L 502.858376 -323.04031 
L 500.822499 -318.848149 
L 498.786622 -313.604229 
L 496.750745 -307.792989 
L 494.714868 -303.461293 
L 492.678991 -300.678271 
L 490.643113 -296.071277 
L 488.607236 -294.709809 
L 486.571359 -291.412761 
L 484.535482 -288.801482 
L 482.499605 -288.373561 
L 480.463728 -286.698239 
L 478.42785 -282.998203 
L 476.391973 -283.570912 
L 474.356096 -284.100364 
L 472.320219 -282.557013 
L 470.284342 -282.013574 
L 468.248465 -279.741506 
L 466.212587 -281.436624 
L 464.17671 -280.56927 
L 462.140833 -282.088804 
L 460.104956 -279.925184 
L 458.069079 -279.804285 
L 456.033202 -281.463471 
L 453.997324 -279.972873 
L 451.961447 -280.654724 
L 449.92557 -282.843349 
L 447.889693 -283.314309 
L 445.853816 -283.528177 
L 443.817939 -287.395457 
L 441.782061 -284.652322 
L 439.746184 -283.955282 
L 437.710307 -281.21804 
L 435.67443 -278.861113 
L 433.638553 -276.990387 
L 431.602676 -274.537442 
L 429.566798 -271.610359 
L 427.530921 -269.356372 
L 425.495044 -267.999529 
L 423.459167 -265.425853 
L 421.42329 -263.473371 
L 419.387413 -260.94838 
L 417.351535 -258.360297 
L 415.315658 -254.022662 
L 413.279781 -251.661143 
L 411.243904 -247.780749 
L 409.208027 -243.368639 
L 407.17215 -239.008513 
L 405.136272 -235.904252 
L 403.100395 -231.666527 
L 401.064518 -229.044794 
L 399.028641 -227.707433 
L 396.992764 -227.197323 
L 394.956887 -225.712903 
L 392.921009 -222.028463 
L 390.885132 -223.195928 
L 388.849255 -222.252246 
L 386.813378 -222.154404 
L 384.777501 -221.54651 
L 382.741624 -224.120979 
L 380.705746 -223.936309 
L 378.669869 -223.429835 
L 376.633992 -222.793944 
L 374.598115 -222.737544 
L 372.562238 -222.499477 
L 370.526361 -226.800288 
L 368.490483 -226.551226 
L 366.454606 -226.775012 
L 364.418729 -226.6661 
L 362.382852 -224.535876 
L 360.346975 -227.219619 
L 358.311098 -225.272696 
L 356.27522 -225.833417 
L 354.239343 -224.916068 
L 352.203466 -225.825481 
L 350.167589 -228.741484 
L 348.131712 -228.541814 
L 346.095835 -228.213219 
L 344.059957 -226.896916 
L 342.02408 -226.027339 
L 339.988203 -224.900566 
L 337.952326 -225.043307 
L 335.916449 -227.92381 
L 333.880572 -226.761257 
L 331.844694 -230.49042 
L 329.808817 -227.426273 
L 327.77294 -227.683369 
L 325.737063 -229.795497 
L 323.701186 -231.880131 
L 321.665309 -234.230464 
L 319.629431 -233.517746 
L 317.593554 -233.381 
L 315.557677 -232.009599 
L 313.5218 -233.073613 
L 311.485923 -232.880568 
L 309.450046 -230.863242 
L 307.414168 -235.3933 
L 305.378291 -238.711223 
L 303.342414 -238.355844 
L 301.306537 -237.65833 
L 299.27066 -237.203268 
L 297.234783 -238.513849 
L 295.198905 -238.167256 
L 293.163028 -240.067892 
L 291.127151 -237.297353 
L 289.091274 -236.510233 
L 287.055397 -236.800772 
L 285.01952 -236.835248 
L 282.983642 -234.215443 
L 280.947765 -233.349801 
L 278.911888 -236.129846 
L 276.876011 -238.68801 
L 274.840134 -241.049594 
L 272.804257 -241.577003 
L 270.768379 -242.868645 
L 268.732502 -239.878553 
L 266.696625 -238.736543 
L 264.660748 -236.168448 
L 262.624871 -237.172637 
L 260.588994 -236.918416 
L 258.553116 -235.882773 
L 256.517239 -233.978208 
L 254.481362 -233.069257 
L 252.445485 -233.386736 
L 250.409608 -236.245616 
L 248.373731 -237.087676 
L 246.337853 -242.89138 
L 244.301976 -242.478119 
L 242.266099 -243.311467 
L 240.230222 -243.273356 
L 238.194345 -240.570157 
L 236.158468 -241.355281 
L 234.12259 -240.421794 
L 232.086713 -239.385167 
L 230.050836 -238.529834 
L 228.014959 -244.999176 
L 225.979082 -244.082633 
L 223.943205 -244.517709 
L 221.907327 -244.548954 
L 219.87145 -244.023161 
L 217.835573 -245.469775 
L 215.799696 -246.506668 
L 213.763819 -249.246086 
L 211.727942 -248.758955 
L 209.692064 -247.222007 
L 207.656187 -248.384567 
L 205.62031 -243.807113 
L 203.584433 -242.80131 
L 201.548556 -242.835683 
L 199.512679 -243.095695 
L 197.476801 -242.680923 
L 195.440924 -242.43562 
L 193.405047 -243.355628 
L 191.36917 -244.576051 
L 189.333293 -245.826702 
L 187.297416 -239.836451 
L 185.261538 -238.236591 
L 183.225661 -238.544065 
L 181.189784 -240.723737 
L 179.153907 -242.785557 
L 177.11803 -243.471646 
L 175.082153 -243.815024 
L 173.046275 -242.886922 
L 171.010398 -243.314787 
L 168.974521 -243.746254 
L 166.938644 -245.384958 
L 164.902767 -243.300356 
L 162.86689 -246.453121 
L 160.831012 -249.069442 
L 158.795135 -254.365341 
L 156.759258 -239.58053 
L 154.723381 -223.397134 
L 152.687504 -207.089061 
L 150.651627 -191.730304 
L 148.615749 -176.093806 
L 146.579872 -162.118749 
L 144.543995 -147.341594 
L 142.508118 -132.293719 
L 140.472241 -114.830964 
L 138.436364 -98.500757 
z
" style="stroke: #0000ff; stroke-opacity: 0.3"/>
    </defs>
    <g clip-path="url(#pb36dc4e367)">
     <use xlink:href="#m1057d431fd" x="0" y="576" style="fill: #0000ff; fill-opacity: 0.3; stroke: #0000ff; stroke-opacity: 0.3"/>
    </g>
   </g>
   <g id="PolyCollection_2">
    <defs>
     <path id="m8ba80e9492" d="M 138.436364 -93.415684 
L 138.436364 -83.52 
L 140.472241 -100.884039 
L 142.508118 -115.764011 
L 144.543995 -130.4618 
L 146.579872 -144.874724 
L 148.615749 -159.80079 
L 150.651627 -176.624541 
L 152.687504 -192.234737 
L 154.723381 -206.461784 
L 156.759258 -221.368818 
L 158.795135 -235.072722 
L 160.831012 -235.281363 
L 162.86689 -235.120673 
L 164.902767 -234.385711 
L 166.938644 -233.511538 
L 168.974521 -229.284537 
L 171.010398 -230.730952 
L 173.046275 -230.826148 
L 175.082153 -232.061941 
L 177.11803 -231.170603 
L 179.153907 -230.161754 
L 181.189784 -228.665697 
L 183.225661 -227.894231 
L 185.261538 -229.478205 
L 187.297416 -229.837995 
L 189.333293 -227.10791 
L 191.36917 -224.082454 
L 193.405047 -223.466391 
L 195.440924 -223.249113 
L 197.476801 -224.486793 
L 199.512679 -226.003523 
L 201.548556 -225.267498 
L 203.584433 -224.896937 
L 205.62031 -223.811257 
L 207.656187 -223.202946 
L 209.692064 -223.321732 
L 211.727942 -221.488564 
L 213.763819 -222.093082 
L 215.799696 -218.732424 
L 217.835573 -221.315527 
L 219.87145 -220.866554 
L 221.907327 -220.665584 
L 223.943205 -220.526129 
L 225.979082 -218.249128 
L 228.014959 -217.67906 
L 230.050836 -220.119334 
L 232.086713 -221.052757 
L 234.12259 -220.863065 
L 236.158468 -221.748974 
L 238.194345 -220.951371 
L 240.230222 -222.29319 
L 242.266099 -225.992286 
L 244.301976 -227.536928 
L 246.337853 -226.296132 
L 248.373731 -225.484878 
L 250.409608 -225.3117 
L 252.445485 -226.160877 
L 254.481362 -224.750938 
L 256.517239 -224.661159 
L 258.553116 -221.890649 
L 260.588994 -223.09944 
L 262.624871 -221.787012 
L 264.660748 -221.605557 
L 266.696625 -221.502543 
L 268.732502 -222.805903 
L 270.768379 -221.648128 
L 272.804257 -221.240891 
L 274.840134 -219.066026 
L 276.876011 -216.856807 
L 278.911888 -216.40215 
L 280.947765 -212.685802 
L 282.983642 -208.617393 
L 285.01952 -207.916848 
L 287.055397 -209.531072 
L 289.091274 -209.52785 
L 291.127151 -208.50585 
L 293.163028 -206.073093 
L 295.198905 -204.15324 
L 297.234783 -203.537895 
L 299.27066 -204.918244 
L 301.306537 -205.377576 
L 303.342414 -206.578755 
L 305.378291 -206.775905 
L 307.414168 -206.019259 
L 309.450046 -203.845424 
L 311.485923 -204.73575 
L 313.5218 -204.673407 
L 315.557677 -208.223923 
L 317.593554 -207.917994 
L 319.629431 -206.765879 
L 321.665309 -206.677036 
L 323.701186 -206.855662 
L 325.737063 -207.300166 
L 327.77294 -205.372054 
L 329.808817 -205.454965 
L 331.844694 -205.637525 
L 333.880572 -206.256804 
L 335.916449 -205.591892 
L 337.952326 -206.354842 
L 339.988203 -205.186933 
L 342.02408 -204.878917 
L 344.059957 -204.107419 
L 346.095835 -203.257917 
L 348.131712 -204.291301 
L 350.167589 -203.679541 
L 352.203466 -201.696564 
L 354.239343 -201.167037 
L 356.27522 -197.620974 
L 358.311098 -198.052818 
L 360.346975 -198.22679 
L 362.382852 -200.13994 
L 364.418729 -200.160144 
L 366.454606 -198.29485 
L 368.490483 -198.845974 
L 370.526361 -199.693435 
L 372.562238 -200.56808 
L 374.598115 -201.980484 
L 376.633992 -203.223484 
L 378.669869 -203.402929 
L 380.705746 -205.967243 
L 382.741624 -205.803143 
L 384.777501 -204.960025 
L 386.813378 -206.312041 
L 388.849255 -206.325539 
L 390.885132 -208.893703 
L 392.921009 -211.914087 
L 394.956887 -213.633391 
L 396.992764 -215.952805 
L 399.028641 -218.121942 
L 401.064518 -222.932247 
L 403.100395 -224.776607 
L 405.136272 -227.400305 
L 407.17215 -230.859654 
L 409.208027 -234.423182 
L 411.243904 -235.576173 
L 413.279781 -238.01014 
L 415.315658 -239.889973 
L 417.351535 -242.381432 
L 419.387413 -243.601264 
L 421.42329 -245.448585 
L 423.459167 -249.537798 
L 425.495044 -252.459625 
L 427.530921 -255.365425 
L 429.566798 -257.580126 
L 431.602676 -259.272431 
L 433.638553 -261.416377 
L 435.67443 -262.263992 
L 437.710307 -263.62444 
L 439.746184 -268.303966 
L 441.782061 -266.804907 
L 443.817939 -268.227065 
L 445.853816 -270.249928 
L 447.889693 -269.883543 
L 449.92557 -270.503869 
L 451.961447 -271.703162 
L 453.997324 -272.980063 
L 456.033202 -273.877711 
L 458.069079 -275.47449 
L 460.104956 -277.674473 
L 462.140833 -278.810181 
L 464.17671 -278.522407 
L 466.212587 -278.806803 
L 468.248465 -277.31345 
L 470.284342 -278.168076 
L 472.320219 -278.115987 
L 474.356096 -277.574127 
L 476.391973 -279.872445 
L 478.42785 -283.027737 
L 480.463728 -280.061831 
L 482.499605 -282.961731 
L 484.535482 -285.25487 
L 486.571359 -286.510369 
L 488.607236 -291.268059 
L 490.643113 -296.274978 
L 492.678991 -301.859598 
L 494.714868 -306.507179 
L 496.750745 -311.20132 
L 498.786622 -316.799514 
L 500.822499 -322.63381 
L 502.858376 -328.383447 
L 504.894254 -335.239444 
L 506.930131 -341.249962 
L 508.966008 -351.52756 
L 511.001885 -358.371233 
L 513.037762 -366.214414 
L 515.073639 -374.281655 
L 517.109517 -382.954528 
L 519.145394 -389.193599 
L 521.181271 -400.355307 
L 523.217148 -408.011336 
L 525.253025 -414.797851 
L 527.288902 -424.700145 
L 529.32478 -433.081183 
L 531.360657 -437.174996 
L 533.396534 -441.374738 
L 535.432411 -445.780225 
L 537.468288 -451.336875 
L 539.504165 -454.699231 
L 541.540043 -457.573957 
L 543.57592 -462.22942 
L 545.611797 -464.402376 
L 547.647674 -467.881491 
L 549.683551 -467.017647 
L 551.719428 -467.560669 
L 553.755306 -469.541707 
L 555.791183 -471.236093 
L 557.82706 -469.968348 
L 559.862937 -469.95208 
L 561.898814 -469.618978 
L 563.934691 -467.864763 
L 565.970569 -465.668036 
L 568.006446 -461.128651 
L 570.042323 -455.527337 
L 572.0782 -452.33103 
L 574.114077 -450.875593 
L 576.149954 -448.72749 
L 578.185832 -445.502099 
L 580.221709 -443.127663 
L 582.257586 -440.441114 
L 584.293463 -436.147228 
L 586.32934 -433.522758 
L 588.365217 -431.865128 
L 590.401095 -429.878805 
L 592.436972 -429.55668 
L 594.472849 -426.656512 
L 596.508726 -424.488459 
L 598.544603 -425.260375 
L 600.58048 -423.162611 
L 602.616358 -419.998152 
L 604.652235 -418.134585 
L 606.688112 -417.455831 
L 608.723989 -417.714229 
L 610.759866 -418.119257 
L 612.795743 -419.23351 
L 614.831621 -419.418571 
L 616.867498 -419.300154 
L 618.903375 -419.367111 
L 620.939252 -419.763418 
L 622.975129 -420.309811 
L 625.011006 -419.928641 
L 627.046884 -418.890584 
L 629.082761 -417.222079 
L 631.118638 -418.557234 
L 633.154515 -416.90998 
L 635.190392 -415.458244 
L 637.226269 -417.152617 
L 639.262147 -413.757265 
L 641.298024 -415.49718 
L 643.333901 -413.748502 
L 645.369778 -412.896493 
L 647.405655 -411.803399 
L 649.441532 -410.464367 
L 651.47741 -409.892344 
L 653.513287 -408.069869 
L 655.549164 -405.895568 
L 657.585041 -404.509568 
L 659.620918 -405.959622 
L 661.656795 -403.946487 
L 663.692673 -403.219823 
L 665.72855 -402.422953 
L 667.764427 -401.855513 
L 669.800304 -402.044695 
L 671.836181 -399.419427 
L 673.872058 -398.363491 
L 675.907936 -399.666557 
L 677.943813 -394.961421 
L 679.97969 -394.053555 
L 682.015567 -390.857032 
L 684.051444 -390.527815 
L 686.087321 -388.55845 
L 688.123199 -387.992102 
L 690.159076 -386.401876 
L 692.194953 -384.945306 
L 694.23083 -382.58839 
L 696.266707 -382.911081 
L 698.302584 -380.561838 
L 700.338462 -376.576324 
L 702.374339 -374.916588 
L 704.410216 -372.599678 
L 706.446093 -370.964685 
L 708.48197 -369.287075 
L 710.517847 -367.698823 
L 712.553725 -366.955625 
L 714.589602 -366.855297 
L 716.625479 -364.150714 
L 718.661356 -367.094779 
L 720.697233 -364.785363 
L 722.73311 -362.914209 
L 724.768988 -362.981185 
L 726.804865 -362.851712 
L 728.840742 -361.790729 
L 730.876619 -339.908839 
L 732.912496 -317.799605 
L 734.948373 -297.576345 
L 736.984251 -274.475062 
L 739.020128 -253.748416 
L 741.056005 -231.526802 
L 743.091882 -210.520511 
L 745.127759 -189.291963 
L 747.163636 -167.158827 
L 747.163636 -176.493153 
L 747.163636 -176.493153 
L 745.127759 -199.290557 
L 743.091882 -221.24037 
L 741.056005 -243.015745 
L 739.020128 -266.087062 
L 736.984251 -287.526539 
L 734.948373 -311.405479 
L 732.912496 -332.359007 
L 730.876619 -355.270083 
L 728.840742 -377.87824 
L 726.804865 -378.85466 
L 724.768988 -378.964626 
L 722.73311 -378.884831 
L 720.697233 -380.872523 
L 718.661356 -383.234169 
L 716.625479 -380.620469 
L 714.589602 -383.327977 
L 712.553725 -383.490154 
L 710.517847 -384.298654 
L 708.48197 -385.883317 
L 706.446093 -387.678873 
L 704.410216 -389.227828 
L 702.374339 -391.553139 
L 700.338462 -393.202928 
L 698.302584 -396.743808 
L 696.266707 -399.064782 
L 694.23083 -398.669891 
L 692.194953 -401.137641 
L 690.159076 -402.45798 
L 688.123199 -404.050601 
L 686.087321 -404.618141 
L 684.051444 -406.688836 
L 682.015567 -407.158308 
L 679.97969 -410.152054 
L 677.943813 -411.151514 
L 675.907936 -415.804248 
L 673.872058 -414.380931 
L 671.836181 -415.336979 
L 669.800304 -417.943811 
L 667.764427 -417.673908 
L 665.72855 -418.091949 
L 663.692673 -418.986577 
L 661.656795 -419.767321 
L 659.620918 -421.692207 
L 657.585041 -420.256441 
L 655.549164 -421.611501 
L 653.513287 -423.90023 
L 651.47741 -425.639597 
L 649.441532 -426.215902 
L 647.405655 -427.45386 
L 645.369778 -428.552596 
L 643.333901 -429.448749 
L 641.298024 -431.206297 
L 639.262147 -429.674777 
L 637.226269 -432.991841 
L 635.190392 -431.407275 
L 633.154515 -432.941216 
L 631.118638 -434.57789 
L 629.082761 -433.364363 
L 627.046884 -434.91654 
L 625.011006 -436.021884 
L 622.975129 -436.423484 
L 620.939252 -435.83571 
L 618.903375 -435.403287 
L 616.867498 -435.513 
L 614.831621 -435.546915 
L 612.795743 -435.207677 
L 610.759866 -434.290279 
L 608.723989 -433.958908 
L 606.688112 -433.702965 
L 604.652235 -434.273564 
L 602.616358 -436.103098 
L 600.58048 -439.19193 
L 598.544603 -441.379873 
L 596.508726 -440.865726 
L 594.472849 -442.884168 
L 592.436972 -445.809458 
L 590.401095 -446.079077 
L 588.365217 -448.051006 
L 586.32934 -449.849773 
L 584.293463 -452.450727 
L 582.257586 -456.574558 
L 580.221709 -459.26892 
L 578.185832 -461.591027 
L 576.149954 -464.600278 
L 574.114077 -466.817545 
L 572.0782 -468.3931 
L 570.042323 -471.733194 
L 568.006446 -477.143443 
L 565.970569 -481.492973 
L 563.934691 -483.500856 
L 561.898814 -485.259578 
L 559.862937 -485.539827 
L 557.82706 -485.457929 
L 555.791183 -486.72 
L 553.755306 -485.133239 
L 551.719428 -483.187095 
L 549.683551 -482.702934 
L 547.647674 -483.62483 
L 545.611797 -480.247469 
L 543.57592 -478.173597 
L 541.540043 -473.793727 
L 539.504165 -470.962595 
L 537.468288 -467.825051 
L 535.432411 -462.465855 
L 533.396534 -458.329248 
L 531.360657 -454.34117 
L 529.32478 -450.458665 
L 527.288902 -442.631754 
L 525.253025 -433.091546 
L 523.217148 -426.392365 
L 521.181271 -418.879443 
L 519.145394 -408.141282 
L 517.109517 -402.030314 
L 515.073639 -393.277562 
L 513.037762 -385.265521 
L 511.001885 -377.461657 
L 508.966008 -370.709755 
L 506.930131 -360.30385 
L 504.894254 -354.221544 
L 502.858376 -347.259357 
L 500.822499 -341.63208 
L 498.786622 -335.804054 
L 496.750745 -330.482433 
L 494.714868 -325.920298 
L 492.678991 -321.327595 
L 490.643113 -315.684321 
L 488.607236 -310.659316 
L 486.571359 -305.855776 
L 484.535482 -304.719076 
L 482.499605 -302.61724 
L 480.463728 -299.779802 
L 478.42785 -302.97232 
L 476.391973 -299.77084 
L 474.356096 -297.59354 
L 472.320219 -298.239346 
L 470.284342 -298.487634 
L 468.248465 -297.619462 
L 466.212587 -299.221834 
L 464.17671 -299.073074 
L 462.140833 -299.315542 
L 460.104956 -297.937337 
L 458.069079 -295.622894 
L 456.033202 -294.029034 
L 453.997324 -293.071919 
L 451.961447 -291.659872 
L 449.92557 -290.40598 
L 447.889693 -289.702405 
L 445.853816 -290.202783 
L 443.817939 -288.132207 
L 441.782061 -286.60559 
L 439.746184 -288.080266 
L 437.710307 -283.413616 
L 435.67443 -282.113001 
L 433.638553 -281.287806 
L 431.602676 -279.129159 
L 429.566798 -277.332851 
L 427.530921 -274.991381 
L 425.495044 -272.092765 
L 423.459167 -268.970478 
L 421.42329 -264.904772 
L 419.387413 -262.967607 
L 417.351535 -261.774011 
L 415.315658 -259.176709 
L 413.279781 -257.147768 
L 411.243904 -254.669556 
L 409.208027 -253.460567 
L 407.17215 -249.783271 
L 405.136272 -246.267507 
L 403.100395 -243.564005 
L 401.064518 -241.689522 
L 399.028641 -236.566646 
L 396.992764 -234.280841 
L 394.956887 -231.914019 
L 392.921009 -230.080777 
L 390.885132 -226.894069 
L 388.849255 -224.177935 
L 386.813378 -224.136201 
L 384.777501 -222.682608 
L 382.741624 -223.479496 
L 380.705746 -223.726661 
L 378.669869 -220.937329 
L 376.633992 -220.719791 
L 374.598115 -219.402828 
L 372.562238 -217.995758 
L 370.526361 -217.04024 
L 368.490483 -216.087285 
L 366.454606 -215.44656 
L 364.418729 -217.349276 
L 362.382852 -217.271558 
L 360.346975 -215.278849 
L 358.311098 -215.139408 
L 356.27522 -214.679348 
L 354.239343 -218.336441 
L 352.203466 -218.732017 
L 350.167589 -220.74696 
L 348.131712 -221.460998 
L 346.095835 -220.414779 
L 344.059957 -221.176534 
L 342.02408 -221.966955 
L 339.988203 -222.212642 
L 337.952326 -223.671983 
L 335.916449 -222.887609 
L 333.880572 -223.65984 
L 331.844694 -223.159476 
L 329.808817 -222.929606 
L 327.77294 -223.001885 
L 325.737063 -225.042032 
L 323.701186 -224.455777 
L 321.665309 -224.189515 
L 319.629431 -224.330046 
L 317.593554 -225.433518 
L 315.557677 -225.690915 
L 313.5218 -221.774632 
L 311.485923 -221.841909 
L 309.450046 -221.054443 
L 307.414168 -223.30516 
L 305.378291 -224.050921 
L 303.342414 -223.828912 
L 301.306537 -222.480439 
L 299.27066 -222.120623 
L 297.234783 -220.589839 
L 295.198905 -221.17038 
L 293.163028 -223.042749 
L 291.127151 -225.557332 
L 289.091274 -226.733961 
L 287.055397 -226.597819 
L 285.01952 -224.813091 
L 282.983642 -225.394256 
L 280.947765 -229.648453 
L 278.911888 -233.449004 
L 276.876011 -233.861877 
L 274.840134 -236.167311 
L 272.804257 -238.464754 
L 270.768379 -238.995532 
L 268.732502 -240.060073 
L 266.696625 -238.55039 
L 264.660748 -238.720125 
L 262.624871 -238.898244 
L 260.588994 -240.378283 
L 258.553116 -239.06575 
L 256.517239 -241.872313 
L 254.481362 -241.847681 
L 252.445485 -243.363561 
L 250.409608 -242.428001 
L 248.373731 -242.521882 
L 246.337853 -243.340704 
L 244.301976 -244.641095 
L 242.266099 -243.119252 
L 240.230222 -239.442041 
L 238.194345 -238.102611 
L 236.158468 -238.909525 
L 234.12259 -237.993482 
L 232.086713 -238.161201 
L 230.050836 -237.233207 
L 228.014959 -234.786643 
L 225.979082 -235.420602 
L 223.943205 -237.686774 
L 221.907327 -237.870717 
L 219.87145 -238.063042 
L 217.835573 -238.510992 
L 215.799696 -235.865554 
L 213.763819 -239.280681 
L 211.727942 -238.669367 
L 209.692064 -240.660043 
L 207.656187 -240.505275 
L 205.62031 -241.150862 
L 203.584433 -242.329651 
L 201.548556 -242.620129 
L 199.512679 -243.393568 
L 197.476801 -241.804706 
L 195.440924 -240.554643 
L 193.405047 -240.695323 
L 191.36917 -241.365618 
L 189.333293 -244.603007 
L 187.297416 -247.476725 
L 185.261538 -247.040804 
L 183.225661 -245.454322 
L 181.189784 -246.225122 
L 179.153907 -247.99164 
L 177.11803 -249.152454 
L 175.082153 -250.079194 
L 173.046275 -248.690536 
L 171.010398 -248.452877 
L 168.974521 -246.931286 
L 166.938644 -251.535992 
L 164.902767 -252.55737 
L 162.86689 -253.321718 
L 160.831012 -253.580407 
L 158.795135 -253.369453 
L 156.759258 -238.913801 
L 154.723381 -223.237797 
L 152.687504 -208.246735 
L 150.651627 -191.826053 
L 148.615749 -174.038728 
L 146.579872 -158.416556 
L 144.543995 -143.306155 
L 142.508118 -127.746315 
L 140.472241 -112.043637 
L 138.436364 -93.415684 
z
" style="stroke: #ff0000; stroke-opacity: 0.3"/>
    </defs>
    <g clip-path="url(#pb36dc4e367)">
     <use xlink:href="#m8ba80e9492" x="0" y="576" style="fill: #ff0000; fill-opacity: 0.3; stroke: #ff0000; stroke-opacity: 0.3"/>
    </g>
   </g>
   <g id="matplotlib.axis_1">
    <g id="xtick_1">
     <g id="line2d_1">
      <path d="M 138.436364 512.64 
L 138.436364 69.12 
" clip-path="url(#pb36dc4e367)" style="fill: none; stroke-dasharray: 2.96,1.28; stroke-dashoffset: 0; stroke: #b0b0b0; stroke-opacity: 0.6; stroke-width: 0.8"/>
     </g>
     <g id="line2d_2">
      <defs>
       <path id="md6394dd051" d="M 0 0 
L 0 3.5 
" style="stroke: #000000; stroke-width: 0.8"/>
      </defs>
      <g>
       <use xlink:href="#md6394dd051" x="138.436364" y="512.64" style="stroke: #000000; stroke-width: 0.8"/>
      </g>
     </g>
     <g id="text_1">
      <!-- −0.15 -->
      <g transform="translate(123.113707 527.238438) scale(0.1 -0.1)">
       <defs>
        <path id="DejaVuSans-2212" d="M 678 2272 
L 4684 2272 
L 4684 1741 
L 678 1741 
L 678 2272 
z
" transform="scale(0.015625)"/>
        <path id="DejaVuSans-30" d="M 2034 4250 
Q 1547 4250 1301 3770 
Q 1056 3291 1056 2328 
Q 1056 1369 1301 889 
Q 1547 409 2034 409 
Q 2525 409 2770 889 
Q 3016 1369 3016 2328 
Q 3016 3291 2770 3770 
Q 2525 4250 2034 4250 
z
M 2034 4750 
Q 2819 4750 3233 4129 
Q 3647 3509 3647 2328 
Q 3647 1150 3233 529 
Q 2819 -91 2034 -91 
Q 1250 -91 836 529 
Q 422 1150 422 2328 
Q 422 3509 836 4129 
Q 1250 4750 2034 4750 
z
" transform="scale(0.015625)"/>
        <path id="DejaVuSans-2e" d="M 684 794 
L 1344 794 
L 1344 0 
L 684 0 
L 684 794 
z
" transform="scale(0.015625)"/>
        <path id="DejaVuSans-31" d="M 794 531 
L 1825 531 
L 1825 4091 
L 703 3866 
L 703 4441 
L 1819 4666 
L 2450 4666 
L 2450 531 
L 3481 531 
L 3481 0 
L 794 0 
L 794 531 
z
" transform="scale(0.015625)"/>
        <path id="DejaVuSans-35" d="M 691 4666 
L 3169 4666 
L 3169 4134 
L 1269 4134 
L 1269 2991 
Q 1406 3038 1543 3061 
Q 1681 3084 1819 3084 
Q 2600 3084 3056 2656 
Q 3513 2228 3513 1497 
Q 3513 744 3044 326 
Q 2575 -91 1722 -91 
Q 1428 -91 1123 -41 
Q 819 9 494 109 
L 494 744 
Q 775 591 1075 516 
Q 1375 441 1709 441 
Q 2250 441 2565 725 
Q 2881 1009 2881 1497 
Q 2881 1984 2565 2268 
Q 2250 2553 1709 2553 
Q 1456 2553 1204 2497 
Q 953 2441 691 2322 
L 691 4666 
z
" transform="scale(0.015625)"/>
       </defs>
       <use xlink:href="#DejaVuSans-2212"/>
       <use xlink:href="#DejaVuSans-30" x="83.789062"/>
       <use xlink:href="#DejaVuSans-2e" x="147.412109"/>
       <use xlink:href="#DejaVuSans-31" x="179.199219"/>
       <use xlink:href="#DejaVuSans-35" x="242.822266"/>
      </g>
     </g>
    </g>
    <g id="xtick_2">
     <g id="line2d_3">
      <path d="M 240.230222 512.64 
L 240.230222 69.12 
" clip-path="url(#pb36dc4e367)" style="fill: none; stroke-dasharray: 2.96,1.28; stroke-dashoffset: 0; stroke: #b0b0b0; stroke-opacity: 0.6; stroke-width: 0.8"/>
     </g>
     <g id="line2d_4">
      <g>
       <use xlink:href="#md6394dd051" x="240.230222" y="512.64" style="stroke: #000000; stroke-width: 0.8"/>
      </g>
     </g>
     <g id="text_2">
      <!-- −0.10 -->
      <g transform="translate(224.907566 527.238438) scale(0.1 -0.1)">
       <use xlink:href="#DejaVuSans-2212"/>
       <use xlink:href="#DejaVuSans-30" x="83.789062"/>
       <use xlink:href="#DejaVuSans-2e" x="147.412109"/>
       <use xlink:href="#DejaVuSans-31" x="179.199219"/>
       <use xlink:href="#DejaVuSans-30" x="242.822266"/>
      </g>
     </g>
    </g>
    <g id="xtick_3">
     <g id="line2d_5">
      <path d="M 342.02408 512.64 
L 342.02408 69.12 
" clip-path="url(#pb36dc4e367)" style="fill: none; stroke-dasharray: 2.96,1.28; stroke-dashoffset: 0; stroke: #b0b0b0; stroke-opacity: 0.6; stroke-width: 0.8"/>
     </g>
     <g id="line2d_6">
      <g>
       <use xlink:href="#md6394dd051" x="342.02408" y="512.64" style="stroke: #000000; stroke-width: 0.8"/>
      </g>
     </g>
     <g id="text_3">
      <!-- −0.05 -->
      <g transform="translate(326.701424 527.238438) scale(0.1 -0.1)">
       <use xlink:href="#DejaVuSans-2212"/>
       <use xlink:href="#DejaVuSans-30" x="83.789062"/>
       <use xlink:href="#DejaVuSans-2e" x="147.412109"/>
       <use xlink:href="#DejaVuSans-30" x="179.199219"/>
       <use xlink:href="#DejaVuSans-35" x="242.822266"/>
      </g>
     </g>
    </g>
    <g id="xtick_4">
     <g id="line2d_7">
      <path d="M 443.817939 512.64 
L 443.817939 69.12 
" clip-path="url(#pb36dc4e367)" style="fill: none; stroke-dasharray: 2.96,1.28; stroke-dashoffset: 0; stroke: #b0b0b0; stroke-opacity: 0.6; stroke-width: 0.8"/>
     </g>
     <g id="line2d_8">
      <g>
       <use xlink:href="#md6394dd051" x="443.817939" y="512.64" style="stroke: #000000; stroke-width: 0.8"/>
      </g>
     </g>
     <g id="text_4">
      <!-- 0.00 -->
      <g transform="translate(432.685126 527.238438) scale(0.1 -0.1)">
       <use xlink:href="#DejaVuSans-30"/>
       <use xlink:href="#DejaVuSans-2e" x="63.623047"/>
       <use xlink:href="#DejaVuSans-30" x="95.410156"/>
       <use xlink:href="#DejaVuSans-30" x="159.033203"/>
      </g>
     </g>
    </g>
    <g id="xtick_5">
     <g id="line2d_9">
      <path d="M 545.611797 512.64 
L 545.611797 69.12 
" clip-path="url(#pb36dc4e367)" style="fill: none; stroke-dasharray: 2.96,1.28; stroke-dashoffset: 0; stroke: #b0b0b0; stroke-opacity: 0.6; stroke-width: 0.8"/>
     </g>
     <g id="line2d_10">
      <g>
       <use xlink:href="#md6394dd051" x="545.611797" y="512.64" style="stroke: #000000; stroke-width: 0.8"/>
      </g>
     </g>
     <g id="text_5">
      <!-- 0.05 -->
      <g transform="translate(534.478984 527.238438) scale(0.1 -0.1)">
       <use xlink:href="#DejaVuSans-30"/>
       <use xlink:href="#DejaVuSans-2e" x="63.623047"/>
       <use xlink:href="#DejaVuSans-30" x="95.410156"/>
       <use xlink:href="#DejaVuSans-35" x="159.033203"/>
      </g>
     </g>
    </g>
    <g id="xtick_6">
     <g id="line2d_11">
      <path d="M 647.405655 512.64 
L 647.405655 69.12 
" clip-path="url(#pb36dc4e367)" style="fill: none; stroke-dasharray: 2.96,1.28; stroke-dashoffset: 0; stroke: #b0b0b0; stroke-opacity: 0.6; stroke-width: 0.8"/>
     </g>
     <g id="line2d_12">
      <g>
       <use xlink:href="#md6394dd051" x="647.405655" y="512.64" style="stroke: #000000; stroke-width: 0.8"/>
      </g>
     </g>
     <g id="text_6">
      <!-- 0.10 -->
      <g transform="translate(636.272843 527.238438) scale(0.1 -0.1)">
       <use xlink:href="#DejaVuSans-30"/>
       <use xlink:href="#DejaVuSans-2e" x="63.623047"/>
       <use xlink:href="#DejaVuSans-31" x="95.410156"/>
       <use xlink:href="#DejaVuSans-30" x="159.033203"/>
      </g>
     </g>
    </g>
    <g id="xtick_7">
     <g id="line2d_13">
      <path d="M 749.199514 512.64 
L 749.199514 69.12 
" clip-path="url(#pb36dc4e367)" style="fill: none; stroke-dasharray: 2.96,1.28; stroke-dashoffset: 0; stroke: #b0b0b0; stroke-opacity: 0.6; stroke-width: 0.8"/>
     </g>
     <g id="line2d_14">
      <g>
       <use xlink:href="#md6394dd051" x="749.199514" y="512.64" style="stroke: #000000; stroke-width: 0.8"/>
      </g>
     </g>
     <g id="text_7">
      <!-- 0.15 -->
      <g transform="translate(738.066701 527.238438) scale(0.1 -0.1)">
       <use xlink:href="#DejaVuSans-30"/>
       <use xlink:href="#DejaVuSans-2e" x="63.623047"/>
       <use xlink:href="#DejaVuSans-31" x="95.410156"/>
       <use xlink:href="#DejaVuSans-35" x="159.033203"/>
      </g>
     </g>
    </g>
    <g id="text_8">
     <!-- Time (s) -->
     <g transform="translate(414.339531 543.955938) scale(0.14 -0.14)">
      <defs>
       <path id="DejaVuSans-54" d="M -19 4666 
L 3928 4666 
L 3928 4134 
L 2272 4134 
L 2272 0 
L 1638 0 
L 1638 4134 
L -19 4134 
L -19 4666 
z
" transform="scale(0.015625)"/>
       <path id="DejaVuSans-69" d="M 603 3500 
L 1178 3500 
L 1178 0 
L 603 0 
L 603 3500 
z
M 603 4863 
L 1178 4863 
L 1178 4134 
L 603 4134 
L 603 4863 
z
" transform="scale(0.015625)"/>
       <path id="DejaVuSans-6d" d="M 3328 2828 
Q 3544 3216 3844 3400 
Q 4144 3584 4550 3584 
Q 5097 3584 5394 3201 
Q 5691 2819 5691 2113 
L 5691 0 
L 5113 0 
L 5113 2094 
Q 5113 2597 4934 2840 
Q 4756 3084 4391 3084 
Q 3944 3084 3684 2787 
Q 3425 2491 3425 1978 
L 3425 0 
L 2847 0 
L 2847 2094 
Q 2847 2600 2669 2842 
Q 2491 3084 2119 3084 
Q 1678 3084 1418 2786 
Q 1159 2488 1159 1978 
L 1159 0 
L 581 0 
L 581 3500 
L 1159 3500 
L 1159 2956 
Q 1356 3278 1631 3431 
Q 1906 3584 2284 3584 
Q 2666 3584 2933 3390 
Q 3200 3197 3328 2828 
z
" transform="scale(0.015625)"/>
       <path id="DejaVuSans-65" d="M 3597 1894 
L 3597 1613 
L 953 1613 
Q 991 1019 1311 708 
Q 1631 397 2203 397 
Q 2534 397 2845 478 
Q 3156 559 3463 722 
L 3463 178 
Q 3153 47 2828 -22 
Q 2503 -91 2169 -91 
Q 1331 -91 842 396 
Q 353 884 353 1716 
Q 353 2575 817 3079 
Q 1281 3584 2069 3584 
Q 2775 3584 3186 3129 
Q 3597 2675 3597 1894 
z
M 3022 2063 
Q 3016 2534 2758 2815 
Q 2500 3097 2075 3097 
Q 1594 3097 1305 2825 
Q 1016 2553 972 2059 
L 3022 2063 
z
" transform="scale(0.015625)"/>
       <path id="DejaVuSans-20" transform="scale(0.015625)"/>
       <path id="DejaVuSans-28" d="M 1984 4856 
Q 1566 4138 1362 3434 
Q 1159 2731 1159 2009 
Q 1159 1288 1364 580 
Q 1569 -128 1984 -844 
L 1484 -844 
Q 1016 -109 783 600 
Q 550 1309 550 2009 
Q 550 2706 781 3412 
Q 1013 4119 1484 4856 
L 1984 4856 
z
" transform="scale(0.015625)"/>
       <path id="DejaVuSans-73" d="M 2834 3397 
L 2834 2853 
Q 2591 2978 2328 3040 
Q 2066 3103 1784 3103 
Q 1356 3103 1142 2972 
Q 928 2841 928 2578 
Q 928 2378 1081 2264 
Q 1234 2150 1697 2047 
L 1894 2003 
Q 2506 1872 2764 1633 
Q 3022 1394 3022 966 
Q 3022 478 2636 193 
Q 2250 -91 1575 -91 
Q 1294 -91 989 -36 
Q 684 19 347 128 
L 347 722 
Q 666 556 975 473 
Q 1284 391 1588 391 
Q 1994 391 2212 530 
Q 2431 669 2431 922 
Q 2431 1156 2273 1281 
Q 2116 1406 1581 1522 
L 1381 1569 
Q 847 1681 609 1914 
Q 372 2147 372 2553 
Q 372 3047 722 3315 
Q 1072 3584 1716 3584 
Q 2034 3584 2315 3537 
Q 2597 3491 2834 3397 
z
" transform="scale(0.015625)"/>
       <path id="DejaVuSans-29" d="M 513 4856 
L 1013 4856 
Q 1481 4119 1714 3412 
Q 1947 2706 1947 2009 
Q 1947 1309 1714 600 
Q 1481 -109 1013 -844 
L 513 -844 
Q 928 -128 1133 580 
Q 1338 1288 1338 2009 
Q 1338 2731 1133 3434 
Q 928 4138 513 4856 
z
" transform="scale(0.015625)"/>
      </defs>
      <use xlink:href="#DejaVuSans-54"/>
      <use xlink:href="#DejaVuSans-69" x="57.958984"/>
      <use xlink:href="#DejaVuSans-6d" x="85.742188"/>
      <use xlink:href="#DejaVuSans-65" x="183.154297"/>
      <use xlink:href="#DejaVuSans-20" x="244.677734"/>
      <use xlink:href="#DejaVuSans-28" x="276.464844"/>
      <use xlink:href="#DejaVuSans-73" x="315.478516"/>
      <use xlink:href="#DejaVuSans-29" x="367.578125"/>
     </g>
    </g>
   </g>
   <g id="matplotlib.axis_2">
    <g id="ytick_1">
     <g id="line2d_15">
      <path d="M 108 482.967633 
L 777.6 482.967633 
" clip-path="url(#pb36dc4e367)" style="fill: none; stroke-dasharray: 2.96,1.28; stroke-dashoffset: 0; stroke: #b0b0b0; stroke-opacity: 0.6; stroke-width: 0.8"/>
     </g>
     <g id="line2d_16">
      <defs>
       <path id="m8f2b6742e5" d="M 0 0 
L -3.5 0 
" style="stroke: #000000; stroke-width: 0.8"/>
      </defs>
      <g>
       <use xlink:href="#m8f2b6742e5" x="108" y="482.967633" style="stroke: #000000; stroke-width: 0.8"/>
      </g>
     </g>
     <g id="text_9">
      <!-- 0.2 -->
      <g transform="translate(85.096875 486.766851) scale(0.1 -0.1)">
       <defs>
        <path id="DejaVuSans-32" d="M 1228 531 
L 3431 531 
L 3431 0 
L 469 0 
L 469 531 
Q 828 903 1448 1529 
Q 2069 2156 2228 2338 
Q 2531 2678 2651 2914 
Q 2772 3150 2772 3378 
Q 2772 3750 2511 3984 
Q 2250 4219 1831 4219 
Q 1534 4219 1204 4116 
Q 875 4013 500 3803 
L 500 4441 
Q 881 4594 1212 4672 
Q 1544 4750 1819 4750 
Q 2544 4750 2975 4387 
Q 3406 4025 3406 3419 
Q 3406 3131 3298 2873 
Q 3191 2616 2906 2266 
Q 2828 2175 2409 1742 
Q 1991 1309 1228 531 
z
" transform="scale(0.015625)"/>
       </defs>
       <use xlink:href="#DejaVuSans-30"/>
       <use xlink:href="#DejaVuSans-2e" x="63.623047"/>
       <use xlink:href="#DejaVuSans-32" x="95.410156"/>
      </g>
     </g>
    </g>
    <g id="ytick_2">
     <g id="line2d_17">
      <path d="M 108 402.139937 
L 777.6 402.139937 
" clip-path="url(#pb36dc4e367)" style="fill: none; stroke-dasharray: 2.96,1.28; stroke-dashoffset: 0; stroke: #b0b0b0; stroke-opacity: 0.6; stroke-width: 0.8"/>
     </g>
     <g id="line2d_18">
      <g>
       <use xlink:href="#m8f2b6742e5" x="108" y="402.139937" style="stroke: #000000; stroke-width: 0.8"/>
      </g>
     </g>
     <g id="text_10">
      <!-- 0.3 -->
      <g transform="translate(85.096875 405.939155) scale(0.1 -0.1)">
       <defs>
        <path id="DejaVuSans-33" d="M 2597 2516 
Q 3050 2419 3304 2112 
Q 3559 1806 3559 1356 
Q 3559 666 3084 287 
Q 2609 -91 1734 -91 
Q 1441 -91 1130 -33 
Q 819 25 488 141 
L 488 750 
Q 750 597 1062 519 
Q 1375 441 1716 441 
Q 2309 441 2620 675 
Q 2931 909 2931 1356 
Q 2931 1769 2642 2001 
Q 2353 2234 1838 2234 
L 1294 2234 
L 1294 2753 
L 1863 2753 
Q 2328 2753 2575 2939 
Q 2822 3125 2822 3475 
Q 2822 3834 2567 4026 
Q 2313 4219 1838 4219 
Q 1578 4219 1281 4162 
Q 984 4106 628 3988 
L 628 4550 
Q 988 4650 1302 4700 
Q 1616 4750 1894 4750 
Q 2613 4750 3031 4423 
Q 3450 4097 3450 3541 
Q 3450 3153 3228 2886 
Q 3006 2619 2597 2516 
z
" transform="scale(0.015625)"/>
       </defs>
       <use xlink:href="#DejaVuSans-30"/>
       <use xlink:href="#DejaVuSans-2e" x="63.623047"/>
       <use xlink:href="#DejaVuSans-33" x="95.410156"/>
      </g>
     </g>
    </g>
    <g id="ytick_3">
     <g id="line2d_19">
      <path d="M 108 321.312241 
L 777.6 321.312241 
" clip-path="url(#pb36dc4e367)" style="fill: none; stroke-dasharray: 2.96,1.28; stroke-dashoffset: 0; stroke: #b0b0b0; stroke-opacity: 0.6; stroke-width: 0.8"/>
     </g>
     <g id="line2d_20">
      <g>
       <use xlink:href="#m8f2b6742e5" x="108" y="321.312241" style="stroke: #000000; stroke-width: 0.8"/>
      </g>
     </g>
     <g id="text_11">
      <!-- 0.4 -->
      <g transform="translate(85.096875 325.111459) scale(0.1 -0.1)">
       <defs>
        <path id="DejaVuSans-34" d="M 2419 4116 
L 825 1625 
L 2419 1625 
L 2419 4116 
z
M 2253 4666 
L 3047 4666 
L 3047 1625 
L 3713 1625 
L 3713 1100 
L 3047 1100 
L 3047 0 
L 2419 0 
L 2419 1100 
L 313 1100 
L 313 1709 
L 2253 4666 
z
" transform="scale(0.015625)"/>
       </defs>
       <use xlink:href="#DejaVuSans-30"/>
       <use xlink:href="#DejaVuSans-2e" x="63.623047"/>
       <use xlink:href="#DejaVuSans-34" x="95.410156"/>
      </g>
     </g>
    </g>
    <g id="ytick_4">
     <g id="line2d_21">
      <path d="M 108 240.484545 
L 777.6 240.484545 
" clip-path="url(#pb36dc4e367)" style="fill: none; stroke-dasharray: 2.96,1.28; stroke-dashoffset: 0; stroke: #b0b0b0; stroke-opacity: 0.6; stroke-width: 0.8"/>
     </g>
     <g id="line2d_22">
      <g>
       <use xlink:href="#m8f2b6742e5" x="108" y="240.484545" style="stroke: #000000; stroke-width: 0.8"/>
      </g>
     </g>
     <g id="text_12">
      <!-- 0.5 -->
      <g transform="translate(85.096875 244.283763) scale(0.1 -0.1)">
       <use xlink:href="#DejaVuSans-30"/>
       <use xlink:href="#DejaVuSans-2e" x="63.623047"/>
       <use xlink:href="#DejaVuSans-35" x="95.410156"/>
      </g>
     </g>
    </g>
    <g id="ytick_5">
     <g id="line2d_23">
      <path d="M 108 159.656849 
L 777.6 159.656849 
" clip-path="url(#pb36dc4e367)" style="fill: none; stroke-dasharray: 2.96,1.28; stroke-dashoffset: 0; stroke: #b0b0b0; stroke-opacity: 0.6; stroke-width: 0.8"/>
     </g>
     <g id="line2d_24">
      <g>
       <use xlink:href="#m8f2b6742e5" x="108" y="159.656849" style="stroke: #000000; stroke-width: 0.8"/>
      </g>
     </g>
     <g id="text_13">
      <!-- 0.6 -->
      <g transform="translate(85.096875 163.456067) scale(0.1 -0.1)">
       <defs>
        <path id="DejaVuSans-36" d="M 2113 2584 
Q 1688 2584 1439 2293 
Q 1191 2003 1191 1497 
Q 1191 994 1439 701 
Q 1688 409 2113 409 
Q 2538 409 2786 701 
Q 3034 994 3034 1497 
Q 3034 2003 2786 2293 
Q 2538 2584 2113 2584 
z
M 3366 4563 
L 3366 3988 
Q 3128 4100 2886 4159 
Q 2644 4219 2406 4219 
Q 1781 4219 1451 3797 
Q 1122 3375 1075 2522 
Q 1259 2794 1537 2939 
Q 1816 3084 2150 3084 
Q 2853 3084 3261 2657 
Q 3669 2231 3669 1497 
Q 3669 778 3244 343 
Q 2819 -91 2113 -91 
Q 1303 -91 875 529 
Q 447 1150 447 2328 
Q 447 3434 972 4092 
Q 1497 4750 2381 4750 
Q 2619 4750 2861 4703 
Q 3103 4656 3366 4563 
z
" transform="scale(0.015625)"/>
       </defs>
       <use xlink:href="#DejaVuSans-30"/>
       <use xlink:href="#DejaVuSans-2e" x="63.623047"/>
       <use xlink:href="#DejaVuSans-36" x="95.410156"/>
      </g>
     </g>
    </g>
    <g id="ytick_6">
     <g id="line2d_25">
      <path d="M 108 78.829153 
L 777.6 78.829153 
" clip-path="url(#pb36dc4e367)" style="fill: none; stroke-dasharray: 2.96,1.28; stroke-dashoffset: 0; stroke: #b0b0b0; stroke-opacity: 0.6; stroke-width: 0.8"/>
     </g>
     <g id="line2d_26">
      <g>
       <use xlink:href="#m8f2b6742e5" x="108" y="78.829153" style="stroke: #000000; stroke-width: 0.8"/>
      </g>
     </g>
     <g id="text_14">
      <!-- 0.7 -->
      <g transform="translate(85.096875 82.628371) scale(0.1 -0.1)">
       <defs>
        <path id="DejaVuSans-37" d="M 525 4666 
L 3525 4666 
L 3525 4397 
L 1831 0 
L 1172 0 
L 2766 4134 
L 525 4134 
L 525 4666 
z
" transform="scale(0.015625)"/>
       </defs>
       <use xlink:href="#DejaVuSans-30"/>
       <use xlink:href="#DejaVuSans-2e" x="63.623047"/>
       <use xlink:href="#DejaVuSans-37" x="95.410156"/>
      </g>
     </g>
    </g>
    <g id="text_15">
     <!-- Normalized Spike Rate -->
     <g transform="translate(78.185312 370.013906) rotate(-90) scale(0.14 -0.14)">
      <defs>
       <path id="DejaVuSans-4e" d="M 628 4666 
L 1478 4666 
L 3547 763 
L 3547 4666 
L 4159 4666 
L 4159 0 
L 3309 0 
L 1241 3903 
L 1241 0 
L 628 0 
L 628 4666 
z
" transform="scale(0.015625)"/>
       <path id="DejaVuSans-6f" d="M 1959 3097 
Q 1497 3097 1228 2736 
Q 959 2375 959 1747 
Q 959 1119 1226 758 
Q 1494 397 1959 397 
Q 2419 397 2687 759 
Q 2956 1122 2956 1747 
Q 2956 2369 2687 2733 
Q 2419 3097 1959 3097 
z
M 1959 3584 
Q 2709 3584 3137 3096 
Q 3566 2609 3566 1747 
Q 3566 888 3137 398 
Q 2709 -91 1959 -91 
Q 1206 -91 779 398 
Q 353 888 353 1747 
Q 353 2609 779 3096 
Q 1206 3584 1959 3584 
z
" transform="scale(0.015625)"/>
       <path id="DejaVuSans-72" d="M 2631 2963 
Q 2534 3019 2420 3045 
Q 2306 3072 2169 3072 
Q 1681 3072 1420 2755 
Q 1159 2438 1159 1844 
L 1159 0 
L 581 0 
L 581 3500 
L 1159 3500 
L 1159 2956 
Q 1341 3275 1631 3429 
Q 1922 3584 2338 3584 
Q 2397 3584 2469 3576 
Q 2541 3569 2628 3553 
L 2631 2963 
z
" transform="scale(0.015625)"/>
       <path id="DejaVuSans-61" d="M 2194 1759 
Q 1497 1759 1228 1600 
Q 959 1441 959 1056 
Q 959 750 1161 570 
Q 1363 391 1709 391 
Q 2188 391 2477 730 
Q 2766 1069 2766 1631 
L 2766 1759 
L 2194 1759 
z
M 3341 1997 
L 3341 0 
L 2766 0 
L 2766 531 
Q 2569 213 2275 61 
Q 1981 -91 1556 -91 
Q 1019 -91 701 211 
Q 384 513 384 1019 
Q 384 1609 779 1909 
Q 1175 2209 1959 2209 
L 2766 2209 
L 2766 2266 
Q 2766 2663 2505 2880 
Q 2244 3097 1772 3097 
Q 1472 3097 1187 3025 
Q 903 2953 641 2809 
L 641 3341 
Q 956 3463 1253 3523 
Q 1550 3584 1831 3584 
Q 2591 3584 2966 3190 
Q 3341 2797 3341 1997 
z
" transform="scale(0.015625)"/>
       <path id="DejaVuSans-6c" d="M 603 4863 
L 1178 4863 
L 1178 0 
L 603 0 
L 603 4863 
z
" transform="scale(0.015625)"/>
       <path id="DejaVuSans-7a" d="M 353 3500 
L 3084 3500 
L 3084 2975 
L 922 459 
L 3084 459 
L 3084 0 
L 275 0 
L 275 525 
L 2438 3041 
L 353 3041 
L 353 3500 
z
" transform="scale(0.015625)"/>
       <path id="DejaVuSans-64" d="M 2906 2969 
L 2906 4863 
L 3481 4863 
L 3481 0 
L 2906 0 
L 2906 525 
Q 2725 213 2448 61 
Q 2172 -91 1784 -91 
Q 1150 -91 751 415 
Q 353 922 353 1747 
Q 353 2572 751 3078 
Q 1150 3584 1784 3584 
Q 2172 3584 2448 3432 
Q 2725 3281 2906 2969 
z
M 947 1747 
Q 947 1113 1208 752 
Q 1469 391 1925 391 
Q 2381 391 2643 752 
Q 2906 1113 2906 1747 
Q 2906 2381 2643 2742 
Q 2381 3103 1925 3103 
Q 1469 3103 1208 2742 
Q 947 2381 947 1747 
z
" transform="scale(0.015625)"/>
       <path id="DejaVuSans-53" d="M 3425 4513 
L 3425 3897 
Q 3066 4069 2747 4153 
Q 2428 4238 2131 4238 
Q 1616 4238 1336 4038 
Q 1056 3838 1056 3469 
Q 1056 3159 1242 3001 
Q 1428 2844 1947 2747 
L 2328 2669 
Q 3034 2534 3370 2195 
Q 3706 1856 3706 1288 
Q 3706 609 3251 259 
Q 2797 -91 1919 -91 
Q 1588 -91 1214 -16 
Q 841 59 441 206 
L 441 856 
Q 825 641 1194 531 
Q 1563 422 1919 422 
Q 2459 422 2753 634 
Q 3047 847 3047 1241 
Q 3047 1584 2836 1778 
Q 2625 1972 2144 2069 
L 1759 2144 
Q 1053 2284 737 2584 
Q 422 2884 422 3419 
Q 422 4038 858 4394 
Q 1294 4750 2059 4750 
Q 2388 4750 2728 4690 
Q 3069 4631 3425 4513 
z
" transform="scale(0.015625)"/>
       <path id="DejaVuSans-70" d="M 1159 525 
L 1159 -1331 
L 581 -1331 
L 581 3500 
L 1159 3500 
L 1159 2969 
Q 1341 3281 1617 3432 
Q 1894 3584 2278 3584 
Q 2916 3584 3314 3078 
Q 3713 2572 3713 1747 
Q 3713 922 3314 415 
Q 2916 -91 2278 -91 
Q 1894 -91 1617 61 
Q 1341 213 1159 525 
z
M 3116 1747 
Q 3116 2381 2855 2742 
Q 2594 3103 2138 3103 
Q 1681 3103 1420 2742 
Q 1159 2381 1159 1747 
Q 1159 1113 1420 752 
Q 1681 391 2138 391 
Q 2594 391 2855 752 
Q 3116 1113 3116 1747 
z
" transform="scale(0.015625)"/>
       <path id="DejaVuSans-6b" d="M 581 4863 
L 1159 4863 
L 1159 1991 
L 2875 3500 
L 3609 3500 
L 1753 1863 
L 3688 0 
L 2938 0 
L 1159 1709 
L 1159 0 
L 581 0 
L 581 4863 
z
" transform="scale(0.015625)"/>
       <path id="DejaVuSans-52" d="M 2841 2188 
Q 3044 2119 3236 1894 
Q 3428 1669 3622 1275 
L 4263 0 
L 3584 0 
L 2988 1197 
Q 2756 1666 2539 1819 
Q 2322 1972 1947 1972 
L 1259 1972 
L 1259 0 
L 628 0 
L 628 4666 
L 2053 4666 
Q 2853 4666 3247 4331 
Q 3641 3997 3641 3322 
Q 3641 2881 3436 2590 
Q 3231 2300 2841 2188 
z
M 1259 4147 
L 1259 2491 
L 2053 2491 
Q 2509 2491 2742 2702 
Q 2975 2913 2975 3322 
Q 2975 3731 2742 3939 
Q 2509 4147 2053 4147 
L 1259 4147 
z
" transform="scale(0.015625)"/>
       <path id="DejaVuSans-74" d="M 1172 4494 
L 1172 3500 
L 2356 3500 
L 2356 3053 
L 1172 3053 
L 1172 1153 
Q 1172 725 1289 603 
Q 1406 481 1766 481 
L 2356 481 
L 2356 0 
L 1766 0 
Q 1100 0 847 248 
Q 594 497 594 1153 
L 594 3053 
L 172 3053 
L 172 3500 
L 594 3500 
L 594 4494 
L 1172 4494 
z
" transform="scale(0.015625)"/>
      </defs>
      <use xlink:href="#DejaVuSans-4e"/>
      <use xlink:href="#DejaVuSans-6f" x="74.804688"/>
      <use xlink:href="#DejaVuSans-72" x="135.986328"/>
      <use xlink:href="#DejaVuSans-6d" x="175.349609"/>
      <use xlink:href="#DejaVuSans-61" x="272.761719"/>
      <use xlink:href="#DejaVuSans-6c" x="334.041016"/>
      <use xlink:href="#DejaVuSans-69" x="361.824219"/>
      <use xlink:href="#DejaVuSans-7a" x="389.607422"/>
      <use xlink:href="#DejaVuSans-65" x="442.097656"/>
      <use xlink:href="#DejaVuSans-64" x="503.621094"/>
      <use xlink:href="#DejaVuSans-20" x="567.097656"/>
      <use xlink:href="#DejaVuSans-53" x="598.884766"/>
      <use xlink:href="#DejaVuSans-70" x="662.361328"/>
      <use xlink:href="#DejaVuSans-69" x="725.837891"/>
      <use xlink:href="#DejaVuSans-6b" x="753.621094"/>
      <use xlink:href="#DejaVuSans-65" x="807.90625"/>
      <use xlink:href="#DejaVuSans-20" x="869.429688"/>
      <use xlink:href="#DejaVuSans-52" x="901.216797"/>
      <use xlink:href="#DejaVuSans-61" x="968.449219"/>
      <use xlink:href="#DejaVuSans-74" x="1029.728516"/>
      <use xlink:href="#DejaVuSans-65" x="1068.9375"/>
     </g>
    </g>
   </g>
   <g id="line2d_27">
    <path d="M 138.436364 482.685388 
L 140.472241 466.824291 
L 142.508118 449.818814 
L 146.579872 420.75225 
L 148.615749 407.118579 
L 158.795135 330.923966 
L 160.831012 336.188099 
L 162.86689 338.710309 
L 164.902767 341.821379 
L 166.938644 339.791675 
L 168.974521 341.360487 
L 171.010398 341.879719 
L 173.046275 342.28419 
L 175.082153 341.287726 
L 177.11803 341.629076 
L 179.153907 342.331574 
L 183.225661 346.479491 
L 185.261538 346.766051 
L 187.297416 345.232459 
L 189.333293 339.214496 
L 193.405047 341.554163 
L 195.440924 342.419476 
L 197.476801 342.176509 
L 199.512679 341.748576 
L 201.548556 341.974942 
L 203.584433 342.054159 
L 205.62031 341.024392 
L 207.656187 336.629737 
L 209.692064 337.840904 
L 211.727942 336.369773 
L 213.763819 335.855143 
L 215.799696 338.445918 
L 217.835573 339.432743 
L 219.87145 340.820508 
L 221.907327 340.297941 
L 223.943205 340.299924 
L 225.979082 340.682871 
L 228.014959 339.809304 
L 230.050836 346.155111 
L 232.086713 345.299894 
L 234.12259 344.293697 
L 236.158468 343.451416 
L 238.194345 344.219155 
L 240.230222 341.496861 
L 242.266099 341.520619 
L 244.301976 342.304094 
L 246.337853 341.883935 
L 248.373731 347.539295 
L 250.409608 348.347299 
L 252.445485 351.179062 
L 254.481362 351.502963 
L 256.517239 350.624068 
L 258.553116 348.831254 
L 260.588994 347.830027 
L 262.624871 347.616593 
L 264.660748 348.514704 
L 266.696625 345.984053 
L 268.732502 344.949921 
L 270.768379 342.13723 
L 272.804257 343.469688 
L 274.840134 344.040635 
L 278.911888 348.931802 
L 280.947765 351.631682 
L 282.983642 350.813989 
L 285.01952 348.248707 
L 287.055397 348.23625 
L 289.091274 348.536297 
L 291.127151 347.706757 
L 293.163028 344.911408 
L 295.198905 346.763205 
L 297.234783 346.374383 
L 299.27066 347.590909 
L 301.306537 347.123286 
L 303.342414 346.389509 
L 305.378291 346.131596 
L 307.414168 349.299118 
L 309.450046 353.729354 
L 311.485923 351.858673 
L 313.5218 351.661226 
L 315.557677 352.670682 
L 317.593554 351.344081 
L 319.629431 351.194755 
L 321.665309 350.575619 
L 323.701186 352.914693 
L 327.77294 357.01301 
L 329.808817 357.321154 
L 331.844694 354.291216 
L 333.880572 357.981134 
L 335.916449 356.801923 
L 337.952326 359.638986 
L 339.988203 359.788276 
L 342.02408 358.640341 
L 344.059957 357.828498 
L 346.095835 356.596985 
L 348.131712 356.284081 
L 350.167589 356.090941 
L 352.203466 358.909294 
L 354.239343 359.759687 
L 356.27522 358.895078 
L 358.311098 359.530949 
L 360.346975 357.63161 
L 362.382852 360.147411 
L 364.418729 358.142076 
L 366.454606 358.090198 
L 368.490483 358.304597 
L 370.526361 358.065551 
L 372.562238 362.201371 
L 374.598115 361.97301 
L 376.633992 361.917352 
L 378.669869 361.255363 
L 380.705746 360.743185 
L 382.741624 360.577616 
L 384.777501 363.213118 
L 386.813378 362.671342 
L 388.849255 362.560729 
L 390.885132 361.652644 
L 392.921009 362.821303 
L 394.956887 359.308679 
L 396.992764 357.926371 
L 399.028641 357.369764 
L 401.064518 356.098402 
L 403.100395 353.517981 
L 405.136272 349.376063 
L 407.17215 346.242384 
L 411.243904 337.643314 
L 413.279781 333.801876 
L 415.315658 331.479776 
L 417.351535 327.251935 
L 421.42329 322.203089 
L 423.459167 320.249917 
L 425.495044 317.672948 
L 427.530921 316.343237 
L 429.566798 314.112187 
L 431.602676 311.16852 
L 433.638553 308.77448 
L 435.67443 306.906396 
L 437.710307 304.513095 
L 439.746184 301.887971 
L 441.782061 301.147568 
L 443.817939 298.466244 
L 445.853816 302.234873 
L 447.889693 302.487991 
L 449.92557 302.926181 
L 451.961447 305.207512 
L 453.997324 305.859879 
L 456.033202 304.359645 
L 458.069079 305.893204 
L 460.104956 305.746032 
L 462.140833 303.635925 
L 464.17671 305.150407 
L 466.212587 304.279593 
L 468.248465 305.948906 
L 470.284342 303.642101 
L 472.320219 303.023466 
L 474.356096 301.30237 
L 476.391973 301.831486 
L 478.42785 302.478279 
L 480.463728 298.708011 
L 482.499605 297.01128 
L 484.535482 296.493137 
L 486.571359 293.832625 
L 488.607236 290.451309 
L 490.643113 289.030419 
L 492.678991 284.366564 
L 494.714868 281.60482 
L 496.750745 277.268782 
L 498.786622 271.508103 
L 500.822499 266.374741 
L 502.858376 262.297916 
L 504.894254 256.458995 
L 506.930131 249.57389 
L 508.966008 241.394436 
L 513.037762 230.243756 
L 515.073639 224.97956 
L 517.109517 214.268489 
L 519.145394 205.922837 
L 521.181271 198.94595 
L 523.217148 191.554072 
L 525.253025 184.762082 
L 527.288902 176.840256 
L 529.32478 170.974899 
L 533.396534 157.229402 
L 535.432411 149.597452 
L 537.468288 145.897361 
L 539.504165 143.208395 
L 541.540043 138.953322 
L 543.57592 132.733078 
L 547.647674 125.572608 
L 549.683551 123.402441 
L 551.719428 122.392515 
L 553.755306 120.66451 
L 555.791183 118.060839 
L 557.82706 121.691519 
L 559.862937 117.955698 
L 561.898814 121.760764 
L 563.934691 122.911471 
L 568.006446 126.531547 
L 572.0782 131.308817 
L 574.114077 132.05641 
L 576.149954 135.713762 
L 578.185832 136.300619 
L 580.221709 137.464225 
L 582.257586 139.453419 
L 584.293463 144.873557 
L 586.32934 146.85435 
L 588.365217 149.863766 
L 590.401095 149.557771 
L 592.436972 150.62276 
L 594.472849 151.533533 
L 596.508726 149.945977 
L 598.544603 150.941818 
L 600.58048 154.971515 
L 602.616358 154.818849 
L 604.652235 155.753023 
L 606.688112 155.539856 
L 608.723989 155.998711 
L 610.759866 155.276314 
L 612.795743 154.127157 
L 614.831621 156.282466 
L 616.867498 155.971388 
L 618.903375 156.57436 
L 620.939252 156.218884 
L 622.975129 154.905803 
L 625.011006 154.345177 
L 627.046884 153.604928 
L 629.082761 154.212986 
L 631.118638 157.758524 
L 633.154515 158.446754 
L 635.190392 157.882812 
L 637.226269 159.403762 
L 639.262147 157.800905 
L 641.298024 160.057313 
L 643.333901 160.3404 
L 645.369778 160.201342 
L 647.405655 160.797542 
L 649.441532 161.062577 
L 651.47741 162.065306 
L 653.513287 163.911668 
L 655.549164 164.442516 
L 657.585041 164.458876 
L 659.620918 165.279782 
L 661.656795 165.743224 
L 663.692673 166.018686 
L 665.72855 165.299144 
L 667.764427 166.626177 
L 669.800304 166.576551 
L 671.836181 165.992753 
L 673.872058 164.57413 
L 675.907936 166.551019 
L 677.943813 167.553604 
L 679.97969 169.994624 
L 682.015567 170.506082 
L 684.051444 172.002495 
L 686.087321 172.630114 
L 688.123199 174.526374 
L 690.159076 175.604302 
L 692.194953 176.276308 
L 694.23083 176.770727 
L 696.266707 177.558862 
L 698.302584 179.919049 
L 700.338462 181.774579 
L 702.374339 183.869759 
L 704.410216 187.789852 
L 706.446093 190.517567 
L 708.48197 192.100827 
L 710.517847 195.686453 
L 712.553725 196.924752 
L 714.589602 200.283269 
L 716.625479 201.583973 
L 718.661356 203.720359 
L 720.697233 206.284796 
L 722.73311 208.009689 
L 724.768988 208.590584 
L 726.804865 209.310194 
L 728.840742 210.694947 
L 736.984251 301.800366 
L 745.127759 387.063848 
L 747.163636 409.197426 
L 747.163636 409.197426 
" clip-path="url(#pb36dc4e367)" style="fill: none; stroke: #0000ff; stroke-width: 3; stroke-linecap: square"/>
   </g>
   <g id="line2d_28">
    <path d="M 138.436364 487.532158 
L 140.472241 469.536162 
L 148.615749 409.080241 
L 150.651627 391.774703 
L 152.687504 375.759264 
L 158.795135 331.778912 
L 160.831012 331.569115 
L 162.86689 331.778805 
L 164.902767 332.52846 
L 166.938644 333.476235 
L 168.974521 337.892088 
L 171.010398 336.408085 
L 173.046275 336.241658 
L 175.082153 334.929433 
L 177.11803 335.838472 
L 179.153907 336.923303 
L 181.189784 338.55459 
L 183.225661 339.325724 
L 185.261538 337.740496 
L 187.297416 337.34264 
L 189.333293 340.144541 
L 191.36917 343.275964 
L 193.405047 343.919143 
L 195.440924 344.098122 
L 197.476801 342.85425 
L 199.512679 341.301454 
L 201.548556 342.056187 
L 203.584433 342.386706 
L 205.62031 343.51894 
L 207.656187 344.145889 
L 209.692064 344.009112 
L 211.727942 345.921034 
L 213.763819 345.313119 
L 215.799696 348.701011 
L 217.835573 346.08674 
L 219.87145 346.535202 
L 223.943205 346.893548 
L 225.979082 349.165135 
L 228.014959 349.767149 
L 230.050836 347.323729 
L 232.086713 346.393021 
L 234.12259 346.571727 
L 236.158468 345.67075 
L 238.194345 346.473009 
L 240.230222 345.132384 
L 242.266099 341.444231 
L 244.301976 339.910988 
L 246.337853 341.181582 
L 248.373731 341.99662 
L 250.409608 342.13015 
L 252.445485 341.237781 
L 254.481362 342.700691 
L 256.517239 342.733264 
L 258.553116 345.5218 
L 260.588994 344.261139 
L 262.624871 345.657372 
L 266.696625 345.973534 
L 268.732502 344.567012 
L 270.768379 345.67817 
L 272.804257 346.147178 
L 276.876011 350.640658 
L 278.911888 351.074423 
L 280.947765 354.832872 
L 282.983642 358.994175 
L 285.01952 359.63503 
L 287.055397 357.935555 
L 289.091274 357.869095 
L 291.127151 358.968409 
L 293.163028 361.442079 
L 295.198905 363.33819 
L 297.234783 363.936133 
L 299.27066 362.480566 
L 301.306537 362.070992 
L 303.342414 360.796167 
L 305.378291 360.586587 
L 307.414168 361.337791 
L 309.450046 363.550067 
L 311.485923 362.711171 
L 313.5218 362.77598 
L 315.557677 359.042581 
L 317.593554 359.324244 
L 319.629431 360.452037 
L 321.665309 360.566724 
L 323.701186 360.34428 
L 325.737063 359.828901 
L 327.77294 361.813031 
L 329.808817 361.807715 
L 331.844694 361.6015 
L 333.880572 361.041678 
L 335.916449 361.76025 
L 337.952326 360.986588 
L 339.988203 362.300213 
L 342.02408 362.577064 
L 346.095835 364.163652 
L 348.131712 363.123851 
L 350.167589 363.786749 
L 352.203466 365.78571 
L 354.239343 366.248261 
L 356.27522 369.849839 
L 358.311098 369.403887 
L 360.346975 369.247181 
L 362.382852 367.294251 
L 364.418729 367.24529 
L 366.454606 369.129295 
L 368.490483 368.53337 
L 372.562238 366.718081 
L 376.633992 364.028363 
L 378.669869 363.829871 
L 380.705746 361.153048 
L 382.741624 361.358681 
L 384.777501 362.178684 
L 386.813378 360.775879 
L 388.849255 360.748263 
L 390.885132 358.106114 
L 392.921009 355.002568 
L 394.956887 353.226295 
L 399.028641 348.655706 
L 401.064518 343.689115 
L 403.100395 341.829694 
L 405.136272 339.166094 
L 409.208027 332.058125 
L 411.243904 330.877135 
L 413.279781 328.421046 
L 415.315658 326.466659 
L 417.351535 323.922278 
L 419.387413 322.715565 
L 421.42329 320.823322 
L 423.459167 316.745862 
L 427.530921 310.821597 
L 429.566798 308.543512 
L 431.602676 306.799205 
L 433.638553 304.647909 
L 435.67443 303.811503 
L 437.710307 302.480972 
L 439.746184 297.807884 
L 441.782061 299.294751 
L 443.817939 297.820364 
L 445.853816 295.773644 
L 447.889693 296.207026 
L 449.92557 295.545075 
L 453.997324 292.974009 
L 456.033202 292.046627 
L 458.069079 290.451308 
L 460.104956 288.194095 
L 462.140833 286.937139 
L 464.17671 287.202259 
L 466.212587 286.985682 
L 468.248465 288.533544 
L 470.284342 287.672145 
L 472.320219 287.822334 
L 474.356096 288.416167 
L 476.391973 286.178357 
L 478.42785 282.999972 
L 480.463728 286.079184 
L 482.499605 283.210514 
L 484.535482 281.013027 
L 486.571359 279.816927 
L 490.643113 270.02035 
L 492.678991 264.406403 
L 496.750745 255.158123 
L 498.786622 249.698216 
L 502.858376 238.178598 
L 504.894254 231.269506 
L 506.930131 225.223094 
L 508.966008 214.881343 
L 511.001885 208.083555 
L 515.073639 192.220392 
L 517.109517 183.507579 
L 519.145394 177.332559 
L 521.181271 166.382625 
L 523.217148 158.798149 
L 525.253025 152.055302 
L 527.288902 142.334051 
L 529.32478 134.230076 
L 533.396534 126.148007 
L 535.432411 121.87696 
L 537.468288 116.419037 
L 539.504165 113.169087 
L 541.540043 110.316158 
L 543.57592 105.798492 
L 545.611797 103.675077 
L 547.647674 100.24684 
L 549.683551 101.139709 
L 551.719428 100.626118 
L 553.755306 98.662527 
L 555.791183 97.021954 
L 557.82706 98.286862 
L 559.862937 98.254046 
L 561.898814 98.560722 
L 563.934691 100.31719 
L 565.970569 102.419496 
L 568.006446 106.863953 
L 570.042323 112.369735 
L 572.0782 115.637935 
L 574.114077 117.153431 
L 576.149954 119.336116 
L 578.185832 122.453437 
L 580.221709 124.801709 
L 582.257586 127.492164 
L 584.293463 131.701023 
L 586.32934 134.313735 
L 588.365217 136.041933 
L 590.401095 138.021059 
L 592.436972 138.316931 
L 594.472849 141.22966 
L 596.508726 143.322907 
L 598.544603 142.679876 
L 600.58048 144.82273 
L 602.616358 147.949375 
L 604.652235 149.795926 
L 606.688112 150.420602 
L 610.759866 149.795232 
L 612.795743 148.779406 
L 614.831621 148.517257 
L 618.903375 148.614801 
L 620.939252 148.200436 
L 622.975129 147.633353 
L 625.011006 148.024738 
L 627.046884 149.096438 
L 629.082761 150.706779 
L 631.118638 149.432438 
L 633.154515 151.074402 
L 635.190392 152.567241 
L 637.226269 150.927771 
L 639.262147 154.283979 
L 641.298024 152.648262 
L 643.333901 154.401375 
L 645.369778 155.275455 
L 647.405655 156.37137 
L 649.441532 157.659865 
L 651.47741 158.23403 
L 653.513287 160.014951 
L 655.549164 162.246466 
L 657.585041 163.616995 
L 659.620918 162.174085 
L 661.656795 164.143096 
L 665.72855 165.742549 
L 667.764427 166.235289 
L 669.800304 166.005747 
L 671.836181 168.621797 
L 673.872058 169.627789 
L 675.907936 168.264597 
L 677.943813 172.943533 
L 679.97969 173.897195 
L 682.015567 176.99233 
L 684.051444 177.391674 
L 686.087321 179.411704 
L 688.123199 179.978649 
L 690.159076 181.570072 
L 692.194953 182.958527 
L 694.23083 185.370859 
L 696.266707 185.012068 
L 698.302584 187.347177 
L 700.338462 191.110374 
L 702.374339 192.765136 
L 704.410216 195.086247 
L 706.446093 196.678221 
L 708.48197 198.414804 
L 710.517847 200.001261 
L 712.553725 200.777111 
L 714.589602 200.908363 
L 716.625479 203.614409 
L 718.661356 200.835526 
L 720.697233 203.171057 
L 722.73311 205.10048 
L 724.768988 205.027095 
L 726.804865 205.146814 
L 728.840742 206.165515 
L 732.912496 250.920694 
L 734.948373 271.509088 
L 736.984251 294.999199 
L 739.020128 316.082261 
L 741.056005 338.728727 
L 745.127759 381.70874 
L 747.163636 404.17401 
L 747.163636 404.17401 
" clip-path="url(#pb36dc4e367)" style="fill: none; stroke: #ff0000; stroke-width: 3; stroke-linecap: square"/>
   </g>
   <g id="patch_3">
    <path d="M 108 512.64 
L 108 69.12 
" style="fill: none; stroke: #000000; stroke-width: 0.8; stroke-linejoin: miter; stroke-linecap: square"/>
   </g>
   <g id="patch_4">
    <path d="M 777.6 512.64 
L 777.6 69.12 
" style="fill: none; stroke: #000000; stroke-width: 0.8; stroke-linejoin: miter; stroke-linecap: square"/>
   </g>
   <g id="patch_5">
    <path d="M 108 512.64 
L 777.6 512.64 
" style="fill: none; stroke: #000000; stroke-width: 0.8; stroke-linejoin: miter; stroke-linecap: square"/>
   </g>
   <g id="patch_6">
    <path d="M 108 69.12 
L 777.6 69.12 
" style="fill: none; stroke: #000000; stroke-width: 0.8; stroke-linejoin: miter; stroke-linecap: square"/>
   </g>
   <g id="text_16">
    <!-- Average PSTH for Low and High Arousal Across Six Datasets -->
    <g transform="translate(202.62625 63.12) scale(0.16 -0.16)">
     <defs>
      <path id="DejaVuSans-41" d="M 2188 4044 
L 1331 1722 
L 3047 1722 
L 2188 4044 
z
M 1831 4666 
L 2547 4666 
L 4325 0 
L 3669 0 
L 3244 1197 
L 1141 1197 
L 716 0 
L 50 0 
L 1831 4666 
z
" transform="scale(0.015625)"/>
      <path id="DejaVuSans-76" d="M 191 3500 
L 800 3500 
L 1894 563 
L 2988 3500 
L 3597 3500 
L 2284 0 
L 1503 0 
L 191 3500 
z
" transform="scale(0.015625)"/>
      <path id="DejaVuSans-67" d="M 2906 1791 
Q 2906 2416 2648 2759 
Q 2391 3103 1925 3103 
Q 1463 3103 1205 2759 
Q 947 2416 947 1791 
Q 947 1169 1205 825 
Q 1463 481 1925 481 
Q 2391 481 2648 825 
Q 2906 1169 2906 1791 
z
M 3481 434 
Q 3481 -459 3084 -895 
Q 2688 -1331 1869 -1331 
Q 1566 -1331 1297 -1286 
Q 1028 -1241 775 -1147 
L 775 -588 
Q 1028 -725 1275 -790 
Q 1522 -856 1778 -856 
Q 2344 -856 2625 -561 
Q 2906 -266 2906 331 
L 2906 616 
Q 2728 306 2450 153 
Q 2172 0 1784 0 
Q 1141 0 747 490 
Q 353 981 353 1791 
Q 353 2603 747 3093 
Q 1141 3584 1784 3584 
Q 2172 3584 2450 3431 
Q 2728 3278 2906 2969 
L 2906 3500 
L 3481 3500 
L 3481 434 
z
" transform="scale(0.015625)"/>
      <path id="DejaVuSans-50" d="M 1259 4147 
L 1259 2394 
L 2053 2394 
Q 2494 2394 2734 2622 
Q 2975 2850 2975 3272 
Q 2975 3691 2734 3919 
Q 2494 4147 2053 4147 
L 1259 4147 
z
M 628 4666 
L 2053 4666 
Q 2838 4666 3239 4311 
Q 3641 3956 3641 3272 
Q 3641 2581 3239 2228 
Q 2838 1875 2053 1875 
L 1259 1875 
L 1259 0 
L 628 0 
L 628 4666 
z
" transform="scale(0.015625)"/>
      <path id="DejaVuSans-48" d="M 628 4666 
L 1259 4666 
L 1259 2753 
L 3553 2753 
L 3553 4666 
L 4184 4666 
L 4184 0 
L 3553 0 
L 3553 2222 
L 1259 2222 
L 1259 0 
L 628 0 
L 628 4666 
z
" transform="scale(0.015625)"/>
      <path id="DejaVuSans-66" d="M 2375 4863 
L 2375 4384 
L 1825 4384 
Q 1516 4384 1395 4259 
Q 1275 4134 1275 3809 
L 1275 3500 
L 2222 3500 
L 2222 3053 
L 1275 3053 
L 1275 0 
L 697 0 
L 697 3053 
L 147 3053 
L 147 3500 
L 697 3500 
L 697 3744 
Q 697 4328 969 4595 
Q 1241 4863 1831 4863 
L 2375 4863 
z
" transform="scale(0.015625)"/>
      <path id="DejaVuSans-4c" d="M 628 4666 
L 1259 4666 
L 1259 531 
L 3531 531 
L 3531 0 
L 628 0 
L 628 4666 
z
" transform="scale(0.015625)"/>
      <path id="DejaVuSans-77" d="M 269 3500 
L 844 3500 
L 1563 769 
L 2278 3500 
L 2956 3500 
L 3675 769 
L 4391 3500 
L 4966 3500 
L 4050 0 
L 3372 0 
L 2619 2869 
L 1863 0 
L 1184 0 
L 269 3500 
z
" transform="scale(0.015625)"/>
      <path id="DejaVuSans-6e" d="M 3513 2113 
L 3513 0 
L 2938 0 
L 2938 2094 
Q 2938 2591 2744 2837 
Q 2550 3084 2163 3084 
Q 1697 3084 1428 2787 
Q 1159 2491 1159 1978 
L 1159 0 
L 581 0 
L 581 3500 
L 1159 3500 
L 1159 2956 
Q 1366 3272 1645 3428 
Q 1925 3584 2291 3584 
Q 2894 3584 3203 3211 
Q 3513 2838 3513 2113 
z
" transform="scale(0.015625)"/>
      <path id="DejaVuSans-68" d="M 3513 2113 
L 3513 0 
L 2938 0 
L 2938 2094 
Q 2938 2591 2744 2837 
Q 2550 3084 2163 3084 
Q 1697 3084 1428 2787 
Q 1159 2491 1159 1978 
L 1159 0 
L 581 0 
L 581 4863 
L 1159 4863 
L 1159 2956 
Q 1366 3272 1645 3428 
Q 1925 3584 2291 3584 
Q 2894 3584 3203 3211 
Q 3513 2838 3513 2113 
z
" transform="scale(0.015625)"/>
      <path id="DejaVuSans-75" d="M 544 1381 
L 544 3500 
L 1119 3500 
L 1119 1403 
Q 1119 906 1312 657 
Q 1506 409 1894 409 
Q 2359 409 2629 706 
Q 2900 1003 2900 1516 
L 2900 3500 
L 3475 3500 
L 3475 0 
L 2900 0 
L 2900 538 
Q 2691 219 2414 64 
Q 2138 -91 1772 -91 
Q 1169 -91 856 284 
Q 544 659 544 1381 
z
M 1991 3584 
L 1991 3584 
z
" transform="scale(0.015625)"/>
      <path id="DejaVuSans-63" d="M 3122 3366 
L 3122 2828 
Q 2878 2963 2633 3030 
Q 2388 3097 2138 3097 
Q 1578 3097 1268 2742 
Q 959 2388 959 1747 
Q 959 1106 1268 751 
Q 1578 397 2138 397 
Q 2388 397 2633 464 
Q 2878 531 3122 666 
L 3122 134 
Q 2881 22 2623 -34 
Q 2366 -91 2075 -91 
Q 1284 -91 818 406 
Q 353 903 353 1747 
Q 353 2603 823 3093 
Q 1294 3584 2113 3584 
Q 2378 3584 2631 3529 
Q 2884 3475 3122 3366 
z
" transform="scale(0.015625)"/>
      <path id="DejaVuSans-78" d="M 3513 3500 
L 2247 1797 
L 3578 0 
L 2900 0 
L 1881 1375 
L 863 0 
L 184 0 
L 1544 1831 
L 300 3500 
L 978 3500 
L 1906 2253 
L 2834 3500 
L 3513 3500 
z
" transform="scale(0.015625)"/>
      <path id="DejaVuSans-44" d="M 1259 4147 
L 1259 519 
L 2022 519 
Q 2988 519 3436 956 
Q 3884 1394 3884 2338 
Q 3884 3275 3436 3711 
Q 2988 4147 2022 4147 
L 1259 4147 
z
M 628 4666 
L 1925 4666 
Q 3281 4666 3915 4102 
Q 4550 3538 4550 2338 
Q 4550 1131 3912 565 
Q 3275 0 1925 0 
L 628 0 
L 628 4666 
z
" transform="scale(0.015625)"/>
     </defs>
     <use xlink:href="#DejaVuSans-41"/>
     <use xlink:href="#DejaVuSans-76" x="62.533203"/>
     <use xlink:href="#DejaVuSans-65" x="121.712891"/>
     <use xlink:href="#DejaVuSans-72" x="183.236328"/>
     <use xlink:href="#DejaVuSans-61" x="224.349609"/>
     <use xlink:href="#DejaVuSans-67" x="285.628906"/>
     <use xlink:href="#DejaVuSans-65" x="349.105469"/>
     <use xlink:href="#DejaVuSans-20" x="410.628906"/>
     <use xlink:href="#DejaVuSans-50" x="442.416016"/>
     <use xlink:href="#DejaVuSans-53" x="502.71875"/>
     <use xlink:href="#DejaVuSans-54" x="566.195312"/>
     <use xlink:href="#DejaVuSans-48" x="627.279297"/>
     <use xlink:href="#DejaVuSans-20" x="702.474609"/>
     <use xlink:href="#DejaVuSans-66" x="734.261719"/>
     <use xlink:href="#DejaVuSans-6f" x="769.466797"/>
     <use xlink:href="#DejaVuSans-72" x="830.648438"/>
     <use xlink:href="#DejaVuSans-20" x="871.761719"/>
     <use xlink:href="#DejaVuSans-4c" x="903.548828"/>
     <use xlink:href="#DejaVuSans-6f" x="957.511719"/>
     <use xlink:href="#DejaVuSans-77" x="1018.693359"/>
     <use xlink:href="#DejaVuSans-20" x="1100.480469"/>
     <use xlink:href="#DejaVuSans-61" x="1132.267578"/>
     <use xlink:href="#DejaVuSans-6e" x="1193.546875"/>
     <use xlink:href="#DejaVuSans-64" x="1256.925781"/>
     <use xlink:href="#DejaVuSans-20" x="1320.402344"/>
     <use xlink:href="#DejaVuSans-48" x="1352.189453"/>
     <use xlink:href="#DejaVuSans-69" x="1427.384766"/>
     <use xlink:href="#DejaVuSans-67" x="1455.167969"/>
     <use xlink:href="#DejaVuSans-68" x="1518.644531"/>
     <use xlink:href="#DejaVuSans-20" x="1582.023438"/>
     <use xlink:href="#DejaVuSans-41" x="1613.810547"/>
     <use xlink:href="#DejaVuSans-72" x="1682.21875"/>
     <use xlink:href="#DejaVuSans-6f" x="1721.082031"/>
     <use xlink:href="#DejaVuSans-75" x="1782.263672"/>
     <use xlink:href="#DejaVuSans-73" x="1845.642578"/>
     <use xlink:href="#DejaVuSans-61" x="1897.742188"/>
     <use xlink:href="#DejaVuSans-6c" x="1959.021484"/>
     <use xlink:href="#DejaVuSans-20" x="1986.804688"/>
     <use xlink:href="#DejaVuSans-41" x="2018.591797"/>
     <use xlink:href="#DejaVuSans-63" x="2085.25"/>
     <use xlink:href="#DejaVuSans-72" x="2140.230469"/>
     <use xlink:href="#DejaVuSans-6f" x="2179.09375"/>
     <use xlink:href="#DejaVuSans-73" x="2240.275391"/>
     <use xlink:href="#DejaVuSans-73" x="2292.375"/>
     <use xlink:href="#DejaVuSans-20" x="2344.474609"/>
     <use xlink:href="#DejaVuSans-53" x="2376.261719"/>
     <use xlink:href="#DejaVuSans-69" x="2439.738281"/>
     <use xlink:href="#DejaVuSans-78" x="2467.521484"/>
     <use xlink:href="#DejaVuSans-20" x="2526.701172"/>
     <use xlink:href="#DejaVuSans-44" x="2558.488281"/>
     <use xlink:href="#DejaVuSans-61" x="2635.490234"/>
     <use xlink:href="#DejaVuSans-74" x="2696.769531"/>
     <use xlink:href="#DejaVuSans-61" x="2735.978516"/>
     <use xlink:href="#DejaVuSans-73" x="2797.257812"/>
     <use xlink:href="#DejaVuSans-65" x="2849.357422"/>
     <use xlink:href="#DejaVuSans-74" x="2910.880859"/>
     <use xlink:href="#DejaVuSans-73" x="2950.089844"/>
    </g>
   </g>
   <g id="legend_1">
    <g id="patch_7">
     <path d="M 654.646875 113.9475 
L 769.2 113.9475 
Q 771.6 113.9475 771.6 111.5475 
L 771.6 77.52 
Q 771.6 75.12 769.2 75.12 
L 654.646875 75.12 
Q 652.246875 75.12 652.246875 77.52 
L 652.246875 111.5475 
Q 652.246875 113.9475 654.646875 113.9475 
z
" style="fill: #ffffff; opacity: 0.8; stroke: #cccccc; stroke-linejoin: miter"/>
    </g>
    <g id="line2d_29">
     <path d="M 657.046875 84.838125 
L 669.046875 84.838125 
L 681.046875 84.838125 
" style="fill: none; stroke: #0000ff; stroke-width: 3; stroke-linecap: square"/>
    </g>
    <g id="text_17">
     <!-- Low Arousal -->
     <g transform="translate(690.646875 89.038125) scale(0.12 -0.12)">
      <use xlink:href="#DejaVuSans-4c"/>
      <use xlink:href="#DejaVuSans-6f" x="53.962891"/>
      <use xlink:href="#DejaVuSans-77" x="115.144531"/>
      <use xlink:href="#DejaVuSans-20" x="196.931641"/>
      <use xlink:href="#DejaVuSans-41" x="228.71875"/>
      <use xlink:href="#DejaVuSans-72" x="297.126953"/>
      <use xlink:href="#DejaVuSans-6f" x="335.990234"/>
      <use xlink:href="#DejaVuSans-75" x="397.171875"/>
      <use xlink:href="#DejaVuSans-73" x="460.550781"/>
      <use xlink:href="#DejaVuSans-61" x="512.650391"/>
      <use xlink:href="#DejaVuSans-6c" x="573.929688"/>
     </g>
    </g>
    <g id="line2d_30">
     <path d="M 657.046875 102.451875 
L 669.046875 102.451875 
L 681.046875 102.451875 
" style="fill: none; stroke: #ff0000; stroke-width: 3; stroke-linecap: square"/>
    </g>
    <g id="text_18">
     <!-- High Arousal -->
     <g transform="translate(690.646875 106.651875) scale(0.12 -0.12)">
      <use xlink:href="#DejaVuSans-48"/>
      <use xlink:href="#DejaVuSans-69" x="75.195312"/>
      <use xlink:href="#DejaVuSans-67" x="102.978516"/>
      <use xlink:href="#DejaVuSans-68" x="166.455078"/>
      <use xlink:href="#DejaVuSans-20" x="229.833984"/>
      <use xlink:href="#DejaVuSans-41" x="261.621094"/>
      <use xlink:href="#DejaVuSans-72" x="330.029297"/>
      <use xlink:href="#DejaVuSans-6f" x="368.892578"/>
      <use xlink:href="#DejaVuSans-75" x="430.074219"/>
      <use xlink:href="#DejaVuSans-73" x="493.453125"/>
      <use xlink:href="#DejaVuSans-61" x="545.552734"/>
      <use xlink:href="#DejaVuSans-6c" x="606.832031"/>
     </g>
    </g>
   </g>
  </g>
 </g>
 <defs>
  <clipPath id="pb36dc4e367">
   <rect x="108" y="69.12" width="669.6" height="443.52"/>
  </clipPath>
 </defs>
</svg>
