<?xml version="1.0" encoding="utf-8" standalone="no"?>
<!DOCTYPE svg PUBLIC "-//W3C//DTD SVG 1.1//EN"
  "http://www.w3.org/Graphics/SVG/1.1/DTD/svg11.dtd">
<svg xmlns:xlink="http://www.w3.org/1999/xlink" width="864pt" height="576pt" viewBox="0 0 864 576" xmlns="http://www.w3.org/2000/svg" version="1.1">
 <metadata>
  <rdf:RDF xmlns:dc="http://purl.org/dc/elements/1.1/" xmlns:cc="http://creativecommons.org/ns#" xmlns:rdf="http://www.w3.org/1999/02/22-rdf-syntax-ns#">
   <cc:Work>
    <dc:type rdf:resource="http://purl.org/dc/dcmitype/StillImage"/>
    <dc:date>2024-08-15T16:54:49.426153</dc:date>
    <dc:format>image/svg+xml</dc:format>
    <dc:creator>
     <cc:Agent>
      <dc:title>Matplotlib v3.8.0, https://matplotlib.org/</dc:title>
     </cc:Agent>
    </dc:creator>
   </cc:Work>
  </rdf:RDF>
 </metadata>
 <defs>
  <style type="text/css">*{stroke-linejoin: round; stroke-linecap: butt}</style>
 </defs>
 <g id="figure_1">
  <g id="patch_1">
   <path d="M 0 576 
L 864 576 
L 864 0 
L 0 0 
z
" style="fill: #ffffff"/>
  </g>
  <g id="axes_1">
   <g id="patch_2">
    <path d="M 108 512.64 
L 777.6 512.64 
L 777.6 69.12 
L 108 69.12 
z
" style="fill: #ffffff"/>
   </g>
   <g id="PolyCollection_1">
    <defs>
     <path id="m6fb43c2d0c" d="M 138.436364 -110.063996 
L 138.436364 -88.658646 
L 140.472241 -105.390224 
L 142.508118 -124.649789 
L 144.543995 -141.979125 
L 146.579872 -160.660197 
L 148.615749 -178.125128 
L 150.651627 -194.682085 
L 152.687504 -210.162794 
L 154.723381 -227.666859 
L 156.759258 -243.701024 
L 158.795135 -261.797244 
L 160.831012 -262.425821 
L 162.86689 -257.512345 
L 164.902767 -256.837267 
L 166.938644 -256.459949 
L 168.974521 -257.929 
L 171.010398 -258.62895 
L 173.046275 -258.929114 
L 175.082153 -254.517508 
L 177.11803 -257.971581 
L 179.153907 -255.348249 
L 181.189784 -254.972351 
L 183.225661 -254.207504 
L 185.261538 -253.31559 
L 187.297416 -248.995934 
L 189.333293 -250.150505 
L 191.36917 -250.619272 
L 193.405047 -250.36804 
L 195.440924 -248.510965 
L 197.476801 -250.578334 
L 199.512679 -247.534296 
L 201.548556 -245.696129 
L 203.584433 -248.330263 
L 205.62031 -247.006585 
L 207.656187 -245.499525 
L 209.692064 -243.105923 
L 211.727942 -245.408051 
L 213.763819 -246.084468 
L 215.799696 -247.460276 
L 217.835573 -245.522521 
L 219.87145 -246.092916 
L 221.907327 -245.96839 
L 223.943205 -244.253694 
L 225.979082 -242.361438 
L 228.014959 -242.721303 
L 230.050836 -239.244013 
L 232.086713 -237.865036 
L 234.12259 -237.186084 
L 236.158468 -237.163346 
L 238.194345 -237.69209 
L 240.230222 -238.47912 
L 242.266099 -237.947683 
L 244.301976 -235.196527 
L 246.337853 -236.127801 
L 248.373731 -234.016817 
L 250.409608 -236.188976 
L 252.445485 -239.794602 
L 254.481362 -238.842153 
L 256.517239 -234.860787 
L 258.553116 -233.658833 
L 260.588994 -235.038602 
L 262.624871 -236.203594 
L 264.660748 -232.479722 
L 266.696625 -233.002911 
L 268.732502 -236.826181 
L 270.768379 -240.792984 
L 272.804257 -242.42834 
L 274.840134 -242.776251 
L 276.876011 -244.658705 
L 278.911888 -241.528214 
L 280.947765 -244.086406 
L 282.983642 -247.022833 
L 285.01952 -249.765593 
L 287.055397 -254.196326 
L 289.091274 -255.939554 
L 291.127151 -253.781034 
L 293.163028 -248.86375 
L 295.198905 -251.479081 
L 297.234783 -252.239565 
L 299.27066 -252.287086 
L 301.306537 -251.146954 
L 303.342414 -249.308048 
L 305.378291 -253.527907 
L 307.414168 -255.646563 
L 309.450046 -254.693572 
L 311.485923 -253.609537 
L 313.5218 -253.462006 
L 315.557677 -254.137263 
L 317.593554 -251.410016 
L 319.629431 -251.125012 
L 321.665309 -247.56577 
L 323.701186 -244.582498 
L 325.737063 -239.776222 
L 327.77294 -236.268163 
L 329.808817 -237.015311 
L 331.844694 -235.488331 
L 333.880572 -235.537353 
L 335.916449 -230.732526 
L 337.952326 -231.985077 
L 339.988203 -228.187253 
L 342.02408 -233.574933 
L 344.059957 -233.479589 
L 346.095835 -232.830685 
L 348.131712 -229.305616 
L 350.167589 -227.693831 
L 352.203466 -224.609961 
L 354.239343 -221.132738 
L 356.27522 -220.66033 
L 358.311098 -221.075718 
L 360.346975 -223.795309 
L 362.382852 -223.904355 
L 364.418729 -223.325487 
L 366.454606 -223.984876 
L 368.490483 -221.58616 
L 370.526361 -219.914969 
L 372.562238 -220.815701 
L 374.598115 -220.23207 
L 376.633992 -221.845079 
L 378.669869 -222.181944 
L 380.705746 -227.143151 
L 382.741624 -220.193396 
L 384.777501 -220.5271 
L 386.813378 -222.396698 
L 388.849255 -224.91564 
L 390.885132 -225.827837 
L 392.921009 -228.35649 
L 394.956887 -231.573911 
L 396.992764 -232.120273 
L 399.028641 -237.453844 
L 401.064518 -238.422675 
L 403.100395 -240.375273 
L 405.136272 -246.566072 
L 407.17215 -258.723892 
L 409.208027 -261.940265 
L 411.243904 -263.563114 
L 413.279781 -267.644753 
L 415.315658 -268.859474 
L 417.351535 -274.17366 
L 419.387413 -281.949139 
L 421.42329 -282.420577 
L 423.459167 -285.268174 
L 425.495044 -289.90677 
L 427.530921 -289.870832 
L 429.566798 -291.850977 
L 431.602676 -293.935569 
L 433.638553 -294.585483 
L 435.67443 -297.588448 
L 437.710307 -300.51386 
L 439.746184 -299.161801 
L 441.782061 -299.887803 
L 443.817939 -307.695739 
L 445.853816 -306.148179 
L 447.889693 -299.650878 
L 449.92557 -300.964217 
L 451.961447 -303.222357 
L 453.997324 -302.610232 
L 456.033202 -304.389993 
L 458.069079 -302.263426 
L 460.104956 -298.683682 
L 462.140833 -299.250035 
L 464.17671 -299.755691 
L 466.212587 -297.291205 
L 468.248465 -298.724335 
L 470.284342 -298.558453 
L 472.320219 -296.982168 
L 474.356096 -298.237451 
L 476.391973 -295.50159 
L 478.42785 -298.558733 
L 480.463728 -298.87003 
L 482.499605 -299.498443 
L 484.535482 -293.489089 
L 486.571359 -293.495407 
L 488.607236 -292.963193 
L 490.643113 -292.189824 
L 492.678991 -291.391956 
L 494.714868 -291.437864 
L 496.750745 -293.446394 
L 498.786622 -294.121344 
L 500.822499 -293.594513 
L 502.858376 -297.158606 
L 504.894254 -299.450926 
L 506.930131 -301.904042 
L 508.966008 -303.38783 
L 511.001885 -304.827819 
L 513.037762 -307.532915 
L 515.073639 -308.919179 
L 517.109517 -313.820505 
L 519.145394 -314.082097 
L 521.181271 -317.216822 
L 523.217148 -322.030883 
L 525.253025 -325.643733 
L 527.288902 -329.619423 
L 529.32478 -332.750301 
L 531.360657 -338.543043 
L 533.396534 -344.680383 
L 535.432411 -349.334554 
L 537.468288 -352.881742 
L 539.504165 -361.832618 
L 541.540043 -365.879632 
L 543.57592 -370.378356 
L 545.611797 -376.040692 
L 547.647674 -382.310718 
L 549.683551 -389.60051 
L 551.719428 -394.360525 
L 553.755306 -400.313187 
L 555.791183 -406.062365 
L 557.82706 -410.057867 
L 559.862937 -417.122945 
L 561.898814 -418.247673 
L 563.934691 -418.05499 
L 565.970569 -422.551901 
L 568.006446 -427.092551 
L 570.042323 -431.412292 
L 572.0782 -431.782592 
L 574.114077 -432.445212 
L 576.149954 -434.327571 
L 578.185832 -436.098793 
L 580.221709 -433.885943 
L 582.257586 -433.471421 
L 584.293463 -433.445252 
L 586.32934 -434.87996 
L 588.365217 -433.048608 
L 590.401095 -429.605005 
L 592.436972 -431.264243 
L 594.472849 -430.262871 
L 596.508726 -429.859808 
L 598.544603 -429.698231 
L 600.58048 -425.198435 
L 602.616358 -427.836501 
L 604.652235 -426.905842 
L 606.688112 -423.772603 
L 608.723989 -422.762227 
L 610.759866 -419.069565 
L 612.795743 -419.584434 
L 614.831621 -420.543202 
L 616.867498 -421.317727 
L 618.903375 -420.678042 
L 620.939252 -419.489452 
L 622.975129 -420.6436 
L 625.011006 -422.617848 
L 627.046884 -423.377246 
L 629.082761 -426.257222 
L 631.118638 -426.145041 
L 633.154515 -427.888222 
L 635.190392 -427.613158 
L 637.226269 -429.3315 
L 639.262147 -428.334693 
L 641.298024 -430.169593 
L 643.333901 -430.084502 
L 645.369778 -432.738391 
L 647.405655 -434.184052 
L 649.441532 -432.667795 
L 651.47741 -436.450731 
L 653.513287 -440.288559 
L 655.549164 -441.954084 
L 657.585041 -443.323109 
L 659.620918 -445.638594 
L 661.656795 -447.023825 
L 663.692673 -448.819636 
L 665.72855 -445.072214 
L 667.764427 -442.219591 
L 669.800304 -443.042152 
L 671.836181 -445.888677 
L 673.872058 -445.662251 
L 675.907936 -449.159001 
L 677.943813 -449.332537 
L 679.97969 -452.101161 
L 682.015567 -453.934898 
L 684.051444 -457.235536 
L 686.087321 -456.246196 
L 688.123199 -455.72319 
L 690.159076 -455.187795 
L 692.194953 -455.238405 
L 694.23083 -452.025358 
L 696.266707 -449.181751 
L 698.302584 -447.256364 
L 700.338462 -445.654037 
L 702.374339 -445.340025 
L 704.410216 -440.856161 
L 706.446093 -443.336591 
L 708.48197 -443.572692 
L 710.517847 -448.237773 
L 712.553725 -447.663659 
L 714.589602 -444.178781 
L 716.625479 -442.193308 
L 718.661356 -440.51213 
L 720.697233 -436.618857 
L 722.73311 -432.671357 
L 724.768988 -430.392048 
L 726.804865 -430.285575 
L 728.840742 -432.572912 
L 730.876619 -407.770637 
L 732.912496 -381.029919 
L 734.948373 -356.156901 
L 736.984251 -331.668257 
L 739.020128 -306.347308 
L 741.056005 -280.005329 
L 743.091882 -253.997294 
L 745.127759 -231.218948 
L 747.163636 -204.369382 
L 747.163636 -223.153417 
L 747.163636 -223.153417 
L 745.127759 -250.590119 
L 743.091882 -274.110941 
L 741.056005 -301.163216 
L 739.020128 -328.700315 
L 736.984251 -355.104351 
L 734.948373 -380.641879 
L 732.912496 -407.064811 
L 730.876619 -435.282247 
L 728.840742 -461.553821 
L 726.804865 -459.542452 
L 724.768988 -459.501746 
L 722.73311 -461.778216 
L 720.697233 -465.965463 
L 718.661356 -470.106745 
L 716.625479 -471.664998 
L 714.589602 -472.874012 
L 712.553725 -476.376147 
L 710.517847 -476.77881 
L 708.48197 -473.309298 
L 706.446093 -472.831753 
L 704.410216 -471.073019 
L 702.374339 -475.676532 
L 700.338462 -475.840894 
L 698.302584 -476.8706 
L 696.266707 -478.626959 
L 694.23083 -481.992421 
L 692.194953 -484.972271 
L 690.159076 -485.212369 
L 688.123199 -485.303048 
L 686.087321 -485.742379 
L 684.051444 -486.72 
L 682.015567 -484.461591 
L 679.97969 -482.287952 
L 677.943813 -479.064973 
L 675.907936 -478.95976 
L 673.872058 -476.218478 
L 671.836181 -476.524538 
L 669.800304 -473.865028 
L 667.764427 -473.213744 
L 665.72855 -476.13288 
L 663.692673 -479.040689 
L 661.656795 -476.940801 
L 659.620918 -475.504548 
L 657.585041 -473.862973 
L 655.549164 -472.615181 
L 653.513287 -471.020803 
L 651.47741 -467.250587 
L 649.441532 -463.931762 
L 647.405655 -466.021586 
L 645.369778 -464.68474 
L 643.333901 -461.981545 
L 641.298024 -461.47234 
L 639.262147 -460.349136 
L 637.226269 -461.82197 
L 635.190392 -460.110967 
L 633.154515 -460.542566 
L 631.118638 -459.016912 
L 629.082761 -459.281515 
L 627.046884 -456.467758 
L 625.011006 -455.996543 
L 622.975129 -454.130537 
L 620.939252 -452.751407 
L 618.903375 -453.804293 
L 616.867498 -454.099803 
L 614.831621 -453.551933 
L 612.795743 -452.833175 
L 610.759866 -452.32481 
L 608.723989 -455.884799 
L 606.688112 -456.207276 
L 604.652235 -459.251247 
L 602.616358 -460.03513 
L 600.58048 -458.205409 
L 598.544603 -462.043594 
L 596.508726 -461.940221 
L 594.472849 -462.164221 
L 592.436972 -463.185928 
L 590.401095 -461.755615 
L 588.365217 -465.180401 
L 586.32934 -466.888397 
L 584.293463 -465.965893 
L 582.257586 -465.99212 
L 580.221709 -466.575207 
L 578.185832 -468.610618 
L 576.149954 -467.054389 
L 574.114077 -465.166806 
L 572.0782 -464.3177 
L 570.042323 -463.995656 
L 568.006446 -460.043712 
L 565.970569 -455.679911 
L 563.934691 -451.72791 
L 561.898814 -451.291261 
L 559.862937 -449.802886 
L 557.82706 -443.192836 
L 555.791183 -439.703381 
L 553.755306 -433.858467 
L 551.719428 -427.842147 
L 549.683551 -422.782428 
L 547.647674 -415.41325 
L 545.611797 -409.331366 
L 543.57592 -403.826324 
L 541.540043 -399.40938 
L 539.504165 -395.58543 
L 537.468288 -387.024948 
L 535.432411 -383.27046 
L 533.396534 -378.640652 
L 531.360657 -373.091297 
L 529.32478 -367.82922 
L 527.288902 -364.751012 
L 525.253025 -361.058532 
L 523.217148 -358.002346 
L 521.181271 -353.189966 
L 519.145394 -350.258091 
L 517.109517 -349.975439 
L 515.073639 -345.22753 
L 513.037762 -344.562638 
L 511.001885 -342.180458 
L 508.966008 -340.628374 
L 506.930131 -339.446153 
L 504.894254 -337.133819 
L 502.858376 -334.884371 
L 500.822499 -331.743195 
L 498.786622 -332.596995 
L 496.750745 -331.969236 
L 494.714868 -330.314408 
L 492.678991 -330.361222 
L 490.643113 -331.556782 
L 488.607236 -332.850069 
L 486.571359 -333.451631 
L 484.535482 -333.526207 
L 482.499605 -339.415559 
L 480.463728 -338.637605 
L 478.42785 -338.409248 
L 476.391973 -335.570883 
L 474.356096 -338.176238 
L 472.320219 -337.094712 
L 470.284342 -338.805618 
L 468.248465 -339.02239 
L 466.212587 -337.597364 
L 464.17671 -340.23485 
L 462.140833 -339.736643 
L 460.104956 -339.534823 
L 458.069079 -343.032511 
L 456.033202 -345.692485 
L 453.997324 -343.921819 
L 451.961447 -344.626429 
L 449.92557 -342.536002 
L 447.889693 -340.76845 
L 445.853816 -347.537181 
L 443.817939 -349.011813 
L 441.782061 -340.951865 
L 439.746184 -340.132952 
L 437.710307 -341.478108 
L 435.67443 -338.210038 
L 433.638553 -334.877686 
L 431.602676 -334.5107 
L 429.566798 -332.241622 
L 427.530921 -330.163141 
L 425.495044 -329.815855 
L 423.459167 -324.867225 
L 421.42329 -321.736949 
L 419.387413 -321.121863 
L 417.351535 -312.152579 
L 415.315658 -306.84 
L 413.279781 -305.444527 
L 411.243904 -301.090856 
L 409.208027 -299.412848 
L 407.17215 -295.966561 
L 405.136272 -283.241675 
L 403.100395 -276.85135 
L 401.064518 -274.635672 
L 399.028641 -273.305215 
L 396.992764 -267.796753 
L 394.956887 -267.414224 
L 392.921009 -263.745293 
L 390.885132 -260.633335 
L 388.849255 -259.692242 
L 386.813378 -256.783111 
L 384.777501 -255.28412 
L 382.741624 -255.069186 
L 380.705746 -261.985502 
L 378.669869 -256.463678 
L 376.633992 -256.2064 
L 374.598115 -254.235942 
L 372.562238 -254.730493 
L 370.526361 -253.971374 
L 368.490483 -255.933055 
L 366.454606 -258.30921 
L 364.418729 -257.749703 
L 362.382852 -258.32709 
L 360.346975 -258.389308 
L 358.311098 -256.180121 
L 356.27522 -255.860645 
L 354.239343 -256.162541 
L 352.203466 -259.59024 
L 350.167589 -262.568834 
L 348.131712 -264.506986 
L 346.095835 -268.633693 
L 344.059957 -269.39476 
L 342.02408 -269.633633 
L 339.988203 -263.87317 
L 337.952326 -268.351517 
L 335.916449 -267.002568 
L 333.880572 -272.203547 
L 331.844694 -272.267832 
L 329.808817 -273.852445 
L 327.77294 -272.396374 
L 325.737063 -276.214077 
L 323.701186 -281.004192 
L 321.665309 -284.450889 
L 319.629431 -288.366751 
L 317.593554 -288.556297 
L 315.557677 -291.737471 
L 313.5218 -290.937059 
L 311.485923 -290.980649 
L 309.450046 -291.387981 
L 307.414168 -292.91048 
L 305.378291 -289.861477 
L 303.342414 -284.958061 
L 301.306537 -287.104476 
L 299.27066 -288.506417 
L 297.234783 -288.429851 
L 295.198905 -287.517086 
L 293.163028 -284.50122 
L 291.127151 -290.311271 
L 289.091274 -292.857022 
L 287.055397 -290.70096 
L 285.01952 -285.907102 
L 282.983642 -282.602847 
L 280.947765 -278.808418 
L 278.911888 -275.942445 
L 276.876011 -279.549558 
L 274.840134 -278.043358 
L 272.804257 -277.764534 
L 270.768379 -276.337513 
L 268.732502 -271.553711 
L 266.696625 -267.390089 
L 264.660748 -266.88952 
L 262.624871 -270.797897 
L 260.588994 -269.834421 
L 258.553116 -268.153701 
L 256.517239 -269.526998 
L 254.481362 -273.741201 
L 252.445485 -274.921237 
L 250.409608 -272.114923 
L 248.373731 -269.887058 
L 246.337853 -272.282122 
L 244.301976 -271.237192 
L 242.266099 -273.994185 
L 240.230222 -274.79474 
L 238.194345 -273.943874 
L 236.158468 -273.486952 
L 234.12259 -273.415012 
L 232.086713 -273.701848 
L 230.050836 -275.000818 
L 228.014959 -278.603332 
L 225.979082 -277.926766 
L 223.943205 -279.95586 
L 221.907327 -281.978951 
L 219.87145 -282.017856 
L 217.835573 -281.667333 
L 215.799696 -284.056556 
L 213.763819 -282.248579 
L 211.727942 -281.770593 
L 209.692064 -278.861546 
L 207.656187 -281.175974 
L 205.62031 -282.772106 
L 203.584433 -283.862902 
L 201.548556 -280.778812 
L 199.512679 -282.879857 
L 197.476801 -286.178409 
L 195.440924 -283.778418 
L 193.405047 -285.771025 
L 191.36917 -286.396273 
L 189.333293 -286.013938 
L 187.297416 -284.749664 
L 185.261538 -289.64004 
L 183.225661 -290.177858 
L 181.189784 -291.115083 
L 179.153907 -291.35147 
L 177.11803 -294.162273 
L 175.082153 -290.725459 
L 173.046275 -295.072127 
L 171.010398 -294.540655 
L 168.974521 -293.893406 
L 166.938644 -292.536596 
L 164.902767 -293.187298 
L 162.86689 -294.163882 
L 160.831012 -299.339733 
L 158.795135 -299.116989 
L 156.759258 -279.310733 
L 154.723381 -261.778157 
L 152.687504 -242.475017 
L 150.651627 -225.495242 
L 148.615749 -207.211203 
L 146.579872 -188.211467 
L 144.543995 -167.90668 
L 142.508118 -148.880198 
L 140.472241 -128.237347 
L 138.436364 -110.063996 
z
" style="stroke: #0000ff; stroke-opacity: 0.3"/>
    </defs>
    <g clip-path="url(#p9cbc152179)">
     <use xlink:href="#m6fb43c2d0c" x="0" y="576" style="fill: #0000ff; fill-opacity: 0.3; stroke: #0000ff; stroke-opacity: 0.3"/>
    </g>
   </g>
   <g id="PolyCollection_2">
    <defs>
     <path id="m0dbea4f621" d="M 138.436364 -102.337465 
L 138.436364 -83.52 
L 140.472241 -100.298849 
L 142.508118 -118.988516 
L 144.543995 -135.632783 
L 146.579872 -153.180566 
L 148.615749 -169.340288 
L 150.651627 -188.217822 
L 152.687504 -205.657766 
L 154.723381 -219.932274 
L 156.759258 -237.456833 
L 158.795135 -254.632657 
L 160.831012 -253.560735 
L 162.86689 -256.007829 
L 164.902767 -255.518302 
L 166.938644 -253.802358 
L 168.974521 -251.296261 
L 171.010398 -251.219718 
L 173.046275 -254.535459 
L 175.082153 -251.989147 
L 177.11803 -253.558475 
L 179.153907 -253.203209 
L 181.189784 -256.712727 
L 183.225661 -254.237818 
L 185.261538 -253.453532 
L 187.297416 -251.564444 
L 189.333293 -250.970531 
L 191.36917 -250.924714 
L 193.405047 -247.660317 
L 195.440924 -252.926174 
L 197.476801 -250.425218 
L 199.512679 -247.849003 
L 201.548556 -245.378019 
L 203.584433 -242.7 
L 205.62031 -243.254577 
L 207.656187 -246.230719 
L 209.692064 -245.953457 
L 211.727942 -247.273488 
L 213.763819 -241.292068 
L 215.799696 -245.811562 
L 217.835573 -244.566408 
L 219.87145 -245.37752 
L 221.907327 -240.416947 
L 223.943205 -242.108829 
L 225.979082 -243.170145 
L 228.014959 -243.140277 
L 230.050836 -246.289285 
L 232.086713 -244.516663 
L 234.12259 -249.533076 
L 236.158468 -245.124596 
L 238.194345 -247.550112 
L 240.230222 -246.283349 
L 242.266099 -248.568072 
L 244.301976 -248.543202 
L 246.337853 -247.824465 
L 248.373731 -244.323981 
L 250.409608 -244.134893 
L 252.445485 -243.345325 
L 254.481362 -244.782725 
L 256.517239 -239.693765 
L 258.553116 -237.838608 
L 260.588994 -237.516999 
L 262.624871 -237.034349 
L 264.660748 -234.429008 
L 266.696625 -232.743609 
L 268.732502 -231.842538 
L 270.768379 -230.352613 
L 272.804257 -227.951286 
L 274.840134 -224.994162 
L 276.876011 -226.249423 
L 278.911888 -225.206342 
L 280.947765 -229.54722 
L 282.983642 -231.198221 
L 285.01952 -231.10344 
L 287.055397 -231.069033 
L 289.091274 -229.973662 
L 291.127151 -230.226321 
L 293.163028 -230.089904 
L 295.198905 -228.392918 
L 297.234783 -226.200458 
L 299.27066 -225.857389 
L 301.306537 -224.50618 
L 303.342414 -226.319019 
L 305.378291 -225.677854 
L 307.414168 -225.041105 
L 309.450046 -225.183715 
L 311.485923 -224.84126 
L 313.5218 -224.456803 
L 315.557677 -224.097747 
L 317.593554 -222.069678 
L 319.629431 -219.570825 
L 321.665309 -214.667645 
L 323.701186 -212.769497 
L 325.737063 -211.796211 
L 327.77294 -214.437117 
L 329.808817 -219.289064 
L 331.844694 -218.242003 
L 333.880572 -217.129505 
L 335.916449 -218.537613 
L 337.952326 -221.62344 
L 339.988203 -220.845396 
L 342.02408 -222.750263 
L 344.059957 -220.223051 
L 346.095835 -219.136051 
L 348.131712 -218.100626 
L 350.167589 -217.082564 
L 352.203466 -217.832887 
L 354.239343 -219.991898 
L 356.27522 -220.442081 
L 358.311098 -220.482471 
L 360.346975 -227.800549 
L 362.382852 -230.167596 
L 364.418729 -228.728039 
L 366.454606 -229.255921 
L 368.490483 -227.786172 
L 370.526361 -225.820378 
L 372.562238 -225.957778 
L 374.598115 -226.103572 
L 376.633992 -225.609548 
L 378.669869 -227.177645 
L 380.705746 -229.273629 
L 382.741624 -226.665377 
L 384.777501 -228.323438 
L 386.813378 -231.81733 
L 388.849255 -233.467684 
L 390.885132 -234.621451 
L 392.921009 -233.399466 
L 394.956887 -233.745618 
L 396.992764 -234.552168 
L 399.028641 -236.76672 
L 401.064518 -229.503786 
L 403.100395 -231.054058 
L 405.136272 -232.873433 
L 407.17215 -235.399351 
L 409.208027 -235.206273 
L 411.243904 -237.986904 
L 413.279781 -241.998266 
L 415.315658 -241.929539 
L 417.351535 -249.663743 
L 419.387413 -250.584604 
L 421.42329 -252.334923 
L 423.459167 -256.200436 
L 425.495044 -258.732076 
L 427.530921 -259.003943 
L 429.566798 -262.905541 
L 431.602676 -267.470736 
L 433.638553 -268.833104 
L 435.67443 -272.734247 
L 437.710307 -275.721894 
L 439.746184 -279.109715 
L 441.782061 -281.831889 
L 443.817939 -283.830434 
L 445.853816 -285.751314 
L 447.889693 -287.937611 
L 449.92557 -293.312759 
L 451.961447 -294.638191 
L 453.997324 -293.760191 
L 456.033202 -296.697163 
L 458.069079 -294.315533 
L 460.104956 -295.158757 
L 462.140833 -295.379145 
L 464.17671 -296.356719 
L 466.212587 -297.173559 
L 468.248465 -301.682546 
L 470.284342 -307.328345 
L 472.320219 -306.38604 
L 474.356096 -307.210814 
L 476.391973 -306.609041 
L 478.42785 -307.351634 
L 480.463728 -307.142735 
L 482.499605 -308.382491 
L 484.535482 -307.942392 
L 486.571359 -307.832151 
L 488.607236 -306.248959 
L 490.643113 -301.165748 
L 492.678991 -301.591447 
L 494.714868 -305.451748 
L 496.750745 -308.918845 
L 498.786622 -310.196367 
L 500.822499 -312.493282 
L 502.858376 -316.862413 
L 504.894254 -320.190039 
L 506.930131 -323.300087 
L 508.966008 -323.405474 
L 511.001885 -322.059105 
L 513.037762 -323.511151 
L 515.073639 -326.87534 
L 517.109517 -329.132642 
L 519.145394 -331.440363 
L 521.181271 -334.069845 
L 523.217148 -341.93683 
L 525.253025 -348.95425 
L 527.288902 -354.426674 
L 529.32478 -358.764606 
L 531.360657 -364.338738 
L 533.396534 -369.496765 
L 535.432411 -370.812473 
L 537.468288 -372.671997 
L 539.504165 -376.775735 
L 541.540043 -380.930034 
L 543.57592 -388.081202 
L 545.611797 -389.501326 
L 547.647674 -392.270446 
L 549.683551 -394.332862 
L 551.719428 -396.219145 
L 553.755306 -402.755041 
L 555.791183 -408.70767 
L 557.82706 -411.90347 
L 559.862937 -412.689029 
L 561.898814 -413.498866 
L 563.934691 -413.571737 
L 565.970569 -413.277277 
L 568.006446 -415.407054 
L 570.042323 -419.989314 
L 572.0782 -422.025546 
L 574.114077 -421.182223 
L 576.149954 -423.942247 
L 578.185832 -422.800208 
L 580.221709 -424.51403 
L 582.257586 -422.047152 
L 584.293463 -419.110416 
L 586.32934 -420.924082 
L 588.365217 -419.9474 
L 590.401095 -418.881816 
L 592.436972 -417.805022 
L 594.472849 -415.485989 
L 596.508726 -416.290829 
L 598.544603 -415.725573 
L 600.58048 -414.434261 
L 602.616358 -416.444445 
L 604.652235 -413.026922 
L 606.688112 -415.520915 
L 608.723989 -416.322079 
L 610.759866 -418.185854 
L 612.795743 -420.258464 
L 614.831621 -422.242569 
L 616.867498 -421.331483 
L 618.903375 -424.6518 
L 620.939252 -422.380094 
L 622.975129 -423.653799 
L 625.011006 -421.882622 
L 627.046884 -421.069967 
L 629.082761 -423.150453 
L 631.118638 -425.588749 
L 633.154515 -428.729037 
L 635.190392 -431.218279 
L 637.226269 -427.03818 
L 639.262147 -430.090344 
L 641.298024 -433.846716 
L 643.333901 -436.107124 
L 645.369778 -439.034301 
L 647.405655 -435.785115 
L 649.441532 -435.963548 
L 651.47741 -435.568181 
L 653.513287 -434.389543 
L 655.549164 -433.954728 
L 657.585041 -433.065963 
L 659.620918 -431.836019 
L 661.656795 -433.659032 
L 663.692673 -439.525487 
L 665.72855 -440.771678 
L 667.764427 -440.713354 
L 669.800304 -439.994283 
L 671.836181 -439.685894 
L 673.872058 -436.821168 
L 675.907936 -433.979173 
L 677.943813 -437.884652 
L 679.97969 -438.501006 
L 682.015567 -438.964915 
L 684.051444 -438.219476 
L 686.087321 -437.373311 
L 688.123199 -438.225726 
L 690.159076 -434.661339 
L 692.194953 -432.448268 
L 694.23083 -430.064544 
L 696.266707 -427.834165 
L 698.302584 -429.783132 
L 700.338462 -428.778913 
L 702.374339 -431.430877 
L 704.410216 -427.207354 
L 706.446093 -427.580757 
L 708.48197 -426.687622 
L 710.517847 -426.22212 
L 712.553725 -424.693558 
L 714.589602 -424.319022 
L 716.625479 -421.344482 
L 718.661356 -419.000279 
L 720.697233 -413.410921 
L 722.73311 -408.593836 
L 724.768988 -406.689184 
L 726.804865 -410.870708 
L 728.840742 -409.639121 
L 730.876619 -386.69091 
L 732.912496 -360.818755 
L 734.948373 -337.514077 
L 736.984251 -313.236624 
L 739.020128 -287.049553 
L 741.056005 -263.288867 
L 743.091882 -235.181362 
L 745.127759 -210.053106 
L 747.163636 -183.090652 
L 747.163636 -199.821294 
L 747.163636 -199.821294 
L 745.127759 -227.93026 
L 743.091882 -254.285126 
L 741.056005 -283.63142 
L 739.020128 -308.725376 
L 736.984251 -335.6918 
L 734.948373 -361.152599 
L 732.912496 -385.942314 
L 730.876619 -413.411794 
L 728.840742 -438.068105 
L 726.804865 -439.108016 
L 724.768988 -435.188303 
L 722.73311 -437.202503 
L 720.697233 -441.618286 
L 718.661356 -446.842096 
L 716.625479 -449.177634 
L 714.589602 -452.155659 
L 712.553725 -452.539864 
L 710.517847 -454.028644 
L 708.48197 -454.942696 
L 706.446093 -456.263854 
L 704.410216 -456.312094 
L 702.374339 -460.707613 
L 700.338462 -458.846422 
L 698.302584 -459.563772 
L 696.266707 -457.722451 
L 694.23083 -460.05003 
L 692.194953 -462.201352 
L 690.159076 -464.172676 
L 688.123199 -467.269294 
L 686.087321 -466.839136 
L 684.051444 -467.359628 
L 682.015567 -467.24178 
L 679.97969 -467.171978 
L 677.943813 -466.832763 
L 675.907936 -463.207097 
L 673.872058 -465.670402 
L 671.836181 -468.384376 
L 669.800304 -468.845801 
L 667.764427 -469.483455 
L 665.72855 -469.090226 
L 663.692673 -467.93847 
L 661.656795 -462.667846 
L 659.620918 -460.922014 
L 657.585041 -462.093568 
L 655.549164 -463.160384 
L 653.513287 -462.834554 
L 651.47741 -463.957446 
L 649.441532 -464.585646 
L 647.405655 -464.792711 
L 645.369778 -467.524627 
L 643.333901 -464.62753 
L 641.298024 -463.333192 
L 639.262147 -459.753469 
L 637.226269 -456.765914 
L 635.190392 -460.323035 
L 633.154515 -458.172033 
L 631.118638 -455.733486 
L 629.082761 -453.344194 
L 627.046884 -451.853791 
L 625.011006 -452.945526 
L 622.975129 -454.243411 
L 620.939252 -453.118844 
L 618.903375 -455.30093 
L 616.867498 -452.202227 
L 614.831621 -453.17178 
L 612.795743 -450.947224 
L 610.759866 -449.527903 
L 608.723989 -447.897764 
L 606.688112 -447.419186 
L 604.652235 -445.320452 
L 602.616358 -449.391303 
L 600.58048 -447.491569 
L 598.544603 -448.689622 
L 596.508726 -449.427271 
L 594.472849 -448.764981 
L 592.436972 -451.102794 
L 590.401095 -452.099255 
L 588.365217 -453.10088 
L 586.32934 -453.789627 
L 584.293463 -451.944063 
L 582.257586 -454.854141 
L 580.221709 -457.461304 
L 578.185832 -455.712675 
L 576.149954 -457.201036 
L 574.114077 -454.561451 
L 572.0782 -455.335981 
L 570.042323 -453.175053 
L 568.006446 -448.786905 
L 565.970569 -446.667626 
L 563.934691 -446.612805 
L 561.898814 -446.57769 
L 559.862937 -445.437728 
L 557.82706 -444.807109 
L 555.791183 -441.493759 
L 553.755306 -435.986596 
L 551.719428 -429.126699 
L 549.683551 -427.260944 
L 547.647674 -425.07018 
L 545.611797 -422.091388 
L 543.57592 -420.486204 
L 541.540043 -413.243963 
L 539.504165 -409.370734 
L 537.468288 -405.377062 
L 535.432411 -404.093 
L 533.396534 -403.214713 
L 531.360657 -398.630834 
L 529.32478 -393.69683 
L 527.288902 -389.758527 
L 525.253025 -384.81622 
L 523.217148 -377.945334 
L 521.181271 -370.635291 
L 519.145394 -367.757186 
L 517.109517 -365.118705 
L 515.073639 -363.074776 
L 513.037762 -359.987934 
L 511.001885 -358.881819 
L 508.966008 -360.46096 
L 506.930131 -360.436187 
L 504.894254 -357.685489 
L 502.858376 -354.690044 
L 500.822499 -350.310883 
L 498.786622 -348.091539 
L 496.750745 -347.076481 
L 494.714868 -343.698571 
L 492.678991 -340.521737 
L 490.643113 -340.314915 
L 488.607236 -346.168784 
L 486.571359 -347.601918 
L 484.535482 -348.12719 
L 482.499605 -348.475377 
L 480.463728 -347.07787 
L 478.42785 -347.644393 
L 476.391973 -347.193763 
L 474.356096 -348.068564 
L 472.320219 -347.406981 
L 470.284342 -348.423934 
L 468.248465 -342.777339 
L 466.212587 -337.820275 
L 464.17671 -336.874492 
L 462.140833 -335.895224 
L 460.104956 -335.755847 
L 458.069079 -334.97554 
L 456.033202 -337.554812 
L 453.997324 -334.864937 
L 451.961447 -335.764393 
L 449.92557 -334.150863 
L 447.889693 -327.815182 
L 445.853816 -325.677167 
L 443.817939 -323.59475 
L 441.782061 -321.879115 
L 439.746184 -319.030347 
L 437.710307 -315.391941 
L 435.67443 -312.245649 
L 433.638553 -307.989339 
L 431.602676 -306.543385 
L 429.566798 -302.148369 
L 427.530921 -298.103429 
L 425.495044 -297.770162 
L 423.459167 -294.927675 
L 421.42329 -290.854923 
L 419.387413 -288.607618 
L 417.351535 -287.732089 
L 415.315658 -279.744441 
L 413.279781 -279.471507 
L 411.243904 -274.927921 
L 409.208027 -272.13891 
L 407.17215 -271.935069 
L 405.136272 -269.28754 
L 403.100395 -267.358065 
L 401.064518 -265.197322 
L 399.028641 -272.33435 
L 396.992764 -270.018612 
L 394.956887 -268.97053 
L 392.921009 -268.864159 
L 390.885132 -269.836049 
L 388.849255 -268.1066 
L 386.813378 -266.421816 
L 384.777501 -262.111308 
L 382.741624 -260.355968 
L 380.705746 -263.053277 
L 378.669869 -261.252021 
L 376.633992 -259.304737 
L 374.598115 -259.863342 
L 372.562238 -259.655242 
L 370.526361 -259.555547 
L 368.490483 -262.128781 
L 366.454606 -263.378594 
L 364.418729 -262.811994 
L 362.382852 -264.131686 
L 360.346975 -261.337379 
L 358.311098 -253.057384 
L 356.27522 -252.897893 
L 354.239343 -252.599499 
L 352.203466 -250.262679 
L 350.167589 -249.427197 
L 348.131712 -250.769282 
L 346.095835 -251.739033 
L 344.059957 -253.121032 
L 342.02408 -255.782421 
L 339.988203 -253.324478 
L 337.952326 -253.932142 
L 335.916449 -250.626732 
L 333.880572 -249.0313 
L 331.844694 -250.644817 
L 329.808817 -251.645398 
L 327.77294 -246.494805 
L 325.737063 -244.098805 
L 323.701186 -245.367597 
L 321.665309 -247.648297 
L 319.629431 -253.140261 
L 317.593554 -254.862486 
L 315.557677 -257.204419 
L 313.5218 -257.64824 
L 311.485923 -258.185646 
L 309.450046 -258.603454 
L 307.414168 -258.711429 
L 305.378291 -259.517577 
L 303.342414 -260.365405 
L 301.306537 -258.507389 
L 299.27066 -260.20385 
L 297.234783 -260.705193 
L 295.198905 -263.091185 
L 293.163028 -265.101811 
L 291.127151 -265.380652 
L 289.091274 -264.824621 
L 287.055397 -266.220515 
L 285.01952 -265.74091 
L 282.983642 -265.752408 
L 280.947765 -263.826188 
L 278.911888 -259.074028 
L 276.876011 -260.462512 
L 274.840134 -258.742017 
L 272.804257 -261.513685 
L 270.768379 -264.209562 
L 268.732502 -265.897165 
L 266.696625 -266.922559 
L 264.660748 -268.791327 
L 262.624871 -271.415626 
L 260.588994 -271.933475 
L 258.553116 -272.539902 
L 256.517239 -274.363592 
L 254.481362 -280.097092 
L 252.445485 -278.413732 
L 250.409608 -279.240838 
L 248.373731 -279.120472 
L 246.337853 -282.871861 
L 244.301976 -283.536129 
L 242.266099 -283.413229 
L 240.230222 -280.606988 
L 238.194345 -282.126415 
L 236.158468 -279.206576 
L 234.12259 -284.062798 
L 232.086713 -278.877445 
L 230.050836 -281.197114 
L 228.014959 -278.196529 
L 225.979082 -278.348303 
L 223.943205 -277.130631 
L 221.907327 -275.601972 
L 219.87145 -281.662134 
L 217.835573 -280.50768 
L 215.799696 -281.635996 
L 213.763819 -276.619563 
L 211.727942 -282.843746 
L 209.692064 -281.419373 
L 207.656187 -281.576191 
L 205.62031 -278.318301 
L 203.584433 -277.861892 
L 201.548556 -280.522655 
L 199.512679 -283.329158 
L 197.476801 -285.85186 
L 195.440924 -289.069749 
L 193.405047 -283.198803 
L 191.36917 -286.561805 
L 189.333293 -286.790713 
L 187.297416 -287.29484 
L 185.261538 -288.893642 
L 183.225661 -289.442033 
L 181.189784 -292.038315 
L 179.153907 -287.907751 
L 177.11803 -288.251415 
L 175.082153 -286.260773 
L 173.046275 -289.260039 
L 171.010398 -285.646845 
L 168.974521 -285.572808 
L 166.938644 -288.693504 
L 164.902767 -290.623906 
L 162.86689 -291.438362 
L 160.831012 -288.782034 
L 158.795135 -289.429067 
L 156.759258 -270.689147 
L 154.723381 -251.023938 
L 152.687504 -235.314187 
L 150.651627 -216.345762 
L 148.615749 -195.864472 
L 146.579872 -178.305639 
L 144.543995 -159.231859 
L 142.508118 -140.941541 
L 140.472241 -120.599469 
L 138.436364 -102.337465 
z
" style="stroke: #ff0000; stroke-opacity: 0.3"/>
    </defs>
    <g clip-path="url(#p9cbc152179)">
     <use xlink:href="#m0dbea4f621" x="0" y="576" style="fill: #ff0000; fill-opacity: 0.3; stroke: #ff0000; stroke-opacity: 0.3"/>
    </g>
   </g>
   <g id="matplotlib.axis_1">
    <g id="xtick_1">
     <g id="line2d_1">
      <path d="M 138.436364 512.64 
L 138.436364 69.12 
" clip-path="url(#p9cbc152179)" style="fill: none; stroke-dasharray: 2.96,1.28; stroke-dashoffset: 0; stroke: #b0b0b0; stroke-opacity: 0.6; stroke-width: 0.8"/>
     </g>
     <g id="line2d_2">
      <defs>
       <path id="m9d214ef468" d="M 0 0 
L 0 3.5 
" style="stroke: #000000; stroke-width: 0.8"/>
      </defs>
      <g>
       <use xlink:href="#m9d214ef468" x="138.436364" y="512.64" style="stroke: #000000; stroke-width: 0.8"/>
      </g>
     </g>
     <g id="text_1">
      <!-- −0.15 -->
      <g transform="translate(123.113707 527.238438) scale(0.1 -0.1)">
       <defs>
        <path id="DejaVuSans-2212" d="M 678 2272 
L 4684 2272 
L 4684 1741 
L 678 1741 
L 678 2272 
z
" transform="scale(0.015625)"/>
        <path id="DejaVuSans-30" d="M 2034 4250 
Q 1547 4250 1301 3770 
Q 1056 3291 1056 2328 
Q 1056 1369 1301 889 
Q 1547 409 2034 409 
Q 2525 409 2770 889 
Q 3016 1369 3016 2328 
Q 3016 3291 2770 3770 
Q 2525 4250 2034 4250 
z
M 2034 4750 
Q 2819 4750 3233 4129 
Q 3647 3509 3647 2328 
Q 3647 1150 3233 529 
Q 2819 -91 2034 -91 
Q 1250 -91 836 529 
Q 422 1150 422 2328 
Q 422 3509 836 4129 
Q 1250 4750 2034 4750 
z
" transform="scale(0.015625)"/>
        <path id="DejaVuSans-2e" d="M 684 794 
L 1344 794 
L 1344 0 
L 684 0 
L 684 794 
z
" transform="scale(0.015625)"/>
        <path id="DejaVuSans-31" d="M 794 531 
L 1825 531 
L 1825 4091 
L 703 3866 
L 703 4441 
L 1819 4666 
L 2450 4666 
L 2450 531 
L 3481 531 
L 3481 0 
L 794 0 
L 794 531 
z
" transform="scale(0.015625)"/>
        <path id="DejaVuSans-35" d="M 691 4666 
L 3169 4666 
L 3169 4134 
L 1269 4134 
L 1269 2991 
Q 1406 3038 1543 3061 
Q 1681 3084 1819 3084 
Q 2600 3084 3056 2656 
Q 3513 2228 3513 1497 
Q 3513 744 3044 326 
Q 2575 -91 1722 -91 
Q 1428 -91 1123 -41 
Q 819 9 494 109 
L 494 744 
Q 775 591 1075 516 
Q 1375 441 1709 441 
Q 2250 441 2565 725 
Q 2881 1009 2881 1497 
Q 2881 1984 2565 2268 
Q 2250 2553 1709 2553 
Q 1456 2553 1204 2497 
Q 953 2441 691 2322 
L 691 4666 
z
" transform="scale(0.015625)"/>
       </defs>
       <use xlink:href="#DejaVuSans-2212"/>
       <use xlink:href="#DejaVuSans-30" x="83.789062"/>
       <use xlink:href="#DejaVuSans-2e" x="147.412109"/>
       <use xlink:href="#DejaVuSans-31" x="179.199219"/>
       <use xlink:href="#DejaVuSans-35" x="242.822266"/>
      </g>
     </g>
    </g>
    <g id="xtick_2">
     <g id="line2d_3">
      <path d="M 240.230222 512.64 
L 240.230222 69.12 
" clip-path="url(#p9cbc152179)" style="fill: none; stroke-dasharray: 2.96,1.28; stroke-dashoffset: 0; stroke: #b0b0b0; stroke-opacity: 0.6; stroke-width: 0.8"/>
     </g>
     <g id="line2d_4">
      <g>
       <use xlink:href="#m9d214ef468" x="240.230222" y="512.64" style="stroke: #000000; stroke-width: 0.8"/>
      </g>
     </g>
     <g id="text_2">
      <!-- −0.10 -->
      <g transform="translate(224.907566 527.238438) scale(0.1 -0.1)">
       <use xlink:href="#DejaVuSans-2212"/>
       <use xlink:href="#DejaVuSans-30" x="83.789062"/>
       <use xlink:href="#DejaVuSans-2e" x="147.412109"/>
       <use xlink:href="#DejaVuSans-31" x="179.199219"/>
       <use xlink:href="#DejaVuSans-30" x="242.822266"/>
      </g>
     </g>
    </g>
    <g id="xtick_3">
     <g id="line2d_5">
      <path d="M 342.02408 512.64 
L 342.02408 69.12 
" clip-path="url(#p9cbc152179)" style="fill: none; stroke-dasharray: 2.96,1.28; stroke-dashoffset: 0; stroke: #b0b0b0; stroke-opacity: 0.6; stroke-width: 0.8"/>
     </g>
     <g id="line2d_6">
      <g>
       <use xlink:href="#m9d214ef468" x="342.02408" y="512.64" style="stroke: #000000; stroke-width: 0.8"/>
      </g>
     </g>
     <g id="text_3">
      <!-- −0.05 -->
      <g transform="translate(326.701424 527.238438) scale(0.1 -0.1)">
       <use xlink:href="#DejaVuSans-2212"/>
       <use xlink:href="#DejaVuSans-30" x="83.789062"/>
       <use xlink:href="#DejaVuSans-2e" x="147.412109"/>
       <use xlink:href="#DejaVuSans-30" x="179.199219"/>
       <use xlink:href="#DejaVuSans-35" x="242.822266"/>
      </g>
     </g>
    </g>
    <g id="xtick_4">
     <g id="line2d_7">
      <path d="M 443.817939 512.64 
L 443.817939 69.12 
" clip-path="url(#p9cbc152179)" style="fill: none; stroke-dasharray: 2.96,1.28; stroke-dashoffset: 0; stroke: #b0b0b0; stroke-opacity: 0.6; stroke-width: 0.8"/>
     </g>
     <g id="line2d_8">
      <g>
       <use xlink:href="#m9d214ef468" x="443.817939" y="512.64" style="stroke: #000000; stroke-width: 0.8"/>
      </g>
     </g>
     <g id="text_4">
      <!-- 0.00 -->
      <g transform="translate(432.685126 527.238438) scale(0.1 -0.1)">
       <use xlink:href="#DejaVuSans-30"/>
       <use xlink:href="#DejaVuSans-2e" x="63.623047"/>
       <use xlink:href="#DejaVuSans-30" x="95.410156"/>
       <use xlink:href="#DejaVuSans-30" x="159.033203"/>
      </g>
     </g>
    </g>
    <g id="xtick_5">
     <g id="line2d_9">
      <path d="M 545.611797 512.64 
L 545.611797 69.12 
" clip-path="url(#p9cbc152179)" style="fill: none; stroke-dasharray: 2.96,1.28; stroke-dashoffset: 0; stroke: #b0b0b0; stroke-opacity: 0.6; stroke-width: 0.8"/>
     </g>
     <g id="line2d_10">
      <g>
       <use xlink:href="#m9d214ef468" x="545.611797" y="512.64" style="stroke: #000000; stroke-width: 0.8"/>
      </g>
     </g>
     <g id="text_5">
      <!-- 0.05 -->
      <g transform="translate(534.478984 527.238438) scale(0.1 -0.1)">
       <use xlink:href="#DejaVuSans-30"/>
       <use xlink:href="#DejaVuSans-2e" x="63.623047"/>
       <use xlink:href="#DejaVuSans-30" x="95.410156"/>
       <use xlink:href="#DejaVuSans-35" x="159.033203"/>
      </g>
     </g>
    </g>
    <g id="xtick_6">
     <g id="line2d_11">
      <path d="M 647.405655 512.64 
L 647.405655 69.12 
" clip-path="url(#p9cbc152179)" style="fill: none; stroke-dasharray: 2.96,1.28; stroke-dashoffset: 0; stroke: #b0b0b0; stroke-opacity: 0.6; stroke-width: 0.8"/>
     </g>
     <g id="line2d_12">
      <g>
       <use xlink:href="#m9d214ef468" x="647.405655" y="512.64" style="stroke: #000000; stroke-width: 0.8"/>
      </g>
     </g>
     <g id="text_6">
      <!-- 0.10 -->
      <g transform="translate(636.272843 527.238438) scale(0.1 -0.1)">
       <use xlink:href="#DejaVuSans-30"/>
       <use xlink:href="#DejaVuSans-2e" x="63.623047"/>
       <use xlink:href="#DejaVuSans-31" x="95.410156"/>
       <use xlink:href="#DejaVuSans-30" x="159.033203"/>
      </g>
     </g>
    </g>
    <g id="xtick_7">
     <g id="line2d_13">
      <path d="M 749.199514 512.64 
L 749.199514 69.12 
" clip-path="url(#p9cbc152179)" style="fill: none; stroke-dasharray: 2.96,1.28; stroke-dashoffset: 0; stroke: #b0b0b0; stroke-opacity: 0.6; stroke-width: 0.8"/>
     </g>
     <g id="line2d_14">
      <g>
       <use xlink:href="#m9d214ef468" x="749.199514" y="512.64" style="stroke: #000000; stroke-width: 0.8"/>
      </g>
     </g>
     <g id="text_7">
      <!-- 0.15 -->
      <g transform="translate(738.066701 527.238438) scale(0.1 -0.1)">
       <use xlink:href="#DejaVuSans-30"/>
       <use xlink:href="#DejaVuSans-2e" x="63.623047"/>
       <use xlink:href="#DejaVuSans-31" x="95.410156"/>
       <use xlink:href="#DejaVuSans-35" x="159.033203"/>
      </g>
     </g>
    </g>
    <g id="text_8">
     <!-- Time (s) -->
     <g transform="translate(414.339531 543.955938) scale(0.14 -0.14)">
      <defs>
       <path id="DejaVuSans-54" d="M -19 4666 
L 3928 4666 
L 3928 4134 
L 2272 4134 
L 2272 0 
L 1638 0 
L 1638 4134 
L -19 4134 
L -19 4666 
z
" transform="scale(0.015625)"/>
       <path id="DejaVuSans-69" d="M 603 3500 
L 1178 3500 
L 1178 0 
L 603 0 
L 603 3500 
z
M 603 4863 
L 1178 4863 
L 1178 4134 
L 603 4134 
L 603 4863 
z
" transform="scale(0.015625)"/>
       <path id="DejaVuSans-6d" d="M 3328 2828 
Q 3544 3216 3844 3400 
Q 4144 3584 4550 3584 
Q 5097 3584 5394 3201 
Q 5691 2819 5691 2113 
L 5691 0 
L 5113 0 
L 5113 2094 
Q 5113 2597 4934 2840 
Q 4756 3084 4391 3084 
Q 3944 3084 3684 2787 
Q 3425 2491 3425 1978 
L 3425 0 
L 2847 0 
L 2847 2094 
Q 2847 2600 2669 2842 
Q 2491 3084 2119 3084 
Q 1678 3084 1418 2786 
Q 1159 2488 1159 1978 
L 1159 0 
L 581 0 
L 581 3500 
L 1159 3500 
L 1159 2956 
Q 1356 3278 1631 3431 
Q 1906 3584 2284 3584 
Q 2666 3584 2933 3390 
Q 3200 3197 3328 2828 
z
" transform="scale(0.015625)"/>
       <path id="DejaVuSans-65" d="M 3597 1894 
L 3597 1613 
L 953 1613 
Q 991 1019 1311 708 
Q 1631 397 2203 397 
Q 2534 397 2845 478 
Q 3156 559 3463 722 
L 3463 178 
Q 3153 47 2828 -22 
Q 2503 -91 2169 -91 
Q 1331 -91 842 396 
Q 353 884 353 1716 
Q 353 2575 817 3079 
Q 1281 3584 2069 3584 
Q 2775 3584 3186 3129 
Q 3597 2675 3597 1894 
z
M 3022 2063 
Q 3016 2534 2758 2815 
Q 2500 3097 2075 3097 
Q 1594 3097 1305 2825 
Q 1016 2553 972 2059 
L 3022 2063 
z
" transform="scale(0.015625)"/>
       <path id="DejaVuSans-20" transform="scale(0.015625)"/>
       <path id="DejaVuSans-28" d="M 1984 4856 
Q 1566 4138 1362 3434 
Q 1159 2731 1159 2009 
Q 1159 1288 1364 580 
Q 1569 -128 1984 -844 
L 1484 -844 
Q 1016 -109 783 600 
Q 550 1309 550 2009 
Q 550 2706 781 3412 
Q 1013 4119 1484 4856 
L 1984 4856 
z
" transform="scale(0.015625)"/>
       <path id="DejaVuSans-73" d="M 2834 3397 
L 2834 2853 
Q 2591 2978 2328 3040 
Q 2066 3103 1784 3103 
Q 1356 3103 1142 2972 
Q 928 2841 928 2578 
Q 928 2378 1081 2264 
Q 1234 2150 1697 2047 
L 1894 2003 
Q 2506 1872 2764 1633 
Q 3022 1394 3022 966 
Q 3022 478 2636 193 
Q 2250 -91 1575 -91 
Q 1294 -91 989 -36 
Q 684 19 347 128 
L 347 722 
Q 666 556 975 473 
Q 1284 391 1588 391 
Q 1994 391 2212 530 
Q 2431 669 2431 922 
Q 2431 1156 2273 1281 
Q 2116 1406 1581 1522 
L 1381 1569 
Q 847 1681 609 1914 
Q 372 2147 372 2553 
Q 372 3047 722 3315 
Q 1072 3584 1716 3584 
Q 2034 3584 2315 3537 
Q 2597 3491 2834 3397 
z
" transform="scale(0.015625)"/>
       <path id="DejaVuSans-29" d="M 513 4856 
L 1013 4856 
Q 1481 4119 1714 3412 
Q 1947 2706 1947 2009 
Q 1947 1309 1714 600 
Q 1481 -109 1013 -844 
L 513 -844 
Q 928 -128 1133 580 
Q 1338 1288 1338 2009 
Q 1338 2731 1133 3434 
Q 928 4138 513 4856 
z
" transform="scale(0.015625)"/>
      </defs>
      <use xlink:href="#DejaVuSans-54"/>
      <use xlink:href="#DejaVuSans-69" x="57.958984"/>
      <use xlink:href="#DejaVuSans-6d" x="85.742188"/>
      <use xlink:href="#DejaVuSans-65" x="183.154297"/>
      <use xlink:href="#DejaVuSans-20" x="244.677734"/>
      <use xlink:href="#DejaVuSans-28" x="276.464844"/>
      <use xlink:href="#DejaVuSans-73" x="315.478516"/>
      <use xlink:href="#DejaVuSans-29" x="367.578125"/>
     </g>
    </g>
   </g>
   <g id="matplotlib.axis_2">
    <g id="ytick_1">
     <g id="line2d_15">
      <path d="M 108 497.417616 
L 777.6 497.417616 
" clip-path="url(#p9cbc152179)" style="fill: none; stroke-dasharray: 2.96,1.28; stroke-dashoffset: 0; stroke: #b0b0b0; stroke-opacity: 0.6; stroke-width: 0.8"/>
     </g>
     <g id="line2d_16">
      <defs>
       <path id="m7e823ed83c" d="M 0 0 
L -3.5 0 
" style="stroke: #000000; stroke-width: 0.8"/>
      </defs>
      <g>
       <use xlink:href="#m7e823ed83c" x="108" y="497.417616" style="stroke: #000000; stroke-width: 0.8"/>
      </g>
     </g>
     <g id="text_9">
      <!-- 0.2 -->
      <g transform="translate(85.096875 501.216835) scale(0.1 -0.1)">
       <defs>
        <path id="DejaVuSans-32" d="M 1228 531 
L 3431 531 
L 3431 0 
L 469 0 
L 469 531 
Q 828 903 1448 1529 
Q 2069 2156 2228 2338 
Q 2531 2678 2651 2914 
Q 2772 3150 2772 3378 
Q 2772 3750 2511 3984 
Q 2250 4219 1831 4219 
Q 1534 4219 1204 4116 
Q 875 4013 500 3803 
L 500 4441 
Q 881 4594 1212 4672 
Q 1544 4750 1819 4750 
Q 2544 4750 2975 4387 
Q 3406 4025 3406 3419 
Q 3406 3131 3298 2873 
Q 3191 2616 2906 2266 
Q 2828 2175 2409 1742 
Q 1991 1309 1228 531 
z
" transform="scale(0.015625)"/>
       </defs>
       <use xlink:href="#DejaVuSans-30"/>
       <use xlink:href="#DejaVuSans-2e" x="63.623047"/>
       <use xlink:href="#DejaVuSans-32" x="95.410156"/>
      </g>
     </g>
    </g>
    <g id="ytick_2">
     <g id="line2d_17">
      <path d="M 108 416.851025 
L 777.6 416.851025 
" clip-path="url(#p9cbc152179)" style="fill: none; stroke-dasharray: 2.96,1.28; stroke-dashoffset: 0; stroke: #b0b0b0; stroke-opacity: 0.6; stroke-width: 0.8"/>
     </g>
     <g id="line2d_18">
      <g>
       <use xlink:href="#m7e823ed83c" x="108" y="416.851025" style="stroke: #000000; stroke-width: 0.8"/>
      </g>
     </g>
     <g id="text_10">
      <!-- 0.3 -->
      <g transform="translate(85.096875 420.650243) scale(0.1 -0.1)">
       <defs>
        <path id="DejaVuSans-33" d="M 2597 2516 
Q 3050 2419 3304 2112 
Q 3559 1806 3559 1356 
Q 3559 666 3084 287 
Q 2609 -91 1734 -91 
Q 1441 -91 1130 -33 
Q 819 25 488 141 
L 488 750 
Q 750 597 1062 519 
Q 1375 441 1716 441 
Q 2309 441 2620 675 
Q 2931 909 2931 1356 
Q 2931 1769 2642 2001 
Q 2353 2234 1838 2234 
L 1294 2234 
L 1294 2753 
L 1863 2753 
Q 2328 2753 2575 2939 
Q 2822 3125 2822 3475 
Q 2822 3834 2567 4026 
Q 2313 4219 1838 4219 
Q 1578 4219 1281 4162 
Q 984 4106 628 3988 
L 628 4550 
Q 988 4650 1302 4700 
Q 1616 4750 1894 4750 
Q 2613 4750 3031 4423 
Q 3450 4097 3450 3541 
Q 3450 3153 3228 2886 
Q 3006 2619 2597 2516 
z
" transform="scale(0.015625)"/>
       </defs>
       <use xlink:href="#DejaVuSans-30"/>
       <use xlink:href="#DejaVuSans-2e" x="63.623047"/>
       <use xlink:href="#DejaVuSans-33" x="95.410156"/>
      </g>
     </g>
    </g>
    <g id="ytick_3">
     <g id="line2d_19">
      <path d="M 108 336.284433 
L 777.6 336.284433 
" clip-path="url(#p9cbc152179)" style="fill: none; stroke-dasharray: 2.96,1.28; stroke-dashoffset: 0; stroke: #b0b0b0; stroke-opacity: 0.6; stroke-width: 0.8"/>
     </g>
     <g id="line2d_20">
      <g>
       <use xlink:href="#m7e823ed83c" x="108" y="336.284433" style="stroke: #000000; stroke-width: 0.8"/>
      </g>
     </g>
     <g id="text_11">
      <!-- 0.4 -->
      <g transform="translate(85.096875 340.083652) scale(0.1 -0.1)">
       <defs>
        <path id="DejaVuSans-34" d="M 2419 4116 
L 825 1625 
L 2419 1625 
L 2419 4116 
z
M 2253 4666 
L 3047 4666 
L 3047 1625 
L 3713 1625 
L 3713 1100 
L 3047 1100 
L 3047 0 
L 2419 0 
L 2419 1100 
L 313 1100 
L 313 1709 
L 2253 4666 
z
" transform="scale(0.015625)"/>
       </defs>
       <use xlink:href="#DejaVuSans-30"/>
       <use xlink:href="#DejaVuSans-2e" x="63.623047"/>
       <use xlink:href="#DejaVuSans-34" x="95.410156"/>
      </g>
     </g>
    </g>
    <g id="ytick_4">
     <g id="line2d_21">
      <path d="M 108 255.717841 
L 777.6 255.717841 
" clip-path="url(#p9cbc152179)" style="fill: none; stroke-dasharray: 2.96,1.28; stroke-dashoffset: 0; stroke: #b0b0b0; stroke-opacity: 0.6; stroke-width: 0.8"/>
     </g>
     <g id="line2d_22">
      <g>
       <use xlink:href="#m7e823ed83c" x="108" y="255.717841" style="stroke: #000000; stroke-width: 0.8"/>
      </g>
     </g>
     <g id="text_12">
      <!-- 0.5 -->
      <g transform="translate(85.096875 259.51706) scale(0.1 -0.1)">
       <use xlink:href="#DejaVuSans-30"/>
       <use xlink:href="#DejaVuSans-2e" x="63.623047"/>
       <use xlink:href="#DejaVuSans-35" x="95.410156"/>
      </g>
     </g>
    </g>
    <g id="ytick_5">
     <g id="line2d_23">
      <path d="M 108 175.15125 
L 777.6 175.15125 
" clip-path="url(#p9cbc152179)" style="fill: none; stroke-dasharray: 2.96,1.28; stroke-dashoffset: 0; stroke: #b0b0b0; stroke-opacity: 0.6; stroke-width: 0.8"/>
     </g>
     <g id="line2d_24">
      <g>
       <use xlink:href="#m7e823ed83c" x="108" y="175.15125" style="stroke: #000000; stroke-width: 0.8"/>
      </g>
     </g>
     <g id="text_13">
      <!-- 0.6 -->
      <g transform="translate(85.096875 178.950468) scale(0.1 -0.1)">
       <defs>
        <path id="DejaVuSans-36" d="M 2113 2584 
Q 1688 2584 1439 2293 
Q 1191 2003 1191 1497 
Q 1191 994 1439 701 
Q 1688 409 2113 409 
Q 2538 409 2786 701 
Q 3034 994 3034 1497 
Q 3034 2003 2786 2293 
Q 2538 2584 2113 2584 
z
M 3366 4563 
L 3366 3988 
Q 3128 4100 2886 4159 
Q 2644 4219 2406 4219 
Q 1781 4219 1451 3797 
Q 1122 3375 1075 2522 
Q 1259 2794 1537 2939 
Q 1816 3084 2150 3084 
Q 2853 3084 3261 2657 
Q 3669 2231 3669 1497 
Q 3669 778 3244 343 
Q 2819 -91 2113 -91 
Q 1303 -91 875 529 
Q 447 1150 447 2328 
Q 447 3434 972 4092 
Q 1497 4750 2381 4750 
Q 2619 4750 2861 4703 
Q 3103 4656 3366 4563 
z
" transform="scale(0.015625)"/>
       </defs>
       <use xlink:href="#DejaVuSans-30"/>
       <use xlink:href="#DejaVuSans-2e" x="63.623047"/>
       <use xlink:href="#DejaVuSans-36" x="95.410156"/>
      </g>
     </g>
    </g>
    <g id="ytick_6">
     <g id="line2d_25">
      <path d="M 108 94.584658 
L 777.6 94.584658 
" clip-path="url(#p9cbc152179)" style="fill: none; stroke-dasharray: 2.96,1.28; stroke-dashoffset: 0; stroke: #b0b0b0; stroke-opacity: 0.6; stroke-width: 0.8"/>
     </g>
     <g id="line2d_26">
      <g>
       <use xlink:href="#m7e823ed83c" x="108" y="94.584658" style="stroke: #000000; stroke-width: 0.8"/>
      </g>
     </g>
     <g id="text_14">
      <!-- 0.7 -->
      <g transform="translate(85.096875 98.383877) scale(0.1 -0.1)">
       <defs>
        <path id="DejaVuSans-37" d="M 525 4666 
L 3525 4666 
L 3525 4397 
L 1831 0 
L 1172 0 
L 2766 4134 
L 525 4134 
L 525 4666 
z
" transform="scale(0.015625)"/>
       </defs>
       <use xlink:href="#DejaVuSans-30"/>
       <use xlink:href="#DejaVuSans-2e" x="63.623047"/>
       <use xlink:href="#DejaVuSans-37" x="95.410156"/>
      </g>
     </g>
    </g>
   </g>
   <g id="line2d_27">
    <path d="M 138.436364 476.638679 
L 140.472241 459.186215 
L 142.508118 439.235006 
L 144.543995 421.057098 
L 146.579872 401.564168 
L 150.651627 365.911336 
L 152.687504 349.681094 
L 154.723381 331.277492 
L 156.759258 314.494121 
L 158.795135 295.542884 
L 160.831012 295.117223 
L 162.86689 300.161886 
L 164.902767 300.987718 
L 166.938644 301.501728 
L 168.974521 300.088797 
L 171.010398 299.415198 
L 173.046275 298.99938 
L 175.082153 303.378516 
L 177.11803 299.933073 
L 179.153907 302.65014 
L 181.189784 302.956283 
L 183.225661 303.807319 
L 185.261538 304.522185 
L 187.297416 309.127201 
L 189.333293 307.917778 
L 191.36917 307.492228 
L 193.405047 307.930467 
L 195.440924 309.855308 
L 197.476801 307.621629 
L 199.512679 310.792923 
L 201.548556 312.76253 
L 203.584433 309.903417 
L 205.62031 311.110655 
L 207.656187 312.662251 
L 209.692064 315.016266 
L 211.727942 312.410678 
L 213.763819 311.833476 
L 215.799696 310.241584 
L 217.835573 312.405073 
L 219.87145 311.944614 
L 221.907327 312.02633 
L 225.979082 315.855898 
L 228.014959 315.337683 
L 230.050836 318.877584 
L 232.086713 320.216558 
L 234.12259 320.699452 
L 236.158468 320.674851 
L 238.194345 320.182018 
L 240.230222 319.36307 
L 242.266099 320.029066 
L 244.301976 322.783141 
L 246.337853 321.795039 
L 248.373731 324.048063 
L 250.409608 321.848051 
L 252.445485 318.64208 
L 254.481362 319.708323 
L 256.517239 323.806107 
L 258.553116 325.093733 
L 260.588994 323.563488 
L 262.624871 322.499255 
L 264.660748 326.315379 
L 266.696625 325.8035 
L 268.732502 321.810054 
L 270.768379 317.434751 
L 272.804257 315.903563 
L 274.840134 315.590195 
L 276.876011 313.895868 
L 278.911888 317.264671 
L 280.947765 314.552588 
L 282.983642 311.18716 
L 285.01952 308.163652 
L 287.055397 303.551357 
L 289.091274 301.601712 
L 291.127151 303.953848 
L 293.163028 309.317515 
L 295.198905 306.501917 
L 297.234783 305.665292 
L 299.27066 305.603249 
L 301.306537 306.874285 
L 303.342414 308.866946 
L 305.378291 304.305308 
L 307.414168 301.721478 
L 309.450046 302.959224 
L 311.485923 303.704907 
L 313.5218 303.800467 
L 315.557677 303.062633 
L 317.593554 306.016844 
L 319.629431 306.254118 
L 321.665309 309.991671 
L 323.701186 313.206655 
L 325.737063 318.00485 
L 327.77294 321.667731 
L 329.808817 320.566122 
L 331.844694 322.121919 
L 333.880572 322.12955 
L 335.916449 327.132453 
L 337.952326 325.831703 
L 339.988203 329.969789 
L 342.02408 324.395717 
L 344.059957 324.562825 
L 346.095835 325.267811 
L 348.131712 329.093699 
L 350.167589 330.868667 
L 352.203466 333.899899 
L 354.239343 337.35236 
L 356.27522 337.739512 
L 358.311098 337.37208 
L 360.346975 334.907692 
L 362.382852 334.884277 
L 364.418729 335.462405 
L 366.454606 334.852957 
L 368.490483 337.240393 
L 370.526361 339.056828 
L 372.562238 338.226903 
L 374.598115 338.765994 
L 376.633992 336.974261 
L 378.669869 336.677189 
L 380.705746 331.435674 
L 382.741624 338.368709 
L 384.777501 338.09439 
L 386.813378 336.410095 
L 388.849255 333.696059 
L 390.885132 332.769414 
L 392.921009 329.949109 
L 394.956887 326.505932 
L 396.992764 326.041487 
L 399.028641 320.62047 
L 401.064518 319.470827 
L 403.100395 317.386688 
L 405.136272 311.096127 
L 407.17215 298.654774 
L 409.208027 295.323444 
L 411.243904 293.673015 
L 413.279781 289.45536 
L 415.315658 288.150263 
L 417.351535 282.83688 
L 419.387413 274.464499 
L 421.42329 273.921237 
L 423.459167 270.932301 
L 425.495044 266.138688 
L 427.530921 265.983014 
L 431.602676 261.776866 
L 433.638553 261.268416 
L 437.710307 255.004016 
L 439.746184 256.352623 
L 441.782061 255.580166 
L 443.817939 247.646224 
L 445.853816 249.15732 
L 447.889693 255.790336 
L 449.92557 254.24989 
L 451.961447 252.075607 
L 453.997324 252.733975 
L 456.033202 250.958761 
L 458.069079 253.352032 
L 460.104956 256.890748 
L 462.140833 256.506661 
L 464.17671 256.004729 
L 466.212587 258.555715 
L 468.248465 257.126637 
L 470.284342 257.317964 
L 472.320219 258.96156 
L 474.356096 257.793155 
L 476.391973 260.463764 
L 478.42785 257.51601 
L 480.463728 257.246183 
L 482.499605 256.542999 
L 484.535482 262.492352 
L 486.571359 262.526481 
L 488.607236 263.093369 
L 492.678991 265.123411 
L 494.714868 265.123864 
L 496.750745 263.292185 
L 498.786622 262.640831 
L 500.822499 263.331146 
L 502.858376 259.978511 
L 506.930131 255.324903 
L 508.966008 253.991898 
L 511.001885 252.495861 
L 513.037762 249.952223 
L 515.073639 248.926646 
L 517.109517 244.102028 
L 519.145394 243.829906 
L 521.181271 240.796606 
L 523.217148 235.983386 
L 525.253025 232.648867 
L 527.288902 228.814783 
L 529.32478 225.71024 
L 533.396534 214.339483 
L 535.432411 209.697493 
L 537.468288 206.046655 
L 539.504165 197.290976 
L 541.540043 193.355494 
L 543.57592 188.89766 
L 545.611797 183.313971 
L 547.647674 177.138016 
L 549.683551 169.808531 
L 551.719428 164.898664 
L 555.791183 153.117127 
L 557.82706 149.374648 
L 559.862937 142.537085 
L 561.898814 141.230533 
L 563.934691 141.10855 
L 570.042323 128.296026 
L 572.0782 127.949854 
L 574.114077 127.193991 
L 576.149954 125.30902 
L 578.185832 123.645295 
L 580.221709 125.769425 
L 582.257586 126.268229 
L 584.293463 126.294428 
L 586.32934 125.115822 
L 588.365217 126.885496 
L 590.401095 130.31969 
L 592.436972 128.774915 
L 594.472849 129.786454 
L 596.508726 130.099985 
L 598.544603 130.129088 
L 600.58048 134.298078 
L 602.616358 132.064184 
L 604.652235 132.921455 
L 606.688112 136.01006 
L 608.723989 136.676487 
L 610.759866 140.302813 
L 612.795743 139.791196 
L 614.831621 138.952433 
L 616.867498 138.291235 
L 618.903375 138.758833 
L 620.939252 139.879571 
L 622.975129 138.612932 
L 625.011006 136.692805 
L 627.046884 136.077498 
L 629.082761 133.230632 
L 631.118638 133.419023 
L 633.154515 131.784606 
L 635.190392 132.137937 
L 637.226269 130.423265 
L 639.262147 131.658086 
L 641.298024 130.179034 
L 643.333901 129.966976 
L 645.369778 127.288434 
L 647.405655 125.897181 
L 649.441532 127.700222 
L 651.47741 124.149341 
L 653.513287 120.345319 
L 655.549164 118.715368 
L 657.585041 117.406959 
L 659.620918 115.428429 
L 661.656795 114.017687 
L 663.692673 112.069838 
L 665.72855 115.397453 
L 667.764427 118.283333 
L 669.800304 117.54641 
L 671.836181 114.793392 
L 673.872058 115.059635 
L 675.907936 111.940619 
L 677.943813 111.801245 
L 679.97969 108.805443 
L 682.015567 106.801756 
L 684.051444 104.022232 
L 686.087321 105.005713 
L 688.123199 105.486881 
L 690.159076 105.799918 
L 692.194953 105.894662 
L 696.266707 112.095645 
L 698.302584 113.936518 
L 700.338462 115.252534 
L 702.374339 115.491722 
L 704.410216 120.03541 
L 706.446093 117.915828 
L 708.48197 117.559005 
L 710.517847 113.491709 
L 712.553725 113.980097 
L 714.589602 117.473604 
L 718.661356 120.690563 
L 722.73311 128.775213 
L 724.768988 131.053103 
L 726.804865 131.085987 
L 728.840742 128.936633 
L 730.876619 154.473558 
L 732.912496 181.952635 
L 741.056005 285.415728 
L 743.091882 311.945882 
L 745.127759 335.095466 
L 747.163636 362.238601 
L 747.163636 362.238601 
" clip-path="url(#p9cbc152179)" style="fill: none; stroke: #0000ff; stroke-width: 3; stroke-linecap: square"/>
   </g>
   <g id="line2d_28">
    <path d="M 138.436364 483.071268 
L 140.472241 465.550841 
L 142.508118 446.034972 
L 148.615749 393.39762 
L 150.651627 373.718208 
L 152.687504 355.514023 
L 154.723381 340.521894 
L 158.795135 303.969138 
L 160.831012 304.828616 
L 162.86689 302.276904 
L 164.902767 302.928896 
L 166.938644 304.752069 
L 168.974521 307.565465 
L 171.010398 307.566718 
L 173.046275 304.102251 
L 175.082153 306.87504 
L 177.11803 305.095055 
L 179.153907 305.44452 
L 181.189784 301.624479 
L 183.225661 304.160075 
L 185.261538 304.826413 
L 187.297416 306.570358 
L 189.333293 307.119378 
L 191.36917 307.256741 
L 193.405047 310.57044 
L 195.440924 305.002039 
L 197.476801 307.861461 
L 201.548556 313.049663 
L 203.584433 315.719054 
L 205.62031 315.213561 
L 207.656187 312.096545 
L 209.692064 312.313585 
L 211.727942 310.941383 
L 213.763819 317.044184 
L 215.799696 312.276221 
L 217.835573 313.462956 
L 219.87145 312.480173 
L 221.907327 317.990541 
L 223.943205 316.38027 
L 225.979082 315.240776 
L 228.014959 315.331597 
L 230.050836 312.256801 
L 232.086713 314.302946 
L 234.12259 309.202063 
L 236.158468 313.834414 
L 238.194345 311.161736 
L 240.230222 312.554831 
L 242.266099 310.009349 
L 244.301976 309.960335 
L 246.337853 310.651837 
L 248.373731 314.277773 
L 250.409608 314.312134 
L 252.445485 315.120471 
L 254.481362 313.560092 
L 256.517239 318.971322 
L 258.553116 320.810745 
L 262.624871 321.775012 
L 264.660748 324.389833 
L 266.696625 326.166916 
L 268.732502 327.130148 
L 270.768379 328.718913 
L 272.804257 331.267514 
L 274.840134 334.131911 
L 276.876011 332.644032 
L 278.911888 333.859815 
L 280.947765 329.313296 
L 282.983642 327.524685 
L 285.01952 327.577825 
L 287.055397 327.355226 
L 289.091274 328.600859 
L 291.127151 328.196514 
L 293.163028 328.404143 
L 295.198905 330.257949 
L 297.234783 332.547175 
L 299.27066 332.969381 
L 301.306537 334.493215 
L 303.342414 332.657788 
L 307.414168 334.123733 
L 309.450046 334.106415 
L 315.557677 335.348917 
L 319.629431 339.644457 
L 321.665309 344.842029 
L 323.701186 346.931453 
L 325.737063 348.052492 
L 327.77294 345.534039 
L 329.808817 340.532769 
L 331.844694 341.55659 
L 333.880572 342.919598 
L 335.916449 341.417827 
L 337.952326 338.222209 
L 339.988203 338.915063 
L 342.02408 336.733658 
L 344.059957 339.327959 
L 346.095835 340.562458 
L 348.131712 341.565046 
L 350.167589 342.74512 
L 352.203466 341.952217 
L 354.239343 339.704302 
L 356.27522 339.330013 
L 358.311098 339.230072 
L 360.346975 331.431036 
L 362.382852 328.850359 
L 364.418729 330.229983 
L 366.454606 329.682742 
L 368.490483 331.042523 
L 370.526361 333.312037 
L 374.598115 333.016543 
L 376.633992 333.542858 
L 378.669869 331.785167 
L 380.705746 329.836547 
L 382.741624 332.489328 
L 384.777501 330.782627 
L 386.813378 326.880427 
L 388.849255 325.212858 
L 390.885132 323.77125 
L 392.921009 324.868188 
L 394.956887 324.641926 
L 396.992764 323.71461 
L 399.028641 321.449465 
L 401.064518 328.649446 
L 405.136272 324.919513 
L 407.17215 322.33279 
L 409.208027 322.327409 
L 411.243904 319.542587 
L 413.279781 315.265113 
L 415.315658 315.16301 
L 417.351535 307.302084 
L 419.387413 306.403889 
L 421.42329 304.405077 
L 423.459167 300.435944 
L 425.495044 297.748881 
L 427.530921 297.446314 
L 429.566798 293.473045 
L 431.602676 288.992939 
L 433.638553 287.588779 
L 435.67443 283.510052 
L 437.710307 280.443083 
L 439.746184 276.929969 
L 441.782061 274.144498 
L 445.853816 270.285759 
L 447.889693 268.123604 
L 449.92557 262.268189 
L 451.961447 260.798708 
L 453.997324 261.687436 
L 456.033202 258.874013 
L 458.069079 261.354464 
L 460.104956 260.542698 
L 462.140833 260.362816 
L 466.212587 258.503083 
L 468.248465 253.770058 
L 470.284342 248.12386 
L 472.320219 249.10349 
L 474.356096 248.360311 
L 476.391973 249.098598 
L 478.42785 248.501987 
L 480.463728 248.889697 
L 482.499605 247.571066 
L 486.571359 248.282966 
L 488.607236 249.791129 
L 490.643113 255.259668 
L 492.678991 254.943408 
L 496.750745 248.002337 
L 498.786622 246.856047 
L 500.822499 244.597918 
L 502.858376 240.223772 
L 504.894254 237.062236 
L 506.930131 234.131863 
L 508.966008 234.066783 
L 511.001885 235.529538 
L 513.037762 234.250457 
L 515.073639 231.024942 
L 517.109517 228.874326 
L 519.145394 226.401226 
L 521.181271 223.647432 
L 523.217148 216.058918 
L 525.253025 209.114765 
L 527.288902 203.9074 
L 529.32478 199.769282 
L 531.360657 194.515214 
L 533.396534 189.644261 
L 535.432411 188.547263 
L 537.468288 186.97547 
L 541.540043 178.913002 
L 543.57592 171.716297 
L 545.611797 170.203643 
L 547.647674 167.329687 
L 549.683551 165.203097 
L 551.719428 163.327078 
L 553.755306 156.629182 
L 555.791183 150.899286 
L 557.82706 147.64471 
L 559.862937 146.936622 
L 561.898814 145.961722 
L 563.934691 145.907729 
L 565.970569 146.027548 
L 568.006446 143.90302 
L 570.042323 139.417817 
L 572.0782 137.319237 
L 574.114077 138.128163 
L 576.149954 135.428358 
L 578.185832 136.743558 
L 580.221709 135.012333 
L 582.257586 137.549354 
L 584.293463 140.472761 
L 586.32934 138.643146 
L 588.365217 139.47586 
L 592.436972 141.546092 
L 594.472849 143.874515 
L 596.508726 143.14095 
L 598.544603 143.792403 
L 600.58048 145.037085 
L 602.616358 143.082126 
L 604.652235 146.826313 
L 606.688112 144.52995 
L 608.723989 143.890079 
L 612.795743 140.397156 
L 614.831621 138.292826 
L 616.867498 139.233145 
L 618.903375 136.023635 
L 620.939252 138.250531 
L 622.975129 137.051395 
L 625.011006 138.585926 
L 627.046884 139.538121 
L 629.082761 137.752676 
L 631.118638 135.338882 
L 633.154515 132.549465 
L 635.190392 130.229343 
L 637.226269 134.097953 
L 639.262147 131.078093 
L 641.298024 127.410046 
L 643.333901 125.632673 
L 645.369778 122.720536 
L 647.405655 125.711087 
L 649.441532 125.725403 
L 651.47741 126.237187 
L 653.513287 127.387951 
L 655.549164 127.442444 
L 657.585041 128.420234 
L 659.620918 129.620984 
L 661.656795 127.836561 
L 663.692673 122.268021 
L 665.72855 121.069048 
L 667.764427 120.901596 
L 669.800304 121.579958 
L 671.836181 121.964865 
L 675.907936 127.406865 
L 677.943813 123.641293 
L 679.97969 123.163508 
L 682.015567 122.896653 
L 684.051444 123.210448 
L 686.087321 123.893776 
L 688.123199 123.25249 
L 690.159076 126.582992 
L 692.194953 128.67519 
L 696.266707 133.221692 
L 698.302584 131.326548 
L 700.338462 132.187333 
L 702.374339 129.930755 
L 704.410216 134.240276 
L 706.446093 134.077695 
L 708.48197 135.184841 
L 710.517847 135.874618 
L 712.553725 137.383289 
L 714.589602 137.762659 
L 716.625479 140.738942 
L 718.661356 143.078812 
L 720.697233 148.485397 
L 722.73311 153.101831 
L 724.768988 155.061256 
L 726.804865 151.010638 
L 728.840742 152.146387 
L 730.876619 175.948648 
L 732.912496 202.619465 
L 736.984251 251.535788 
L 739.020128 278.112536 
L 741.056005 302.539857 
L 743.091882 331.266756 
L 745.127759 357.008317 
L 747.163636 384.544027 
L 747.163636 384.544027 
" clip-path="url(#p9cbc152179)" style="fill: none; stroke: #ff0000; stroke-width: 3; stroke-linecap: square"/>
   </g>
   <g id="patch_3">
    <path d="M 108 512.64 
L 108 69.12 
" style="fill: none; stroke: #000000; stroke-width: 0.8; stroke-linejoin: miter; stroke-linecap: square"/>
   </g>
   <g id="patch_4">
    <path d="M 777.6 512.64 
L 777.6 69.12 
" style="fill: none; stroke: #000000; stroke-width: 0.8; stroke-linejoin: miter; stroke-linecap: square"/>
   </g>
   <g id="patch_5">
    <path d="M 108 512.64 
L 777.6 512.64 
" style="fill: none; stroke: #000000; stroke-width: 0.8; stroke-linejoin: miter; stroke-linecap: square"/>
   </g>
   <g id="patch_6">
    <path d="M 108 69.12 
L 777.6 69.12 
" style="fill: none; stroke: #000000; stroke-width: 0.8; stroke-linejoin: miter; stroke-linecap: square"/>
   </g>
   <g id="text_15">
    <!-- Average PSTH for Low and High Arousal -->
    <g transform="translate(283.855 63.12) scale(0.16 -0.16)">
     <defs>
      <path id="DejaVuSans-41" d="M 2188 4044 
L 1331 1722 
L 3047 1722 
L 2188 4044 
z
M 1831 4666 
L 2547 4666 
L 4325 0 
L 3669 0 
L 3244 1197 
L 1141 1197 
L 716 0 
L 50 0 
L 1831 4666 
z
" transform="scale(0.015625)"/>
      <path id="DejaVuSans-76" d="M 191 3500 
L 800 3500 
L 1894 563 
L 2988 3500 
L 3597 3500 
L 2284 0 
L 1503 0 
L 191 3500 
z
" transform="scale(0.015625)"/>
      <path id="DejaVuSans-72" d="M 2631 2963 
Q 2534 3019 2420 3045 
Q 2306 3072 2169 3072 
Q 1681 3072 1420 2755 
Q 1159 2438 1159 1844 
L 1159 0 
L 581 0 
L 581 3500 
L 1159 3500 
L 1159 2956 
Q 1341 3275 1631 3429 
Q 1922 3584 2338 3584 
Q 2397 3584 2469 3576 
Q 2541 3569 2628 3553 
L 2631 2963 
z
" transform="scale(0.015625)"/>
      <path id="DejaVuSans-61" d="M 2194 1759 
Q 1497 1759 1228 1600 
Q 959 1441 959 1056 
Q 959 750 1161 570 
Q 1363 391 1709 391 
Q 2188 391 2477 730 
Q 2766 1069 2766 1631 
L 2766 1759 
L 2194 1759 
z
M 3341 1997 
L 3341 0 
L 2766 0 
L 2766 531 
Q 2569 213 2275 61 
Q 1981 -91 1556 -91 
Q 1019 -91 701 211 
Q 384 513 384 1019 
Q 384 1609 779 1909 
Q 1175 2209 1959 2209 
L 2766 2209 
L 2766 2266 
Q 2766 2663 2505 2880 
Q 2244 3097 1772 3097 
Q 1472 3097 1187 3025 
Q 903 2953 641 2809 
L 641 3341 
Q 956 3463 1253 3523 
Q 1550 3584 1831 3584 
Q 2591 3584 2966 3190 
Q 3341 2797 3341 1997 
z
" transform="scale(0.015625)"/>
      <path id="DejaVuSans-67" d="M 2906 1791 
Q 2906 2416 2648 2759 
Q 2391 3103 1925 3103 
Q 1463 3103 1205 2759 
Q 947 2416 947 1791 
Q 947 1169 1205 825 
Q 1463 481 1925 481 
Q 2391 481 2648 825 
Q 2906 1169 2906 1791 
z
M 3481 434 
Q 3481 -459 3084 -895 
Q 2688 -1331 1869 -1331 
Q 1566 -1331 1297 -1286 
Q 1028 -1241 775 -1147 
L 775 -588 
Q 1028 -725 1275 -790 
Q 1522 -856 1778 -856 
Q 2344 -856 2625 -561 
Q 2906 -266 2906 331 
L 2906 616 
Q 2728 306 2450 153 
Q 2172 0 1784 0 
Q 1141 0 747 490 
Q 353 981 353 1791 
Q 353 2603 747 3093 
Q 1141 3584 1784 3584 
Q 2172 3584 2450 3431 
Q 2728 3278 2906 2969 
L 2906 3500 
L 3481 3500 
L 3481 434 
z
" transform="scale(0.015625)"/>
      <path id="DejaVuSans-50" d="M 1259 4147 
L 1259 2394 
L 2053 2394 
Q 2494 2394 2734 2622 
Q 2975 2850 2975 3272 
Q 2975 3691 2734 3919 
Q 2494 4147 2053 4147 
L 1259 4147 
z
M 628 4666 
L 2053 4666 
Q 2838 4666 3239 4311 
Q 3641 3956 3641 3272 
Q 3641 2581 3239 2228 
Q 2838 1875 2053 1875 
L 1259 1875 
L 1259 0 
L 628 0 
L 628 4666 
z
" transform="scale(0.015625)"/>
      <path id="DejaVuSans-53" d="M 3425 4513 
L 3425 3897 
Q 3066 4069 2747 4153 
Q 2428 4238 2131 4238 
Q 1616 4238 1336 4038 
Q 1056 3838 1056 3469 
Q 1056 3159 1242 3001 
Q 1428 2844 1947 2747 
L 2328 2669 
Q 3034 2534 3370 2195 
Q 3706 1856 3706 1288 
Q 3706 609 3251 259 
Q 2797 -91 1919 -91 
Q 1588 -91 1214 -16 
Q 841 59 441 206 
L 441 856 
Q 825 641 1194 531 
Q 1563 422 1919 422 
Q 2459 422 2753 634 
Q 3047 847 3047 1241 
Q 3047 1584 2836 1778 
Q 2625 1972 2144 2069 
L 1759 2144 
Q 1053 2284 737 2584 
Q 422 2884 422 3419 
Q 422 4038 858 4394 
Q 1294 4750 2059 4750 
Q 2388 4750 2728 4690 
Q 3069 4631 3425 4513 
z
" transform="scale(0.015625)"/>
      <path id="DejaVuSans-48" d="M 628 4666 
L 1259 4666 
L 1259 2753 
L 3553 2753 
L 3553 4666 
L 4184 4666 
L 4184 0 
L 3553 0 
L 3553 2222 
L 1259 2222 
L 1259 0 
L 628 0 
L 628 4666 
z
" transform="scale(0.015625)"/>
      <path id="DejaVuSans-66" d="M 2375 4863 
L 2375 4384 
L 1825 4384 
Q 1516 4384 1395 4259 
Q 1275 4134 1275 3809 
L 1275 3500 
L 2222 3500 
L 2222 3053 
L 1275 3053 
L 1275 0 
L 697 0 
L 697 3053 
L 147 3053 
L 147 3500 
L 697 3500 
L 697 3744 
Q 697 4328 969 4595 
Q 1241 4863 1831 4863 
L 2375 4863 
z
" transform="scale(0.015625)"/>
      <path id="DejaVuSans-6f" d="M 1959 3097 
Q 1497 3097 1228 2736 
Q 959 2375 959 1747 
Q 959 1119 1226 758 
Q 1494 397 1959 397 
Q 2419 397 2687 759 
Q 2956 1122 2956 1747 
Q 2956 2369 2687 2733 
Q 2419 3097 1959 3097 
z
M 1959 3584 
Q 2709 3584 3137 3096 
Q 3566 2609 3566 1747 
Q 3566 888 3137 398 
Q 2709 -91 1959 -91 
Q 1206 -91 779 398 
Q 353 888 353 1747 
Q 353 2609 779 3096 
Q 1206 3584 1959 3584 
z
" transform="scale(0.015625)"/>
      <path id="DejaVuSans-4c" d="M 628 4666 
L 1259 4666 
L 1259 531 
L 3531 531 
L 3531 0 
L 628 0 
L 628 4666 
z
" transform="scale(0.015625)"/>
      <path id="DejaVuSans-77" d="M 269 3500 
L 844 3500 
L 1563 769 
L 2278 3500 
L 2956 3500 
L 3675 769 
L 4391 3500 
L 4966 3500 
L 4050 0 
L 3372 0 
L 2619 2869 
L 1863 0 
L 1184 0 
L 269 3500 
z
" transform="scale(0.015625)"/>
      <path id="DejaVuSans-6e" d="M 3513 2113 
L 3513 0 
L 2938 0 
L 2938 2094 
Q 2938 2591 2744 2837 
Q 2550 3084 2163 3084 
Q 1697 3084 1428 2787 
Q 1159 2491 1159 1978 
L 1159 0 
L 581 0 
L 581 3500 
L 1159 3500 
L 1159 2956 
Q 1366 3272 1645 3428 
Q 1925 3584 2291 3584 
Q 2894 3584 3203 3211 
Q 3513 2838 3513 2113 
z
" transform="scale(0.015625)"/>
      <path id="DejaVuSans-64" d="M 2906 2969 
L 2906 4863 
L 3481 4863 
L 3481 0 
L 2906 0 
L 2906 525 
Q 2725 213 2448 61 
Q 2172 -91 1784 -91 
Q 1150 -91 751 415 
Q 353 922 353 1747 
Q 353 2572 751 3078 
Q 1150 3584 1784 3584 
Q 2172 3584 2448 3432 
Q 2725 3281 2906 2969 
z
M 947 1747 
Q 947 1113 1208 752 
Q 1469 391 1925 391 
Q 2381 391 2643 752 
Q 2906 1113 2906 1747 
Q 2906 2381 2643 2742 
Q 2381 3103 1925 3103 
Q 1469 3103 1208 2742 
Q 947 2381 947 1747 
z
" transform="scale(0.015625)"/>
      <path id="DejaVuSans-68" d="M 3513 2113 
L 3513 0 
L 2938 0 
L 2938 2094 
Q 2938 2591 2744 2837 
Q 2550 3084 2163 3084 
Q 1697 3084 1428 2787 
Q 1159 2491 1159 1978 
L 1159 0 
L 581 0 
L 581 4863 
L 1159 4863 
L 1159 2956 
Q 1366 3272 1645 3428 
Q 1925 3584 2291 3584 
Q 2894 3584 3203 3211 
Q 3513 2838 3513 2113 
z
" transform="scale(0.015625)"/>
      <path id="DejaVuSans-75" d="M 544 1381 
L 544 3500 
L 1119 3500 
L 1119 1403 
Q 1119 906 1312 657 
Q 1506 409 1894 409 
Q 2359 409 2629 706 
Q 2900 1003 2900 1516 
L 2900 3500 
L 3475 3500 
L 3475 0 
L 2900 0 
L 2900 538 
Q 2691 219 2414 64 
Q 2138 -91 1772 -91 
Q 1169 -91 856 284 
Q 544 659 544 1381 
z
M 1991 3584 
L 1991 3584 
z
" transform="scale(0.015625)"/>
      <path id="DejaVuSans-6c" d="M 603 4863 
L 1178 4863 
L 1178 0 
L 603 0 
L 603 4863 
z
" transform="scale(0.015625)"/>
     </defs>
     <use xlink:href="#DejaVuSans-41"/>
     <use xlink:href="#DejaVuSans-76" x="62.533203"/>
     <use xlink:href="#DejaVuSans-65" x="121.712891"/>
     <use xlink:href="#DejaVuSans-72" x="183.236328"/>
     <use xlink:href="#DejaVuSans-61" x="224.349609"/>
     <use xlink:href="#DejaVuSans-67" x="285.628906"/>
     <use xlink:href="#DejaVuSans-65" x="349.105469"/>
     <use xlink:href="#DejaVuSans-20" x="410.628906"/>
     <use xlink:href="#DejaVuSans-50" x="442.416016"/>
     <use xlink:href="#DejaVuSans-53" x="502.71875"/>
     <use xlink:href="#DejaVuSans-54" x="566.195312"/>
     <use xlink:href="#DejaVuSans-48" x="627.279297"/>
     <use xlink:href="#DejaVuSans-20" x="702.474609"/>
     <use xlink:href="#DejaVuSans-66" x="734.261719"/>
     <use xlink:href="#DejaVuSans-6f" x="769.466797"/>
     <use xlink:href="#DejaVuSans-72" x="830.648438"/>
     <use xlink:href="#DejaVuSans-20" x="871.761719"/>
     <use xlink:href="#DejaVuSans-4c" x="903.548828"/>
     <use xlink:href="#DejaVuSans-6f" x="957.511719"/>
     <use xlink:href="#DejaVuSans-77" x="1018.693359"/>
     <use xlink:href="#DejaVuSans-20" x="1100.480469"/>
     <use xlink:href="#DejaVuSans-61" x="1132.267578"/>
     <use xlink:href="#DejaVuSans-6e" x="1193.546875"/>
     <use xlink:href="#DejaVuSans-64" x="1256.925781"/>
     <use xlink:href="#DejaVuSans-20" x="1320.402344"/>
     <use xlink:href="#DejaVuSans-48" x="1352.189453"/>
     <use xlink:href="#DejaVuSans-69" x="1427.384766"/>
     <use xlink:href="#DejaVuSans-67" x="1455.167969"/>
     <use xlink:href="#DejaVuSans-68" x="1518.644531"/>
     <use xlink:href="#DejaVuSans-20" x="1582.023438"/>
     <use xlink:href="#DejaVuSans-41" x="1613.810547"/>
     <use xlink:href="#DejaVuSans-72" x="1682.21875"/>
     <use xlink:href="#DejaVuSans-6f" x="1721.082031"/>
     <use xlink:href="#DejaVuSans-75" x="1782.263672"/>
     <use xlink:href="#DejaVuSans-73" x="1845.642578"/>
     <use xlink:href="#DejaVuSans-61" x="1897.742188"/>
     <use xlink:href="#DejaVuSans-6c" x="1959.021484"/>
    </g>
   </g>
   <g id="legend_1">
    <g id="patch_7">
     <path d="M 116.4 113.9475 
L 230.953125 113.9475 
Q 233.353125 113.9475 233.353125 111.5475 
L 233.353125 77.52 
Q 233.353125 75.12 230.953125 75.12 
L 116.4 75.12 
Q 114 75.12 114 77.52 
L 114 111.5475 
Q 114 113.9475 116.4 113.9475 
z
" style="fill: #ffffff; opacity: 0.8; stroke: #cccccc; stroke-linejoin: miter"/>
    </g>
    <g id="line2d_29">
     <path d="M 118.8 84.838125 
L 130.8 84.838125 
L 142.8 84.838125 
" style="fill: none; stroke: #0000ff; stroke-width: 3; stroke-linecap: square"/>
    </g>
    <g id="text_16">
     <!-- Low Arousal -->
     <g transform="translate(152.4 89.038125) scale(0.12 -0.12)">
      <use xlink:href="#DejaVuSans-4c"/>
      <use xlink:href="#DejaVuSans-6f" x="53.962891"/>
      <use xlink:href="#DejaVuSans-77" x="115.144531"/>
      <use xlink:href="#DejaVuSans-20" x="196.931641"/>
      <use xlink:href="#DejaVuSans-41" x="228.71875"/>
      <use xlink:href="#DejaVuSans-72" x="297.126953"/>
      <use xlink:href="#DejaVuSans-6f" x="335.990234"/>
      <use xlink:href="#DejaVuSans-75" x="397.171875"/>
      <use xlink:href="#DejaVuSans-73" x="460.550781"/>
      <use xlink:href="#DejaVuSans-61" x="512.650391"/>
      <use xlink:href="#DejaVuSans-6c" x="573.929688"/>
     </g>
    </g>
    <g id="line2d_30">
     <path d="M 118.8 102.451875 
L 130.8 102.451875 
L 142.8 102.451875 
" style="fill: none; stroke: #ff0000; stroke-width: 3; stroke-linecap: square"/>
    </g>
    <g id="text_17">
     <!-- High Arousal -->
     <g transform="translate(152.4 106.651875) scale(0.12 -0.12)">
      <use xlink:href="#DejaVuSans-48"/>
      <use xlink:href="#DejaVuSans-69" x="75.195312"/>
      <use xlink:href="#DejaVuSans-67" x="102.978516"/>
      <use xlink:href="#DejaVuSans-68" x="166.455078"/>
      <use xlink:href="#DejaVuSans-20" x="229.833984"/>
      <use xlink:href="#DejaVuSans-41" x="261.621094"/>
      <use xlink:href="#DejaVuSans-72" x="330.029297"/>
      <use xlink:href="#DejaVuSans-6f" x="368.892578"/>
      <use xlink:href="#DejaVuSans-75" x="430.074219"/>
      <use xlink:href="#DejaVuSans-73" x="493.453125"/>
      <use xlink:href="#DejaVuSans-61" x="545.552734"/>
      <use xlink:href="#DejaVuSans-6c" x="606.832031"/>
     </g>
    </g>
   </g>
  </g>
 </g>
 <defs>
  <clipPath id="p9cbc152179">
   <rect x="108" y="69.12" width="669.6" height="443.52"/>
  </clipPath>
 </defs>
</svg>
