<?xml version="1.0" encoding="utf-8" standalone="no"?>
<!DOCTYPE svg PUBLIC "-//W3C//DTD SVG 1.1//EN"
  "http://www.w3.org/Graphics/SVG/1.1/DTD/svg11.dtd">
<svg xmlns:xlink="http://www.w3.org/1999/xlink" width="460.8pt" height="345.6pt" viewBox="0 0 460.8 345.6" xmlns="http://www.w3.org/2000/svg" version="1.1">
 <metadata>
  <rdf:RDF xmlns:dc="http://purl.org/dc/elements/1.1/" xmlns:cc="http://creativecommons.org/ns#" xmlns:rdf="http://www.w3.org/1999/02/22-rdf-syntax-ns#">
   <cc:Work>
    <dc:type rdf:resource="http://purl.org/dc/dcmitype/StillImage"/>
    <dc:date>2024-03-26T13:53:35.453242</dc:date>
    <dc:format>image/svg+xml</dc:format>
    <dc:creator>
     <cc:Agent>
      <dc:title>Matplotlib v3.8.0, https://matplotlib.org/</dc:title>
     </cc:Agent>
    </dc:creator>
   </cc:Work>
  </rdf:RDF>
 </metadata>
 <defs>
  <style type="text/css">*{stroke-linejoin: round; stroke-linecap: butt}</style>
 </defs>
 <g id="figure_1">
  <g id="patch_1">
   <path d="M 0 345.6 
L 460.8 345.6 
L 460.8 0 
L 0 0 
z
" style="fill: #ffffff"/>
  </g>
  <g id="axes_1">
   <g id="patch_2">
    <path d="M 57.6 307.584 
L 414.72 307.584 
L 414.72 41.472 
L 57.6 41.472 
z
" style="fill: #ffffff"/>
   </g>
   <g id="matplotlib.axis_1">
    <g id="xtick_1">
     <g id="line2d_1">
      <defs>
       <path id="me05788ebb7" d="M 0 0 
L 0 3.5 
" style="stroke: #000000; stroke-width: 0.8"/>
      </defs>
      <g>
       <use xlink:href="#me05788ebb7" x="100.587463" y="307.584" style="stroke: #000000; stroke-width: 0.8"/>
      </g>
     </g>
     <g id="text_1">
      <!-- 0.0 -->
      <g transform="translate(92.635901 322.182437) scale(0.1 -0.1)">
       <defs>
        <path id="DejaVuSans-30" d="M 2034 4250 
Q 1547 4250 1301 3770 
Q 1056 3291 1056 2328 
Q 1056 1369 1301 889 
Q 1547 409 2034 409 
Q 2525 409 2770 889 
Q 3016 1369 3016 2328 
Q 3016 3291 2770 3770 
Q 2525 4250 2034 4250 
z
M 2034 4750 
Q 2819 4750 3233 4129 
Q 3647 3509 3647 2328 
Q 3647 1150 3233 529 
Q 2819 -91 2034 -91 
Q 1250 -91 836 529 
Q 422 1150 422 2328 
Q 422 3509 836 4129 
Q 1250 4750 2034 4750 
z
" transform="scale(0.015625)"/>
        <path id="DejaVuSans-2e" d="M 684 794 
L 1344 794 
L 1344 0 
L 684 0 
L 684 794 
z
" transform="scale(0.015625)"/>
       </defs>
       <use xlink:href="#DejaVuSans-30"/>
       <use xlink:href="#DejaVuSans-2e" x="63.623047"/>
       <use xlink:href="#DejaVuSans-30" x="95.410156"/>
      </g>
     </g>
    </g>
    <g id="xtick_2">
     <g id="line2d_2">
      <g>
       <use xlink:href="#me05788ebb7" x="170.310641" y="307.584" style="stroke: #000000; stroke-width: 0.8"/>
      </g>
     </g>
     <g id="text_2">
      <!-- 0.5 -->
      <g transform="translate(162.359079 322.182437) scale(0.1 -0.1)">
       <defs>
        <path id="DejaVuSans-35" d="M 691 4666 
L 3169 4666 
L 3169 4134 
L 1269 4134 
L 1269 2991 
Q 1406 3038 1543 3061 
Q 1681 3084 1819 3084 
Q 2600 3084 3056 2656 
Q 3513 2228 3513 1497 
Q 3513 744 3044 326 
Q 2575 -91 1722 -91 
Q 1428 -91 1123 -41 
Q 819 9 494 109 
L 494 744 
Q 775 591 1075 516 
Q 1375 441 1709 441 
Q 2250 441 2565 725 
Q 2881 1009 2881 1497 
Q 2881 1984 2565 2268 
Q 2250 2553 1709 2553 
Q 1456 2553 1204 2497 
Q 953 2441 691 2322 
L 691 4666 
z
" transform="scale(0.015625)"/>
       </defs>
       <use xlink:href="#DejaVuSans-30"/>
       <use xlink:href="#DejaVuSans-2e" x="63.623047"/>
       <use xlink:href="#DejaVuSans-35" x="95.410156"/>
      </g>
     </g>
    </g>
    <g id="xtick_3">
     <g id="line2d_3">
      <g>
       <use xlink:href="#me05788ebb7" x="240.03382" y="307.584" style="stroke: #000000; stroke-width: 0.8"/>
      </g>
     </g>
     <g id="text_3">
      <!-- 1.0 -->
      <g transform="translate(232.082257 322.182437) scale(0.1 -0.1)">
       <defs>
        <path id="DejaVuSans-31" d="M 794 531 
L 1825 531 
L 1825 4091 
L 703 3866 
L 703 4441 
L 1819 4666 
L 2450 4666 
L 2450 531 
L 3481 531 
L 3481 0 
L 794 0 
L 794 531 
z
" transform="scale(0.015625)"/>
       </defs>
       <use xlink:href="#DejaVuSans-31"/>
       <use xlink:href="#DejaVuSans-2e" x="63.623047"/>
       <use xlink:href="#DejaVuSans-30" x="95.410156"/>
      </g>
     </g>
    </g>
    <g id="xtick_4">
     <g id="line2d_4">
      <g>
       <use xlink:href="#me05788ebb7" x="309.756998" y="307.584" style="stroke: #000000; stroke-width: 0.8"/>
      </g>
     </g>
     <g id="text_4">
      <!-- 1.5 -->
      <g transform="translate(301.805436 322.182437) scale(0.1 -0.1)">
       <use xlink:href="#DejaVuSans-31"/>
       <use xlink:href="#DejaVuSans-2e" x="63.623047"/>
       <use xlink:href="#DejaVuSans-35" x="95.410156"/>
      </g>
     </g>
    </g>
    <g id="xtick_5">
     <g id="line2d_5">
      <g>
       <use xlink:href="#me05788ebb7" x="379.480177" y="307.584" style="stroke: #000000; stroke-width: 0.8"/>
      </g>
     </g>
     <g id="text_5">
      <!-- 2.0 -->
      <g transform="translate(371.528614 322.182437) scale(0.1 -0.1)">
       <defs>
        <path id="DejaVuSans-32" d="M 1228 531 
L 3431 531 
L 3431 0 
L 469 0 
L 469 531 
Q 828 903 1448 1529 
Q 2069 2156 2228 2338 
Q 2531 2678 2651 2914 
Q 2772 3150 2772 3378 
Q 2772 3750 2511 3984 
Q 2250 4219 1831 4219 
Q 1534 4219 1204 4116 
Q 875 4013 500 3803 
L 500 4441 
Q 881 4594 1212 4672 
Q 1544 4750 1819 4750 
Q 2544 4750 2975 4387 
Q 3406 4025 3406 3419 
Q 3406 3131 3298 2873 
Q 3191 2616 2906 2266 
Q 2828 2175 2409 1742 
Q 1991 1309 1228 531 
z
" transform="scale(0.015625)"/>
       </defs>
       <use xlink:href="#DejaVuSans-32"/>
       <use xlink:href="#DejaVuSans-2e" x="63.623047"/>
       <use xlink:href="#DejaVuSans-30" x="95.410156"/>
      </g>
     </g>
    </g>
    <g id="text_6">
     <!-- Time (s) -->
     <g transform="translate(215.831094 335.860562) scale(0.1 -0.1)">
      <defs>
       <path id="DejaVuSans-54" d="M -19 4666 
L 3928 4666 
L 3928 4134 
L 2272 4134 
L 2272 0 
L 1638 0 
L 1638 4134 
L -19 4134 
L -19 4666 
z
" transform="scale(0.015625)"/>
       <path id="DejaVuSans-69" d="M 603 3500 
L 1178 3500 
L 1178 0 
L 603 0 
L 603 3500 
z
M 603 4863 
L 1178 4863 
L 1178 4134 
L 603 4134 
L 603 4863 
z
" transform="scale(0.015625)"/>
       <path id="DejaVuSans-6d" d="M 3328 2828 
Q 3544 3216 3844 3400 
Q 4144 3584 4550 3584 
Q 5097 3584 5394 3201 
Q 5691 2819 5691 2113 
L 5691 0 
L 5113 0 
L 5113 2094 
Q 5113 2597 4934 2840 
Q 4756 3084 4391 3084 
Q 3944 3084 3684 2787 
Q 3425 2491 3425 1978 
L 3425 0 
L 2847 0 
L 2847 2094 
Q 2847 2600 2669 2842 
Q 2491 3084 2119 3084 
Q 1678 3084 1418 2786 
Q 1159 2488 1159 1978 
L 1159 0 
L 581 0 
L 581 3500 
L 1159 3500 
L 1159 2956 
Q 1356 3278 1631 3431 
Q 1906 3584 2284 3584 
Q 2666 3584 2933 3390 
Q 3200 3197 3328 2828 
z
" transform="scale(0.015625)"/>
       <path id="DejaVuSans-65" d="M 3597 1894 
L 3597 1613 
L 953 1613 
Q 991 1019 1311 708 
Q 1631 397 2203 397 
Q 2534 397 2845 478 
Q 3156 559 3463 722 
L 3463 178 
Q 3153 47 2828 -22 
Q 2503 -91 2169 -91 
Q 1331 -91 842 396 
Q 353 884 353 1716 
Q 353 2575 817 3079 
Q 1281 3584 2069 3584 
Q 2775 3584 3186 3129 
Q 3597 2675 3597 1894 
z
M 3022 2063 
Q 3016 2534 2758 2815 
Q 2500 3097 2075 3097 
Q 1594 3097 1305 2825 
Q 1016 2553 972 2059 
L 3022 2063 
z
" transform="scale(0.015625)"/>
       <path id="DejaVuSans-20" transform="scale(0.015625)"/>
       <path id="DejaVuSans-28" d="M 1984 4856 
Q 1566 4138 1362 3434 
Q 1159 2731 1159 2009 
Q 1159 1288 1364 580 
Q 1569 -128 1984 -844 
L 1484 -844 
Q 1016 -109 783 600 
Q 550 1309 550 2009 
Q 550 2706 781 3412 
Q 1013 4119 1484 4856 
L 1984 4856 
z
" transform="scale(0.015625)"/>
       <path id="DejaVuSans-73" d="M 2834 3397 
L 2834 2853 
Q 2591 2978 2328 3040 
Q 2066 3103 1784 3103 
Q 1356 3103 1142 2972 
Q 928 2841 928 2578 
Q 928 2378 1081 2264 
Q 1234 2150 1697 2047 
L 1894 2003 
Q 2506 1872 2764 1633 
Q 3022 1394 3022 966 
Q 3022 478 2636 193 
Q 2250 -91 1575 -91 
Q 1294 -91 989 -36 
Q 684 19 347 128 
L 347 722 
Q 666 556 975 473 
Q 1284 391 1588 391 
Q 1994 391 2212 530 
Q 2431 669 2431 922 
Q 2431 1156 2273 1281 
Q 2116 1406 1581 1522 
L 1381 1569 
Q 847 1681 609 1914 
Q 372 2147 372 2553 
Q 372 3047 722 3315 
Q 1072 3584 1716 3584 
Q 2034 3584 2315 3537 
Q 2597 3491 2834 3397 
z
" transform="scale(0.015625)"/>
       <path id="DejaVuSans-29" d="M 513 4856 
L 1013 4856 
Q 1481 4119 1714 3412 
Q 1947 2706 1947 2009 
Q 1947 1309 1714 600 
Q 1481 -109 1013 -844 
L 513 -844 
Q 928 -128 1133 580 
Q 1338 1288 1338 2009 
Q 1338 2731 1133 3434 
Q 928 4138 513 4856 
z
" transform="scale(0.015625)"/>
      </defs>
      <use xlink:href="#DejaVuSans-54"/>
      <use xlink:href="#DejaVuSans-69" x="57.958984"/>
      <use xlink:href="#DejaVuSans-6d" x="85.742188"/>
      <use xlink:href="#DejaVuSans-65" x="183.154297"/>
      <use xlink:href="#DejaVuSans-20" x="244.677734"/>
      <use xlink:href="#DejaVuSans-28" x="276.464844"/>
      <use xlink:href="#DejaVuSans-73" x="315.478516"/>
      <use xlink:href="#DejaVuSans-29" x="367.578125"/>
     </g>
    </g>
   </g>
   <g id="matplotlib.axis_2">
    <g id="ytick_1">
     <g id="line2d_6">
      <defs>
       <path id="mb3e8f62fb4" d="M 0 0 
L -3.5 0 
" style="stroke: #000000; stroke-width: 0.8"/>
      </defs>
      <g>
       <use xlink:href="#mb3e8f62fb4" x="57.6" y="303.291871" style="stroke: #000000; stroke-width: 0.8"/>
      </g>
     </g>
     <g id="text_7">
      <!-- 0 -->
      <g transform="translate(44.2375 307.09109) scale(0.1 -0.1)">
       <use xlink:href="#DejaVuSans-30"/>
      </g>
     </g>
    </g>
    <g id="ytick_2">
     <g id="line2d_7">
      <g>
       <use xlink:href="#mb3e8f62fb4" x="57.6" y="264.272516" style="stroke: #000000; stroke-width: 0.8"/>
      </g>
     </g>
     <g id="text_8">
      <!-- 20 -->
      <g transform="translate(37.875 268.071735) scale(0.1 -0.1)">
       <use xlink:href="#DejaVuSans-32"/>
       <use xlink:href="#DejaVuSans-30" x="63.623047"/>
      </g>
     </g>
    </g>
    <g id="ytick_3">
     <g id="line2d_8">
      <g>
       <use xlink:href="#mb3e8f62fb4" x="57.6" y="225.253161" style="stroke: #000000; stroke-width: 0.8"/>
      </g>
     </g>
     <g id="text_9">
      <!-- 40 -->
      <g transform="translate(37.875 229.05238) scale(0.1 -0.1)">
       <defs>
        <path id="DejaVuSans-34" d="M 2419 4116 
L 825 1625 
L 2419 1625 
L 2419 4116 
z
M 2253 4666 
L 3047 4666 
L 3047 1625 
L 3713 1625 
L 3713 1100 
L 3047 1100 
L 3047 0 
L 2419 0 
L 2419 1100 
L 313 1100 
L 313 1709 
L 2253 4666 
z
" transform="scale(0.015625)"/>
       </defs>
       <use xlink:href="#DejaVuSans-34"/>
       <use xlink:href="#DejaVuSans-30" x="63.623047"/>
      </g>
     </g>
    </g>
    <g id="ytick_4">
     <g id="line2d_9">
      <g>
       <use xlink:href="#mb3e8f62fb4" x="57.6" y="186.233806" style="stroke: #000000; stroke-width: 0.8"/>
      </g>
     </g>
     <g id="text_10">
      <!-- 60 -->
      <g transform="translate(37.875 190.033025) scale(0.1 -0.1)">
       <defs>
        <path id="DejaVuSans-36" d="M 2113 2584 
Q 1688 2584 1439 2293 
Q 1191 2003 1191 1497 
Q 1191 994 1439 701 
Q 1688 409 2113 409 
Q 2538 409 2786 701 
Q 3034 994 3034 1497 
Q 3034 2003 2786 2293 
Q 2538 2584 2113 2584 
z
M 3366 4563 
L 3366 3988 
Q 3128 4100 2886 4159 
Q 2644 4219 2406 4219 
Q 1781 4219 1451 3797 
Q 1122 3375 1075 2522 
Q 1259 2794 1537 2939 
Q 1816 3084 2150 3084 
Q 2853 3084 3261 2657 
Q 3669 2231 3669 1497 
Q 3669 778 3244 343 
Q 2819 -91 2113 -91 
Q 1303 -91 875 529 
Q 447 1150 447 2328 
Q 447 3434 972 4092 
Q 1497 4750 2381 4750 
Q 2619 4750 2861 4703 
Q 3103 4656 3366 4563 
z
" transform="scale(0.015625)"/>
       </defs>
       <use xlink:href="#DejaVuSans-36"/>
       <use xlink:href="#DejaVuSans-30" x="63.623047"/>
      </g>
     </g>
    </g>
    <g id="ytick_5">
     <g id="line2d_10">
      <g>
       <use xlink:href="#mb3e8f62fb4" x="57.6" y="147.214452" style="stroke: #000000; stroke-width: 0.8"/>
      </g>
     </g>
     <g id="text_11">
      <!-- 80 -->
      <g transform="translate(37.875 151.01367) scale(0.1 -0.1)">
       <defs>
        <path id="DejaVuSans-38" d="M 2034 2216 
Q 1584 2216 1326 1975 
Q 1069 1734 1069 1313 
Q 1069 891 1326 650 
Q 1584 409 2034 409 
Q 2484 409 2743 651 
Q 3003 894 3003 1313 
Q 3003 1734 2745 1975 
Q 2488 2216 2034 2216 
z
M 1403 2484 
Q 997 2584 770 2862 
Q 544 3141 544 3541 
Q 544 4100 942 4425 
Q 1341 4750 2034 4750 
Q 2731 4750 3128 4425 
Q 3525 4100 3525 3541 
Q 3525 3141 3298 2862 
Q 3072 2584 2669 2484 
Q 3125 2378 3379 2068 
Q 3634 1759 3634 1313 
Q 3634 634 3220 271 
Q 2806 -91 2034 -91 
Q 1263 -91 848 271 
Q 434 634 434 1313 
Q 434 1759 690 2068 
Q 947 2378 1403 2484 
z
M 1172 3481 
Q 1172 3119 1398 2916 
Q 1625 2713 2034 2713 
Q 2441 2713 2670 2916 
Q 2900 3119 2900 3481 
Q 2900 3844 2670 4047 
Q 2441 4250 2034 4250 
Q 1625 4250 1398 4047 
Q 1172 3844 1172 3481 
z
" transform="scale(0.015625)"/>
       </defs>
       <use xlink:href="#DejaVuSans-38"/>
       <use xlink:href="#DejaVuSans-30" x="63.623047"/>
      </g>
     </g>
    </g>
    <g id="ytick_6">
     <g id="line2d_11">
      <g>
       <use xlink:href="#mb3e8f62fb4" x="57.6" y="108.195097" style="stroke: #000000; stroke-width: 0.8"/>
      </g>
     </g>
     <g id="text_12">
      <!-- 100 -->
      <g transform="translate(31.5125 111.994316) scale(0.1 -0.1)">
       <use xlink:href="#DejaVuSans-31"/>
       <use xlink:href="#DejaVuSans-30" x="63.623047"/>
       <use xlink:href="#DejaVuSans-30" x="127.246094"/>
      </g>
     </g>
    </g>
    <g id="ytick_7">
     <g id="line2d_12">
      <g>
       <use xlink:href="#mb3e8f62fb4" x="57.6" y="69.175742" style="stroke: #000000; stroke-width: 0.8"/>
      </g>
     </g>
     <g id="text_13">
      <!-- 120 -->
      <g transform="translate(31.5125 72.974961) scale(0.1 -0.1)">
       <use xlink:href="#DejaVuSans-31"/>
       <use xlink:href="#DejaVuSans-32" x="63.623047"/>
       <use xlink:href="#DejaVuSans-30" x="127.246094"/>
      </g>
     </g>
    </g>
    <g id="text_14">
     <!-- Trial -->
     <g transform="translate(25.432812 184.742063) rotate(-90) scale(0.1 -0.1)">
      <defs>
       <path id="DejaVuSans-72" d="M 2631 2963 
Q 2534 3019 2420 3045 
Q 2306 3072 2169 3072 
Q 1681 3072 1420 2755 
Q 1159 2438 1159 1844 
L 1159 0 
L 581 0 
L 581 3500 
L 1159 3500 
L 1159 2956 
Q 1341 3275 1631 3429 
Q 1922 3584 2338 3584 
Q 2397 3584 2469 3576 
Q 2541 3569 2628 3553 
L 2631 2963 
z
" transform="scale(0.015625)"/>
       <path id="DejaVuSans-61" d="M 2194 1759 
Q 1497 1759 1228 1600 
Q 959 1441 959 1056 
Q 959 750 1161 570 
Q 1363 391 1709 391 
Q 2188 391 2477 730 
Q 2766 1069 2766 1631 
L 2766 1759 
L 2194 1759 
z
M 3341 1997 
L 3341 0 
L 2766 0 
L 2766 531 
Q 2569 213 2275 61 
Q 1981 -91 1556 -91 
Q 1019 -91 701 211 
Q 384 513 384 1019 
Q 384 1609 779 1909 
Q 1175 2209 1959 2209 
L 2766 2209 
L 2766 2266 
Q 2766 2663 2505 2880 
Q 2244 3097 1772 3097 
Q 1472 3097 1187 3025 
Q 903 2953 641 2809 
L 641 3341 
Q 956 3463 1253 3523 
Q 1550 3584 1831 3584 
Q 2591 3584 2966 3190 
Q 3341 2797 3341 1997 
z
" transform="scale(0.015625)"/>
       <path id="DejaVuSans-6c" d="M 603 4863 
L 1178 4863 
L 1178 0 
L 603 0 
L 603 4863 
z
" transform="scale(0.015625)"/>
      </defs>
      <use xlink:href="#DejaVuSans-54"/>
      <use xlink:href="#DejaVuSans-72" x="46.333984"/>
      <use xlink:href="#DejaVuSans-69" x="87.447266"/>
      <use xlink:href="#DejaVuSans-61" x="115.230469"/>
      <use xlink:href="#DejaVuSans-6c" x="176.509766"/>
     </g>
    </g>
   </g>
   <g id="EventCollection_1"/>
   <g id="EventCollection_2"/>
   <g id="EventCollection_3"/>
   <g id="EventCollection_4"/>
   <g id="EventCollection_5">
    <path d="M 101.617135 292.561548 
L 101.617135 294.512516 
" clip-path="url(#p7a667229f1)" style="fill: none; stroke: #000000; stroke-width: 0.5"/>
    <path d="M 197.895501 292.561548 
L 197.895501 294.512516 
" clip-path="url(#p7a667229f1)" style="fill: none; stroke: #000000; stroke-width: 0.5"/>
   </g>
   <g id="EventCollection_6"/>
   <g id="EventCollection_7"/>
   <g id="EventCollection_8"/>
   <g id="EventCollection_9"/>
   <g id="EventCollection_10"/>
   <g id="EventCollection_11"/>
   <g id="EventCollection_12"/>
   <g id="EventCollection_13">
    <path d="M 100.717427 276.953806 
L 100.717427 278.904774 
" clip-path="url(#p7a667229f1)" style="fill: none; stroke: #000000; stroke-width: 0.5"/>
   </g>
   <g id="EventCollection_14"/>
   <g id="EventCollection_15">
    <path d="M 103.622792 273.051871 
L 103.622792 275.002839 
" clip-path="url(#p7a667229f1)" style="fill: none; stroke: #000000; stroke-width: 0.5"/>
    <path d="M 189.967976 273.051871 
L 189.967976 275.002839 
" clip-path="url(#p7a667229f1)" style="fill: none; stroke: #000000; stroke-width: 0.5"/>
   </g>
   <g id="EventCollection_16">
    <path d="M 102.460507 271.100903 
L 102.460507 273.051871 
" clip-path="url(#p7a667229f1)" style="fill: none; stroke: #000000; stroke-width: 0.5"/>
   </g>
   <g id="EventCollection_17"/>
   <g id="EventCollection_18">
    <path d="M 100.993113 267.198968 
L 100.993113 269.149935 
" clip-path="url(#p7a667229f1)" style="fill: none; stroke: #000000; stroke-width: 0.5"/>
    <path d="M 168.317814 267.198968 
L 168.317814 269.149935 
" clip-path="url(#p7a667229f1)" style="fill: none; stroke: #000000; stroke-width: 0.5"/>
   </g>
   <g id="EventCollection_19">
    <path d="M 102.094041 265.248 
L 102.094041 267.198968 
" clip-path="url(#p7a667229f1)" style="fill: none; stroke: #000000; stroke-width: 0.5"/>
    <path d="M 119.594559 265.248 
L 119.594559 267.198968 
" clip-path="url(#p7a667229f1)" style="fill: none; stroke: #000000; stroke-width: 0.5"/>
   </g>
   <g id="EventCollection_20"/>
   <g id="EventCollection_21">
    <path d="M 96.420248 261.346065 
L 96.420248 263.297032 
" clip-path="url(#p7a667229f1)" style="fill: none; stroke: #000000; stroke-width: 0.5"/>
   </g>
   <g id="EventCollection_22"/>
   <g id="EventCollection_23">
    <path d="M 99.87294 257.444129 
L 99.87294 259.395097 
" clip-path="url(#p7a667229f1)" style="fill: none; stroke: #000000; stroke-width: 0.5"/>
    <path d="M 101.365016 257.444129 
L 101.365016 259.395097 
" clip-path="url(#p7a667229f1)" style="fill: none; stroke: #000000; stroke-width: 0.5"/>
   </g>
   <g id="EventCollection_24"/>
   <g id="EventCollection_25"/>
   <g id="EventCollection_26"/>
   <g id="EventCollection_27"/>
   <g id="EventCollection_28">
    <path d="M 98.100856 247.68929 
L 98.100856 249.640258 
" clip-path="url(#p7a667229f1)" style="fill: none; stroke: #000000; stroke-width: 0.5"/>
    <path d="M 157.58393 247.68929 
L 157.58393 249.640258 
" clip-path="url(#p7a667229f1)" style="fill: none; stroke: #000000; stroke-width: 0.5"/>
   </g>
   <g id="EventCollection_29">
    <path d="M 104.42433 245.738323 
L 104.42433 247.68929 
" clip-path="url(#p7a667229f1)" style="fill: none; stroke: #000000; stroke-width: 0.5"/>
   </g>
   <g id="EventCollection_30"/>
   <g id="EventCollection_31"/>
   <g id="EventCollection_32"/>
   <g id="EventCollection_33">
    <path d="M 112.523235 237.934452 
L 112.523235 239.885419 
" clip-path="url(#p7a667229f1)" style="fill: none; stroke: #000000; stroke-width: 0.5"/>
   </g>
   <g id="EventCollection_34">
    <path d="M 76.788711 235.983484 
L 76.788711 237.934452 
" clip-path="url(#p7a667229f1)" style="fill: none; stroke: #000000; stroke-width: 0.5"/>
   </g>
   <g id="EventCollection_35"/>
   <g id="EventCollection_36"/>
   <g id="EventCollection_37"/>
   <g id="EventCollection_38"/>
   <g id="EventCollection_39">
    <path d="M 100.454292 226.228645 
L 100.454292 228.179613 
" clip-path="url(#p7a667229f1)" style="fill: none; stroke: #000000; stroke-width: 0.5"/>
   </g>
   <g id="EventCollection_40"/>
   <g id="EventCollection_41">
    <path d="M 101.420516 222.32671 
L 101.420516 224.277677 
" clip-path="url(#p7a667229f1)" style="fill: none; stroke: #000000; stroke-width: 0.5"/>
   </g>
   <g id="EventCollection_42"/>
   <g id="EventCollection_43"/>
   <g id="EventCollection_44">
    <path d="M 82.119885 216.473806 
L 82.119885 218.424774 
" clip-path="url(#p7a667229f1)" style="fill: none; stroke: #000000; stroke-width: 0.5"/>
   </g>
   <g id="EventCollection_45"/>
   <g id="EventCollection_46">
    <path d="M 108.157169 212.571871 
L 108.157169 214.522839 
" clip-path="url(#p7a667229f1)" style="fill: none; stroke: #000000; stroke-width: 0.5"/>
   </g>
   <g id="EventCollection_47"/>
   <g id="EventCollection_48"/>
   <g id="EventCollection_49"/>
   <g id="EventCollection_50">
    <path d="M 101.150547 204.768 
L 101.150547 206.718968 
" clip-path="url(#p7a667229f1)" style="fill: none; stroke: #000000; stroke-width: 0.5"/>
   </g>
   <g id="EventCollection_51">
    <path d="M 108.705612 202.817032 
L 108.705612 204.768 
" clip-path="url(#p7a667229f1)" style="fill: none; stroke: #000000; stroke-width: 0.5"/>
   </g>
   <g id="EventCollection_52">
    <path d="M 158.118707 200.866065 
L 158.118707 202.817032 
" clip-path="url(#p7a667229f1)" style="fill: none; stroke: #000000; stroke-width: 0.5"/>
   </g>
   <g id="EventCollection_53"/>
   <g id="EventCollection_54"/>
   <g id="EventCollection_55"/>
   <g id="EventCollection_56">
    <path d="M 169.821603 193.062194 
L 169.821603 195.013161 
" clip-path="url(#p7a667229f1)" style="fill: none; stroke: #000000; stroke-width: 0.5"/>
    <path d="M 171.625202 193.062194 
L 171.625202 195.013161 
" clip-path="url(#p7a667229f1)" style="fill: none; stroke: #000000; stroke-width: 0.5"/>
   </g>
   <g id="EventCollection_57"/>
   <g id="EventCollection_58">
    <path d="M 75.462995 189.160258 
L 75.462995 191.111226 
" clip-path="url(#p7a667229f1)" style="fill: none; stroke: #000000; stroke-width: 0.5"/>
   </g>
   <g id="EventCollection_59">
    <path d="M 111.300011 187.20929 
L 111.300011 189.160258 
" clip-path="url(#p7a667229f1)" style="fill: none; stroke: #000000; stroke-width: 0.5"/>
   </g>
   <g id="EventCollection_60">
    <path d="M 100.970522 185.258323 
L 100.970522 187.20929 
" clip-path="url(#p7a667229f1)" style="fill: none; stroke: #000000; stroke-width: 0.5"/>
   </g>
   <g id="EventCollection_61"/>
   <g id="EventCollection_62">
    <path d="M 112.289522 181.356387 
L 112.289522 183.307355 
" clip-path="url(#p7a667229f1)" style="fill: none; stroke: #000000; stroke-width: 0.5"/>
   </g>
   <g id="EventCollection_63"/>
   <g id="EventCollection_64">
    <path d="M 103.80463 177.454452 
L 103.80463 179.405419 
" clip-path="url(#p7a667229f1)" style="fill: none; stroke: #000000; stroke-width: 0.5"/>
    <path d="M 213.525625 177.454452 
L 213.525625 179.405419 
" clip-path="url(#p7a667229f1)" style="fill: none; stroke: #000000; stroke-width: 0.5"/>
   </g>
   <g id="EventCollection_65"/>
   <g id="EventCollection_66">
    <path d="M 84.126657 173.552516 
L 84.126657 175.503484 
" clip-path="url(#p7a667229f1)" style="fill: none; stroke: #000000; stroke-width: 0.5"/>
    <path d="M 85.851051 173.552516 
L 85.851051 175.503484 
" clip-path="url(#p7a667229f1)" style="fill: none; stroke: #000000; stroke-width: 0.5"/>
    <path d="M 135.917034 173.552516 
L 135.917034 175.503484 
" clip-path="url(#p7a667229f1)" style="fill: none; stroke: #000000; stroke-width: 0.5"/>
   </g>
   <g id="EventCollection_67"/>
   <g id="EventCollection_68"/>
   <g id="EventCollection_69">
    <path d="M 102.329845 167.699613 
L 102.329845 169.650581 
" clip-path="url(#p7a667229f1)" style="fill: none; stroke: #000000; stroke-width: 0.5"/>
    <path d="M 183.078629 167.699613 
L 183.078629 169.650581 
" clip-path="url(#p7a667229f1)" style="fill: none; stroke: #000000; stroke-width: 0.5"/>
   </g>
   <g id="EventCollection_70"/>
   <g id="EventCollection_71"/>
   <g id="EventCollection_72">
    <path d="M 245.184689 161.84671 
L 245.184689 163.797677 
" clip-path="url(#p7a667229f1)" style="fill: none; stroke: #000000; stroke-width: 0.5"/>
    <path d="M 257.586072 161.84671 
L 257.586072 163.797677 
" clip-path="url(#p7a667229f1)" style="fill: none; stroke: #000000; stroke-width: 0.5"/>
    <path d="M 397.948173 161.84671 
L 397.948173 163.797677 
" clip-path="url(#p7a667229f1)" style="fill: none; stroke: #000000; stroke-width: 0.5"/>
    <path d="M 398.487273 161.84671 
L 398.487273 163.797677 
" clip-path="url(#p7a667229f1)" style="fill: none; stroke: #000000; stroke-width: 0.5"/>
   </g>
   <g id="EventCollection_73"/>
   <g id="EventCollection_74"/>
   <g id="EventCollection_75"/>
   <g id="EventCollection_76"/>
   <g id="EventCollection_77">
    <path d="M 106.821134 152.091871 
L 106.821134 154.042839 
" clip-path="url(#p7a667229f1)" style="fill: none; stroke: #000000; stroke-width: 0.5"/>
   </g>
   <g id="EventCollection_78">
    <path d="M 312.367434 150.140903 
L 312.367434 152.091871 
" clip-path="url(#p7a667229f1)" style="fill: none; stroke: #000000; stroke-width: 0.5"/>
    <path d="M 313.55733 150.140903 
L 313.55733 152.091871 
" clip-path="url(#p7a667229f1)" style="fill: none; stroke: #000000; stroke-width: 0.5"/>
    <path d="M 313.85951 150.140903 
L 313.85951 152.091871 
" clip-path="url(#p7a667229f1)" style="fill: none; stroke: #000000; stroke-width: 0.5"/>
   </g>
   <g id="EventCollection_79"/>
   <g id="EventCollection_80"/>
   <g id="EventCollection_81"/>
   <g id="EventCollection_82"/>
   <g id="EventCollection_83"/>
   <g id="EventCollection_84"/>
   <g id="EventCollection_85"/>
   <g id="EventCollection_86"/>
   <g id="EventCollection_87"/>
   <g id="EventCollection_88">
    <path d="M 110.112207 130.631226 
L 110.112207 132.582194 
" clip-path="url(#p7a667229f1)" style="fill: none; stroke: #000000; stroke-width: 0.5"/>
    <path d="M 190.200851 130.631226 
L 190.200851 132.582194 
" clip-path="url(#p7a667229f1)" style="fill: none; stroke: #000000; stroke-width: 0.5"/>
   </g>
   <g id="EventCollection_89"/>
   <g id="EventCollection_90">
    <path d="M 108.517498 126.72929 
L 108.517498 128.680258 
" clip-path="url(#p7a667229f1)" style="fill: none; stroke: #000000; stroke-width: 0.5"/>
   </g>
   <g id="EventCollection_91"/>
   <g id="EventCollection_92">
    <path d="M 92.906339 122.827355 
L 92.906339 124.778323 
" clip-path="url(#p7a667229f1)" style="fill: none; stroke: #000000; stroke-width: 0.5"/>
   </g>
   <g id="EventCollection_93"/>
   <g id="EventCollection_94">
    <path d="M 105.15224 118.925419 
L 105.15224 120.876387 
" clip-path="url(#p7a667229f1)" style="fill: none; stroke: #000000; stroke-width: 0.5"/>
   </g>
   <g id="EventCollection_95"/>
   <g id="EventCollection_96">
    <path d="M 101.904255 115.023484 
L 101.904255 116.974452 
" clip-path="url(#p7a667229f1)" style="fill: none; stroke: #000000; stroke-width: 0.5"/>
    <path d="M 155.140272 115.023484 
L 155.140272 116.974452 
" clip-path="url(#p7a667229f1)" style="fill: none; stroke: #000000; stroke-width: 0.5"/>
   </g>
   <g id="EventCollection_97">
    <path d="M 102.210898 113.072516 
L 102.210898 115.023484 
" clip-path="url(#p7a667229f1)" style="fill: none; stroke: #000000; stroke-width: 0.5"/>
   </g>
   <g id="EventCollection_98">
    <path d="M 82.378976 111.121548 
L 82.378976 113.072516 
" clip-path="url(#p7a667229f1)" style="fill: none; stroke: #000000; stroke-width: 0.5"/>
    <path d="M 86.827315 111.121548 
L 86.827315 113.072516 
" clip-path="url(#p7a667229f1)" style="fill: none; stroke: #000000; stroke-width: 0.5"/>
    <path d="M 102.259425 111.121548 
L 102.259425 113.072516 
" clip-path="url(#p7a667229f1)" style="fill: none; stroke: #000000; stroke-width: 0.5"/>
   </g>
   <g id="EventCollection_99">
    <path d="M 97.221786 109.170581 
L 97.221786 111.121548 
" clip-path="url(#p7a667229f1)" style="fill: none; stroke: #000000; stroke-width: 0.5"/>
   </g>
   <g id="EventCollection_100"/>
   <g id="EventCollection_101"/>
   <g id="EventCollection_102"/>
   <g id="EventCollection_103">
    <path d="M 104.675194 101.36671 
L 104.675194 103.317677 
" clip-path="url(#p7a667229f1)" style="fill: none; stroke: #000000; stroke-width: 0.5"/>
   </g>
   <g id="EventCollection_104"/>
   <g id="EventCollection_105">
    <path d="M 108.332871 97.464774 
L 108.332871 99.415742 
" clip-path="url(#p7a667229f1)" style="fill: none; stroke: #000000; stroke-width: 0.5"/>
    <path d="M 108.904602 97.464774 
L 108.904602 99.415742 
" clip-path="url(#p7a667229f1)" style="fill: none; stroke: #000000; stroke-width: 0.5"/>
   </g>
   <g id="EventCollection_106">
    <path d="M 181.845226 95.513806 
L 181.845226 97.464774 
" clip-path="url(#p7a667229f1)" style="fill: none; stroke: #000000; stroke-width: 0.5"/>
   </g>
   <g id="EventCollection_107"/>
   <g id="EventCollection_108"/>
   <g id="EventCollection_109"/>
   <g id="EventCollection_110">
    <path d="M 131.172651 87.709935 
L 131.172651 89.660903 
" clip-path="url(#p7a667229f1)" style="fill: none; stroke: #000000; stroke-width: 0.5"/>
   </g>
   <g id="EventCollection_111"/>
   <g id="EventCollection_112">
    <path d="M 140.442905 83.808 
L 140.442905 85.758968 
" clip-path="url(#p7a667229f1)" style="fill: none; stroke: #000000; stroke-width: 0.5"/>
    <path d="M 189.593144 83.808 
L 189.593144 85.758968 
" clip-path="url(#p7a667229f1)" style="fill: none; stroke: #000000; stroke-width: 0.5"/>
    <path d="M 192.530721 83.808 
L 192.530721 85.758968 
" clip-path="url(#p7a667229f1)" style="fill: none; stroke: #000000; stroke-width: 0.5"/>
    <path d="M 204.114112 83.808 
L 204.114112 85.758968 
" clip-path="url(#p7a667229f1)" style="fill: none; stroke: #000000; stroke-width: 0.5"/>
   </g>
   <g id="EventCollection_113"/>
   <g id="EventCollection_114"/>
   <g id="EventCollection_115">
    <path d="M 93.97924 77.955097 
L 93.97924 79.906065 
" clip-path="url(#p7a667229f1)" style="fill: none; stroke: #000000; stroke-width: 0.5"/>
   </g>
   <g id="EventCollection_116">
    <path d="M 95.347627 76.004129 
L 95.347627 77.955097 
" clip-path="url(#p7a667229f1)" style="fill: none; stroke: #000000; stroke-width: 0.5"/>
    <path d="M 106.382435 76.004129 
L 106.382435 77.955097 
" clip-path="url(#p7a667229f1)" style="fill: none; stroke: #000000; stroke-width: 0.5"/>
   </g>
   <g id="EventCollection_117"/>
   <g id="EventCollection_118">
    <path d="M 197.314428 72.102194 
L 197.314428 74.053161 
" clip-path="url(#p7a667229f1)" style="fill: none; stroke: #000000; stroke-width: 0.5"/>
   </g>
   <g id="EventCollection_119">
    <path d="M 102.442657 70.151226 
L 102.442657 72.102194 
" clip-path="url(#p7a667229f1)" style="fill: none; stroke: #000000; stroke-width: 0.5"/>
   </g>
   <g id="EventCollection_120"/>
   <g id="EventCollection_121"/>
   <g id="EventCollection_122">
    <path d="M 101.378542 64.298323 
L 101.378542 66.24929 
" clip-path="url(#p7a667229f1)" style="fill: none; stroke: #000000; stroke-width: 0.5"/>
   </g>
   <g id="EventCollection_123"/>
   <g id="EventCollection_124">
    <path d="M 73.832727 60.396387 
L 73.832727 62.347355 
" clip-path="url(#p7a667229f1)" style="fill: none; stroke: #000000; stroke-width: 0.5"/>
    <path d="M 107.281307 60.396387 
L 107.281307 62.347355 
" clip-path="url(#p7a667229f1)" style="fill: none; stroke: #000000; stroke-width: 0.5"/>
   </g>
   <g id="EventCollection_125"/>
   <g id="EventCollection_126">
    <path d="M 229.970116 56.494452 
L 229.970116 58.445419 
" clip-path="url(#p7a667229f1)" style="fill: none; stroke: #000000; stroke-width: 0.5"/>
   </g>
   <g id="EventCollection_127">
    <path d="M 100.45485 54.543484 
L 100.45485 56.494452 
" clip-path="url(#p7a667229f1)" style="fill: none; stroke: #000000; stroke-width: 0.5"/>
   </g>
   <g id="patch_3">
    <path d="M 57.6 307.584 
L 57.6 41.472 
" style="fill: none; stroke: #000000; stroke-width: 0.8; stroke-linejoin: miter; stroke-linecap: square"/>
   </g>
   <g id="patch_4">
    <path d="M 414.72 307.584 
L 414.72 41.472 
" style="fill: none; stroke: #000000; stroke-width: 0.8; stroke-linejoin: miter; stroke-linecap: square"/>
   </g>
   <g id="patch_5">
    <path d="M 57.6 307.584 
L 414.72 307.584 
" style="fill: none; stroke: #000000; stroke-width: 0.8; stroke-linejoin: miter; stroke-linecap: square"/>
   </g>
   <g id="patch_6">
    <path d="M 57.6 41.472 
L 414.72 41.472 
" style="fill: none; stroke: #000000; stroke-width: 0.8; stroke-linejoin: miter; stroke-linecap: square"/>
   </g>
   <g id="text_15">
    <!-- Raster Plot - Cluster 190 -->
    <g transform="translate(162.964687 35.472) scale(0.12 -0.12)">
     <defs>
      <path id="DejaVuSans-52" d="M 2841 2188 
Q 3044 2119 3236 1894 
Q 3428 1669 3622 1275 
L 4263 0 
L 3584 0 
L 2988 1197 
Q 2756 1666 2539 1819 
Q 2322 1972 1947 1972 
L 1259 1972 
L 1259 0 
L 628 0 
L 628 4666 
L 2053 4666 
Q 2853 4666 3247 4331 
Q 3641 3997 3641 3322 
Q 3641 2881 3436 2590 
Q 3231 2300 2841 2188 
z
M 1259 4147 
L 1259 2491 
L 2053 2491 
Q 2509 2491 2742 2702 
Q 2975 2913 2975 3322 
Q 2975 3731 2742 3939 
Q 2509 4147 2053 4147 
L 1259 4147 
z
" transform="scale(0.015625)"/>
      <path id="DejaVuSans-74" d="M 1172 4494 
L 1172 3500 
L 2356 3500 
L 2356 3053 
L 1172 3053 
L 1172 1153 
Q 1172 725 1289 603 
Q 1406 481 1766 481 
L 2356 481 
L 2356 0 
L 1766 0 
Q 1100 0 847 248 
Q 594 497 594 1153 
L 594 3053 
L 172 3053 
L 172 3500 
L 594 3500 
L 594 4494 
L 1172 4494 
z
" transform="scale(0.015625)"/>
      <path id="DejaVuSans-50" d="M 1259 4147 
L 1259 2394 
L 2053 2394 
Q 2494 2394 2734 2622 
Q 2975 2850 2975 3272 
Q 2975 3691 2734 3919 
Q 2494 4147 2053 4147 
L 1259 4147 
z
M 628 4666 
L 2053 4666 
Q 2838 4666 3239 4311 
Q 3641 3956 3641 3272 
Q 3641 2581 3239 2228 
Q 2838 1875 2053 1875 
L 1259 1875 
L 1259 0 
L 628 0 
L 628 4666 
z
" transform="scale(0.015625)"/>
      <path id="DejaVuSans-6f" d="M 1959 3097 
Q 1497 3097 1228 2736 
Q 959 2375 959 1747 
Q 959 1119 1226 758 
Q 1494 397 1959 397 
Q 2419 397 2687 759 
Q 2956 1122 2956 1747 
Q 2956 2369 2687 2733 
Q 2419 3097 1959 3097 
z
M 1959 3584 
Q 2709 3584 3137 3096 
Q 3566 2609 3566 1747 
Q 3566 888 3137 398 
Q 2709 -91 1959 -91 
Q 1206 -91 779 398 
Q 353 888 353 1747 
Q 353 2609 779 3096 
Q 1206 3584 1959 3584 
z
" transform="scale(0.015625)"/>
      <path id="DejaVuSans-2d" d="M 313 2009 
L 1997 2009 
L 1997 1497 
L 313 1497 
L 313 2009 
z
" transform="scale(0.015625)"/>
      <path id="DejaVuSans-43" d="M 4122 4306 
L 4122 3641 
Q 3803 3938 3442 4084 
Q 3081 4231 2675 4231 
Q 1875 4231 1450 3742 
Q 1025 3253 1025 2328 
Q 1025 1406 1450 917 
Q 1875 428 2675 428 
Q 3081 428 3442 575 
Q 3803 722 4122 1019 
L 4122 359 
Q 3791 134 3420 21 
Q 3050 -91 2638 -91 
Q 1578 -91 968 557 
Q 359 1206 359 2328 
Q 359 3453 968 4101 
Q 1578 4750 2638 4750 
Q 3056 4750 3426 4639 
Q 3797 4528 4122 4306 
z
" transform="scale(0.015625)"/>
      <path id="DejaVuSans-75" d="M 544 1381 
L 544 3500 
L 1119 3500 
L 1119 1403 
Q 1119 906 1312 657 
Q 1506 409 1894 409 
Q 2359 409 2629 706 
Q 2900 1003 2900 1516 
L 2900 3500 
L 3475 3500 
L 3475 0 
L 2900 0 
L 2900 538 
Q 2691 219 2414 64 
Q 2138 -91 1772 -91 
Q 1169 -91 856 284 
Q 544 659 544 1381 
z
M 1991 3584 
L 1991 3584 
z
" transform="scale(0.015625)"/>
      <path id="DejaVuSans-39" d="M 703 97 
L 703 672 
Q 941 559 1184 500 
Q 1428 441 1663 441 
Q 2288 441 2617 861 
Q 2947 1281 2994 2138 
Q 2813 1869 2534 1725 
Q 2256 1581 1919 1581 
Q 1219 1581 811 2004 
Q 403 2428 403 3163 
Q 403 3881 828 4315 
Q 1253 4750 1959 4750 
Q 2769 4750 3195 4129 
Q 3622 3509 3622 2328 
Q 3622 1225 3098 567 
Q 2575 -91 1691 -91 
Q 1453 -91 1209 -44 
Q 966 3 703 97 
z
M 1959 2075 
Q 2384 2075 2632 2365 
Q 2881 2656 2881 3163 
Q 2881 3666 2632 3958 
Q 2384 4250 1959 4250 
Q 1534 4250 1286 3958 
Q 1038 3666 1038 3163 
Q 1038 2656 1286 2365 
Q 1534 2075 1959 2075 
z
" transform="scale(0.015625)"/>
     </defs>
     <use xlink:href="#DejaVuSans-52"/>
     <use xlink:href="#DejaVuSans-61" x="67.232422"/>
     <use xlink:href="#DejaVuSans-73" x="128.511719"/>
     <use xlink:href="#DejaVuSans-74" x="180.611328"/>
     <use xlink:href="#DejaVuSans-65" x="219.820312"/>
     <use xlink:href="#DejaVuSans-72" x="281.34375"/>
     <use xlink:href="#DejaVuSans-20" x="322.457031"/>
     <use xlink:href="#DejaVuSans-50" x="354.244141"/>
     <use xlink:href="#DejaVuSans-6c" x="414.546875"/>
     <use xlink:href="#DejaVuSans-6f" x="442.330078"/>
     <use xlink:href="#DejaVuSans-74" x="503.511719"/>
     <use xlink:href="#DejaVuSans-20" x="542.720703"/>
     <use xlink:href="#DejaVuSans-2d" x="574.507812"/>
     <use xlink:href="#DejaVuSans-20" x="610.591797"/>
     <use xlink:href="#DejaVuSans-43" x="642.378906"/>
     <use xlink:href="#DejaVuSans-6c" x="712.203125"/>
     <use xlink:href="#DejaVuSans-75" x="739.986328"/>
     <use xlink:href="#DejaVuSans-73" x="803.365234"/>
     <use xlink:href="#DejaVuSans-74" x="855.464844"/>
     <use xlink:href="#DejaVuSans-65" x="894.673828"/>
     <use xlink:href="#DejaVuSans-72" x="956.197266"/>
     <use xlink:href="#DejaVuSans-20" x="997.310547"/>
     <use xlink:href="#DejaVuSans-31" x="1029.097656"/>
     <use xlink:href="#DejaVuSans-39" x="1092.720703"/>
     <use xlink:href="#DejaVuSans-30" x="1156.34375"/>
    </g>
   </g>
  </g>
 </g>
 <defs>
  <clipPath id="p7a667229f1">
   <rect x="57.6" y="41.472" width="357.12" height="266.112"/>
  </clipPath>
 </defs>
</svg>
