<?xml version="1.0" encoding="utf-8" standalone="no"?>
<!DOCTYPE svg PUBLIC "-//W3C//DTD SVG 1.1//EN"
  "http://www.w3.org/Graphics/SVG/1.1/DTD/svg11.dtd">
<svg xmlns:xlink="http://www.w3.org/1999/xlink" width="460.8pt" height="345.6pt" viewBox="0 0 460.8 345.6" xmlns="http://www.w3.org/2000/svg" version="1.1">
 <metadata>
  <rdf:RDF xmlns:dc="http://purl.org/dc/elements/1.1/" xmlns:cc="http://creativecommons.org/ns#" xmlns:rdf="http://www.w3.org/1999/02/22-rdf-syntax-ns#">
   <cc:Work>
    <dc:type rdf:resource="http://purl.org/dc/dcmitype/StillImage"/>
    <dc:date>2024-03-26T13:53:30.952966</dc:date>
    <dc:format>image/svg+xml</dc:format>
    <dc:creator>
     <cc:Agent>
      <dc:title>Matplotlib v3.8.0, https://matplotlib.org/</dc:title>
     </cc:Agent>
    </dc:creator>
   </cc:Work>
  </rdf:RDF>
 </metadata>
 <defs>
  <style type="text/css">*{stroke-linejoin: round; stroke-linecap: butt}</style>
 </defs>
 <g id="figure_1">
  <g id="patch_1">
   <path d="M 0 345.6 
L 460.8 345.6 
L 460.8 0 
L 0 0 
z
" style="fill: #ffffff"/>
  </g>
  <g id="axes_1">
   <g id="patch_2">
    <path d="M 57.6 307.584 
L 414.72 307.584 
L 414.72 41.472 
L 57.6 41.472 
z
" style="fill: #ffffff"/>
   </g>
   <g id="matplotlib.axis_1">
    <g id="xtick_1">
     <g id="line2d_1">
      <defs>
       <path id="mc098bd697c" d="M 0 0 
L 0 3.5 
" style="stroke: #000000; stroke-width: 0.8"/>
      </defs>
      <g>
       <use xlink:href="#mc098bd697c" x="99.830068" y="307.584" style="stroke: #000000; stroke-width: 0.8"/>
      </g>
     </g>
     <g id="text_1">
      <!-- 0.0 -->
      <g transform="translate(91.878506 322.182437) scale(0.1 -0.1)">
       <defs>
        <path id="DejaVuSans-30" d="M 2034 4250 
Q 1547 4250 1301 3770 
Q 1056 3291 1056 2328 
Q 1056 1369 1301 889 
Q 1547 409 2034 409 
Q 2525 409 2770 889 
Q 3016 1369 3016 2328 
Q 3016 3291 2770 3770 
Q 2525 4250 2034 4250 
z
M 2034 4750 
Q 2819 4750 3233 4129 
Q 3647 3509 3647 2328 
Q 3647 1150 3233 529 
Q 2819 -91 2034 -91 
Q 1250 -91 836 529 
Q 422 1150 422 2328 
Q 422 3509 836 4129 
Q 1250 4750 2034 4750 
z
" transform="scale(0.015625)"/>
        <path id="DejaVuSans-2e" d="M 684 794 
L 1344 794 
L 1344 0 
L 684 0 
L 684 794 
z
" transform="scale(0.015625)"/>
       </defs>
       <use xlink:href="#DejaVuSans-30"/>
       <use xlink:href="#DejaVuSans-2e" x="63.623047"/>
       <use xlink:href="#DejaVuSans-30" x="95.410156"/>
      </g>
     </g>
    </g>
    <g id="xtick_2">
     <g id="line2d_2">
      <g>
       <use xlink:href="#mc098bd697c" x="170.756409" y="307.584" style="stroke: #000000; stroke-width: 0.8"/>
      </g>
     </g>
     <g id="text_2">
      <!-- 0.5 -->
      <g transform="translate(162.804847 322.182437) scale(0.1 -0.1)">
       <defs>
        <path id="DejaVuSans-35" d="M 691 4666 
L 3169 4666 
L 3169 4134 
L 1269 4134 
L 1269 2991 
Q 1406 3038 1543 3061 
Q 1681 3084 1819 3084 
Q 2600 3084 3056 2656 
Q 3513 2228 3513 1497 
Q 3513 744 3044 326 
Q 2575 -91 1722 -91 
Q 1428 -91 1123 -41 
Q 819 9 494 109 
L 494 744 
Q 775 591 1075 516 
Q 1375 441 1709 441 
Q 2250 441 2565 725 
Q 2881 1009 2881 1497 
Q 2881 1984 2565 2268 
Q 2250 2553 1709 2553 
Q 1456 2553 1204 2497 
Q 953 2441 691 2322 
L 691 4666 
z
" transform="scale(0.015625)"/>
       </defs>
       <use xlink:href="#DejaVuSans-30"/>
       <use xlink:href="#DejaVuSans-2e" x="63.623047"/>
       <use xlink:href="#DejaVuSans-35" x="95.410156"/>
      </g>
     </g>
    </g>
    <g id="xtick_3">
     <g id="line2d_3">
      <g>
       <use xlink:href="#mc098bd697c" x="241.68275" y="307.584" style="stroke: #000000; stroke-width: 0.8"/>
      </g>
     </g>
     <g id="text_3">
      <!-- 1.0 -->
      <g transform="translate(233.731188 322.182437) scale(0.1 -0.1)">
       <defs>
        <path id="DejaVuSans-31" d="M 794 531 
L 1825 531 
L 1825 4091 
L 703 3866 
L 703 4441 
L 1819 4666 
L 2450 4666 
L 2450 531 
L 3481 531 
L 3481 0 
L 794 0 
L 794 531 
z
" transform="scale(0.015625)"/>
       </defs>
       <use xlink:href="#DejaVuSans-31"/>
       <use xlink:href="#DejaVuSans-2e" x="63.623047"/>
       <use xlink:href="#DejaVuSans-30" x="95.410156"/>
      </g>
     </g>
    </g>
    <g id="xtick_4">
     <g id="line2d_4">
      <g>
       <use xlink:href="#mc098bd697c" x="312.609092" y="307.584" style="stroke: #000000; stroke-width: 0.8"/>
      </g>
     </g>
     <g id="text_4">
      <!-- 1.5 -->
      <g transform="translate(304.657529 322.182437) scale(0.1 -0.1)">
       <use xlink:href="#DejaVuSans-31"/>
       <use xlink:href="#DejaVuSans-2e" x="63.623047"/>
       <use xlink:href="#DejaVuSans-35" x="95.410156"/>
      </g>
     </g>
    </g>
    <g id="xtick_5">
     <g id="line2d_5">
      <g>
       <use xlink:href="#mc098bd697c" x="383.535433" y="307.584" style="stroke: #000000; stroke-width: 0.8"/>
      </g>
     </g>
     <g id="text_5">
      <!-- 2.0 -->
      <g transform="translate(375.58387 322.182437) scale(0.1 -0.1)">
       <defs>
        <path id="DejaVuSans-32" d="M 1228 531 
L 3431 531 
L 3431 0 
L 469 0 
L 469 531 
Q 828 903 1448 1529 
Q 2069 2156 2228 2338 
Q 2531 2678 2651 2914 
Q 2772 3150 2772 3378 
Q 2772 3750 2511 3984 
Q 2250 4219 1831 4219 
Q 1534 4219 1204 4116 
Q 875 4013 500 3803 
L 500 4441 
Q 881 4594 1212 4672 
Q 1544 4750 1819 4750 
Q 2544 4750 2975 4387 
Q 3406 4025 3406 3419 
Q 3406 3131 3298 2873 
Q 3191 2616 2906 2266 
Q 2828 2175 2409 1742 
Q 1991 1309 1228 531 
z
" transform="scale(0.015625)"/>
       </defs>
       <use xlink:href="#DejaVuSans-32"/>
       <use xlink:href="#DejaVuSans-2e" x="63.623047"/>
       <use xlink:href="#DejaVuSans-30" x="95.410156"/>
      </g>
     </g>
    </g>
    <g id="text_6">
     <!-- Time (s) -->
     <g transform="translate(215.831094 335.860562) scale(0.1 -0.1)">
      <defs>
       <path id="DejaVuSans-54" d="M -19 4666 
L 3928 4666 
L 3928 4134 
L 2272 4134 
L 2272 0 
L 1638 0 
L 1638 4134 
L -19 4134 
L -19 4666 
z
" transform="scale(0.015625)"/>
       <path id="DejaVuSans-69" d="M 603 3500 
L 1178 3500 
L 1178 0 
L 603 0 
L 603 3500 
z
M 603 4863 
L 1178 4863 
L 1178 4134 
L 603 4134 
L 603 4863 
z
" transform="scale(0.015625)"/>
       <path id="DejaVuSans-6d" d="M 3328 2828 
Q 3544 3216 3844 3400 
Q 4144 3584 4550 3584 
Q 5097 3584 5394 3201 
Q 5691 2819 5691 2113 
L 5691 0 
L 5113 0 
L 5113 2094 
Q 5113 2597 4934 2840 
Q 4756 3084 4391 3084 
Q 3944 3084 3684 2787 
Q 3425 2491 3425 1978 
L 3425 0 
L 2847 0 
L 2847 2094 
Q 2847 2600 2669 2842 
Q 2491 3084 2119 3084 
Q 1678 3084 1418 2786 
Q 1159 2488 1159 1978 
L 1159 0 
L 581 0 
L 581 3500 
L 1159 3500 
L 1159 2956 
Q 1356 3278 1631 3431 
Q 1906 3584 2284 3584 
Q 2666 3584 2933 3390 
Q 3200 3197 3328 2828 
z
" transform="scale(0.015625)"/>
       <path id="DejaVuSans-65" d="M 3597 1894 
L 3597 1613 
L 953 1613 
Q 991 1019 1311 708 
Q 1631 397 2203 397 
Q 2534 397 2845 478 
Q 3156 559 3463 722 
L 3463 178 
Q 3153 47 2828 -22 
Q 2503 -91 2169 -91 
Q 1331 -91 842 396 
Q 353 884 353 1716 
Q 353 2575 817 3079 
Q 1281 3584 2069 3584 
Q 2775 3584 3186 3129 
Q 3597 2675 3597 1894 
z
M 3022 2063 
Q 3016 2534 2758 2815 
Q 2500 3097 2075 3097 
Q 1594 3097 1305 2825 
Q 1016 2553 972 2059 
L 3022 2063 
z
" transform="scale(0.015625)"/>
       <path id="DejaVuSans-20" transform="scale(0.015625)"/>
       <path id="DejaVuSans-28" d="M 1984 4856 
Q 1566 4138 1362 3434 
Q 1159 2731 1159 2009 
Q 1159 1288 1364 580 
Q 1569 -128 1984 -844 
L 1484 -844 
Q 1016 -109 783 600 
Q 550 1309 550 2009 
Q 550 2706 781 3412 
Q 1013 4119 1484 4856 
L 1984 4856 
z
" transform="scale(0.015625)"/>
       <path id="DejaVuSans-73" d="M 2834 3397 
L 2834 2853 
Q 2591 2978 2328 3040 
Q 2066 3103 1784 3103 
Q 1356 3103 1142 2972 
Q 928 2841 928 2578 
Q 928 2378 1081 2264 
Q 1234 2150 1697 2047 
L 1894 2003 
Q 2506 1872 2764 1633 
Q 3022 1394 3022 966 
Q 3022 478 2636 193 
Q 2250 -91 1575 -91 
Q 1294 -91 989 -36 
Q 684 19 347 128 
L 347 722 
Q 666 556 975 473 
Q 1284 391 1588 391 
Q 1994 391 2212 530 
Q 2431 669 2431 922 
Q 2431 1156 2273 1281 
Q 2116 1406 1581 1522 
L 1381 1569 
Q 847 1681 609 1914 
Q 372 2147 372 2553 
Q 372 3047 722 3315 
Q 1072 3584 1716 3584 
Q 2034 3584 2315 3537 
Q 2597 3491 2834 3397 
z
" transform="scale(0.015625)"/>
       <path id="DejaVuSans-29" d="M 513 4856 
L 1013 4856 
Q 1481 4119 1714 3412 
Q 1947 2706 1947 2009 
Q 1947 1309 1714 600 
Q 1481 -109 1013 -844 
L 513 -844 
Q 928 -128 1133 580 
Q 1338 1288 1338 2009 
Q 1338 2731 1133 3434 
Q 928 4138 513 4856 
z
" transform="scale(0.015625)"/>
      </defs>
      <use xlink:href="#DejaVuSans-54"/>
      <use xlink:href="#DejaVuSans-69" x="57.958984"/>
      <use xlink:href="#DejaVuSans-6d" x="85.742188"/>
      <use xlink:href="#DejaVuSans-65" x="183.154297"/>
      <use xlink:href="#DejaVuSans-20" x="244.677734"/>
      <use xlink:href="#DejaVuSans-28" x="276.464844"/>
      <use xlink:href="#DejaVuSans-73" x="315.478516"/>
      <use xlink:href="#DejaVuSans-29" x="367.578125"/>
     </g>
    </g>
   </g>
   <g id="matplotlib.axis_2">
    <g id="ytick_1">
     <g id="line2d_6">
      <defs>
       <path id="mdbbb4fc82a" d="M 0 0 
L -3.5 0 
" style="stroke: #000000; stroke-width: 0.8"/>
      </defs>
      <g>
       <use xlink:href="#mdbbb4fc82a" x="57.6" y="295.488" style="stroke: #000000; stroke-width: 0.8"/>
      </g>
     </g>
     <g id="text_7">
      <!-- 0 -->
      <g transform="translate(44.2375 299.287219) scale(0.1 -0.1)">
       <use xlink:href="#DejaVuSans-30"/>
      </g>
     </g>
    </g>
    <g id="ytick_2">
     <g id="line2d_7">
      <g>
       <use xlink:href="#mdbbb4fc82a" x="57.6" y="257.688" style="stroke: #000000; stroke-width: 0.8"/>
      </g>
     </g>
     <g id="text_8">
      <!-- 20 -->
      <g transform="translate(37.875 261.487219) scale(0.1 -0.1)">
       <use xlink:href="#DejaVuSans-32"/>
       <use xlink:href="#DejaVuSans-30" x="63.623047"/>
      </g>
     </g>
    </g>
    <g id="ytick_3">
     <g id="line2d_8">
      <g>
       <use xlink:href="#mdbbb4fc82a" x="57.6" y="219.888" style="stroke: #000000; stroke-width: 0.8"/>
      </g>
     </g>
     <g id="text_9">
      <!-- 40 -->
      <g transform="translate(37.875 223.687219) scale(0.1 -0.1)">
       <defs>
        <path id="DejaVuSans-34" d="M 2419 4116 
L 825 1625 
L 2419 1625 
L 2419 4116 
z
M 2253 4666 
L 3047 4666 
L 3047 1625 
L 3713 1625 
L 3713 1100 
L 3047 1100 
L 3047 0 
L 2419 0 
L 2419 1100 
L 313 1100 
L 313 1709 
L 2253 4666 
z
" transform="scale(0.015625)"/>
       </defs>
       <use xlink:href="#DejaVuSans-34"/>
       <use xlink:href="#DejaVuSans-30" x="63.623047"/>
      </g>
     </g>
    </g>
    <g id="ytick_4">
     <g id="line2d_9">
      <g>
       <use xlink:href="#mdbbb4fc82a" x="57.6" y="182.088" style="stroke: #000000; stroke-width: 0.8"/>
      </g>
     </g>
     <g id="text_10">
      <!-- 60 -->
      <g transform="translate(37.875 185.887219) scale(0.1 -0.1)">
       <defs>
        <path id="DejaVuSans-36" d="M 2113 2584 
Q 1688 2584 1439 2293 
Q 1191 2003 1191 1497 
Q 1191 994 1439 701 
Q 1688 409 2113 409 
Q 2538 409 2786 701 
Q 3034 994 3034 1497 
Q 3034 2003 2786 2293 
Q 2538 2584 2113 2584 
z
M 3366 4563 
L 3366 3988 
Q 3128 4100 2886 4159 
Q 2644 4219 2406 4219 
Q 1781 4219 1451 3797 
Q 1122 3375 1075 2522 
Q 1259 2794 1537 2939 
Q 1816 3084 2150 3084 
Q 2853 3084 3261 2657 
Q 3669 2231 3669 1497 
Q 3669 778 3244 343 
Q 2819 -91 2113 -91 
Q 1303 -91 875 529 
Q 447 1150 447 2328 
Q 447 3434 972 4092 
Q 1497 4750 2381 4750 
Q 2619 4750 2861 4703 
Q 3103 4656 3366 4563 
z
" transform="scale(0.015625)"/>
       </defs>
       <use xlink:href="#DejaVuSans-36"/>
       <use xlink:href="#DejaVuSans-30" x="63.623047"/>
      </g>
     </g>
    </g>
    <g id="ytick_5">
     <g id="line2d_10">
      <g>
       <use xlink:href="#mdbbb4fc82a" x="57.6" y="144.288" style="stroke: #000000; stroke-width: 0.8"/>
      </g>
     </g>
     <g id="text_11">
      <!-- 80 -->
      <g transform="translate(37.875 148.087219) scale(0.1 -0.1)">
       <defs>
        <path id="DejaVuSans-38" d="M 2034 2216 
Q 1584 2216 1326 1975 
Q 1069 1734 1069 1313 
Q 1069 891 1326 650 
Q 1584 409 2034 409 
Q 2484 409 2743 651 
Q 3003 894 3003 1313 
Q 3003 1734 2745 1975 
Q 2488 2216 2034 2216 
z
M 1403 2484 
Q 997 2584 770 2862 
Q 544 3141 544 3541 
Q 544 4100 942 4425 
Q 1341 4750 2034 4750 
Q 2731 4750 3128 4425 
Q 3525 4100 3525 3541 
Q 3525 3141 3298 2862 
Q 3072 2584 2669 2484 
Q 3125 2378 3379 2068 
Q 3634 1759 3634 1313 
Q 3634 634 3220 271 
Q 2806 -91 2034 -91 
Q 1263 -91 848 271 
Q 434 634 434 1313 
Q 434 1759 690 2068 
Q 947 2378 1403 2484 
z
M 1172 3481 
Q 1172 3119 1398 2916 
Q 1625 2713 2034 2713 
Q 2441 2713 2670 2916 
Q 2900 3119 2900 3481 
Q 2900 3844 2670 4047 
Q 2441 4250 2034 4250 
Q 1625 4250 1398 4047 
Q 1172 3844 1172 3481 
z
" transform="scale(0.015625)"/>
       </defs>
       <use xlink:href="#DejaVuSans-38"/>
       <use xlink:href="#DejaVuSans-30" x="63.623047"/>
      </g>
     </g>
    </g>
    <g id="ytick_6">
     <g id="line2d_11">
      <g>
       <use xlink:href="#mdbbb4fc82a" x="57.6" y="106.488" style="stroke: #000000; stroke-width: 0.8"/>
      </g>
     </g>
     <g id="text_12">
      <!-- 100 -->
      <g transform="translate(31.5125 110.287219) scale(0.1 -0.1)">
       <use xlink:href="#DejaVuSans-31"/>
       <use xlink:href="#DejaVuSans-30" x="63.623047"/>
       <use xlink:href="#DejaVuSans-30" x="127.246094"/>
      </g>
     </g>
    </g>
    <g id="ytick_7">
     <g id="line2d_12">
      <g>
       <use xlink:href="#mdbbb4fc82a" x="57.6" y="68.688" style="stroke: #000000; stroke-width: 0.8"/>
      </g>
     </g>
     <g id="text_13">
      <!-- 120 -->
      <g transform="translate(31.5125 72.487219) scale(0.1 -0.1)">
       <use xlink:href="#DejaVuSans-31"/>
       <use xlink:href="#DejaVuSans-32" x="63.623047"/>
       <use xlink:href="#DejaVuSans-30" x="127.246094"/>
      </g>
     </g>
    </g>
    <g id="text_14">
     <!-- Trial -->
     <g transform="translate(25.432812 184.742063) rotate(-90) scale(0.1 -0.1)">
      <defs>
       <path id="DejaVuSans-72" d="M 2631 2963 
Q 2534 3019 2420 3045 
Q 2306 3072 2169 3072 
Q 1681 3072 1420 2755 
Q 1159 2438 1159 1844 
L 1159 0 
L 581 0 
L 581 3500 
L 1159 3500 
L 1159 2956 
Q 1341 3275 1631 3429 
Q 1922 3584 2338 3584 
Q 2397 3584 2469 3576 
Q 2541 3569 2628 3553 
L 2631 2963 
z
" transform="scale(0.015625)"/>
       <path id="DejaVuSans-61" d="M 2194 1759 
Q 1497 1759 1228 1600 
Q 959 1441 959 1056 
Q 959 750 1161 570 
Q 1363 391 1709 391 
Q 2188 391 2477 730 
Q 2766 1069 2766 1631 
L 2766 1759 
L 2194 1759 
z
M 3341 1997 
L 3341 0 
L 2766 0 
L 2766 531 
Q 2569 213 2275 61 
Q 1981 -91 1556 -91 
Q 1019 -91 701 211 
Q 384 513 384 1019 
Q 384 1609 779 1909 
Q 1175 2209 1959 2209 
L 2766 2209 
L 2766 2266 
Q 2766 2663 2505 2880 
Q 2244 3097 1772 3097 
Q 1472 3097 1187 3025 
Q 903 2953 641 2809 
L 641 3341 
Q 956 3463 1253 3523 
Q 1550 3584 1831 3584 
Q 2591 3584 2966 3190 
Q 3341 2797 3341 1997 
z
" transform="scale(0.015625)"/>
       <path id="DejaVuSans-6c" d="M 603 4863 
L 1178 4863 
L 1178 0 
L 603 0 
L 603 4863 
z
" transform="scale(0.015625)"/>
      </defs>
      <use xlink:href="#DejaVuSans-54"/>
      <use xlink:href="#DejaVuSans-72" x="46.333984"/>
      <use xlink:href="#DejaVuSans-69" x="87.447266"/>
      <use xlink:href="#DejaVuSans-61" x="115.230469"/>
      <use xlink:href="#DejaVuSans-6c" x="176.509766"/>
     </g>
    </g>
   </g>
   <g id="EventCollection_1">
    <path d="M 108.305482 292.653 
L 108.305482 294.543 
" clip-path="url(#p83b83b32fd)" style="fill: none; stroke: #000000; stroke-width: 0.5"/>
    <path d="M 193.84265 292.653 
L 193.84265 294.543 
" clip-path="url(#p83b83b32fd)" style="fill: none; stroke: #000000; stroke-width: 0.5"/>
    <path d="M 223.092673 292.653 
L 223.092673 294.543 
" clip-path="url(#p83b83b32fd)" style="fill: none; stroke: #000000; stroke-width: 0.5"/>
   </g>
   <g id="EventCollection_2"/>
   <g id="EventCollection_3">
    <path d="M 104.661429 288.873 
L 104.661429 290.763 
" clip-path="url(#p83b83b32fd)" style="fill: none; stroke: #000000; stroke-width: 0.5"/>
    <path d="M 106.216985 288.873 
L 106.216985 290.763 
" clip-path="url(#p83b83b32fd)" style="fill: none; stroke: #000000; stroke-width: 0.5"/>
   </g>
   <g id="EventCollection_4"/>
   <g id="EventCollection_5">
    <path d="M 107.762045 285.093 
L 107.762045 286.983 
" clip-path="url(#p83b83b32fd)" style="fill: none; stroke: #000000; stroke-width: 0.5"/>
    <path d="M 150.790786 285.093 
L 150.790786 286.983 
" clip-path="url(#p83b83b32fd)" style="fill: none; stroke: #000000; stroke-width: 0.5"/>
    <path d="M 267.152541 285.093 
L 267.152541 286.983 
" clip-path="url(#p83b83b32fd)" style="fill: none; stroke: #000000; stroke-width: 0.5"/>
    <path d="M 273.469667 285.093 
L 273.469667 286.983 
" clip-path="url(#p83b83b32fd)" style="fill: none; stroke: #000000; stroke-width: 0.5"/>
   </g>
   <g id="EventCollection_6">
    <path d="M 97.668092 283.203 
L 97.668092 285.093 
" clip-path="url(#p83b83b32fd)" style="fill: none; stroke: #000000; stroke-width: 0.5"/>
    <path d="M 125.338869 283.203 
L 125.338869 285.093 
" clip-path="url(#p83b83b32fd)" style="fill: none; stroke: #000000; stroke-width: 0.5"/>
    <path d="M 137.703741 283.203 
L 137.703741 285.093 
" clip-path="url(#p83b83b32fd)" style="fill: none; stroke: #000000; stroke-width: 0.5"/>
    <path d="M 174.13151 283.203 
L 174.13151 285.093 
" clip-path="url(#p83b83b32fd)" style="fill: none; stroke: #000000; stroke-width: 0.5"/>
   </g>
   <g id="EventCollection_7">
    <path d="M 155.514197 281.313 
L 155.514197 283.203 
" clip-path="url(#p83b83b32fd)" style="fill: none; stroke: #000000; stroke-width: 0.5"/>
   </g>
   <g id="EventCollection_8"/>
   <g id="EventCollection_9">
    <path d="M 198.397256 277.533 
L 198.397256 279.423 
" clip-path="url(#p83b83b32fd)" style="fill: none; stroke: #000000; stroke-width: 0.5"/>
   </g>
   <g id="EventCollection_10"/>
   <g id="EventCollection_11"/>
   <g id="EventCollection_12"/>
   <g id="EventCollection_13">
    <path d="M 186.639087 269.973 
L 186.639087 271.863 
" clip-path="url(#p83b83b32fd)" style="fill: none; stroke: #000000; stroke-width: 0.5"/>
    <path d="M 260.898966 269.973 
L 260.898966 271.863 
" clip-path="url(#p83b83b32fd)" style="fill: none; stroke: #000000; stroke-width: 0.5"/>
    <path d="M 267.726761 269.973 
L 267.726761 271.863 
" clip-path="url(#p83b83b32fd)" style="fill: none; stroke: #000000; stroke-width: 0.5"/>
   </g>
   <g id="EventCollection_14"/>
   <g id="EventCollection_15">
    <path d="M 216.636248 266.193 
L 216.636248 268.083 
" clip-path="url(#p83b83b32fd)" style="fill: none; stroke: #000000; stroke-width: 0.5"/>
   </g>
   <g id="EventCollection_16">
    <path d="M 78.277823 264.303 
L 78.277823 266.193 
" clip-path="url(#p83b83b32fd)" style="fill: none; stroke: #000000; stroke-width: 0.5"/>
    <path d="M 193.11225 264.303 
L 193.11225 266.193 
" clip-path="url(#p83b83b32fd)" style="fill: none; stroke: #000000; stroke-width: 0.5"/>
    <path d="M 212.744661 264.303 
L 212.744661 266.193 
" clip-path="url(#p83b83b32fd)" style="fill: none; stroke: #000000; stroke-width: 0.5"/>
    <path d="M 246.254946 264.303 
L 246.254946 266.193 
" clip-path="url(#p83b83b32fd)" style="fill: none; stroke: #000000; stroke-width: 0.5"/>
   </g>
   <g id="EventCollection_17"/>
   <g id="EventCollection_18">
    <path d="M 145.082351 260.523 
L 145.082351 262.413 
" clip-path="url(#p83b83b32fd)" style="fill: none; stroke: #000000; stroke-width: 0.5"/>
   </g>
   <g id="EventCollection_19">
    <path d="M 107.589977 258.633 
L 107.589977 260.523 
" clip-path="url(#p83b83b32fd)" style="fill: none; stroke: #000000; stroke-width: 0.5"/>
    <path d="M 150.141101 258.633 
L 150.141101 260.523 
" clip-path="url(#p83b83b32fd)" style="fill: none; stroke: #000000; stroke-width: 0.5"/>
   </g>
   <g id="EventCollection_20">
    <path d="M 94.765928 256.743 
L 94.765928 258.633 
" clip-path="url(#p83b83b32fd)" style="fill: none; stroke: #000000; stroke-width: 0.5"/>
    <path d="M 133.614554 256.743 
L 133.614554 258.633 
" clip-path="url(#p83b83b32fd)" style="fill: none; stroke: #000000; stroke-width: 0.5"/>
   </g>
   <g id="EventCollection_21">
    <path d="M 235.731889 254.853 
L 235.731889 256.743 
" clip-path="url(#p83b83b32fd)" style="fill: none; stroke: #000000; stroke-width: 0.5"/>
    <path d="M 246.96194 254.853 
L 246.96194 256.743 
" clip-path="url(#p83b83b32fd)" style="fill: none; stroke: #000000; stroke-width: 0.5"/>
   </g>
   <g id="EventCollection_22">
    <path d="M 109.763302 252.963 
L 109.763302 254.853 
" clip-path="url(#p83b83b32fd)" style="fill: none; stroke: #000000; stroke-width: 0.5"/>
   </g>
   <g id="EventCollection_23">
    <path d="M 73.8628 251.073 
L 73.8628 252.963 
" clip-path="url(#p83b83b32fd)" style="fill: none; stroke: #000000; stroke-width: 0.5"/>
   </g>
   <g id="EventCollection_24">
    <path d="M 167.352371 249.183 
L 167.352371 251.073 
" clip-path="url(#p83b83b32fd)" style="fill: none; stroke: #000000; stroke-width: 0.5"/>
   </g>
   <g id="EventCollection_25">
    <path d="M 236.433776 247.293 
L 236.433776 249.183 
" clip-path="url(#p83b83b32fd)" style="fill: none; stroke: #000000; stroke-width: 0.5"/>
    <path d="M 278.999084 247.293 
L 278.999084 249.183 
" clip-path="url(#p83b83b32fd)" style="fill: none; stroke: #000000; stroke-width: 0.5"/>
    <path d="M 280.01092 247.293 
L 280.01092 249.183 
" clip-path="url(#p83b83b32fd)" style="fill: none; stroke: #000000; stroke-width: 0.5"/>
   </g>
   <g id="EventCollection_26">
    <path d="M 144.980359 245.403 
L 144.980359 247.293 
" clip-path="url(#p83b83b32fd)" style="fill: none; stroke: #000000; stroke-width: 0.5"/>
    <path d="M 180.481404 245.403 
L 180.481404 247.293 
" clip-path="url(#p83b83b32fd)" style="fill: none; stroke: #000000; stroke-width: 0.5"/>
   </g>
   <g id="EventCollection_27"/>
   <g id="EventCollection_28"/>
   <g id="EventCollection_29"/>
   <g id="EventCollection_30"/>
   <g id="EventCollection_31">
    <path d="M 140.078355 235.953 
L 140.078355 237.843 
" clip-path="url(#p83b83b32fd)" style="fill: none; stroke: #000000; stroke-width: 0.5"/>
   </g>
   <g id="EventCollection_32"/>
   <g id="EventCollection_33">
    <path d="M 131.968354 232.173 
L 131.968354 234.063 
" clip-path="url(#p83b83b32fd)" style="fill: none; stroke: #000000; stroke-width: 0.5"/>
    <path d="M 178.046786 232.173 
L 178.046786 234.063 
" clip-path="url(#p83b83b32fd)" style="fill: none; stroke: #000000; stroke-width: 0.5"/>
    <path d="M 196.024344 232.173 
L 196.024344 234.063 
" clip-path="url(#p83b83b32fd)" style="fill: none; stroke: #000000; stroke-width: 0.5"/>
    <path d="M 229.903446 232.173 
L 229.903446 234.063 
" clip-path="url(#p83b83b32fd)" style="fill: none; stroke: #000000; stroke-width: 0.5"/>
   </g>
   <g id="EventCollection_34"/>
   <g id="EventCollection_35"/>
   <g id="EventCollection_36">
    <path d="M 149.352542 226.503 
L 149.352542 228.393 
" clip-path="url(#p83b83b32fd)" style="fill: none; stroke: #000000; stroke-width: 0.5"/>
    <path d="M 152.000364 226.503 
L 152.000364 228.393 
" clip-path="url(#p83b83b32fd)" style="fill: none; stroke: #000000; stroke-width: 0.5"/>
    <path d="M 189.1469 226.503 
L 189.1469 228.393 
" clip-path="url(#p83b83b32fd)" style="fill: none; stroke: #000000; stroke-width: 0.5"/>
   </g>
   <g id="EventCollection_37">
    <path d="M 73.832727 224.613 
L 73.832727 226.503 
" clip-path="url(#p83b83b32fd)" style="fill: none; stroke: #000000; stroke-width: 0.5"/>
    <path d="M 189.712183 224.613 
L 189.712183 226.503 
" clip-path="url(#p83b83b32fd)" style="fill: none; stroke: #000000; stroke-width: 0.5"/>
   </g>
   <g id="EventCollection_38"/>
   <g id="EventCollection_39">
    <path d="M 166.076973 220.833 
L 166.076973 222.723 
" clip-path="url(#p83b83b32fd)" style="fill: none; stroke: #000000; stroke-width: 0.5"/>
   </g>
   <g id="EventCollection_40"/>
   <g id="EventCollection_41">
    <path d="M 212.35329 217.053 
L 212.35329 218.943 
" clip-path="url(#p83b83b32fd)" style="fill: none; stroke: #000000; stroke-width: 0.5"/>
   </g>
   <g id="EventCollection_42">
    <path d="M 106.354724 215.163 
L 106.354724 217.053 
" clip-path="url(#p83b83b32fd)" style="fill: none; stroke: #000000; stroke-width: 0.5"/>
   </g>
   <g id="EventCollection_43"/>
   <g id="EventCollection_44">
    <path d="M 139.293201 211.383 
L 139.293201 213.273 
" clip-path="url(#p83b83b32fd)" style="fill: none; stroke: #000000; stroke-width: 0.5"/>
    <path d="M 185.825562 211.383 
L 185.825562 213.273 
" clip-path="url(#p83b83b32fd)" style="fill: none; stroke: #000000; stroke-width: 0.5"/>
    <path d="M 188.421466 211.383 
L 188.421466 213.273 
" clip-path="url(#p83b83b32fd)" style="fill: none; stroke: #000000; stroke-width: 0.5"/>
    <path d="M 192.610943 211.383 
L 192.610943 213.273 
" clip-path="url(#p83b83b32fd)" style="fill: none; stroke: #000000; stroke-width: 0.5"/>
    <path d="M 193.282332 211.383 
L 193.282332 213.273 
" clip-path="url(#p83b83b32fd)" style="fill: none; stroke: #000000; stroke-width: 0.5"/>
   </g>
   <g id="EventCollection_45">
    <path d="M 176.717343 209.493 
L 176.717343 211.383 
" clip-path="url(#p83b83b32fd)" style="fill: none; stroke: #000000; stroke-width: 0.5"/>
    <path d="M 232.172237 209.493 
L 232.172237 211.383 
" clip-path="url(#p83b83b32fd)" style="fill: none; stroke: #000000; stroke-width: 0.5"/>
   </g>
   <g id="EventCollection_46">
    <path d="M 140.969758 207.603 
L 140.969758 209.493 
" clip-path="url(#p83b83b32fd)" style="fill: none; stroke: #000000; stroke-width: 0.5"/>
   </g>
   <g id="EventCollection_47"/>
   <g id="EventCollection_48"/>
   <g id="EventCollection_49"/>
   <g id="EventCollection_50"/>
   <g id="EventCollection_51">
    <path d="M 143.835182 198.153 
L 143.835182 200.043 
" clip-path="url(#p83b83b32fd)" style="fill: none; stroke: #000000; stroke-width: 0.5"/>
   </g>
   <g id="EventCollection_52">
    <path d="M 192.791238 196.263 
L 192.791238 198.153 
" clip-path="url(#p83b83b32fd)" style="fill: none; stroke: #000000; stroke-width: 0.5"/>
   </g>
   <g id="EventCollection_53"/>
   <g id="EventCollection_54"/>
   <g id="EventCollection_55"/>
   <g id="EventCollection_56">
    <path d="M 192.879754 188.703 
L 192.879754 190.593 
" clip-path="url(#p83b83b32fd)" style="fill: none; stroke: #000000; stroke-width: 0.5"/>
    <path d="M 209.178627 188.703 
L 209.178627 190.593 
" clip-path="url(#p83b83b32fd)" style="fill: none; stroke: #000000; stroke-width: 0.5"/>
   </g>
   <g id="EventCollection_57"/>
   <g id="EventCollection_58"/>
   <g id="EventCollection_59"/>
   <g id="EventCollection_60"/>
   <g id="EventCollection_61">
    <path d="M 109.164117 179.253 
L 109.164117 181.143 
" clip-path="url(#p83b83b32fd)" style="fill: none; stroke: #000000; stroke-width: 0.5"/>
    <path d="M 131.974028 179.253 
L 131.974028 181.143 
" clip-path="url(#p83b83b32fd)" style="fill: none; stroke: #000000; stroke-width: 0.5"/>
    <path d="M 249.905667 179.253 
L 249.905667 181.143 
" clip-path="url(#p83b83b32fd)" style="fill: none; stroke: #000000; stroke-width: 0.5"/>
   </g>
   <g id="EventCollection_62">
    <path d="M 177.113963 177.363 
L 177.113963 179.253 
" clip-path="url(#p83b83b32fd)" style="fill: none; stroke: #000000; stroke-width: 0.5"/>
   </g>
   <g id="EventCollection_63">
    <path d="M 232.120745 175.473 
L 232.120745 177.363 
" clip-path="url(#p83b83b32fd)" style="fill: none; stroke: #000000; stroke-width: 0.5"/>
   </g>
   <g id="EventCollection_64"/>
   <g id="EventCollection_65">
    <path d="M 131.361792 171.693 
L 131.361792 173.583 
" clip-path="url(#p83b83b32fd)" style="fill: none; stroke: #000000; stroke-width: 0.5"/>
   </g>
   <g id="EventCollection_66"/>
   <g id="EventCollection_67">
    <path d="M 148.880031 167.913 
L 148.880031 169.803 
" clip-path="url(#p83b83b32fd)" style="fill: none; stroke: #000000; stroke-width: 0.5"/>
    <path d="M 153.305834 167.913 
L 153.305834 169.803 
" clip-path="url(#p83b83b32fd)" style="fill: none; stroke: #000000; stroke-width: 0.5"/>
   </g>
   <g id="EventCollection_68"/>
   <g id="EventCollection_69"/>
   <g id="EventCollection_70">
    <path d="M 139.872953 162.243 
L 139.872953 164.133 
" clip-path="url(#p83b83b32fd)" style="fill: none; stroke: #000000; stroke-width: 0.5"/>
   </g>
   <g id="EventCollection_71">
    <path d="M 140.588174 160.353 
L 140.588174 162.243 
" clip-path="url(#p83b83b32fd)" style="fill: none; stroke: #000000; stroke-width: 0.5"/>
   </g>
   <g id="EventCollection_72">
    <path d="M 329.788019 158.463 
L 329.788019 160.353 
" clip-path="url(#p83b83b32fd)" style="fill: none; stroke: #000000; stroke-width: 0.5"/>
    <path d="M 371.034098 158.463 
L 371.034098 160.353 
" clip-path="url(#p83b83b32fd)" style="fill: none; stroke: #000000; stroke-width: 0.5"/>
    <path d="M 397.428201 158.463 
L 397.428201 160.353 
" clip-path="url(#p83b83b32fd)" style="fill: none; stroke: #000000; stroke-width: 0.5"/>
    <path d="M 398.487273 158.463 
L 398.487273 160.353 
" clip-path="url(#p83b83b32fd)" style="fill: none; stroke: #000000; stroke-width: 0.5"/>
   </g>
   <g id="EventCollection_73">
    <path d="M 236.305115 156.573 
L 236.305115 158.463 
" clip-path="url(#p83b83b32fd)" style="fill: none; stroke: #000000; stroke-width: 0.5"/>
   </g>
   <g id="EventCollection_74">
    <path d="M 187.505949 154.683 
L 187.505949 156.573 
" clip-path="url(#p83b83b32fd)" style="fill: none; stroke: #000000; stroke-width: 0.5"/>
   </g>
   <g id="EventCollection_75"/>
   <g id="EventCollection_76"/>
   <g id="EventCollection_77"/>
   <g id="EventCollection_78">
    <path d="M 191.474419 147.123 
L 191.474419 149.013 
" clip-path="url(#p83b83b32fd)" style="fill: none; stroke: #000000; stroke-width: 0.5"/>
    <path d="M 207.087718 147.123 
L 207.087718 149.013 
" clip-path="url(#p83b83b32fd)" style="fill: none; stroke: #000000; stroke-width: 0.5"/>
    <path d="M 241.217474 147.123 
L 241.217474 149.013 
" clip-path="url(#p83b83b32fd)" style="fill: none; stroke: #000000; stroke-width: 0.5"/>
    <path d="M 275.29985 147.123 
L 275.29985 149.013 
" clip-path="url(#p83b83b32fd)" style="fill: none; stroke: #000000; stroke-width: 0.5"/>
    <path d="M 276.704192 147.123 
L 276.704192 149.013 
" clip-path="url(#p83b83b32fd)" style="fill: none; stroke: #000000; stroke-width: 0.5"/>
   </g>
   <g id="EventCollection_79"/>
   <g id="EventCollection_80">
    <path d="M 96.652568 143.343 
L 96.652568 145.233 
" clip-path="url(#p83b83b32fd)" style="fill: none; stroke: #000000; stroke-width: 0.5"/>
   </g>
   <g id="EventCollection_81"/>
   <g id="EventCollection_82">
    <path d="M 149.808456 139.563 
L 149.808456 141.453 
" clip-path="url(#p83b83b32fd)" style="fill: none; stroke: #000000; stroke-width: 0.5"/>
    <path d="M 150.234014 139.563 
L 150.234014 141.453 
" clip-path="url(#p83b83b32fd)" style="fill: none; stroke: #000000; stroke-width: 0.5"/>
    <path d="M 150.574461 139.563 
L 150.574461 141.453 
" clip-path="url(#p83b83b32fd)" style="fill: none; stroke: #000000; stroke-width: 0.5"/>
    <path d="M 151.548563 139.563 
L 151.548563 141.453 
" clip-path="url(#p83b83b32fd)" style="fill: none; stroke: #000000; stroke-width: 0.5"/>
    <path d="M 151.94107 139.563 
L 151.94107 141.453 
" clip-path="url(#p83b83b32fd)" style="fill: none; stroke: #000000; stroke-width: 0.5"/>
    <path d="M 153.283847 139.563 
L 153.283847 141.453 
" clip-path="url(#p83b83b32fd)" style="fill: none; stroke: #000000; stroke-width: 0.5"/>
   </g>
   <g id="EventCollection_83"/>
   <g id="EventCollection_84">
    <path d="M 145.421662 135.783 
L 145.421662 137.673 
" clip-path="url(#p83b83b32fd)" style="fill: none; stroke: #000000; stroke-width: 0.5"/>
   </g>
   <g id="EventCollection_85"/>
   <g id="EventCollection_86"/>
   <g id="EventCollection_87"/>
   <g id="EventCollection_88"/>
   <g id="EventCollection_89">
    <path d="M 192.967277 126.333 
L 192.967277 128.223 
" clip-path="url(#p83b83b32fd)" style="fill: none; stroke: #000000; stroke-width: 0.5"/>
   </g>
   <g id="EventCollection_90">
    <path d="M 119.363325 124.443 
L 119.363325 126.333 
" clip-path="url(#p83b83b32fd)" style="fill: none; stroke: #000000; stroke-width: 0.5"/>
    <path d="M 183.882747 124.443 
L 183.882747 126.333 
" clip-path="url(#p83b83b32fd)" style="fill: none; stroke: #000000; stroke-width: 0.5"/>
    <path d="M 186.298924 124.443 
L 186.298924 126.333 
" clip-path="url(#p83b83b32fd)" style="fill: none; stroke: #000000; stroke-width: 0.5"/>
    <path d="M 188.043712 124.443 
L 188.043712 126.333 
" clip-path="url(#p83b83b32fd)" style="fill: none; stroke: #000000; stroke-width: 0.5"/>
   </g>
   <g id="EventCollection_91">
    <path d="M 86.103835 122.553 
L 86.103835 124.443 
" clip-path="url(#p83b83b32fd)" style="fill: none; stroke: #000000; stroke-width: 0.5"/>
   </g>
   <g id="EventCollection_92">
    <path d="M 118.736761 120.663 
L 118.736761 122.553 
" clip-path="url(#p83b83b32fd)" style="fill: none; stroke: #000000; stroke-width: 0.5"/>
   </g>
   <g id="EventCollection_93"/>
   <g id="EventCollection_94"/>
   <g id="EventCollection_95"/>
   <g id="EventCollection_96">
    <path d="M 178.238145 113.103 
L 178.238145 114.993 
" clip-path="url(#p83b83b32fd)" style="fill: none; stroke: #000000; stroke-width: 0.5"/>
   </g>
   <g id="EventCollection_97"/>
   <g id="EventCollection_98"/>
   <g id="EventCollection_99">
    <path d="M 146.622161 107.433 
L 146.622161 109.323 
" clip-path="url(#p83b83b32fd)" style="fill: none; stroke: #000000; stroke-width: 0.5"/>
    <path d="M 147.790035 107.433 
L 147.790035 109.323 
" clip-path="url(#p83b83b32fd)" style="fill: none; stroke: #000000; stroke-width: 0.5"/>
   </g>
   <g id="EventCollection_100">
    <path d="M 149.819946 105.543 
L 149.819946 107.433 
" clip-path="url(#p83b83b32fd)" style="fill: none; stroke: #000000; stroke-width: 0.5"/>
    <path d="M 191.652302 105.543 
L 191.652302 107.433 
" clip-path="url(#p83b83b32fd)" style="fill: none; stroke: #000000; stroke-width: 0.5"/>
    <path d="M 192.115735 105.543 
L 192.115735 107.433 
" clip-path="url(#p83b83b32fd)" style="fill: none; stroke: #000000; stroke-width: 0.5"/>
    <path d="M 192.867554 105.543 
L 192.867554 107.433 
" clip-path="url(#p83b83b32fd)" style="fill: none; stroke: #000000; stroke-width: 0.5"/>
   </g>
   <g id="EventCollection_101"/>
   <g id="EventCollection_102"/>
   <g id="EventCollection_103"/>
   <g id="EventCollection_104"/>
   <g id="EventCollection_105">
    <path d="M 135.025137 96.093 
L 135.025137 97.983 
" clip-path="url(#p83b83b32fd)" style="fill: none; stroke: #000000; stroke-width: 0.5"/>
    <path d="M 140.330428 96.093 
L 140.330428 97.983 
" clip-path="url(#p83b83b32fd)" style="fill: none; stroke: #000000; stroke-width: 0.5"/>
   </g>
   <g id="EventCollection_106">
    <path d="M 149.882787 94.203 
L 149.882787 96.093 
" clip-path="url(#p83b83b32fd)" style="fill: none; stroke: #000000; stroke-width: 0.5"/>
    <path d="M 150.809653 94.203 
L 150.809653 96.093 
" clip-path="url(#p83b83b32fd)" style="fill: none; stroke: #000000; stroke-width: 0.5"/>
   </g>
   <g id="EventCollection_107">
    <path d="M 101.517122 92.313 
L 101.517122 94.203 
" clip-path="url(#p83b83b32fd)" style="fill: none; stroke: #000000; stroke-width: 0.5"/>
   </g>
   <g id="EventCollection_108"/>
   <g id="EventCollection_109">
    <path d="M 177.603922 88.533 
L 177.603922 90.423 
" clip-path="url(#p83b83b32fd)" style="fill: none; stroke: #000000; stroke-width: 0.5"/>
   </g>
   <g id="EventCollection_110"/>
   <g id="EventCollection_111">
    <path d="M 137.601891 84.753 
L 137.601891 86.643 
" clip-path="url(#p83b83b32fd)" style="fill: none; stroke: #000000; stroke-width: 0.5"/>
   </g>
   <g id="EventCollection_112"/>
   <g id="EventCollection_113">
    <path d="M 150.860578 80.973 
L 150.860578 82.863 
" clip-path="url(#p83b83b32fd)" style="fill: none; stroke: #000000; stroke-width: 0.5"/>
    <path d="M 157.943708 80.973 
L 157.943708 82.863 
" clip-path="url(#p83b83b32fd)" style="fill: none; stroke: #000000; stroke-width: 0.5"/>
    <path d="M 179.883637 80.973 
L 179.883637 82.863 
" clip-path="url(#p83b83b32fd)" style="fill: none; stroke: #000000; stroke-width: 0.5"/>
    <path d="M 193.884496 80.973 
L 193.884496 82.863 
" clip-path="url(#p83b83b32fd)" style="fill: none; stroke: #000000; stroke-width: 0.5"/>
   </g>
   <g id="EventCollection_114">
    <path d="M 95.226523 79.083 
L 95.226523 80.973 
" clip-path="url(#p83b83b32fd)" style="fill: none; stroke: #000000; stroke-width: 0.5"/>
   </g>
   <g id="EventCollection_115"/>
   <g id="EventCollection_116"/>
   <g id="EventCollection_117"/>
   <g id="EventCollection_118">
    <path d="M 133.702077 71.523 
L 133.702077 73.413 
" clip-path="url(#p83b83b32fd)" style="fill: none; stroke: #000000; stroke-width: 0.5"/>
    <path d="M 162.020696 71.523 
L 162.020696 73.413 
" clip-path="url(#p83b83b32fd)" style="fill: none; stroke: #000000; stroke-width: 0.5"/>
    <path d="M 162.498172 71.523 
L 162.498172 73.413 
" clip-path="url(#p83b83b32fd)" style="fill: none; stroke: #000000; stroke-width: 0.5"/>
   </g>
   <g id="EventCollection_119"/>
   <g id="EventCollection_120">
    <path d="M 116.560316 67.743 
L 116.560316 69.633 
" clip-path="url(#p83b83b32fd)" style="fill: none; stroke: #000000; stroke-width: 0.5"/>
   </g>
   <g id="EventCollection_121"/>
   <g id="EventCollection_122">
    <path d="M 108.68735 63.963 
L 108.68735 65.853 
" clip-path="url(#p83b83b32fd)" style="fill: none; stroke: #000000; stroke-width: 0.5"/>
   </g>
   <g id="EventCollection_123"/>
   <g id="EventCollection_124">
    <path d="M 226.580547 60.183 
L 226.580547 62.073 
" clip-path="url(#p83b83b32fd)" style="fill: none; stroke: #000000; stroke-width: 0.5"/>
   </g>
   <g id="EventCollection_125"/>
   <g id="EventCollection_126">
    <path d="M 128.389411 56.403 
L 128.389411 58.293 
" clip-path="url(#p83b83b32fd)" style="fill: none; stroke: #000000; stroke-width: 0.5"/>
    <path d="M 231.360273 56.403 
L 231.360273 58.293 
" clip-path="url(#p83b83b32fd)" style="fill: none; stroke: #000000; stroke-width: 0.5"/>
    <path d="M 234.187964 56.403 
L 234.187964 58.293 
" clip-path="url(#p83b83b32fd)" style="fill: none; stroke: #000000; stroke-width: 0.5"/>
    <path d="M 235.658409 56.403 
L 235.658409 58.293 
" clip-path="url(#p83b83b32fd)" style="fill: none; stroke: #000000; stroke-width: 0.5"/>
    <path d="M 256.737717 56.403 
L 256.737717 58.293 
" clip-path="url(#p83b83b32fd)" style="fill: none; stroke: #000000; stroke-width: 0.5"/>
    <path d="M 346.313005 56.403 
L 346.313005 58.293 
" clip-path="url(#p83b83b32fd)" style="fill: none; stroke: #000000; stroke-width: 0.5"/>
    <path d="M 350.582771 56.403 
L 350.582771 58.293 
" clip-path="url(#p83b83b32fd)" style="fill: none; stroke: #000000; stroke-width: 0.5"/>
   </g>
   <g id="EventCollection_127">
    <path d="M 234.696364 54.513 
L 234.696364 56.403 
" clip-path="url(#p83b83b32fd)" style="fill: none; stroke: #000000; stroke-width: 0.5"/>
   </g>
   <g id="patch_3">
    <path d="M 57.6 307.584 
L 57.6 41.472 
" style="fill: none; stroke: #000000; stroke-width: 0.8; stroke-linejoin: miter; stroke-linecap: square"/>
   </g>
   <g id="patch_4">
    <path d="M 414.72 307.584 
L 414.72 41.472 
" style="fill: none; stroke: #000000; stroke-width: 0.8; stroke-linejoin: miter; stroke-linecap: square"/>
   </g>
   <g id="patch_5">
    <path d="M 57.6 307.584 
L 414.72 307.584 
" style="fill: none; stroke: #000000; stroke-width: 0.8; stroke-linejoin: miter; stroke-linecap: square"/>
   </g>
   <g id="patch_6">
    <path d="M 57.6 41.472 
L 414.72 41.472 
" style="fill: none; stroke: #000000; stroke-width: 0.8; stroke-linejoin: miter; stroke-linecap: square"/>
   </g>
   <g id="text_15">
    <!-- Raster Plot - Cluster 168 -->
    <g transform="translate(162.964687 35.472) scale(0.12 -0.12)">
     <defs>
      <path id="DejaVuSans-52" d="M 2841 2188 
Q 3044 2119 3236 1894 
Q 3428 1669 3622 1275 
L 4263 0 
L 3584 0 
L 2988 1197 
Q 2756 1666 2539 1819 
Q 2322 1972 1947 1972 
L 1259 1972 
L 1259 0 
L 628 0 
L 628 4666 
L 2053 4666 
Q 2853 4666 3247 4331 
Q 3641 3997 3641 3322 
Q 3641 2881 3436 2590 
Q 3231 2300 2841 2188 
z
M 1259 4147 
L 1259 2491 
L 2053 2491 
Q 2509 2491 2742 2702 
Q 2975 2913 2975 3322 
Q 2975 3731 2742 3939 
Q 2509 4147 2053 4147 
L 1259 4147 
z
" transform="scale(0.015625)"/>
      <path id="DejaVuSans-74" d="M 1172 4494 
L 1172 3500 
L 2356 3500 
L 2356 3053 
L 1172 3053 
L 1172 1153 
Q 1172 725 1289 603 
Q 1406 481 1766 481 
L 2356 481 
L 2356 0 
L 1766 0 
Q 1100 0 847 248 
Q 594 497 594 1153 
L 594 3053 
L 172 3053 
L 172 3500 
L 594 3500 
L 594 4494 
L 1172 4494 
z
" transform="scale(0.015625)"/>
      <path id="DejaVuSans-50" d="M 1259 4147 
L 1259 2394 
L 2053 2394 
Q 2494 2394 2734 2622 
Q 2975 2850 2975 3272 
Q 2975 3691 2734 3919 
Q 2494 4147 2053 4147 
L 1259 4147 
z
M 628 4666 
L 2053 4666 
Q 2838 4666 3239 4311 
Q 3641 3956 3641 3272 
Q 3641 2581 3239 2228 
Q 2838 1875 2053 1875 
L 1259 1875 
L 1259 0 
L 628 0 
L 628 4666 
z
" transform="scale(0.015625)"/>
      <path id="DejaVuSans-6f" d="M 1959 3097 
Q 1497 3097 1228 2736 
Q 959 2375 959 1747 
Q 959 1119 1226 758 
Q 1494 397 1959 397 
Q 2419 397 2687 759 
Q 2956 1122 2956 1747 
Q 2956 2369 2687 2733 
Q 2419 3097 1959 3097 
z
M 1959 3584 
Q 2709 3584 3137 3096 
Q 3566 2609 3566 1747 
Q 3566 888 3137 398 
Q 2709 -91 1959 -91 
Q 1206 -91 779 398 
Q 353 888 353 1747 
Q 353 2609 779 3096 
Q 1206 3584 1959 3584 
z
" transform="scale(0.015625)"/>
      <path id="DejaVuSans-2d" d="M 313 2009 
L 1997 2009 
L 1997 1497 
L 313 1497 
L 313 2009 
z
" transform="scale(0.015625)"/>
      <path id="DejaVuSans-43" d="M 4122 4306 
L 4122 3641 
Q 3803 3938 3442 4084 
Q 3081 4231 2675 4231 
Q 1875 4231 1450 3742 
Q 1025 3253 1025 2328 
Q 1025 1406 1450 917 
Q 1875 428 2675 428 
Q 3081 428 3442 575 
Q 3803 722 4122 1019 
L 4122 359 
Q 3791 134 3420 21 
Q 3050 -91 2638 -91 
Q 1578 -91 968 557 
Q 359 1206 359 2328 
Q 359 3453 968 4101 
Q 1578 4750 2638 4750 
Q 3056 4750 3426 4639 
Q 3797 4528 4122 4306 
z
" transform="scale(0.015625)"/>
      <path id="DejaVuSans-75" d="M 544 1381 
L 544 3500 
L 1119 3500 
L 1119 1403 
Q 1119 906 1312 657 
Q 1506 409 1894 409 
Q 2359 409 2629 706 
Q 2900 1003 2900 1516 
L 2900 3500 
L 3475 3500 
L 3475 0 
L 2900 0 
L 2900 538 
Q 2691 219 2414 64 
Q 2138 -91 1772 -91 
Q 1169 -91 856 284 
Q 544 659 544 1381 
z
M 1991 3584 
L 1991 3584 
z
" transform="scale(0.015625)"/>
     </defs>
     <use xlink:href="#DejaVuSans-52"/>
     <use xlink:href="#DejaVuSans-61" x="67.232422"/>
     <use xlink:href="#DejaVuSans-73" x="128.511719"/>
     <use xlink:href="#DejaVuSans-74" x="180.611328"/>
     <use xlink:href="#DejaVuSans-65" x="219.820312"/>
     <use xlink:href="#DejaVuSans-72" x="281.34375"/>
     <use xlink:href="#DejaVuSans-20" x="322.457031"/>
     <use xlink:href="#DejaVuSans-50" x="354.244141"/>
     <use xlink:href="#DejaVuSans-6c" x="414.546875"/>
     <use xlink:href="#DejaVuSans-6f" x="442.330078"/>
     <use xlink:href="#DejaVuSans-74" x="503.511719"/>
     <use xlink:href="#DejaVuSans-20" x="542.720703"/>
     <use xlink:href="#DejaVuSans-2d" x="574.507812"/>
     <use xlink:href="#DejaVuSans-20" x="610.591797"/>
     <use xlink:href="#DejaVuSans-43" x="642.378906"/>
     <use xlink:href="#DejaVuSans-6c" x="712.203125"/>
     <use xlink:href="#DejaVuSans-75" x="739.986328"/>
     <use xlink:href="#DejaVuSans-73" x="803.365234"/>
     <use xlink:href="#DejaVuSans-74" x="855.464844"/>
     <use xlink:href="#DejaVuSans-65" x="894.673828"/>
     <use xlink:href="#DejaVuSans-72" x="956.197266"/>
     <use xlink:href="#DejaVuSans-20" x="997.310547"/>
     <use xlink:href="#DejaVuSans-31" x="1029.097656"/>
     <use xlink:href="#DejaVuSans-36" x="1092.720703"/>
     <use xlink:href="#DejaVuSans-38" x="1156.34375"/>
    </g>
   </g>
  </g>
 </g>
 <defs>
  <clipPath id="p83b83b32fd">
   <rect x="57.6" y="41.472" width="357.12" height="266.112"/>
  </clipPath>
 </defs>
</svg>
