<?xml version="1.0" encoding="utf-8" standalone="no"?>
<!DOCTYPE svg PUBLIC "-//W3C//DTD SVG 1.1//EN"
  "http://www.w3.org/Graphics/SVG/1.1/DTD/svg11.dtd">
<svg xmlns:xlink="http://www.w3.org/1999/xlink" width="460.8pt" height="345.6pt" viewBox="0 0 460.8 345.6" xmlns="http://www.w3.org/2000/svg" version="1.1">
 <metadata>
  <rdf:RDF xmlns:dc="http://purl.org/dc/elements/1.1/" xmlns:cc="http://creativecommons.org/ns#" xmlns:rdf="http://www.w3.org/1999/02/22-rdf-syntax-ns#">
   <cc:Work>
    <dc:type rdf:resource="http://purl.org/dc/dcmitype/StillImage"/>
    <dc:date>2024-03-26T13:53:52.486311</dc:date>
    <dc:format>image/svg+xml</dc:format>
    <dc:creator>
     <cc:Agent>
      <dc:title>Matplotlib v3.8.0, https://matplotlib.org/</dc:title>
     </cc:Agent>
    </dc:creator>
   </cc:Work>
  </rdf:RDF>
 </metadata>
 <defs>
  <style type="text/css">*{stroke-linejoin: round; stroke-linecap: butt}</style>
 </defs>
 <g id="figure_1">
  <g id="patch_1">
   <path d="M 0 345.6 
L 460.8 345.6 
L 460.8 0 
L 0 0 
z
" style="fill: #ffffff"/>
  </g>
  <g id="axes_1">
   <g id="patch_2">
    <path d="M 57.6 307.584 
L 414.72 307.584 
L 414.72 41.472 
L 57.6 41.472 
z
" style="fill: #ffffff"/>
   </g>
   <g id="matplotlib.axis_1">
    <g id="xtick_1">
     <g id="line2d_1">
      <defs>
       <path id="m7abea4a6de" d="M 0 0 
L 0 3.5 
" style="stroke: #000000; stroke-width: 0.8"/>
      </defs>
      <g>
       <use xlink:href="#m7abea4a6de" x="78.587067" y="307.584" style="stroke: #000000; stroke-width: 0.8"/>
      </g>
     </g>
     <g id="text_1">
      <!-- 0.0 -->
      <g transform="translate(70.635504 322.182437) scale(0.1 -0.1)">
       <defs>
        <path id="DejaVuSans-30" d="M 2034 4250 
Q 1547 4250 1301 3770 
Q 1056 3291 1056 2328 
Q 1056 1369 1301 889 
Q 1547 409 2034 409 
Q 2525 409 2770 889 
Q 3016 1369 3016 2328 
Q 3016 3291 2770 3770 
Q 2525 4250 2034 4250 
z
M 2034 4750 
Q 2819 4750 3233 4129 
Q 3647 3509 3647 2328 
Q 3647 1150 3233 529 
Q 2819 -91 2034 -91 
Q 1250 -91 836 529 
Q 422 1150 422 2328 
Q 422 3509 836 4129 
Q 1250 4750 2034 4750 
z
" transform="scale(0.015625)"/>
        <path id="DejaVuSans-2e" d="M 684 794 
L 1344 794 
L 1344 0 
L 684 0 
L 684 794 
z
" transform="scale(0.015625)"/>
       </defs>
       <use xlink:href="#DejaVuSans-30"/>
       <use xlink:href="#DejaVuSans-2e" x="63.623047"/>
       <use xlink:href="#DejaVuSans-30" x="95.410156"/>
      </g>
     </g>
    </g>
    <g id="xtick_2">
     <g id="line2d_2">
      <g>
       <use xlink:href="#m7abea4a6de" x="130.346248" y="307.584" style="stroke: #000000; stroke-width: 0.8"/>
      </g>
     </g>
     <g id="text_2">
      <!-- 0.2 -->
      <g transform="translate(122.394685 322.182437) scale(0.1 -0.1)">
       <defs>
        <path id="DejaVuSans-32" d="M 1228 531 
L 3431 531 
L 3431 0 
L 469 0 
L 469 531 
Q 828 903 1448 1529 
Q 2069 2156 2228 2338 
Q 2531 2678 2651 2914 
Q 2772 3150 2772 3378 
Q 2772 3750 2511 3984 
Q 2250 4219 1831 4219 
Q 1534 4219 1204 4116 
Q 875 4013 500 3803 
L 500 4441 
Q 881 4594 1212 4672 
Q 1544 4750 1819 4750 
Q 2544 4750 2975 4387 
Q 3406 4025 3406 3419 
Q 3406 3131 3298 2873 
Q 3191 2616 2906 2266 
Q 2828 2175 2409 1742 
Q 1991 1309 1228 531 
z
" transform="scale(0.015625)"/>
       </defs>
       <use xlink:href="#DejaVuSans-30"/>
       <use xlink:href="#DejaVuSans-2e" x="63.623047"/>
       <use xlink:href="#DejaVuSans-32" x="95.410156"/>
      </g>
     </g>
    </g>
    <g id="xtick_3">
     <g id="line2d_3">
      <g>
       <use xlink:href="#m7abea4a6de" x="182.105429" y="307.584" style="stroke: #000000; stroke-width: 0.8"/>
      </g>
     </g>
     <g id="text_3">
      <!-- 0.4 -->
      <g transform="translate(174.153866 322.182437) scale(0.1 -0.1)">
       <defs>
        <path id="DejaVuSans-34" d="M 2419 4116 
L 825 1625 
L 2419 1625 
L 2419 4116 
z
M 2253 4666 
L 3047 4666 
L 3047 1625 
L 3713 1625 
L 3713 1100 
L 3047 1100 
L 3047 0 
L 2419 0 
L 2419 1100 
L 313 1100 
L 313 1709 
L 2253 4666 
z
" transform="scale(0.015625)"/>
       </defs>
       <use xlink:href="#DejaVuSans-30"/>
       <use xlink:href="#DejaVuSans-2e" x="63.623047"/>
       <use xlink:href="#DejaVuSans-34" x="95.410156"/>
      </g>
     </g>
    </g>
    <g id="xtick_4">
     <g id="line2d_4">
      <g>
       <use xlink:href="#m7abea4a6de" x="233.86461" y="307.584" style="stroke: #000000; stroke-width: 0.8"/>
      </g>
     </g>
     <g id="text_4">
      <!-- 0.6 -->
      <g transform="translate(225.913047 322.182437) scale(0.1 -0.1)">
       <defs>
        <path id="DejaVuSans-36" d="M 2113 2584 
Q 1688 2584 1439 2293 
Q 1191 2003 1191 1497 
Q 1191 994 1439 701 
Q 1688 409 2113 409 
Q 2538 409 2786 701 
Q 3034 994 3034 1497 
Q 3034 2003 2786 2293 
Q 2538 2584 2113 2584 
z
M 3366 4563 
L 3366 3988 
Q 3128 4100 2886 4159 
Q 2644 4219 2406 4219 
Q 1781 4219 1451 3797 
Q 1122 3375 1075 2522 
Q 1259 2794 1537 2939 
Q 1816 3084 2150 3084 
Q 2853 3084 3261 2657 
Q 3669 2231 3669 1497 
Q 3669 778 3244 343 
Q 2819 -91 2113 -91 
Q 1303 -91 875 529 
Q 447 1150 447 2328 
Q 447 3434 972 4092 
Q 1497 4750 2381 4750 
Q 2619 4750 2861 4703 
Q 3103 4656 3366 4563 
z
" transform="scale(0.015625)"/>
       </defs>
       <use xlink:href="#DejaVuSans-30"/>
       <use xlink:href="#DejaVuSans-2e" x="63.623047"/>
       <use xlink:href="#DejaVuSans-36" x="95.410156"/>
      </g>
     </g>
    </g>
    <g id="xtick_5">
     <g id="line2d_5">
      <g>
       <use xlink:href="#m7abea4a6de" x="285.623791" y="307.584" style="stroke: #000000; stroke-width: 0.8"/>
      </g>
     </g>
     <g id="text_5">
      <!-- 0.8 -->
      <g transform="translate(277.672228 322.182437) scale(0.1 -0.1)">
       <defs>
        <path id="DejaVuSans-38" d="M 2034 2216 
Q 1584 2216 1326 1975 
Q 1069 1734 1069 1313 
Q 1069 891 1326 650 
Q 1584 409 2034 409 
Q 2484 409 2743 651 
Q 3003 894 3003 1313 
Q 3003 1734 2745 1975 
Q 2488 2216 2034 2216 
z
M 1403 2484 
Q 997 2584 770 2862 
Q 544 3141 544 3541 
Q 544 4100 942 4425 
Q 1341 4750 2034 4750 
Q 2731 4750 3128 4425 
Q 3525 4100 3525 3541 
Q 3525 3141 3298 2862 
Q 3072 2584 2669 2484 
Q 3125 2378 3379 2068 
Q 3634 1759 3634 1313 
Q 3634 634 3220 271 
Q 2806 -91 2034 -91 
Q 1263 -91 848 271 
Q 434 634 434 1313 
Q 434 1759 690 2068 
Q 947 2378 1403 2484 
z
M 1172 3481 
Q 1172 3119 1398 2916 
Q 1625 2713 2034 2713 
Q 2441 2713 2670 2916 
Q 2900 3119 2900 3481 
Q 2900 3844 2670 4047 
Q 2441 4250 2034 4250 
Q 1625 4250 1398 4047 
Q 1172 3844 1172 3481 
z
" transform="scale(0.015625)"/>
       </defs>
       <use xlink:href="#DejaVuSans-30"/>
       <use xlink:href="#DejaVuSans-2e" x="63.623047"/>
       <use xlink:href="#DejaVuSans-38" x="95.410156"/>
      </g>
     </g>
    </g>
    <g id="xtick_6">
     <g id="line2d_6">
      <g>
       <use xlink:href="#m7abea4a6de" x="337.382972" y="307.584" style="stroke: #000000; stroke-width: 0.8"/>
      </g>
     </g>
     <g id="text_6">
      <!-- 1.0 -->
      <g transform="translate(329.431409 322.182437) scale(0.1 -0.1)">
       <defs>
        <path id="DejaVuSans-31" d="M 794 531 
L 1825 531 
L 1825 4091 
L 703 3866 
L 703 4441 
L 1819 4666 
L 2450 4666 
L 2450 531 
L 3481 531 
L 3481 0 
L 794 0 
L 794 531 
z
" transform="scale(0.015625)"/>
       </defs>
       <use xlink:href="#DejaVuSans-31"/>
       <use xlink:href="#DejaVuSans-2e" x="63.623047"/>
       <use xlink:href="#DejaVuSans-30" x="95.410156"/>
      </g>
     </g>
    </g>
    <g id="xtick_7">
     <g id="line2d_7">
      <g>
       <use xlink:href="#m7abea4a6de" x="389.142153" y="307.584" style="stroke: #000000; stroke-width: 0.8"/>
      </g>
     </g>
     <g id="text_7">
      <!-- 1.2 -->
      <g transform="translate(381.19059 322.182437) scale(0.1 -0.1)">
       <use xlink:href="#DejaVuSans-31"/>
       <use xlink:href="#DejaVuSans-2e" x="63.623047"/>
       <use xlink:href="#DejaVuSans-32" x="95.410156"/>
      </g>
     </g>
    </g>
    <g id="text_8">
     <!-- Time (s) -->
     <g transform="translate(215.831094 335.860562) scale(0.1 -0.1)">
      <defs>
       <path id="DejaVuSans-54" d="M -19 4666 
L 3928 4666 
L 3928 4134 
L 2272 4134 
L 2272 0 
L 1638 0 
L 1638 4134 
L -19 4134 
L -19 4666 
z
" transform="scale(0.015625)"/>
       <path id="DejaVuSans-69" d="M 603 3500 
L 1178 3500 
L 1178 0 
L 603 0 
L 603 3500 
z
M 603 4863 
L 1178 4863 
L 1178 4134 
L 603 4134 
L 603 4863 
z
" transform="scale(0.015625)"/>
       <path id="DejaVuSans-6d" d="M 3328 2828 
Q 3544 3216 3844 3400 
Q 4144 3584 4550 3584 
Q 5097 3584 5394 3201 
Q 5691 2819 5691 2113 
L 5691 0 
L 5113 0 
L 5113 2094 
Q 5113 2597 4934 2840 
Q 4756 3084 4391 3084 
Q 3944 3084 3684 2787 
Q 3425 2491 3425 1978 
L 3425 0 
L 2847 0 
L 2847 2094 
Q 2847 2600 2669 2842 
Q 2491 3084 2119 3084 
Q 1678 3084 1418 2786 
Q 1159 2488 1159 1978 
L 1159 0 
L 581 0 
L 581 3500 
L 1159 3500 
L 1159 2956 
Q 1356 3278 1631 3431 
Q 1906 3584 2284 3584 
Q 2666 3584 2933 3390 
Q 3200 3197 3328 2828 
z
" transform="scale(0.015625)"/>
       <path id="DejaVuSans-65" d="M 3597 1894 
L 3597 1613 
L 953 1613 
Q 991 1019 1311 708 
Q 1631 397 2203 397 
Q 2534 397 2845 478 
Q 3156 559 3463 722 
L 3463 178 
Q 3153 47 2828 -22 
Q 2503 -91 2169 -91 
Q 1331 -91 842 396 
Q 353 884 353 1716 
Q 353 2575 817 3079 
Q 1281 3584 2069 3584 
Q 2775 3584 3186 3129 
Q 3597 2675 3597 1894 
z
M 3022 2063 
Q 3016 2534 2758 2815 
Q 2500 3097 2075 3097 
Q 1594 3097 1305 2825 
Q 1016 2553 972 2059 
L 3022 2063 
z
" transform="scale(0.015625)"/>
       <path id="DejaVuSans-20" transform="scale(0.015625)"/>
       <path id="DejaVuSans-28" d="M 1984 4856 
Q 1566 4138 1362 3434 
Q 1159 2731 1159 2009 
Q 1159 1288 1364 580 
Q 1569 -128 1984 -844 
L 1484 -844 
Q 1016 -109 783 600 
Q 550 1309 550 2009 
Q 550 2706 781 3412 
Q 1013 4119 1484 4856 
L 1984 4856 
z
" transform="scale(0.015625)"/>
       <path id="DejaVuSans-73" d="M 2834 3397 
L 2834 2853 
Q 2591 2978 2328 3040 
Q 2066 3103 1784 3103 
Q 1356 3103 1142 2972 
Q 928 2841 928 2578 
Q 928 2378 1081 2264 
Q 1234 2150 1697 2047 
L 1894 2003 
Q 2506 1872 2764 1633 
Q 3022 1394 3022 966 
Q 3022 478 2636 193 
Q 2250 -91 1575 -91 
Q 1294 -91 989 -36 
Q 684 19 347 128 
L 347 722 
Q 666 556 975 473 
Q 1284 391 1588 391 
Q 1994 391 2212 530 
Q 2431 669 2431 922 
Q 2431 1156 2273 1281 
Q 2116 1406 1581 1522 
L 1381 1569 
Q 847 1681 609 1914 
Q 372 2147 372 2553 
Q 372 3047 722 3315 
Q 1072 3584 1716 3584 
Q 2034 3584 2315 3537 
Q 2597 3491 2834 3397 
z
" transform="scale(0.015625)"/>
       <path id="DejaVuSans-29" d="M 513 4856 
L 1013 4856 
Q 1481 4119 1714 3412 
Q 1947 2706 1947 2009 
Q 1947 1309 1714 600 
Q 1481 -109 1013 -844 
L 513 -844 
Q 928 -128 1133 580 
Q 1338 1288 1338 2009 
Q 1338 2731 1133 3434 
Q 928 4138 513 4856 
z
" transform="scale(0.015625)"/>
      </defs>
      <use xlink:href="#DejaVuSans-54"/>
      <use xlink:href="#DejaVuSans-69" x="57.958984"/>
      <use xlink:href="#DejaVuSans-6d" x="85.742188"/>
      <use xlink:href="#DejaVuSans-65" x="183.154297"/>
      <use xlink:href="#DejaVuSans-20" x="244.677734"/>
      <use xlink:href="#DejaVuSans-28" x="276.464844"/>
      <use xlink:href="#DejaVuSans-73" x="315.478516"/>
      <use xlink:href="#DejaVuSans-29" x="367.578125"/>
     </g>
    </g>
   </g>
   <g id="matplotlib.axis_2">
    <g id="ytick_1">
     <g id="line2d_8">
      <defs>
       <path id="m016689ed98" d="M 0 0 
L -3.5 0 
" style="stroke: #000000; stroke-width: 0.8"/>
      </defs>
      <g>
       <use xlink:href="#m016689ed98" x="57.6" y="301.29408" style="stroke: #000000; stroke-width: 0.8"/>
      </g>
     </g>
     <g id="text_9">
      <!-- 0 -->
      <g transform="translate(44.2375 305.093299) scale(0.1 -0.1)">
       <use xlink:href="#DejaVuSans-30"/>
      </g>
     </g>
    </g>
    <g id="ytick_2">
     <g id="line2d_9">
      <g>
       <use xlink:href="#m016689ed98" x="57.6" y="262.58688" style="stroke: #000000; stroke-width: 0.8"/>
      </g>
     </g>
     <g id="text_10">
      <!-- 20 -->
      <g transform="translate(37.875 266.386099) scale(0.1 -0.1)">
       <use xlink:href="#DejaVuSans-32"/>
       <use xlink:href="#DejaVuSans-30" x="63.623047"/>
      </g>
     </g>
    </g>
    <g id="ytick_3">
     <g id="line2d_10">
      <g>
       <use xlink:href="#m016689ed98" x="57.6" y="223.87968" style="stroke: #000000; stroke-width: 0.8"/>
      </g>
     </g>
     <g id="text_11">
      <!-- 40 -->
      <g transform="translate(37.875 227.678899) scale(0.1 -0.1)">
       <use xlink:href="#DejaVuSans-34"/>
       <use xlink:href="#DejaVuSans-30" x="63.623047"/>
      </g>
     </g>
    </g>
    <g id="ytick_4">
     <g id="line2d_11">
      <g>
       <use xlink:href="#m016689ed98" x="57.6" y="185.17248" style="stroke: #000000; stroke-width: 0.8"/>
      </g>
     </g>
     <g id="text_12">
      <!-- 60 -->
      <g transform="translate(37.875 188.971699) scale(0.1 -0.1)">
       <use xlink:href="#DejaVuSans-36"/>
       <use xlink:href="#DejaVuSans-30" x="63.623047"/>
      </g>
     </g>
    </g>
    <g id="ytick_5">
     <g id="line2d_12">
      <g>
       <use xlink:href="#m016689ed98" x="57.6" y="146.46528" style="stroke: #000000; stroke-width: 0.8"/>
      </g>
     </g>
     <g id="text_13">
      <!-- 80 -->
      <g transform="translate(37.875 150.264499) scale(0.1 -0.1)">
       <use xlink:href="#DejaVuSans-38"/>
       <use xlink:href="#DejaVuSans-30" x="63.623047"/>
      </g>
     </g>
    </g>
    <g id="ytick_6">
     <g id="line2d_13">
      <g>
       <use xlink:href="#m016689ed98" x="57.6" y="107.75808" style="stroke: #000000; stroke-width: 0.8"/>
      </g>
     </g>
     <g id="text_14">
      <!-- 100 -->
      <g transform="translate(31.5125 111.557299) scale(0.1 -0.1)">
       <use xlink:href="#DejaVuSans-31"/>
       <use xlink:href="#DejaVuSans-30" x="63.623047"/>
       <use xlink:href="#DejaVuSans-30" x="127.246094"/>
      </g>
     </g>
    </g>
    <g id="ytick_7">
     <g id="line2d_14">
      <g>
       <use xlink:href="#m016689ed98" x="57.6" y="69.05088" style="stroke: #000000; stroke-width: 0.8"/>
      </g>
     </g>
     <g id="text_15">
      <!-- 120 -->
      <g transform="translate(31.5125 72.850099) scale(0.1 -0.1)">
       <use xlink:href="#DejaVuSans-31"/>
       <use xlink:href="#DejaVuSans-32" x="63.623047"/>
       <use xlink:href="#DejaVuSans-30" x="127.246094"/>
      </g>
     </g>
    </g>
    <g id="text_16">
     <!-- Trial -->
     <g transform="translate(25.432812 184.742063) rotate(-90) scale(0.1 -0.1)">
      <defs>
       <path id="DejaVuSans-72" d="M 2631 2963 
Q 2534 3019 2420 3045 
Q 2306 3072 2169 3072 
Q 1681 3072 1420 2755 
Q 1159 2438 1159 1844 
L 1159 0 
L 581 0 
L 581 3500 
L 1159 3500 
L 1159 2956 
Q 1341 3275 1631 3429 
Q 1922 3584 2338 3584 
Q 2397 3584 2469 3576 
Q 2541 3569 2628 3553 
L 2631 2963 
z
" transform="scale(0.015625)"/>
       <path id="DejaVuSans-61" d="M 2194 1759 
Q 1497 1759 1228 1600 
Q 959 1441 959 1056 
Q 959 750 1161 570 
Q 1363 391 1709 391 
Q 2188 391 2477 730 
Q 2766 1069 2766 1631 
L 2766 1759 
L 2194 1759 
z
M 3341 1997 
L 3341 0 
L 2766 0 
L 2766 531 
Q 2569 213 2275 61 
Q 1981 -91 1556 -91 
Q 1019 -91 701 211 
Q 384 513 384 1019 
Q 384 1609 779 1909 
Q 1175 2209 1959 2209 
L 2766 2209 
L 2766 2266 
Q 2766 2663 2505 2880 
Q 2244 3097 1772 3097 
Q 1472 3097 1187 3025 
Q 903 2953 641 2809 
L 641 3341 
Q 956 3463 1253 3523 
Q 1550 3584 1831 3584 
Q 2591 3584 2966 3190 
Q 3341 2797 3341 1997 
z
" transform="scale(0.015625)"/>
       <path id="DejaVuSans-6c" d="M 603 4863 
L 1178 4863 
L 1178 0 
L 603 0 
L 603 4863 
z
" transform="scale(0.015625)"/>
      </defs>
      <use xlink:href="#DejaVuSans-54"/>
      <use xlink:href="#DejaVuSans-72" x="46.333984"/>
      <use xlink:href="#DejaVuSans-69" x="87.447266"/>
      <use xlink:href="#DejaVuSans-61" x="115.230469"/>
      <use xlink:href="#DejaVuSans-6c" x="176.509766"/>
     </g>
    </g>
   </g>
   <g id="EventCollection_1"/>
   <g id="EventCollection_2"/>
   <g id="EventCollection_3"/>
   <g id="EventCollection_4">
    <path d="M 276.462157 292.58496 
L 276.462157 294.52032 
" clip-path="url(#p1bc2e12f1c)" style="fill: none; stroke: #000000; stroke-width: 0.5"/>
    <path d="M 298.080414 292.58496 
L 298.080414 294.52032 
" clip-path="url(#p1bc2e12f1c)" style="fill: none; stroke: #000000; stroke-width: 0.5"/>
   </g>
   <g id="EventCollection_5"/>
   <g id="EventCollection_6">
    <path d="M 180.499083 288.71424 
L 180.499083 290.6496 
" clip-path="url(#p1bc2e12f1c)" style="fill: none; stroke: #000000; stroke-width: 0.5"/>
    <path d="M 202.117081 288.71424 
L 202.117081 290.6496 
" clip-path="url(#p1bc2e12f1c)" style="fill: none; stroke: #000000; stroke-width: 0.5"/>
    <path d="M 203.506039 288.71424 
L 203.506039 290.6496 
" clip-path="url(#p1bc2e12f1c)" style="fill: none; stroke: #000000; stroke-width: 0.5"/>
   </g>
   <g id="EventCollection_7"/>
   <g id="EventCollection_8"/>
   <g id="EventCollection_9"/>
   <g id="EventCollection_10">
    <path d="M 176.258453 280.9728 
L 176.258453 282.90816 
" clip-path="url(#p1bc2e12f1c)" style="fill: none; stroke: #000000; stroke-width: 0.5"/>
    <path d="M 260.134206 280.9728 
L 260.134206 282.90816 
" clip-path="url(#p1bc2e12f1c)" style="fill: none; stroke: #000000; stroke-width: 0.5"/>
    <path d="M 289.386683 280.9728 
L 289.386683 282.90816 
" clip-path="url(#p1bc2e12f1c)" style="fill: none; stroke: #000000; stroke-width: 0.5"/>
   </g>
   <g id="EventCollection_11"/>
   <g id="EventCollection_12">
    <path d="M 93.546764 277.10208 
L 93.546764 279.03744 
" clip-path="url(#p1bc2e12f1c)" style="fill: none; stroke: #000000; stroke-width: 0.5"/>
    <path d="M 175.007175 277.10208 
L 175.007175 279.03744 
" clip-path="url(#p1bc2e12f1c)" style="fill: none; stroke: #000000; stroke-width: 0.5"/>
    <path d="M 175.429788 277.10208 
L 175.429788 279.03744 
" clip-path="url(#p1bc2e12f1c)" style="fill: none; stroke: #000000; stroke-width: 0.5"/>
   </g>
   <g id="EventCollection_13"/>
   <g id="EventCollection_14">
    <path d="M 259.632659 273.23136 
L 259.632659 275.16672 
" clip-path="url(#p1bc2e12f1c)" style="fill: none; stroke: #000000; stroke-width: 0.5"/>
    <path d="M 261.426891 273.23136 
L 261.426891 275.16672 
" clip-path="url(#p1bc2e12f1c)" style="fill: none; stroke: #000000; stroke-width: 0.5"/>
    <path d="M 302.885995 273.23136 
L 302.885995 275.16672 
" clip-path="url(#p1bc2e12f1c)" style="fill: none; stroke: #000000; stroke-width: 0.5"/>
    <path d="M 310.097861 273.23136 
L 310.097861 275.16672 
" clip-path="url(#p1bc2e12f1c)" style="fill: none; stroke: #000000; stroke-width: 0.5"/>
   </g>
   <g id="EventCollection_15"/>
   <g id="EventCollection_16">
    <path d="M 309.070441 269.36064 
L 309.070441 271.296 
" clip-path="url(#p1bc2e12f1c)" style="fill: none; stroke: #000000; stroke-width: 0.5"/>
    <path d="M 309.484514 269.36064 
L 309.484514 271.296 
" clip-path="url(#p1bc2e12f1c)" style="fill: none; stroke: #000000; stroke-width: 0.5"/>
   </g>
   <g id="EventCollection_17"/>
   <g id="EventCollection_18">
    <path d="M 175.172028 265.48992 
L 175.172028 267.42528 
" clip-path="url(#p1bc2e12f1c)" style="fill: none; stroke: #000000; stroke-width: 0.5"/>
    <path d="M 183.272339 265.48992 
L 183.272339 267.42528 
" clip-path="url(#p1bc2e12f1c)" style="fill: none; stroke: #000000; stroke-width: 0.5"/>
   </g>
   <g id="EventCollection_19"/>
   <g id="EventCollection_20"/>
   <g id="EventCollection_21"/>
   <g id="EventCollection_22">
    <path d="M 85.676004 257.74848 
L 85.676004 259.68384 
" clip-path="url(#p1bc2e12f1c)" style="fill: none; stroke: #000000; stroke-width: 0.5"/>
   </g>
   <g id="EventCollection_23"/>
   <g id="EventCollection_24">
    <path d="M 136.230231 253.87776 
L 136.230231 255.81312 
" clip-path="url(#p1bc2e12f1c)" style="fill: none; stroke: #000000; stroke-width: 0.5"/>
    <path d="M 152.042661 253.87776 
L 152.042661 255.81312 
" clip-path="url(#p1bc2e12f1c)" style="fill: none; stroke: #000000; stroke-width: 0.5"/>
    <path d="M 152.681111 253.87776 
L 152.681111 255.81312 
" clip-path="url(#p1bc2e12f1c)" style="fill: none; stroke: #000000; stroke-width: 0.5"/>
   </g>
   <g id="EventCollection_25"/>
   <g id="EventCollection_26">
    <path d="M 170.448485 250.00704 
L 170.448485 251.9424 
" clip-path="url(#p1bc2e12f1c)" style="fill: none; stroke: #000000; stroke-width: 0.5"/>
    <path d="M 256.955157 250.00704 
L 256.955157 251.9424 
" clip-path="url(#p1bc2e12f1c)" style="fill: none; stroke: #000000; stroke-width: 0.5"/>
   </g>
   <g id="EventCollection_27"/>
   <g id="EventCollection_28"/>
   <g id="EventCollection_29"/>
   <g id="EventCollection_30"/>
   <g id="EventCollection_31">
    <path d="M 157.597198 240.33024 
L 157.597198 242.2656 
" clip-path="url(#p1bc2e12f1c)" style="fill: none; stroke: #000000; stroke-width: 0.5"/>
   </g>
   <g id="EventCollection_32"/>
   <g id="EventCollection_33"/>
   <g id="EventCollection_34"/>
   <g id="EventCollection_35"/>
   <g id="EventCollection_36"/>
   <g id="EventCollection_37">
    <path d="M 182.751642 228.71808 
L 182.751642 230.65344 
" clip-path="url(#p1bc2e12f1c)" style="fill: none; stroke: #000000; stroke-width: 0.5"/>
    <path d="M 184.330297 228.71808 
L 184.330297 230.65344 
" clip-path="url(#p1bc2e12f1c)" style="fill: none; stroke: #000000; stroke-width: 0.5"/>
    <path d="M 308.862887 228.71808 
L 308.862887 230.65344 
" clip-path="url(#p1bc2e12f1c)" style="fill: none; stroke: #000000; stroke-width: 0.5"/>
   </g>
   <g id="EventCollection_38"/>
   <g id="EventCollection_39"/>
   <g id="EventCollection_40"/>
   <g id="EventCollection_41"/>
   <g id="EventCollection_42">
    <path d="M 73.832727 219.04128 
L 73.832727 220.97664 
" clip-path="url(#p1bc2e12f1c)" style="fill: none; stroke: #000000; stroke-width: 0.5"/>
    <path d="M 109.227467 219.04128 
L 109.227467 220.97664 
" clip-path="url(#p1bc2e12f1c)" style="fill: none; stroke: #000000; stroke-width: 0.5"/>
    <path d="M 121.64113 219.04128 
L 121.64113 220.97664 
" clip-path="url(#p1bc2e12f1c)" style="fill: none; stroke: #000000; stroke-width: 0.5"/>
    <path d="M 172.770402 219.04128 
L 172.770402 220.97664 
" clip-path="url(#p1bc2e12f1c)" style="fill: none; stroke: #000000; stroke-width: 0.5"/>
   </g>
   <g id="EventCollection_43"/>
   <g id="EventCollection_44"/>
   <g id="EventCollection_45"/>
   <g id="EventCollection_46"/>
   <g id="EventCollection_47">
    <path d="M 79.889069 209.36448 
L 79.889069 211.29984 
" clip-path="url(#p1bc2e12f1c)" style="fill: none; stroke: #000000; stroke-width: 0.5"/>
    <path d="M 80.424 209.36448 
L 80.424 211.29984 
" clip-path="url(#p1bc2e12f1c)" style="fill: none; stroke: #000000; stroke-width: 0.5"/>
    <path d="M 80.855413 209.36448 
L 80.855413 211.29984 
" clip-path="url(#p1bc2e12f1c)" style="fill: none; stroke: #000000; stroke-width: 0.5"/>
    <path d="M 88.455213 209.36448 
L 88.455213 211.29984 
" clip-path="url(#p1bc2e12f1c)" style="fill: none; stroke: #000000; stroke-width: 0.5"/>
    <path d="M 90.379102 209.36448 
L 90.379102 211.29984 
" clip-path="url(#p1bc2e12f1c)" style="fill: none; stroke: #000000; stroke-width: 0.5"/>
    <path d="M 100.498022 209.36448 
L 100.498022 211.29984 
" clip-path="url(#p1bc2e12f1c)" style="fill: none; stroke: #000000; stroke-width: 0.5"/>
   </g>
   <g id="EventCollection_48">
    <path d="M 80.646306 207.42912 
L 80.646306 209.36448 
" clip-path="url(#p1bc2e12f1c)" style="fill: none; stroke: #000000; stroke-width: 0.5"/>
   </g>
   <g id="EventCollection_49">
    <path d="M 84.280318 205.49376 
L 84.280318 207.42912 
" clip-path="url(#p1bc2e12f1c)" style="fill: none; stroke: #000000; stroke-width: 0.5"/>
   </g>
   <g id="EventCollection_50"/>
   <g id="EventCollection_51"/>
   <g id="EventCollection_52">
    <path d="M 185.875826 199.68768 
L 185.875826 201.62304 
" clip-path="url(#p1bc2e12f1c)" style="fill: none; stroke: #000000; stroke-width: 0.5"/>
   </g>
   <g id="EventCollection_53"/>
   <g id="EventCollection_54"/>
   <g id="EventCollection_55"/>
   <g id="EventCollection_56">
    <path d="M 172.899282 191.94624 
L 172.899282 193.8816 
" clip-path="url(#p1bc2e12f1c)" style="fill: none; stroke: #000000; stroke-width: 0.5"/>
    <path d="M 186.175512 191.94624 
L 186.175512 193.8816 
" clip-path="url(#p1bc2e12f1c)" style="fill: none; stroke: #000000; stroke-width: 0.5"/>
    <path d="M 186.891341 191.94624 
L 186.891341 193.8816 
" clip-path="url(#p1bc2e12f1c)" style="fill: none; stroke: #000000; stroke-width: 0.5"/>
   </g>
   <g id="EventCollection_57"/>
   <g id="EventCollection_58"/>
   <g id="EventCollection_59"/>
   <g id="EventCollection_60"/>
   <g id="EventCollection_61"/>
   <g id="EventCollection_62"/>
   <g id="EventCollection_63"/>
   <g id="EventCollection_64"/>
   <g id="EventCollection_65">
    <path d="M 143.94649 174.528 
L 143.94649 176.46336 
" clip-path="url(#p1bc2e12f1c)" style="fill: none; stroke: #000000; stroke-width: 0.5"/>
   </g>
   <g id="EventCollection_66">
    <path d="M 161.605946 172.59264 
L 161.605946 174.528 
" clip-path="url(#p1bc2e12f1c)" style="fill: none; stroke: #000000; stroke-width: 0.5"/>
   </g>
   <g id="EventCollection_67">
    <path d="M 203.71851 170.65728 
L 203.71851 172.59264 
" clip-path="url(#p1bc2e12f1c)" style="fill: none; stroke: #000000; stroke-width: 0.5"/>
    <path d="M 204.175802 170.65728 
L 204.175802 172.59264 
" clip-path="url(#p1bc2e12f1c)" style="fill: none; stroke: #000000; stroke-width: 0.5"/>
    <path d="M 310.575339 170.65728 
L 310.575339 172.59264 
" clip-path="url(#p1bc2e12f1c)" style="fill: none; stroke: #000000; stroke-width: 0.5"/>
    <path d="M 312.481888 170.65728 
L 312.481888 172.59264 
" clip-path="url(#p1bc2e12f1c)" style="fill: none; stroke: #000000; stroke-width: 0.5"/>
   </g>
   <g id="EventCollection_68">
    <path d="M 255.935242 168.72192 
L 255.935242 170.65728 
" clip-path="url(#p1bc2e12f1c)" style="fill: none; stroke: #000000; stroke-width: 0.5"/>
    <path d="M 257.591536 168.72192 
L 257.591536 170.65728 
" clip-path="url(#p1bc2e12f1c)" style="fill: none; stroke: #000000; stroke-width: 0.5"/>
   </g>
   <g id="EventCollection_69"/>
   <g id="EventCollection_70"/>
   <g id="EventCollection_71"/>
   <g id="EventCollection_72"/>
   <g id="EventCollection_73"/>
   <g id="EventCollection_74">
    <path d="M 398.487273 157.10976 
L 398.487273 159.04512 
" clip-path="url(#p1bc2e12f1c)" style="fill: none; stroke: #000000; stroke-width: 0.5"/>
   </g>
   <g id="EventCollection_75">
    <path d="M 178.468829 155.1744 
L 178.468829 157.10976 
" clip-path="url(#p1bc2e12f1c)" style="fill: none; stroke: #000000; stroke-width: 0.5"/>
    <path d="M 234.308445 155.1744 
L 234.308445 157.10976 
" clip-path="url(#p1bc2e12f1c)" style="fill: none; stroke: #000000; stroke-width: 0.5"/>
    <path d="M 234.731058 155.1744 
L 234.731058 157.10976 
" clip-path="url(#p1bc2e12f1c)" style="fill: none; stroke: #000000; stroke-width: 0.5"/>
   </g>
   <g id="EventCollection_76"/>
   <g id="EventCollection_77">
    <path d="M 258.856271 151.30368 
L 258.856271 153.23904 
" clip-path="url(#p1bc2e12f1c)" style="fill: none; stroke: #000000; stroke-width: 0.5"/>
    <path d="M 260.504025 151.30368 
L 260.504025 153.23904 
" clip-path="url(#p1bc2e12f1c)" style="fill: none; stroke: #000000; stroke-width: 0.5"/>
    <path d="M 264.765617 151.30368 
L 264.765617 153.23904 
" clip-path="url(#p1bc2e12f1c)" style="fill: none; stroke: #000000; stroke-width: 0.5"/>
    <path d="M 265.990498 151.30368 
L 265.990498 153.23904 
" clip-path="url(#p1bc2e12f1c)" style="fill: none; stroke: #000000; stroke-width: 0.5"/>
    <path d="M 266.861864 151.30368 
L 266.861864 153.23904 
" clip-path="url(#p1bc2e12f1c)" style="fill: none; stroke: #000000; stroke-width: 0.5"/>
    <path d="M 267.508854 151.30368 
L 267.508854 153.23904 
" clip-path="url(#p1bc2e12f1c)" style="fill: none; stroke: #000000; stroke-width: 0.5"/>
    <path d="M 281.872026 151.30368 
L 281.872026 153.23904 
" clip-path="url(#p1bc2e12f1c)" style="fill: none; stroke: #000000; stroke-width: 0.5"/>
    <path d="M 283.329824 151.30368 
L 283.329824 153.23904 
" clip-path="url(#p1bc2e12f1c)" style="fill: none; stroke: #000000; stroke-width: 0.5"/>
    <path d="M 292.784415 151.30368 
L 292.784415 153.23904 
" clip-path="url(#p1bc2e12f1c)" style="fill: none; stroke: #000000; stroke-width: 0.5"/>
    <path d="M 314.255934 151.30368 
L 314.255934 153.23904 
" clip-path="url(#p1bc2e12f1c)" style="fill: none; stroke: #000000; stroke-width: 0.5"/>
   </g>
   <g id="EventCollection_78"/>
   <g id="EventCollection_79"/>
   <g id="EventCollection_80"/>
   <g id="EventCollection_81">
    <path d="M 152.726918 143.56224 
L 152.726918 145.4976 
" clip-path="url(#p1bc2e12f1c)" style="fill: none; stroke: #000000; stroke-width: 0.5"/>
    <path d="M 168.340851 143.56224 
L 168.340851 145.4976 
" clip-path="url(#p1bc2e12f1c)" style="fill: none; stroke: #000000; stroke-width: 0.5"/>
    <path d="M 202.234574 143.56224 
L 202.234574 145.4976 
" clip-path="url(#p1bc2e12f1c)" style="fill: none; stroke: #000000; stroke-width: 0.5"/>
    <path d="M 301.353406 143.56224 
L 301.353406 145.4976 
" clip-path="url(#p1bc2e12f1c)" style="fill: none; stroke: #000000; stroke-width: 0.5"/>
    <path d="M 310.368044 143.56224 
L 310.368044 145.4976 
" clip-path="url(#p1bc2e12f1c)" style="fill: none; stroke: #000000; stroke-width: 0.5"/>
    <path d="M 311.498205 143.56224 
L 311.498205 145.4976 
" clip-path="url(#p1bc2e12f1c)" style="fill: none; stroke: #000000; stroke-width: 0.5"/>
   </g>
   <g id="EventCollection_82">
    <path d="M 394.074803 141.62688 
L 394.074803 143.56224 
" clip-path="url(#p1bc2e12f1c)" style="fill: none; stroke: #000000; stroke-width: 0.5"/>
   </g>
   <g id="EventCollection_83">
    <path d="M 85.689979 139.69152 
L 85.689979 141.62688 
" clip-path="url(#p1bc2e12f1c)" style="fill: none; stroke: #000000; stroke-width: 0.5"/>
    <path d="M 117.633934 139.69152 
L 117.633934 141.62688 
" clip-path="url(#p1bc2e12f1c)" style="fill: none; stroke: #000000; stroke-width: 0.5"/>
   </g>
   <g id="EventCollection_84"/>
   <g id="EventCollection_85"/>
   <g id="EventCollection_86"/>
   <g id="EventCollection_87"/>
   <g id="EventCollection_88"/>
   <g id="EventCollection_89">
    <path d="M 88.475658 128.07936 
L 88.475658 130.01472 
" clip-path="url(#p1bc2e12f1c)" style="fill: none; stroke: #000000; stroke-width: 0.5"/>
    <path d="M 260.359358 128.07936 
L 260.359358 130.01472 
" clip-path="url(#p1bc2e12f1c)" style="fill: none; stroke: #000000; stroke-width: 0.5"/>
   </g>
   <g id="EventCollection_90"/>
   <g id="EventCollection_91"/>
   <g id="EventCollection_92"/>
   <g id="EventCollection_93"/>
   <g id="EventCollection_94"/>
   <g id="EventCollection_95"/>
   <g id="EventCollection_96">
    <path d="M 249.213795 114.53184 
L 249.213795 116.4672 
" clip-path="url(#p1bc2e12f1c)" style="fill: none; stroke: #000000; stroke-width: 0.5"/>
    <path d="M 253.803023 114.53184 
L 253.803023 116.4672 
" clip-path="url(#p1bc2e12f1c)" style="fill: none; stroke: #000000; stroke-width: 0.5"/>
    <path d="M 272.186331 114.53184 
L 272.186331 116.4672 
" clip-path="url(#p1bc2e12f1c)" style="fill: none; stroke: #000000; stroke-width: 0.5"/>
    <path d="M 273.195635 114.53184 
L 273.195635 116.4672 
" clip-path="url(#p1bc2e12f1c)" style="fill: none; stroke: #000000; stroke-width: 0.5"/>
    <path d="M 287.757045 114.53184 
L 287.757045 116.4672 
" clip-path="url(#p1bc2e12f1c)" style="fill: none; stroke: #000000; stroke-width: 0.5"/>
   </g>
   <g id="EventCollection_97"/>
   <g id="EventCollection_98"/>
   <g id="EventCollection_99"/>
   <g id="EventCollection_100">
    <path d="M 166.881501 106.7904 
L 166.881501 108.72576 
" clip-path="url(#p1bc2e12f1c)" style="fill: none; stroke: #000000; stroke-width: 0.5"/>
    <path d="M 217.079366 106.7904 
L 217.079366 108.72576 
" clip-path="url(#p1bc2e12f1c)" style="fill: none; stroke: #000000; stroke-width: 0.5"/>
    <path d="M 233.159132 106.7904 
L 233.159132 108.72576 
" clip-path="url(#p1bc2e12f1c)" style="fill: none; stroke: #000000; stroke-width: 0.5"/>
    <path d="M 234.125217 106.7904 
L 234.125217 108.72576 
" clip-path="url(#p1bc2e12f1c)" style="fill: none; stroke: #000000; stroke-width: 0.5"/>
    <path d="M 234.677488 106.7904 
L 234.677488 108.72576 
" clip-path="url(#p1bc2e12f1c)" style="fill: none; stroke: #000000; stroke-width: 0.5"/>
   </g>
   <g id="EventCollection_101"/>
   <g id="EventCollection_102"/>
   <g id="EventCollection_103"/>
   <g id="EventCollection_104">
    <path d="M 141.082396 99.04896 
L 141.082396 100.98432 
" clip-path="url(#p1bc2e12f1c)" style="fill: none; stroke: #000000; stroke-width: 0.5"/>
   </g>
   <g id="EventCollection_105">
    <path d="M 133.980777 97.1136 
L 133.980777 99.04896 
" clip-path="url(#p1bc2e12f1c)" style="fill: none; stroke: #000000; stroke-width: 0.5"/>
    <path d="M 234.712684 97.1136 
L 234.712684 99.04896 
" clip-path="url(#p1bc2e12f1c)" style="fill: none; stroke: #000000; stroke-width: 0.5"/>
   </g>
   <g id="EventCollection_106"/>
   <g id="EventCollection_107">
    <path d="M 213.581739 93.24288 
L 213.581739 95.17824 
" clip-path="url(#p1bc2e12f1c)" style="fill: none; stroke: #000000; stroke-width: 0.5"/>
    <path d="M 234.38039 93.24288 
L 234.38039 95.17824 
" clip-path="url(#p1bc2e12f1c)" style="fill: none; stroke: #000000; stroke-width: 0.5"/>
   </g>
   <g id="EventCollection_108"/>
   <g id="EventCollection_109">
    <path d="M 127.690743 89.37216 
L 127.690743 91.30752 
" clip-path="url(#p1bc2e12f1c)" style="fill: none; stroke: #000000; stroke-width: 0.5"/>
    <path d="M 128.700047 89.37216 
L 128.700047 91.30752 
" clip-path="url(#p1bc2e12f1c)" style="fill: none; stroke: #000000; stroke-width: 0.5"/>
    <path d="M 182.93487 89.37216 
L 182.93487 91.30752 
" clip-path="url(#p1bc2e12f1c)" style="fill: none; stroke: #000000; stroke-width: 0.5"/>
   </g>
   <g id="EventCollection_110"/>
   <g id="EventCollection_111"/>
   <g id="EventCollection_112"/>
   <g id="EventCollection_113">
    <path d="M 186.869603 81.63072 
L 186.869603 83.56608 
" clip-path="url(#p1bc2e12f1c)" style="fill: none; stroke: #000000; stroke-width: 0.5"/>
    <path d="M 196.384752 81.63072 
L 196.384752 83.56608 
" clip-path="url(#p1bc2e12f1c)" style="fill: none; stroke: #000000; stroke-width: 0.5"/>
    <path d="M 219.089693 81.63072 
L 219.089693 83.56608 
" clip-path="url(#p1bc2e12f1c)" style="fill: none; stroke: #000000; stroke-width: 0.5"/>
   </g>
   <g id="EventCollection_114"/>
   <g id="EventCollection_115"/>
   <g id="EventCollection_116"/>
   <g id="EventCollection_117"/>
   <g id="EventCollection_118"/>
   <g id="EventCollection_119"/>
   <g id="EventCollection_120">
    <path d="M 135.981529 68.0832 
L 135.981529 70.01856 
" clip-path="url(#p1bc2e12f1c)" style="fill: none; stroke: #000000; stroke-width: 0.5"/>
   </g>
   <g id="EventCollection_121"/>
   <g id="EventCollection_122"/>
   <g id="EventCollection_123"/>
   <g id="EventCollection_124">
    <path d="M 234.546796 60.34176 
L 234.546796 62.27712 
" clip-path="url(#p1bc2e12f1c)" style="fill: none; stroke: #000000; stroke-width: 0.5"/>
   </g>
   <g id="EventCollection_125"/>
   <g id="EventCollection_126"/>
   <g id="EventCollection_127">
    <path d="M 231.185813 54.53568 
L 231.185813 56.47104 
" clip-path="url(#p1bc2e12f1c)" style="fill: none; stroke: #000000; stroke-width: 0.5"/>
   </g>
   <g id="patch_3">
    <path d="M 57.6 307.584 
L 57.6 41.472 
" style="fill: none; stroke: #000000; stroke-width: 0.8; stroke-linejoin: miter; stroke-linecap: square"/>
   </g>
   <g id="patch_4">
    <path d="M 414.72 307.584 
L 414.72 41.472 
" style="fill: none; stroke: #000000; stroke-width: 0.8; stroke-linejoin: miter; stroke-linecap: square"/>
   </g>
   <g id="patch_5">
    <path d="M 57.6 307.584 
L 414.72 307.584 
" style="fill: none; stroke: #000000; stroke-width: 0.8; stroke-linejoin: miter; stroke-linecap: square"/>
   </g>
   <g id="patch_6">
    <path d="M 57.6 41.472 
L 414.72 41.472 
" style="fill: none; stroke: #000000; stroke-width: 0.8; stroke-linejoin: miter; stroke-linecap: square"/>
   </g>
   <g id="text_17">
    <!-- Raster Plot - Cluster 279 -->
    <g transform="translate(162.964687 35.472) scale(0.12 -0.12)">
     <defs>
      <path id="DejaVuSans-52" d="M 2841 2188 
Q 3044 2119 3236 1894 
Q 3428 1669 3622 1275 
L 4263 0 
L 3584 0 
L 2988 1197 
Q 2756 1666 2539 1819 
Q 2322 1972 1947 1972 
L 1259 1972 
L 1259 0 
L 628 0 
L 628 4666 
L 2053 4666 
Q 2853 4666 3247 4331 
Q 3641 3997 3641 3322 
Q 3641 2881 3436 2590 
Q 3231 2300 2841 2188 
z
M 1259 4147 
L 1259 2491 
L 2053 2491 
Q 2509 2491 2742 2702 
Q 2975 2913 2975 3322 
Q 2975 3731 2742 3939 
Q 2509 4147 2053 4147 
L 1259 4147 
z
" transform="scale(0.015625)"/>
      <path id="DejaVuSans-74" d="M 1172 4494 
L 1172 3500 
L 2356 3500 
L 2356 3053 
L 1172 3053 
L 1172 1153 
Q 1172 725 1289 603 
Q 1406 481 1766 481 
L 2356 481 
L 2356 0 
L 1766 0 
Q 1100 0 847 248 
Q 594 497 594 1153 
L 594 3053 
L 172 3053 
L 172 3500 
L 594 3500 
L 594 4494 
L 1172 4494 
z
" transform="scale(0.015625)"/>
      <path id="DejaVuSans-50" d="M 1259 4147 
L 1259 2394 
L 2053 2394 
Q 2494 2394 2734 2622 
Q 2975 2850 2975 3272 
Q 2975 3691 2734 3919 
Q 2494 4147 2053 4147 
L 1259 4147 
z
M 628 4666 
L 2053 4666 
Q 2838 4666 3239 4311 
Q 3641 3956 3641 3272 
Q 3641 2581 3239 2228 
Q 2838 1875 2053 1875 
L 1259 1875 
L 1259 0 
L 628 0 
L 628 4666 
z
" transform="scale(0.015625)"/>
      <path id="DejaVuSans-6f" d="M 1959 3097 
Q 1497 3097 1228 2736 
Q 959 2375 959 1747 
Q 959 1119 1226 758 
Q 1494 397 1959 397 
Q 2419 397 2687 759 
Q 2956 1122 2956 1747 
Q 2956 2369 2687 2733 
Q 2419 3097 1959 3097 
z
M 1959 3584 
Q 2709 3584 3137 3096 
Q 3566 2609 3566 1747 
Q 3566 888 3137 398 
Q 2709 -91 1959 -91 
Q 1206 -91 779 398 
Q 353 888 353 1747 
Q 353 2609 779 3096 
Q 1206 3584 1959 3584 
z
" transform="scale(0.015625)"/>
      <path id="DejaVuSans-2d" d="M 313 2009 
L 1997 2009 
L 1997 1497 
L 313 1497 
L 313 2009 
z
" transform="scale(0.015625)"/>
      <path id="DejaVuSans-43" d="M 4122 4306 
L 4122 3641 
Q 3803 3938 3442 4084 
Q 3081 4231 2675 4231 
Q 1875 4231 1450 3742 
Q 1025 3253 1025 2328 
Q 1025 1406 1450 917 
Q 1875 428 2675 428 
Q 3081 428 3442 575 
Q 3803 722 4122 1019 
L 4122 359 
Q 3791 134 3420 21 
Q 3050 -91 2638 -91 
Q 1578 -91 968 557 
Q 359 1206 359 2328 
Q 359 3453 968 4101 
Q 1578 4750 2638 4750 
Q 3056 4750 3426 4639 
Q 3797 4528 4122 4306 
z
" transform="scale(0.015625)"/>
      <path id="DejaVuSans-75" d="M 544 1381 
L 544 3500 
L 1119 3500 
L 1119 1403 
Q 1119 906 1312 657 
Q 1506 409 1894 409 
Q 2359 409 2629 706 
Q 2900 1003 2900 1516 
L 2900 3500 
L 3475 3500 
L 3475 0 
L 2900 0 
L 2900 538 
Q 2691 219 2414 64 
Q 2138 -91 1772 -91 
Q 1169 -91 856 284 
Q 544 659 544 1381 
z
M 1991 3584 
L 1991 3584 
z
" transform="scale(0.015625)"/>
      <path id="DejaVuSans-37" d="M 525 4666 
L 3525 4666 
L 3525 4397 
L 1831 0 
L 1172 0 
L 2766 4134 
L 525 4134 
L 525 4666 
z
" transform="scale(0.015625)"/>
      <path id="DejaVuSans-39" d="M 703 97 
L 703 672 
Q 941 559 1184 500 
Q 1428 441 1663 441 
Q 2288 441 2617 861 
Q 2947 1281 2994 2138 
Q 2813 1869 2534 1725 
Q 2256 1581 1919 1581 
Q 1219 1581 811 2004 
Q 403 2428 403 3163 
Q 403 3881 828 4315 
Q 1253 4750 1959 4750 
Q 2769 4750 3195 4129 
Q 3622 3509 3622 2328 
Q 3622 1225 3098 567 
Q 2575 -91 1691 -91 
Q 1453 -91 1209 -44 
Q 966 3 703 97 
z
M 1959 2075 
Q 2384 2075 2632 2365 
Q 2881 2656 2881 3163 
Q 2881 3666 2632 3958 
Q 2384 4250 1959 4250 
Q 1534 4250 1286 3958 
Q 1038 3666 1038 3163 
Q 1038 2656 1286 2365 
Q 1534 2075 1959 2075 
z
" transform="scale(0.015625)"/>
     </defs>
     <use xlink:href="#DejaVuSans-52"/>
     <use xlink:href="#DejaVuSans-61" x="67.232422"/>
     <use xlink:href="#DejaVuSans-73" x="128.511719"/>
     <use xlink:href="#DejaVuSans-74" x="180.611328"/>
     <use xlink:href="#DejaVuSans-65" x="219.820312"/>
     <use xlink:href="#DejaVuSans-72" x="281.34375"/>
     <use xlink:href="#DejaVuSans-20" x="322.457031"/>
     <use xlink:href="#DejaVuSans-50" x="354.244141"/>
     <use xlink:href="#DejaVuSans-6c" x="414.546875"/>
     <use xlink:href="#DejaVuSans-6f" x="442.330078"/>
     <use xlink:href="#DejaVuSans-74" x="503.511719"/>
     <use xlink:href="#DejaVuSans-20" x="542.720703"/>
     <use xlink:href="#DejaVuSans-2d" x="574.507812"/>
     <use xlink:href="#DejaVuSans-20" x="610.591797"/>
     <use xlink:href="#DejaVuSans-43" x="642.378906"/>
     <use xlink:href="#DejaVuSans-6c" x="712.203125"/>
     <use xlink:href="#DejaVuSans-75" x="739.986328"/>
     <use xlink:href="#DejaVuSans-73" x="803.365234"/>
     <use xlink:href="#DejaVuSans-74" x="855.464844"/>
     <use xlink:href="#DejaVuSans-65" x="894.673828"/>
     <use xlink:href="#DejaVuSans-72" x="956.197266"/>
     <use xlink:href="#DejaVuSans-20" x="997.310547"/>
     <use xlink:href="#DejaVuSans-32" x="1029.097656"/>
     <use xlink:href="#DejaVuSans-37" x="1092.720703"/>
     <use xlink:href="#DejaVuSans-39" x="1156.34375"/>
    </g>
   </g>
  </g>
 </g>
 <defs>
  <clipPath id="p1bc2e12f1c">
   <rect x="57.6" y="41.472" width="357.12" height="266.112"/>
  </clipPath>
 </defs>
</svg>
