<?xml version="1.0" encoding="utf-8" standalone="no"?>
<!DOCTYPE svg PUBLIC "-//W3C//DTD SVG 1.1//EN"
  "http://www.w3.org/Graphics/SVG/1.1/DTD/svg11.dtd">
<svg xmlns:xlink="http://www.w3.org/1999/xlink" width="460.8pt" height="345.6pt" viewBox="0 0 460.8 345.6" xmlns="http://www.w3.org/2000/svg" version="1.1">
 <metadata>
  <rdf:RDF xmlns:dc="http://purl.org/dc/elements/1.1/" xmlns:cc="http://creativecommons.org/ns#" xmlns:rdf="http://www.w3.org/1999/02/22-rdf-syntax-ns#">
   <cc:Work>
    <dc:type rdf:resource="http://purl.org/dc/dcmitype/StillImage"/>
    <dc:date>2024-03-26T13:53:45.103102</dc:date>
    <dc:format>image/svg+xml</dc:format>
    <dc:creator>
     <cc:Agent>
      <dc:title>Matplotlib v3.8.0, https://matplotlib.org/</dc:title>
     </cc:Agent>
    </dc:creator>
   </cc:Work>
  </rdf:RDF>
 </metadata>
 <defs>
  <style type="text/css">*{stroke-linejoin: round; stroke-linecap: butt}</style>
 </defs>
 <g id="figure_1">
  <g id="patch_1">
   <path d="M 0 345.6 
L 460.8 345.6 
L 460.8 0 
L 0 0 
z
" style="fill: #ffffff"/>
  </g>
  <g id="axes_1">
   <g id="patch_2">
    <path d="M 57.6 307.584 
L 414.72 307.584 
L 414.72 41.472 
L 57.6 41.472 
z
" style="fill: #ffffff"/>
   </g>
   <g id="matplotlib.axis_1">
    <g id="xtick_1">
     <g id="line2d_1">
      <defs>
       <path id="mfc970fecc4" d="M 0 0 
L 0 3.5 
" style="stroke: #000000; stroke-width: 0.8"/>
      </defs>
      <g>
       <use xlink:href="#mfc970fecc4" x="66.373944" y="307.584" style="stroke: #000000; stroke-width: 0.8"/>
      </g>
     </g>
     <g id="text_1">
      <!-- 0.0 -->
      <g transform="translate(58.422382 322.182437) scale(0.1 -0.1)">
       <defs>
        <path id="DejaVuSans-30" d="M 2034 4250 
Q 1547 4250 1301 3770 
Q 1056 3291 1056 2328 
Q 1056 1369 1301 889 
Q 1547 409 2034 409 
Q 2525 409 2770 889 
Q 3016 1369 3016 2328 
Q 3016 3291 2770 3770 
Q 2525 4250 2034 4250 
z
M 2034 4750 
Q 2819 4750 3233 4129 
Q 3647 3509 3647 2328 
Q 3647 1150 3233 529 
Q 2819 -91 2034 -91 
Q 1250 -91 836 529 
Q 422 1150 422 2328 
Q 422 3509 836 4129 
Q 1250 4750 2034 4750 
z
" transform="scale(0.015625)"/>
        <path id="DejaVuSans-2e" d="M 684 794 
L 1344 794 
L 1344 0 
L 684 0 
L 684 794 
z
" transform="scale(0.015625)"/>
       </defs>
       <use xlink:href="#DejaVuSans-30"/>
       <use xlink:href="#DejaVuSans-2e" x="63.623047"/>
       <use xlink:href="#DejaVuSans-30" x="95.410156"/>
      </g>
     </g>
    </g>
    <g id="xtick_2">
     <g id="line2d_2">
      <g>
       <use xlink:href="#mfc970fecc4" x="107.41151" y="307.584" style="stroke: #000000; stroke-width: 0.8"/>
      </g>
     </g>
     <g id="text_2">
      <!-- 0.2 -->
      <g transform="translate(99.459948 322.182437) scale(0.1 -0.1)">
       <defs>
        <path id="DejaVuSans-32" d="M 1228 531 
L 3431 531 
L 3431 0 
L 469 0 
L 469 531 
Q 828 903 1448 1529 
Q 2069 2156 2228 2338 
Q 2531 2678 2651 2914 
Q 2772 3150 2772 3378 
Q 2772 3750 2511 3984 
Q 2250 4219 1831 4219 
Q 1534 4219 1204 4116 
Q 875 4013 500 3803 
L 500 4441 
Q 881 4594 1212 4672 
Q 1544 4750 1819 4750 
Q 2544 4750 2975 4387 
Q 3406 4025 3406 3419 
Q 3406 3131 3298 2873 
Q 3191 2616 2906 2266 
Q 2828 2175 2409 1742 
Q 1991 1309 1228 531 
z
" transform="scale(0.015625)"/>
       </defs>
       <use xlink:href="#DejaVuSans-30"/>
       <use xlink:href="#DejaVuSans-2e" x="63.623047"/>
       <use xlink:href="#DejaVuSans-32" x="95.410156"/>
      </g>
     </g>
    </g>
    <g id="xtick_3">
     <g id="line2d_3">
      <g>
       <use xlink:href="#mfc970fecc4" x="148.449076" y="307.584" style="stroke: #000000; stroke-width: 0.8"/>
      </g>
     </g>
     <g id="text_3">
      <!-- 0.4 -->
      <g transform="translate(140.497514 322.182437) scale(0.1 -0.1)">
       <defs>
        <path id="DejaVuSans-34" d="M 2419 4116 
L 825 1625 
L 2419 1625 
L 2419 4116 
z
M 2253 4666 
L 3047 4666 
L 3047 1625 
L 3713 1625 
L 3713 1100 
L 3047 1100 
L 3047 0 
L 2419 0 
L 2419 1100 
L 313 1100 
L 313 1709 
L 2253 4666 
z
" transform="scale(0.015625)"/>
       </defs>
       <use xlink:href="#DejaVuSans-30"/>
       <use xlink:href="#DejaVuSans-2e" x="63.623047"/>
       <use xlink:href="#DejaVuSans-34" x="95.410156"/>
      </g>
     </g>
    </g>
    <g id="xtick_4">
     <g id="line2d_4">
      <g>
       <use xlink:href="#mfc970fecc4" x="189.486642" y="307.584" style="stroke: #000000; stroke-width: 0.8"/>
      </g>
     </g>
     <g id="text_4">
      <!-- 0.6 -->
      <g transform="translate(181.53508 322.182437) scale(0.1 -0.1)">
       <defs>
        <path id="DejaVuSans-36" d="M 2113 2584 
Q 1688 2584 1439 2293 
Q 1191 2003 1191 1497 
Q 1191 994 1439 701 
Q 1688 409 2113 409 
Q 2538 409 2786 701 
Q 3034 994 3034 1497 
Q 3034 2003 2786 2293 
Q 2538 2584 2113 2584 
z
M 3366 4563 
L 3366 3988 
Q 3128 4100 2886 4159 
Q 2644 4219 2406 4219 
Q 1781 4219 1451 3797 
Q 1122 3375 1075 2522 
Q 1259 2794 1537 2939 
Q 1816 3084 2150 3084 
Q 2853 3084 3261 2657 
Q 3669 2231 3669 1497 
Q 3669 778 3244 343 
Q 2819 -91 2113 -91 
Q 1303 -91 875 529 
Q 447 1150 447 2328 
Q 447 3434 972 4092 
Q 1497 4750 2381 4750 
Q 2619 4750 2861 4703 
Q 3103 4656 3366 4563 
z
" transform="scale(0.015625)"/>
       </defs>
       <use xlink:href="#DejaVuSans-30"/>
       <use xlink:href="#DejaVuSans-2e" x="63.623047"/>
       <use xlink:href="#DejaVuSans-36" x="95.410156"/>
      </g>
     </g>
    </g>
    <g id="xtick_5">
     <g id="line2d_5">
      <g>
       <use xlink:href="#mfc970fecc4" x="230.524208" y="307.584" style="stroke: #000000; stroke-width: 0.8"/>
      </g>
     </g>
     <g id="text_5">
      <!-- 0.8 -->
      <g transform="translate(222.572646 322.182437) scale(0.1 -0.1)">
       <defs>
        <path id="DejaVuSans-38" d="M 2034 2216 
Q 1584 2216 1326 1975 
Q 1069 1734 1069 1313 
Q 1069 891 1326 650 
Q 1584 409 2034 409 
Q 2484 409 2743 651 
Q 3003 894 3003 1313 
Q 3003 1734 2745 1975 
Q 2488 2216 2034 2216 
z
M 1403 2484 
Q 997 2584 770 2862 
Q 544 3141 544 3541 
Q 544 4100 942 4425 
Q 1341 4750 2034 4750 
Q 2731 4750 3128 4425 
Q 3525 4100 3525 3541 
Q 3525 3141 3298 2862 
Q 3072 2584 2669 2484 
Q 3125 2378 3379 2068 
Q 3634 1759 3634 1313 
Q 3634 634 3220 271 
Q 2806 -91 2034 -91 
Q 1263 -91 848 271 
Q 434 634 434 1313 
Q 434 1759 690 2068 
Q 947 2378 1403 2484 
z
M 1172 3481 
Q 1172 3119 1398 2916 
Q 1625 2713 2034 2713 
Q 2441 2713 2670 2916 
Q 2900 3119 2900 3481 
Q 2900 3844 2670 4047 
Q 2441 4250 2034 4250 
Q 1625 4250 1398 4047 
Q 1172 3844 1172 3481 
z
" transform="scale(0.015625)"/>
       </defs>
       <use xlink:href="#DejaVuSans-30"/>
       <use xlink:href="#DejaVuSans-2e" x="63.623047"/>
       <use xlink:href="#DejaVuSans-38" x="95.410156"/>
      </g>
     </g>
    </g>
    <g id="xtick_6">
     <g id="line2d_6">
      <g>
       <use xlink:href="#mfc970fecc4" x="271.561774" y="307.584" style="stroke: #000000; stroke-width: 0.8"/>
      </g>
     </g>
     <g id="text_6">
      <!-- 1.0 -->
      <g transform="translate(263.610212 322.182437) scale(0.1 -0.1)">
       <defs>
        <path id="DejaVuSans-31" d="M 794 531 
L 1825 531 
L 1825 4091 
L 703 3866 
L 703 4441 
L 1819 4666 
L 2450 4666 
L 2450 531 
L 3481 531 
L 3481 0 
L 794 0 
L 794 531 
z
" transform="scale(0.015625)"/>
       </defs>
       <use xlink:href="#DejaVuSans-31"/>
       <use xlink:href="#DejaVuSans-2e" x="63.623047"/>
       <use xlink:href="#DejaVuSans-30" x="95.410156"/>
      </g>
     </g>
    </g>
    <g id="xtick_7">
     <g id="line2d_7">
      <g>
       <use xlink:href="#mfc970fecc4" x="312.59934" y="307.584" style="stroke: #000000; stroke-width: 0.8"/>
      </g>
     </g>
     <g id="text_7">
      <!-- 1.2 -->
      <g transform="translate(304.647778 322.182437) scale(0.1 -0.1)">
       <use xlink:href="#DejaVuSans-31"/>
       <use xlink:href="#DejaVuSans-2e" x="63.623047"/>
       <use xlink:href="#DejaVuSans-32" x="95.410156"/>
      </g>
     </g>
    </g>
    <g id="xtick_8">
     <g id="line2d_8">
      <g>
       <use xlink:href="#mfc970fecc4" x="353.636906" y="307.584" style="stroke: #000000; stroke-width: 0.8"/>
      </g>
     </g>
     <g id="text_8">
      <!-- 1.4 -->
      <g transform="translate(345.685344 322.182437) scale(0.1 -0.1)">
       <use xlink:href="#DejaVuSans-31"/>
       <use xlink:href="#DejaVuSans-2e" x="63.623047"/>
       <use xlink:href="#DejaVuSans-34" x="95.410156"/>
      </g>
     </g>
    </g>
    <g id="xtick_9">
     <g id="line2d_9">
      <g>
       <use xlink:href="#mfc970fecc4" x="394.674472" y="307.584" style="stroke: #000000; stroke-width: 0.8"/>
      </g>
     </g>
     <g id="text_9">
      <!-- 1.6 -->
      <g transform="translate(386.72291 322.182437) scale(0.1 -0.1)">
       <use xlink:href="#DejaVuSans-31"/>
       <use xlink:href="#DejaVuSans-2e" x="63.623047"/>
       <use xlink:href="#DejaVuSans-36" x="95.410156"/>
      </g>
     </g>
    </g>
    <g id="text_10">
     <!-- Time (s) -->
     <g transform="translate(215.831094 335.860562) scale(0.1 -0.1)">
      <defs>
       <path id="DejaVuSans-54" d="M -19 4666 
L 3928 4666 
L 3928 4134 
L 2272 4134 
L 2272 0 
L 1638 0 
L 1638 4134 
L -19 4134 
L -19 4666 
z
" transform="scale(0.015625)"/>
       <path id="DejaVuSans-69" d="M 603 3500 
L 1178 3500 
L 1178 0 
L 603 0 
L 603 3500 
z
M 603 4863 
L 1178 4863 
L 1178 4134 
L 603 4134 
L 603 4863 
z
" transform="scale(0.015625)"/>
       <path id="DejaVuSans-6d" d="M 3328 2828 
Q 3544 3216 3844 3400 
Q 4144 3584 4550 3584 
Q 5097 3584 5394 3201 
Q 5691 2819 5691 2113 
L 5691 0 
L 5113 0 
L 5113 2094 
Q 5113 2597 4934 2840 
Q 4756 3084 4391 3084 
Q 3944 3084 3684 2787 
Q 3425 2491 3425 1978 
L 3425 0 
L 2847 0 
L 2847 2094 
Q 2847 2600 2669 2842 
Q 2491 3084 2119 3084 
Q 1678 3084 1418 2786 
Q 1159 2488 1159 1978 
L 1159 0 
L 581 0 
L 581 3500 
L 1159 3500 
L 1159 2956 
Q 1356 3278 1631 3431 
Q 1906 3584 2284 3584 
Q 2666 3584 2933 3390 
Q 3200 3197 3328 2828 
z
" transform="scale(0.015625)"/>
       <path id="DejaVuSans-65" d="M 3597 1894 
L 3597 1613 
L 953 1613 
Q 991 1019 1311 708 
Q 1631 397 2203 397 
Q 2534 397 2845 478 
Q 3156 559 3463 722 
L 3463 178 
Q 3153 47 2828 -22 
Q 2503 -91 2169 -91 
Q 1331 -91 842 396 
Q 353 884 353 1716 
Q 353 2575 817 3079 
Q 1281 3584 2069 3584 
Q 2775 3584 3186 3129 
Q 3597 2675 3597 1894 
z
M 3022 2063 
Q 3016 2534 2758 2815 
Q 2500 3097 2075 3097 
Q 1594 3097 1305 2825 
Q 1016 2553 972 2059 
L 3022 2063 
z
" transform="scale(0.015625)"/>
       <path id="DejaVuSans-20" transform="scale(0.015625)"/>
       <path id="DejaVuSans-28" d="M 1984 4856 
Q 1566 4138 1362 3434 
Q 1159 2731 1159 2009 
Q 1159 1288 1364 580 
Q 1569 -128 1984 -844 
L 1484 -844 
Q 1016 -109 783 600 
Q 550 1309 550 2009 
Q 550 2706 781 3412 
Q 1013 4119 1484 4856 
L 1984 4856 
z
" transform="scale(0.015625)"/>
       <path id="DejaVuSans-73" d="M 2834 3397 
L 2834 2853 
Q 2591 2978 2328 3040 
Q 2066 3103 1784 3103 
Q 1356 3103 1142 2972 
Q 928 2841 928 2578 
Q 928 2378 1081 2264 
Q 1234 2150 1697 2047 
L 1894 2003 
Q 2506 1872 2764 1633 
Q 3022 1394 3022 966 
Q 3022 478 2636 193 
Q 2250 -91 1575 -91 
Q 1294 -91 989 -36 
Q 684 19 347 128 
L 347 722 
Q 666 556 975 473 
Q 1284 391 1588 391 
Q 1994 391 2212 530 
Q 2431 669 2431 922 
Q 2431 1156 2273 1281 
Q 2116 1406 1581 1522 
L 1381 1569 
Q 847 1681 609 1914 
Q 372 2147 372 2553 
Q 372 3047 722 3315 
Q 1072 3584 1716 3584 
Q 2034 3584 2315 3537 
Q 2597 3491 2834 3397 
z
" transform="scale(0.015625)"/>
       <path id="DejaVuSans-29" d="M 513 4856 
L 1013 4856 
Q 1481 4119 1714 3412 
Q 1947 2706 1947 2009 
Q 1947 1309 1714 600 
Q 1481 -109 1013 -844 
L 513 -844 
Q 928 -128 1133 580 
Q 1338 1288 1338 2009 
Q 1338 2731 1133 3434 
Q 928 4138 513 4856 
z
" transform="scale(0.015625)"/>
      </defs>
      <use xlink:href="#DejaVuSans-54"/>
      <use xlink:href="#DejaVuSans-69" x="57.958984"/>
      <use xlink:href="#DejaVuSans-6d" x="85.742188"/>
      <use xlink:href="#DejaVuSans-65" x="183.154297"/>
      <use xlink:href="#DejaVuSans-20" x="244.677734"/>
      <use xlink:href="#DejaVuSans-28" x="276.464844"/>
      <use xlink:href="#DejaVuSans-73" x="315.478516"/>
      <use xlink:href="#DejaVuSans-29" x="367.578125"/>
     </g>
    </g>
   </g>
   <g id="matplotlib.axis_2">
    <g id="ytick_1">
     <g id="line2d_10">
      <defs>
       <path id="m5405324e5a" d="M 0 0 
L -3.5 0 
" style="stroke: #000000; stroke-width: 0.8"/>
      </defs>
      <g>
       <use xlink:href="#m5405324e5a" x="57.6" y="269.496595" style="stroke: #000000; stroke-width: 0.8"/>
      </g>
     </g>
     <g id="text_11">
      <!-- 20 -->
      <g transform="translate(37.875 273.295814) scale(0.1 -0.1)">
       <use xlink:href="#DejaVuSans-32"/>
       <use xlink:href="#DejaVuSans-30" x="63.623047"/>
      </g>
     </g>
    </g>
    <g id="ytick_2">
     <g id="line2d_11">
      <g>
       <use xlink:href="#m5405324e5a" x="57.6" y="229.509818" style="stroke: #000000; stroke-width: 0.8"/>
      </g>
     </g>
     <g id="text_12">
      <!-- 40 -->
      <g transform="translate(37.875 233.309037) scale(0.1 -0.1)">
       <use xlink:href="#DejaVuSans-34"/>
       <use xlink:href="#DejaVuSans-30" x="63.623047"/>
      </g>
     </g>
    </g>
    <g id="ytick_3">
     <g id="line2d_12">
      <g>
       <use xlink:href="#m5405324e5a" x="57.6" y="189.523041" style="stroke: #000000; stroke-width: 0.8"/>
      </g>
     </g>
     <g id="text_13">
      <!-- 60 -->
      <g transform="translate(37.875 193.32226) scale(0.1 -0.1)">
       <use xlink:href="#DejaVuSans-36"/>
       <use xlink:href="#DejaVuSans-30" x="63.623047"/>
      </g>
     </g>
    </g>
    <g id="ytick_4">
     <g id="line2d_13">
      <g>
       <use xlink:href="#m5405324e5a" x="57.6" y="149.536264" style="stroke: #000000; stroke-width: 0.8"/>
      </g>
     </g>
     <g id="text_14">
      <!-- 80 -->
      <g transform="translate(37.875 153.335483) scale(0.1 -0.1)">
       <use xlink:href="#DejaVuSans-38"/>
       <use xlink:href="#DejaVuSans-30" x="63.623047"/>
      </g>
     </g>
    </g>
    <g id="ytick_5">
     <g id="line2d_14">
      <g>
       <use xlink:href="#m5405324e5a" x="57.6" y="109.549488" style="stroke: #000000; stroke-width: 0.8"/>
      </g>
     </g>
     <g id="text_15">
      <!-- 100 -->
      <g transform="translate(31.5125 113.348706) scale(0.1 -0.1)">
       <use xlink:href="#DejaVuSans-31"/>
       <use xlink:href="#DejaVuSans-30" x="63.623047"/>
       <use xlink:href="#DejaVuSans-30" x="127.246094"/>
      </g>
     </g>
    </g>
    <g id="ytick_6">
     <g id="line2d_15">
      <g>
       <use xlink:href="#m5405324e5a" x="57.6" y="69.562711" style="stroke: #000000; stroke-width: 0.8"/>
      </g>
     </g>
     <g id="text_16">
      <!-- 120 -->
      <g transform="translate(31.5125 73.361929) scale(0.1 -0.1)">
       <use xlink:href="#DejaVuSans-31"/>
       <use xlink:href="#DejaVuSans-32" x="63.623047"/>
       <use xlink:href="#DejaVuSans-30" x="127.246094"/>
      </g>
     </g>
    </g>
    <g id="text_17">
     <!-- Trial -->
     <g transform="translate(25.432812 184.742063) rotate(-90) scale(0.1 -0.1)">
      <defs>
       <path id="DejaVuSans-72" d="M 2631 2963 
Q 2534 3019 2420 3045 
Q 2306 3072 2169 3072 
Q 1681 3072 1420 2755 
Q 1159 2438 1159 1844 
L 1159 0 
L 581 0 
L 581 3500 
L 1159 3500 
L 1159 2956 
Q 1341 3275 1631 3429 
Q 1922 3584 2338 3584 
Q 2397 3584 2469 3576 
Q 2541 3569 2628 3553 
L 2631 2963 
z
" transform="scale(0.015625)"/>
       <path id="DejaVuSans-61" d="M 2194 1759 
Q 1497 1759 1228 1600 
Q 959 1441 959 1056 
Q 959 750 1161 570 
Q 1363 391 1709 391 
Q 2188 391 2477 730 
Q 2766 1069 2766 1631 
L 2766 1759 
L 2194 1759 
z
M 3341 1997 
L 3341 0 
L 2766 0 
L 2766 531 
Q 2569 213 2275 61 
Q 1981 -91 1556 -91 
Q 1019 -91 701 211 
Q 384 513 384 1019 
Q 384 1609 779 1909 
Q 1175 2209 1959 2209 
L 2766 2209 
L 2766 2266 
Q 2766 2663 2505 2880 
Q 2244 3097 1772 3097 
Q 1472 3097 1187 3025 
Q 903 2953 641 2809 
L 641 3341 
Q 956 3463 1253 3523 
Q 1550 3584 1831 3584 
Q 2591 3584 2966 3190 
Q 3341 2797 3341 1997 
z
" transform="scale(0.015625)"/>
       <path id="DejaVuSans-6c" d="M 603 4863 
L 1178 4863 
L 1178 0 
L 603 0 
L 603 4863 
z
" transform="scale(0.015625)"/>
      </defs>
      <use xlink:href="#DejaVuSans-54"/>
      <use xlink:href="#DejaVuSans-72" x="46.333984"/>
      <use xlink:href="#DejaVuSans-69" x="87.447266"/>
      <use xlink:href="#DejaVuSans-61" x="115.230469"/>
      <use xlink:href="#DejaVuSans-6c" x="176.509766"/>
     </g>
    </g>
   </g>
   <g id="EventCollection_1"/>
   <g id="EventCollection_2"/>
   <g id="EventCollection_3"/>
   <g id="EventCollection_4"/>
   <g id="EventCollection_5"/>
   <g id="EventCollection_6"/>
   <g id="EventCollection_7"/>
   <g id="EventCollection_8">
    <path d="M 125.584791 292.488992 
L 125.584791 294.488331 
" clip-path="url(#p059ed75105)" style="fill: none; stroke: #000000; stroke-width: 0.5"/>
    <path d="M 137.786491 292.488992 
L 137.786491 294.488331 
" clip-path="url(#p059ed75105)" style="fill: none; stroke: #000000; stroke-width: 0.5"/>
    <path d="M 167.634549 292.488992 
L 167.634549 294.488331 
" clip-path="url(#p059ed75105)" style="fill: none; stroke: #000000; stroke-width: 0.5"/>
    <path d="M 170.917554 292.488992 
L 170.917554 294.488331 
" clip-path="url(#p059ed75105)" style="fill: none; stroke: #000000; stroke-width: 0.5"/>
   </g>
   <g id="EventCollection_9"/>
   <g id="EventCollection_10">
    <path d="M 132.4869 288.490314 
L 132.4869 290.489653 
" clip-path="url(#p059ed75105)" style="fill: none; stroke: #000000; stroke-width: 0.5"/>
   </g>
   <g id="EventCollection_11"/>
   <g id="EventCollection_12"/>
   <g id="EventCollection_13"/>
   <g id="EventCollection_14"/>
   <g id="EventCollection_15"/>
   <g id="EventCollection_16">
    <path d="M 296.450853 276.494281 
L 296.450853 278.49362 
" clip-path="url(#p059ed75105)" style="fill: none; stroke: #000000; stroke-width: 0.5"/>
    <path d="M 361.24917 276.494281 
L 361.24917 278.49362 
" clip-path="url(#p059ed75105)" style="fill: none; stroke: #000000; stroke-width: 0.5"/>
   </g>
   <g id="EventCollection_17"/>
   <g id="EventCollection_18">
    <path d="M 82.120469 272.495603 
L 82.120469 274.494942 
" clip-path="url(#p059ed75105)" style="fill: none; stroke: #000000; stroke-width: 0.5"/>
   </g>
   <g id="EventCollection_19"/>
   <g id="EventCollection_20"/>
   <g id="EventCollection_21">
    <path d="M 394.397264 266.497587 
L 394.397264 268.496926 
" clip-path="url(#p059ed75105)" style="fill: none; stroke: #000000; stroke-width: 0.5"/>
    <path d="M 396.14136 266.497587 
L 396.14136 268.496926 
" clip-path="url(#p059ed75105)" style="fill: none; stroke: #000000; stroke-width: 0.5"/>
    <path d="M 398.487273 266.497587 
L 398.487273 268.496926 
" clip-path="url(#p059ed75105)" style="fill: none; stroke: #000000; stroke-width: 0.5"/>
   </g>
   <g id="EventCollection_22"/>
   <g id="EventCollection_23"/>
   <g id="EventCollection_24"/>
   <g id="EventCollection_25"/>
   <g id="EventCollection_26"/>
   <g id="EventCollection_27"/>
   <g id="EventCollection_28"/>
   <g id="EventCollection_29">
    <path d="M 118.46067 250.502876 
L 118.46067 252.502215 
" clip-path="url(#p059ed75105)" style="fill: none; stroke: #000000; stroke-width: 0.5"/>
    <path d="M 136.52397 250.502876 
L 136.52397 252.502215 
" clip-path="url(#p059ed75105)" style="fill: none; stroke: #000000; stroke-width: 0.5"/>
   </g>
   <g id="EventCollection_30">
    <path d="M 78.693832 248.503537 
L 78.693832 250.502876 
" clip-path="url(#p059ed75105)" style="fill: none; stroke: #000000; stroke-width: 0.5"/>
   </g>
   <g id="EventCollection_31"/>
   <g id="EventCollection_32"/>
   <g id="EventCollection_33">
    <path d="M 87.124179 242.505521 
L 87.124179 244.50486 
" clip-path="url(#p059ed75105)" style="fill: none; stroke: #000000; stroke-width: 0.5"/>
    <path d="M 88.18418 242.505521 
L 88.18418 244.50486 
" clip-path="url(#p059ed75105)" style="fill: none; stroke: #000000; stroke-width: 0.5"/>
    <path d="M 93.225029 242.505521 
L 93.225029 244.50486 
" clip-path="url(#p059ed75105)" style="fill: none; stroke: #000000; stroke-width: 0.5"/>
    <path d="M 97.103079 242.505521 
L 97.103079 244.50486 
" clip-path="url(#p059ed75105)" style="fill: none; stroke: #000000; stroke-width: 0.5"/>
    <path d="M 106.02875 242.505521 
L 106.02875 244.50486 
" clip-path="url(#p059ed75105)" style="fill: none; stroke: #000000; stroke-width: 0.5"/>
    <path d="M 107.978034 242.505521 
L 107.978034 244.50486 
" clip-path="url(#p059ed75105)" style="fill: none; stroke: #000000; stroke-width: 0.5"/>
    <path d="M 111.924412 242.505521 
L 111.924412 244.50486 
" clip-path="url(#p059ed75105)" style="fill: none; stroke: #000000; stroke-width: 0.5"/>
    <path d="M 113.894215 242.505521 
L 113.894215 244.50486 
" clip-path="url(#p059ed75105)" style="fill: none; stroke: #000000; stroke-width: 0.5"/>
    <path d="M 133.051987 242.505521 
L 133.051987 244.50486 
" clip-path="url(#p059ed75105)" style="fill: none; stroke: #000000; stroke-width: 0.5"/>
    <path d="M 136.218651 242.505521 
L 136.218651 244.50486 
" clip-path="url(#p059ed75105)" style="fill: none; stroke: #000000; stroke-width: 0.5"/>
   </g>
   <g id="EventCollection_34"/>
   <g id="EventCollection_35">
    <path d="M 230.323945 238.506843 
L 230.323945 240.506182 
" clip-path="url(#p059ed75105)" style="fill: none; stroke: #000000; stroke-width: 0.5"/>
   </g>
   <g id="EventCollection_36"/>
   <g id="EventCollection_37">
    <path d="M 90.236674 234.508165 
L 90.236674 236.507504 
" clip-path="url(#p059ed75105)" style="fill: none; stroke: #000000; stroke-width: 0.5"/>
    <path d="M 94.757577 234.508165 
L 94.757577 236.507504 
" clip-path="url(#p059ed75105)" style="fill: none; stroke: #000000; stroke-width: 0.5"/>
    <path d="M 99.579491 234.508165 
L 99.579491 236.507504 
" clip-path="url(#p059ed75105)" style="fill: none; stroke: #000000; stroke-width: 0.5"/>
    <path d="M 112.109696 234.508165 
L 112.109696 236.507504 
" clip-path="url(#p059ed75105)" style="fill: none; stroke: #000000; stroke-width: 0.5"/>
    <path d="M 118.224294 234.508165 
L 118.224294 236.507504 
" clip-path="url(#p059ed75105)" style="fill: none; stroke: #000000; stroke-width: 0.5"/>
    <path d="M 132.765339 234.508165 
L 132.765339 236.507504 
" clip-path="url(#p059ed75105)" style="fill: none; stroke: #000000; stroke-width: 0.5"/>
    <path d="M 215.469577 234.508165 
L 215.469577 236.507504 
" clip-path="url(#p059ed75105)" style="fill: none; stroke: #000000; stroke-width: 0.5"/>
    <path d="M 218.752583 234.508165 
L 218.752583 236.507504 
" clip-path="url(#p059ed75105)" style="fill: none; stroke: #000000; stroke-width: 0.5"/>
    <path d="M 220.7704 234.508165 
L 220.7704 236.507504 
" clip-path="url(#p059ed75105)" style="fill: none; stroke: #000000; stroke-width: 0.5"/>
   </g>
   <g id="EventCollection_38"/>
   <g id="EventCollection_39">
    <path d="M 127.262407 230.509488 
L 127.262407 232.508826 
" clip-path="url(#p059ed75105)" style="fill: none; stroke: #000000; stroke-width: 0.5"/>
    <path d="M 154.360948 230.509488 
L 154.360948 232.508826 
" clip-path="url(#p059ed75105)" style="fill: none; stroke: #000000; stroke-width: 0.5"/>
    <path d="M 156.775188 230.509488 
L 156.775188 232.508826 
" clip-path="url(#p059ed75105)" style="fill: none; stroke: #000000; stroke-width: 0.5"/>
    <path d="M 170.584329 230.509488 
L 170.584329 232.508826 
" clip-path="url(#p059ed75105)" style="fill: none; stroke: #000000; stroke-width: 0.5"/>
    <path d="M 177.246162 230.509488 
L 177.246162 232.508826 
" clip-path="url(#p059ed75105)" style="fill: none; stroke: #000000; stroke-width: 0.5"/>
    <path d="M 188.305787 230.509488 
L 188.305787 232.508826 
" clip-path="url(#p059ed75105)" style="fill: none; stroke: #000000; stroke-width: 0.5"/>
   </g>
   <g id="EventCollection_40"/>
   <g id="EventCollection_41"/>
   <g id="EventCollection_42"/>
   <g id="EventCollection_43"/>
   <g id="EventCollection_44"/>
   <g id="EventCollection_45"/>
   <g id="EventCollection_46">
    <path d="M 87.97694 216.514116 
L 87.97694 218.513455 
" clip-path="url(#p059ed75105)" style="fill: none; stroke: #000000; stroke-width: 0.5"/>
    <path d="M 89.221815 216.514116 
L 89.221815 218.513455 
" clip-path="url(#p059ed75105)" style="fill: none; stroke: #000000; stroke-width: 0.5"/>
   </g>
   <g id="EventCollection_47"/>
   <g id="EventCollection_48"/>
   <g id="EventCollection_49"/>
   <g id="EventCollection_50">
    <path d="M 87.673467 208.51676 
L 87.673467 210.516099 
" clip-path="url(#p059ed75105)" style="fill: none; stroke: #000000; stroke-width: 0.5"/>
    <path d="M 90.060417 208.51676 
L 90.060417 210.516099 
" clip-path="url(#p059ed75105)" style="fill: none; stroke: #000000; stroke-width: 0.5"/>
    <path d="M 95.41582 208.51676 
L 95.41582 210.516099 
" clip-path="url(#p059ed75105)" style="fill: none; stroke: #000000; stroke-width: 0.5"/>
    <path d="M 112.419119 208.51676 
L 112.419119 210.516099 
" clip-path="url(#p059ed75105)" style="fill: none; stroke: #000000; stroke-width: 0.5"/>
    <path d="M 121.34479 208.51676 
L 121.34479 210.516099 
" clip-path="url(#p059ed75105)" style="fill: none; stroke: #000000; stroke-width: 0.5"/>
    <path d="M 128.492098 208.51676 
L 128.492098 210.516099 
" clip-path="url(#p059ed75105)" style="fill: none; stroke: #000000; stroke-width: 0.5"/>
   </g>
   <g id="EventCollection_51"/>
   <g id="EventCollection_52"/>
   <g id="EventCollection_53"/>
   <g id="EventCollection_54"/>
   <g id="EventCollection_55"/>
   <g id="EventCollection_56"/>
   <g id="EventCollection_57">
    <path d="M 133.354229 194.521388 
L 133.354229 196.520727 
" clip-path="url(#p059ed75105)" style="fill: none; stroke: #000000; stroke-width: 0.5"/>
   </g>
   <g id="EventCollection_58"/>
   <g id="EventCollection_59"/>
   <g id="EventCollection_60"/>
   <g id="EventCollection_61">
    <path d="M 130.666473 186.524033 
L 130.666473 188.523372 
" clip-path="url(#p059ed75105)" style="fill: none; stroke: #000000; stroke-width: 0.5"/>
    <path d="M 140.173441 186.524033 
L 140.173441 188.523372 
" clip-path="url(#p059ed75105)" style="fill: none; stroke: #000000; stroke-width: 0.5"/>
    <path d="M 142.936705 186.524033 
L 142.936705 188.523372 
" clip-path="url(#p059ed75105)" style="fill: none; stroke: #000000; stroke-width: 0.5"/>
    <path d="M 221.024217 186.524033 
L 221.024217 188.523372 
" clip-path="url(#p059ed75105)" style="fill: none; stroke: #000000; stroke-width: 0.5"/>
   </g>
   <g id="EventCollection_62">
    <path d="M 73.832727 184.524694 
L 73.832727 186.524033 
" clip-path="url(#p059ed75105)" style="fill: none; stroke: #000000; stroke-width: 0.5"/>
    <path d="M 83.839122 184.524694 
L 83.839122 186.524033 
" clip-path="url(#p059ed75105)" style="fill: none; stroke: #000000; stroke-width: 0.5"/>
   </g>
   <g id="EventCollection_63"/>
   <g id="EventCollection_64">
    <path d="M 195.24647 180.526017 
L 195.24647 182.525355 
" clip-path="url(#p059ed75105)" style="fill: none; stroke: #000000; stroke-width: 0.5"/>
    <path d="M 198.242212 180.526017 
L 198.242212 182.525355 
" clip-path="url(#p059ed75105)" style="fill: none; stroke: #000000; stroke-width: 0.5"/>
   </g>
   <g id="EventCollection_65"/>
   <g id="EventCollection_66"/>
   <g id="EventCollection_67">
    <path d="M 86.156924 174.528 
L 86.156924 176.527339 
" clip-path="url(#p059ed75105)" style="fill: none; stroke: #000000; stroke-width: 0.5"/>
    <path d="M 91.156736 174.528 
L 91.156736 176.527339 
" clip-path="url(#p059ed75105)" style="fill: none; stroke: #000000; stroke-width: 0.5"/>
   </g>
   <g id="EventCollection_68">
    <path d="M 130.422915 172.528661 
L 130.422915 174.528 
" clip-path="url(#p059ed75105)" style="fill: none; stroke: #000000; stroke-width: 0.5"/>
    <path d="M 139.745419 172.528661 
L 139.745419 174.528 
" clip-path="url(#p059ed75105)" style="fill: none; stroke: #000000; stroke-width: 0.5"/>
    <path d="M 140.737092 172.528661 
L 140.737092 174.528 
" clip-path="url(#p059ed75105)" style="fill: none; stroke: #000000; stroke-width: 0.5"/>
   </g>
   <g id="EventCollection_69"/>
   <g id="EventCollection_70"/>
   <g id="EventCollection_71"/>
   <g id="EventCollection_72"/>
   <g id="EventCollection_73">
    <path d="M 87.095863 162.531967 
L 87.095863 164.531306 
" clip-path="url(#p059ed75105)" style="fill: none; stroke: #000000; stroke-width: 0.5"/>
    <path d="M 88.354486 162.531967 
L 88.354486 164.531306 
" clip-path="url(#p059ed75105)" style="fill: none; stroke: #000000; stroke-width: 0.5"/>
    <path d="M 89.332411 162.531967 
L 89.332411 164.531306 
" clip-path="url(#p059ed75105)" style="fill: none; stroke: #000000; stroke-width: 0.5"/>
    <path d="M 92.417205 162.531967 
L 92.417205 164.531306 
" clip-path="url(#p059ed75105)" style="fill: none; stroke: #000000; stroke-width: 0.5"/>
    <path d="M 93.497724 162.531967 
L 93.497724 164.531306 
" clip-path="url(#p059ed75105)" style="fill: none; stroke: #000000; stroke-width: 0.5"/>
    <path d="M 98.620648 162.531967 
L 98.620648 164.531306 
" clip-path="url(#p059ed75105)" style="fill: none; stroke: #000000; stroke-width: 0.5"/>
    <path d="M 100.30996 162.531967 
L 100.30996 164.531306 
" clip-path="url(#p059ed75105)" style="fill: none; stroke: #000000; stroke-width: 0.5"/>
    <path d="M 102.731176 162.531967 
L 102.731176 164.531306 
" clip-path="url(#p059ed75105)" style="fill: none; stroke: #000000; stroke-width: 0.5"/>
   </g>
   <g id="EventCollection_74"/>
   <g id="EventCollection_75"/>
   <g id="EventCollection_76"/>
   <g id="EventCollection_77">
    <path d="M 97.952967 154.534612 
L 97.952967 156.53395 
" clip-path="url(#p059ed75105)" style="fill: none; stroke: #000000; stroke-width: 0.5"/>
   </g>
   <g id="EventCollection_78">
    <path d="M 87.738101 152.535273 
L 87.738101 154.534612 
" clip-path="url(#p059ed75105)" style="fill: none; stroke: #000000; stroke-width: 0.5"/>
    <path d="M 153.897429 152.535273 
L 153.897429 154.534612 
" clip-path="url(#p059ed75105)" style="fill: none; stroke: #000000; stroke-width: 0.5"/>
    <path d="M 154.820774 152.535273 
L 154.820774 154.534612 
" clip-path="url(#p059ed75105)" style="fill: none; stroke: #000000; stroke-width: 0.5"/>
    <path d="M 157.337813 152.535273 
L 157.337813 154.534612 
" clip-path="url(#p059ed75105)" style="fill: none; stroke: #000000; stroke-width: 0.5"/>
    <path d="M 168.746257 152.535273 
L 168.746257 154.534612 
" clip-path="url(#p059ed75105)" style="fill: none; stroke: #000000; stroke-width: 0.5"/>
    <path d="M 170.031964 152.535273 
L 170.031964 154.534612 
" clip-path="url(#p059ed75105)" style="fill: none; stroke: #000000; stroke-width: 0.5"/>
   </g>
   <g id="EventCollection_79">
    <path d="M 89.852767 150.535934 
L 89.852767 152.535273 
" clip-path="url(#p059ed75105)" style="fill: none; stroke: #000000; stroke-width: 0.5"/>
    <path d="M 94.811541 150.535934 
L 94.811541 152.535273 
" clip-path="url(#p059ed75105)" style="fill: none; stroke: #000000; stroke-width: 0.5"/>
   </g>
   <g id="EventCollection_80"/>
   <g id="EventCollection_81">
    <path d="M 85.965278 146.537256 
L 85.965278 148.536595 
" clip-path="url(#p059ed75105)" style="fill: none; stroke: #000000; stroke-width: 0.5"/>
    <path d="M 87.716146 146.537256 
L 87.716146 148.536595 
" clip-path="url(#p059ed75105)" style="fill: none; stroke: #000000; stroke-width: 0.5"/>
    <path d="M 88.557416 146.537256 
L 88.557416 148.536595 
" clip-path="url(#p059ed75105)" style="fill: none; stroke: #000000; stroke-width: 0.5"/>
    <path d="M 89.371396 146.537256 
L 89.371396 148.536595 
" clip-path="url(#p059ed75105)" style="fill: none; stroke: #000000; stroke-width: 0.5"/>
    <path d="M 91.313704 146.537256 
L 91.313704 148.536595 
" clip-path="url(#p059ed75105)" style="fill: none; stroke: #000000; stroke-width: 0.5"/>
    <path d="M 94.979795 146.537256 
L 94.979795 148.536595 
" clip-path="url(#p059ed75105)" style="fill: none; stroke: #000000; stroke-width: 0.5"/>
    <path d="M 96.163114 146.537256 
L 96.163114 148.536595 
" clip-path="url(#p059ed75105)" style="fill: none; stroke: #000000; stroke-width: 0.5"/>
    <path d="M 125.210734 146.537256 
L 125.210734 148.536595 
" clip-path="url(#p059ed75105)" style="fill: none; stroke: #000000; stroke-width: 0.5"/>
   </g>
   <g id="EventCollection_82"/>
   <g id="EventCollection_83"/>
   <g id="EventCollection_84"/>
   <g id="EventCollection_85"/>
   <g id="EventCollection_86"/>
   <g id="EventCollection_87">
    <path d="M 92.091161 134.541223 
L 92.091161 136.540562 
" clip-path="url(#p059ed75105)" style="fill: none; stroke: #000000; stroke-width: 0.5"/>
    <path d="M 98.431465 134.541223 
L 98.431465 136.540562 
" clip-path="url(#p059ed75105)" style="fill: none; stroke: #000000; stroke-width: 0.5"/>
   </g>
   <g id="EventCollection_88"/>
   <g id="EventCollection_89">
    <path d="M 87.558152 130.542545 
L 87.558152 132.541884 
" clip-path="url(#p059ed75105)" style="fill: none; stroke: #000000; stroke-width: 0.5"/>
    <path d="M 93.748053 130.542545 
L 93.748053 132.541884 
" clip-path="url(#p059ed75105)" style="fill: none; stroke: #000000; stroke-width: 0.5"/>
    <path d="M 104.493124 130.542545 
L 104.493124 132.541884 
" clip-path="url(#p059ed75105)" style="fill: none; stroke: #000000; stroke-width: 0.5"/>
    <path d="M 108.090682 130.542545 
L 108.090682 132.541884 
" clip-path="url(#p059ed75105)" style="fill: none; stroke: #000000; stroke-width: 0.5"/>
    <path d="M 121.393625 130.542545 
L 121.393625 132.541884 
" clip-path="url(#p059ed75105)" style="fill: none; stroke: #000000; stroke-width: 0.5"/>
    <path d="M 122.870977 130.542545 
L 122.870977 132.541884 
" clip-path="url(#p059ed75105)" style="fill: none; stroke: #000000; stroke-width: 0.5"/>
    <path d="M 128.746325 130.542545 
L 128.746325 132.541884 
" clip-path="url(#p059ed75105)" style="fill: none; stroke: #000000; stroke-width: 0.5"/>
    <path d="M 134.11527 130.542545 
L 134.11527 132.541884 
" clip-path="url(#p059ed75105)" style="fill: none; stroke: #000000; stroke-width: 0.5"/>
    <path d="M 142.610046 130.542545 
L 142.610046 132.541884 
" clip-path="url(#p059ed75105)" style="fill: none; stroke: #000000; stroke-width: 0.5"/>
   </g>
   <g id="EventCollection_90"/>
   <g id="EventCollection_91"/>
   <g id="EventCollection_92"/>
   <g id="EventCollection_93">
    <path d="M 84.894608 122.54519 
L 84.894608 124.544529 
" clip-path="url(#p059ed75105)" style="fill: none; stroke: #000000; stroke-width: 0.5"/>
    <path d="M 86.748275 122.54519 
L 86.748275 124.544529 
" clip-path="url(#p059ed75105)" style="fill: none; stroke: #000000; stroke-width: 0.5"/>
    <path d="M 102.349322 122.54519 
L 102.349322 124.544529 
" clip-path="url(#p059ed75105)" style="fill: none; stroke: #000000; stroke-width: 0.5"/>
    <path d="M 114.68111 122.54519 
L 114.68111 124.544529 
" clip-path="url(#p059ed75105)" style="fill: none; stroke: #000000; stroke-width: 0.5"/>
    <path d="M 172.133702 122.54519 
L 172.133702 124.544529 
" clip-path="url(#p059ed75105)" style="fill: none; stroke: #000000; stroke-width: 0.5"/>
    <path d="M 193.015052 122.54519 
L 193.015052 124.544529 
" clip-path="url(#p059ed75105)" style="fill: none; stroke: #000000; stroke-width: 0.5"/>
   </g>
   <g id="EventCollection_94">
    <path d="M 165.411544 120.545851 
L 165.411544 122.54519 
" clip-path="url(#p059ed75105)" style="fill: none; stroke: #000000; stroke-width: 0.5"/>
    <path d="M 166.34166 120.545851 
L 166.34166 122.54519 
" clip-path="url(#p059ed75105)" style="fill: none; stroke: #000000; stroke-width: 0.5"/>
    <path d="M 181.211007 120.545851 
L 181.211007 122.54519 
" clip-path="url(#p059ed75105)" style="fill: none; stroke: #000000; stroke-width: 0.5"/>
   </g>
   <g id="EventCollection_95"/>
   <g id="EventCollection_96">
    <path d="M 75.390513 116.547174 
L 75.390513 118.546512 
" clip-path="url(#p059ed75105)" style="fill: none; stroke: #000000; stroke-width: 0.5"/>
   </g>
   <g id="EventCollection_97"/>
   <g id="EventCollection_98">
    <path d="M 85.078046 112.548496 
L 85.078046 114.547835 
" clip-path="url(#p059ed75105)" style="fill: none; stroke: #000000; stroke-width: 0.5"/>
    <path d="M 86.302402 112.548496 
L 86.302402 114.547835 
" clip-path="url(#p059ed75105)" style="fill: none; stroke: #000000; stroke-width: 0.5"/>
    <path d="M 88.094307 112.548496 
L 88.094307 114.547835 
" clip-path="url(#p059ed75105)" style="fill: none; stroke: #000000; stroke-width: 0.5"/>
    <path d="M 89.263878 112.548496 
L 89.263878 114.547835 
" clip-path="url(#p059ed75105)" style="fill: none; stroke: #000000; stroke-width: 0.5"/>
    <path d="M 93.935389 112.548496 
L 93.935389 114.547835 
" clip-path="url(#p059ed75105)" style="fill: none; stroke: #000000; stroke-width: 0.5"/>
   </g>
   <g id="EventCollection_99"/>
   <g id="EventCollection_100">
    <path d="M 85.191105 108.549818 
L 85.191105 110.549157 
" clip-path="url(#p059ed75105)" style="fill: none; stroke: #000000; stroke-width: 0.5"/>
    <path d="M 91.073224 108.549818 
L 91.073224 110.549157 
" clip-path="url(#p059ed75105)" style="fill: none; stroke: #000000; stroke-width: 0.5"/>
    <path d="M 97.550389 108.549818 
L 97.550389 110.549157 
" clip-path="url(#p059ed75105)" style="fill: none; stroke: #000000; stroke-width: 0.5"/>
    <path d="M 100.717052 108.549818 
L 100.717052 110.549157 
" clip-path="url(#p059ed75105)" style="fill: none; stroke: #000000; stroke-width: 0.5"/>
    <path d="M 102.221695 108.549818 
L 102.221695 110.549157 
" clip-path="url(#p059ed75105)" style="fill: none; stroke: #000000; stroke-width: 0.5"/>
    <path d="M 117.959601 108.549818 
L 117.959601 110.549157 
" clip-path="url(#p059ed75105)" style="fill: none; stroke: #000000; stroke-width: 0.5"/>
   </g>
   <g id="EventCollection_101"/>
   <g id="EventCollection_102">
    <path d="M 87.056878 104.55114 
L 87.056878 106.550479 
" clip-path="url(#p059ed75105)" style="fill: none; stroke: #000000; stroke-width: 0.5"/>
   </g>
   <g id="EventCollection_103"/>
   <g id="EventCollection_104"/>
   <g id="EventCollection_105">
    <path d="M 95.471631 98.553124 
L 95.471631 100.552463 
" clip-path="url(#p059ed75105)" style="fill: none; stroke: #000000; stroke-width: 0.5"/>
    <path d="M 102.263348 98.553124 
L 102.263348 100.552463 
" clip-path="url(#p059ed75105)" style="fill: none; stroke: #000000; stroke-width: 0.5"/>
   </g>
   <g id="EventCollection_106"/>
   <g id="EventCollection_107"/>
   <g id="EventCollection_108"/>
   <g id="EventCollection_109"/>
   <g id="EventCollection_110">
    <path d="M 111.009069 88.55643 
L 111.009069 90.555769 
" clip-path="url(#p059ed75105)" style="fill: none; stroke: #000000; stroke-width: 0.5"/>
   </g>
   <g id="EventCollection_111">
    <path d="M 96.524655 86.557091 
L 96.524655 88.55643 
" clip-path="url(#p059ed75105)" style="fill: none; stroke: #000000; stroke-width: 0.5"/>
    <path d="M 104.793724 86.557091 
L 104.793724 88.55643 
" clip-path="url(#p059ed75105)" style="fill: none; stroke: #000000; stroke-width: 0.5"/>
   </g>
   <g id="EventCollection_112"/>
   <g id="EventCollection_113">
    <path d="M 102.338447 82.558413 
L 102.338447 84.557752 
" clip-path="url(#p059ed75105)" style="fill: none; stroke: #000000; stroke-width: 0.5"/>
    <path d="M 121.188437 82.558413 
L 121.188437 84.557752 
" clip-path="url(#p059ed75105)" style="fill: none; stroke: #000000; stroke-width: 0.5"/>
    <path d="M 306.972269 82.558413 
L 306.972269 84.557752 
" clip-path="url(#p059ed75105)" style="fill: none; stroke: #000000; stroke-width: 0.5"/>
    <path d="M 308.996858 82.558413 
L 308.996858 84.557752 
" clip-path="url(#p059ed75105)" style="fill: none; stroke: #000000; stroke-width: 0.5"/>
   </g>
   <g id="EventCollection_114"/>
   <g id="EventCollection_115">
    <path d="M 94.521201 78.559736 
L 94.521201 80.559074 
" clip-path="url(#p059ed75105)" style="fill: none; stroke: #000000; stroke-width: 0.5"/>
    <path d="M 97.09282 78.559736 
L 97.09282 80.559074 
" clip-path="url(#p059ed75105)" style="fill: none; stroke: #000000; stroke-width: 0.5"/>
    <path d="M 102.400413 78.559736 
L 102.400413 80.559074 
" clip-path="url(#p059ed75105)" style="fill: none; stroke: #000000; stroke-width: 0.5"/>
    <path d="M 128.11722 78.559736 
L 128.11722 80.559074 
" clip-path="url(#p059ed75105)" style="fill: none; stroke: #000000; stroke-width: 0.5"/>
   </g>
   <g id="EventCollection_116"/>
   <g id="EventCollection_117"/>
   <g id="EventCollection_118"/>
   <g id="EventCollection_119">
    <path d="M 120.311875 70.56238 
L 120.311875 72.561719 
" clip-path="url(#p059ed75105)" style="fill: none; stroke: #000000; stroke-width: 0.5"/>
    <path d="M 127.342841 70.56238 
L 127.342841 72.561719 
" clip-path="url(#p059ed75105)" style="fill: none; stroke: #000000; stroke-width: 0.5"/>
   </g>
   <g id="EventCollection_120"/>
   <g id="EventCollection_121"/>
   <g id="EventCollection_122">
    <path d="M 100.333761 64.564364 
L 100.333761 66.563702 
" clip-path="url(#p059ed75105)" style="fill: none; stroke: #000000; stroke-width: 0.5"/>
   </g>
   <g id="EventCollection_123">
    <path d="M 84.846389 62.565025 
L 84.846389 64.564364 
" clip-path="url(#p059ed75105)" style="fill: none; stroke: #000000; stroke-width: 0.5"/>
    <path d="M 98.135789 62.565025 
L 98.135789 64.564364 
" clip-path="url(#p059ed75105)" style="fill: none; stroke: #000000; stroke-width: 0.5"/>
    <path d="M 102.301102 62.565025 
L 102.301102 64.564364 
" clip-path="url(#p059ed75105)" style="fill: none; stroke: #000000; stroke-width: 0.5"/>
   </g>
   <g id="EventCollection_124">
    <path d="M 90.661823 60.565686 
L 90.661823 62.565025 
" clip-path="url(#p059ed75105)" style="fill: none; stroke: #000000; stroke-width: 0.5"/>
   </g>
   <g id="EventCollection_125">
    <path d="M 120.517268 58.566347 
L 120.517268 60.565686 
" clip-path="url(#p059ed75105)" style="fill: none; stroke: #000000; stroke-width: 0.5"/>
    <path d="M 161.42495 58.566347 
L 161.42495 60.565686 
" clip-path="url(#p059ed75105)" style="fill: none; stroke: #000000; stroke-width: 0.5"/>
   </g>
   <g id="EventCollection_126"/>
   <g id="EventCollection_127">
    <path d="M 300.004091 54.567669 
L 300.004091 56.567008 
" clip-path="url(#p059ed75105)" style="fill: none; stroke: #000000; stroke-width: 0.5"/>
    <path d="M 301.618098 54.567669 
L 301.618098 56.567008 
" clip-path="url(#p059ed75105)" style="fill: none; stroke: #000000; stroke-width: 0.5"/>
   </g>
   <g id="patch_3">
    <path d="M 57.6 307.584 
L 57.6 41.472 
" style="fill: none; stroke: #000000; stroke-width: 0.8; stroke-linejoin: miter; stroke-linecap: square"/>
   </g>
   <g id="patch_4">
    <path d="M 414.72 307.584 
L 414.72 41.472 
" style="fill: none; stroke: #000000; stroke-width: 0.8; stroke-linejoin: miter; stroke-linecap: square"/>
   </g>
   <g id="patch_5">
    <path d="M 57.6 307.584 
L 414.72 307.584 
" style="fill: none; stroke: #000000; stroke-width: 0.8; stroke-linejoin: miter; stroke-linecap: square"/>
   </g>
   <g id="patch_6">
    <path d="M 57.6 41.472 
L 414.72 41.472 
" style="fill: none; stroke: #000000; stroke-width: 0.8; stroke-linejoin: miter; stroke-linecap: square"/>
   </g>
   <g id="text_18">
    <!-- Raster Plot - Cluster 248 -->
    <g transform="translate(162.964687 35.472) scale(0.12 -0.12)">
     <defs>
      <path id="DejaVuSans-52" d="M 2841 2188 
Q 3044 2119 3236 1894 
Q 3428 1669 3622 1275 
L 4263 0 
L 3584 0 
L 2988 1197 
Q 2756 1666 2539 1819 
Q 2322 1972 1947 1972 
L 1259 1972 
L 1259 0 
L 628 0 
L 628 4666 
L 2053 4666 
Q 2853 4666 3247 4331 
Q 3641 3997 3641 3322 
Q 3641 2881 3436 2590 
Q 3231 2300 2841 2188 
z
M 1259 4147 
L 1259 2491 
L 2053 2491 
Q 2509 2491 2742 2702 
Q 2975 2913 2975 3322 
Q 2975 3731 2742 3939 
Q 2509 4147 2053 4147 
L 1259 4147 
z
" transform="scale(0.015625)"/>
      <path id="DejaVuSans-74" d="M 1172 4494 
L 1172 3500 
L 2356 3500 
L 2356 3053 
L 1172 3053 
L 1172 1153 
Q 1172 725 1289 603 
Q 1406 481 1766 481 
L 2356 481 
L 2356 0 
L 1766 0 
Q 1100 0 847 248 
Q 594 497 594 1153 
L 594 3053 
L 172 3053 
L 172 3500 
L 594 3500 
L 594 4494 
L 1172 4494 
z
" transform="scale(0.015625)"/>
      <path id="DejaVuSans-50" d="M 1259 4147 
L 1259 2394 
L 2053 2394 
Q 2494 2394 2734 2622 
Q 2975 2850 2975 3272 
Q 2975 3691 2734 3919 
Q 2494 4147 2053 4147 
L 1259 4147 
z
M 628 4666 
L 2053 4666 
Q 2838 4666 3239 4311 
Q 3641 3956 3641 3272 
Q 3641 2581 3239 2228 
Q 2838 1875 2053 1875 
L 1259 1875 
L 1259 0 
L 628 0 
L 628 4666 
z
" transform="scale(0.015625)"/>
      <path id="DejaVuSans-6f" d="M 1959 3097 
Q 1497 3097 1228 2736 
Q 959 2375 959 1747 
Q 959 1119 1226 758 
Q 1494 397 1959 397 
Q 2419 397 2687 759 
Q 2956 1122 2956 1747 
Q 2956 2369 2687 2733 
Q 2419 3097 1959 3097 
z
M 1959 3584 
Q 2709 3584 3137 3096 
Q 3566 2609 3566 1747 
Q 3566 888 3137 398 
Q 2709 -91 1959 -91 
Q 1206 -91 779 398 
Q 353 888 353 1747 
Q 353 2609 779 3096 
Q 1206 3584 1959 3584 
z
" transform="scale(0.015625)"/>
      <path id="DejaVuSans-2d" d="M 313 2009 
L 1997 2009 
L 1997 1497 
L 313 1497 
L 313 2009 
z
" transform="scale(0.015625)"/>
      <path id="DejaVuSans-43" d="M 4122 4306 
L 4122 3641 
Q 3803 3938 3442 4084 
Q 3081 4231 2675 4231 
Q 1875 4231 1450 3742 
Q 1025 3253 1025 2328 
Q 1025 1406 1450 917 
Q 1875 428 2675 428 
Q 3081 428 3442 575 
Q 3803 722 4122 1019 
L 4122 359 
Q 3791 134 3420 21 
Q 3050 -91 2638 -91 
Q 1578 -91 968 557 
Q 359 1206 359 2328 
Q 359 3453 968 4101 
Q 1578 4750 2638 4750 
Q 3056 4750 3426 4639 
Q 3797 4528 4122 4306 
z
" transform="scale(0.015625)"/>
      <path id="DejaVuSans-75" d="M 544 1381 
L 544 3500 
L 1119 3500 
L 1119 1403 
Q 1119 906 1312 657 
Q 1506 409 1894 409 
Q 2359 409 2629 706 
Q 2900 1003 2900 1516 
L 2900 3500 
L 3475 3500 
L 3475 0 
L 2900 0 
L 2900 538 
Q 2691 219 2414 64 
Q 2138 -91 1772 -91 
Q 1169 -91 856 284 
Q 544 659 544 1381 
z
M 1991 3584 
L 1991 3584 
z
" transform="scale(0.015625)"/>
     </defs>
     <use xlink:href="#DejaVuSans-52"/>
     <use xlink:href="#DejaVuSans-61" x="67.232422"/>
     <use xlink:href="#DejaVuSans-73" x="128.511719"/>
     <use xlink:href="#DejaVuSans-74" x="180.611328"/>
     <use xlink:href="#DejaVuSans-65" x="219.820312"/>
     <use xlink:href="#DejaVuSans-72" x="281.34375"/>
     <use xlink:href="#DejaVuSans-20" x="322.457031"/>
     <use xlink:href="#DejaVuSans-50" x="354.244141"/>
     <use xlink:href="#DejaVuSans-6c" x="414.546875"/>
     <use xlink:href="#DejaVuSans-6f" x="442.330078"/>
     <use xlink:href="#DejaVuSans-74" x="503.511719"/>
     <use xlink:href="#DejaVuSans-20" x="542.720703"/>
     <use xlink:href="#DejaVuSans-2d" x="574.507812"/>
     <use xlink:href="#DejaVuSans-20" x="610.591797"/>
     <use xlink:href="#DejaVuSans-43" x="642.378906"/>
     <use xlink:href="#DejaVuSans-6c" x="712.203125"/>
     <use xlink:href="#DejaVuSans-75" x="739.986328"/>
     <use xlink:href="#DejaVuSans-73" x="803.365234"/>
     <use xlink:href="#DejaVuSans-74" x="855.464844"/>
     <use xlink:href="#DejaVuSans-65" x="894.673828"/>
     <use xlink:href="#DejaVuSans-72" x="956.197266"/>
     <use xlink:href="#DejaVuSans-20" x="997.310547"/>
     <use xlink:href="#DejaVuSans-32" x="1029.097656"/>
     <use xlink:href="#DejaVuSans-34" x="1092.720703"/>
     <use xlink:href="#DejaVuSans-38" x="1156.34375"/>
    </g>
   </g>
  </g>
 </g>
 <defs>
  <clipPath id="p059ed75105">
   <rect x="57.6" y="41.472" width="357.12" height="266.112"/>
  </clipPath>
 </defs>
</svg>
