<?xml version="1.0" encoding="utf-8" standalone="no"?>
<!DOCTYPE svg PUBLIC "-//W3C//DTD SVG 1.1//EN"
  "http://www.w3.org/Graphics/SVG/1.1/DTD/svg11.dtd">
<svg xmlns:xlink="http://www.w3.org/1999/xlink" width="460.8pt" height="345.6pt" viewBox="0 0 460.8 345.6" xmlns="http://www.w3.org/2000/svg" version="1.1">
 <metadata>
  <rdf:RDF xmlns:dc="http://purl.org/dc/elements/1.1/" xmlns:cc="http://creativecommons.org/ns#" xmlns:rdf="http://www.w3.org/1999/02/22-rdf-syntax-ns#">
   <cc:Work>
    <dc:type rdf:resource="http://purl.org/dc/dcmitype/StillImage"/>
    <dc:date>2024-03-26T13:54:00.136414</dc:date>
    <dc:format>image/svg+xml</dc:format>
    <dc:creator>
     <cc:Agent>
      <dc:title>Matplotlib v3.8.0, https://matplotlib.org/</dc:title>
     </cc:Agent>
    </dc:creator>
   </cc:Work>
  </rdf:RDF>
 </metadata>
 <defs>
  <style type="text/css">*{stroke-linejoin: round; stroke-linecap: butt}</style>
 </defs>
 <g id="figure_1">
  <g id="patch_1">
   <path d="M 0 345.6 
L 460.8 345.6 
L 460.8 0 
L 0 0 
z
" style="fill: #ffffff"/>
  </g>
  <g id="axes_1">
   <g id="patch_2">
    <path d="M 57.6 307.584 
L 414.72 307.584 
L 414.72 41.472 
L 57.6 41.472 
z
" style="fill: #ffffff"/>
   </g>
   <g id="matplotlib.axis_1">
    <g id="xtick_1">
     <g id="line2d_1">
      <defs>
       <path id="m3325b54965" d="M 0 0 
L 0 3.5 
" style="stroke: #000000; stroke-width: 0.8"/>
      </defs>
      <g>
       <use xlink:href="#m3325b54965" x="73.295606" y="307.584" style="stroke: #000000; stroke-width: 0.8"/>
      </g>
     </g>
     <g id="text_1">
      <!-- −0.2 -->
      <g transform="translate(61.154199 322.182437) scale(0.1 -0.1)">
       <defs>
        <path id="DejaVuSans-2212" d="M 678 2272 
L 4684 2272 
L 4684 1741 
L 678 1741 
L 678 2272 
z
" transform="scale(0.015625)"/>
        <path id="DejaVuSans-30" d="M 2034 4250 
Q 1547 4250 1301 3770 
Q 1056 3291 1056 2328 
Q 1056 1369 1301 889 
Q 1547 409 2034 409 
Q 2525 409 2770 889 
Q 3016 1369 3016 2328 
Q 3016 3291 2770 3770 
Q 2525 4250 2034 4250 
z
M 2034 4750 
Q 2819 4750 3233 4129 
Q 3647 3509 3647 2328 
Q 3647 1150 3233 529 
Q 2819 -91 2034 -91 
Q 1250 -91 836 529 
Q 422 1150 422 2328 
Q 422 3509 836 4129 
Q 1250 4750 2034 4750 
z
" transform="scale(0.015625)"/>
        <path id="DejaVuSans-2e" d="M 684 794 
L 1344 794 
L 1344 0 
L 684 0 
L 684 794 
z
" transform="scale(0.015625)"/>
        <path id="DejaVuSans-32" d="M 1228 531 
L 3431 531 
L 3431 0 
L 469 0 
L 469 531 
Q 828 903 1448 1529 
Q 2069 2156 2228 2338 
Q 2531 2678 2651 2914 
Q 2772 3150 2772 3378 
Q 2772 3750 2511 3984 
Q 2250 4219 1831 4219 
Q 1534 4219 1204 4116 
Q 875 4013 500 3803 
L 500 4441 
Q 881 4594 1212 4672 
Q 1544 4750 1819 4750 
Q 2544 4750 2975 4387 
Q 3406 4025 3406 3419 
Q 3406 3131 3298 2873 
Q 3191 2616 2906 2266 
Q 2828 2175 2409 1742 
Q 1991 1309 1228 531 
z
" transform="scale(0.015625)"/>
       </defs>
       <use xlink:href="#DejaVuSans-2212"/>
       <use xlink:href="#DejaVuSans-30" x="83.789062"/>
       <use xlink:href="#DejaVuSans-2e" x="147.412109"/>
       <use xlink:href="#DejaVuSans-32" x="179.199219"/>
      </g>
     </g>
    </g>
    <g id="xtick_2">
     <g id="line2d_2">
      <g>
       <use xlink:href="#m3325b54965" x="122.102664" y="307.584" style="stroke: #000000; stroke-width: 0.8"/>
      </g>
     </g>
     <g id="text_2">
      <!-- 0.0 -->
      <g transform="translate(114.151101 322.182437) scale(0.1 -0.1)">
       <use xlink:href="#DejaVuSans-30"/>
       <use xlink:href="#DejaVuSans-2e" x="63.623047"/>
       <use xlink:href="#DejaVuSans-30" x="95.410156"/>
      </g>
     </g>
    </g>
    <g id="xtick_3">
     <g id="line2d_3">
      <g>
       <use xlink:href="#m3325b54965" x="170.909722" y="307.584" style="stroke: #000000; stroke-width: 0.8"/>
      </g>
     </g>
     <g id="text_3">
      <!-- 0.2 -->
      <g transform="translate(162.958159 322.182437) scale(0.1 -0.1)">
       <use xlink:href="#DejaVuSans-30"/>
       <use xlink:href="#DejaVuSans-2e" x="63.623047"/>
       <use xlink:href="#DejaVuSans-32" x="95.410156"/>
      </g>
     </g>
    </g>
    <g id="xtick_4">
     <g id="line2d_4">
      <g>
       <use xlink:href="#m3325b54965" x="219.71678" y="307.584" style="stroke: #000000; stroke-width: 0.8"/>
      </g>
     </g>
     <g id="text_4">
      <!-- 0.4 -->
      <g transform="translate(211.765218 322.182437) scale(0.1 -0.1)">
       <defs>
        <path id="DejaVuSans-34" d="M 2419 4116 
L 825 1625 
L 2419 1625 
L 2419 4116 
z
M 2253 4666 
L 3047 4666 
L 3047 1625 
L 3713 1625 
L 3713 1100 
L 3047 1100 
L 3047 0 
L 2419 0 
L 2419 1100 
L 313 1100 
L 313 1709 
L 2253 4666 
z
" transform="scale(0.015625)"/>
       </defs>
       <use xlink:href="#DejaVuSans-30"/>
       <use xlink:href="#DejaVuSans-2e" x="63.623047"/>
       <use xlink:href="#DejaVuSans-34" x="95.410156"/>
      </g>
     </g>
    </g>
    <g id="xtick_5">
     <g id="line2d_5">
      <g>
       <use xlink:href="#m3325b54965" x="268.523838" y="307.584" style="stroke: #000000; stroke-width: 0.8"/>
      </g>
     </g>
     <g id="text_5">
      <!-- 0.6 -->
      <g transform="translate(260.572276 322.182437) scale(0.1 -0.1)">
       <defs>
        <path id="DejaVuSans-36" d="M 2113 2584 
Q 1688 2584 1439 2293 
Q 1191 2003 1191 1497 
Q 1191 994 1439 701 
Q 1688 409 2113 409 
Q 2538 409 2786 701 
Q 3034 994 3034 1497 
Q 3034 2003 2786 2293 
Q 2538 2584 2113 2584 
z
M 3366 4563 
L 3366 3988 
Q 3128 4100 2886 4159 
Q 2644 4219 2406 4219 
Q 1781 4219 1451 3797 
Q 1122 3375 1075 2522 
Q 1259 2794 1537 2939 
Q 1816 3084 2150 3084 
Q 2853 3084 3261 2657 
Q 3669 2231 3669 1497 
Q 3669 778 3244 343 
Q 2819 -91 2113 -91 
Q 1303 -91 875 529 
Q 447 1150 447 2328 
Q 447 3434 972 4092 
Q 1497 4750 2381 4750 
Q 2619 4750 2861 4703 
Q 3103 4656 3366 4563 
z
" transform="scale(0.015625)"/>
       </defs>
       <use xlink:href="#DejaVuSans-30"/>
       <use xlink:href="#DejaVuSans-2e" x="63.623047"/>
       <use xlink:href="#DejaVuSans-36" x="95.410156"/>
      </g>
     </g>
    </g>
    <g id="xtick_6">
     <g id="line2d_6">
      <g>
       <use xlink:href="#m3325b54965" x="317.330896" y="307.584" style="stroke: #000000; stroke-width: 0.8"/>
      </g>
     </g>
     <g id="text_6">
      <!-- 0.8 -->
      <g transform="translate(309.379334 322.182437) scale(0.1 -0.1)">
       <defs>
        <path id="DejaVuSans-38" d="M 2034 2216 
Q 1584 2216 1326 1975 
Q 1069 1734 1069 1313 
Q 1069 891 1326 650 
Q 1584 409 2034 409 
Q 2484 409 2743 651 
Q 3003 894 3003 1313 
Q 3003 1734 2745 1975 
Q 2488 2216 2034 2216 
z
M 1403 2484 
Q 997 2584 770 2862 
Q 544 3141 544 3541 
Q 544 4100 942 4425 
Q 1341 4750 2034 4750 
Q 2731 4750 3128 4425 
Q 3525 4100 3525 3541 
Q 3525 3141 3298 2862 
Q 3072 2584 2669 2484 
Q 3125 2378 3379 2068 
Q 3634 1759 3634 1313 
Q 3634 634 3220 271 
Q 2806 -91 2034 -91 
Q 1263 -91 848 271 
Q 434 634 434 1313 
Q 434 1759 690 2068 
Q 947 2378 1403 2484 
z
M 1172 3481 
Q 1172 3119 1398 2916 
Q 1625 2713 2034 2713 
Q 2441 2713 2670 2916 
Q 2900 3119 2900 3481 
Q 2900 3844 2670 4047 
Q 2441 4250 2034 4250 
Q 1625 4250 1398 4047 
Q 1172 3844 1172 3481 
z
" transform="scale(0.015625)"/>
       </defs>
       <use xlink:href="#DejaVuSans-30"/>
       <use xlink:href="#DejaVuSans-2e" x="63.623047"/>
       <use xlink:href="#DejaVuSans-38" x="95.410156"/>
      </g>
     </g>
    </g>
    <g id="xtick_7">
     <g id="line2d_7">
      <g>
       <use xlink:href="#m3325b54965" x="366.137955" y="307.584" style="stroke: #000000; stroke-width: 0.8"/>
      </g>
     </g>
     <g id="text_7">
      <!-- 1.0 -->
      <g transform="translate(358.186392 322.182437) scale(0.1 -0.1)">
       <defs>
        <path id="DejaVuSans-31" d="M 794 531 
L 1825 531 
L 1825 4091 
L 703 3866 
L 703 4441 
L 1819 4666 
L 2450 4666 
L 2450 531 
L 3481 531 
L 3481 0 
L 794 0 
L 794 531 
z
" transform="scale(0.015625)"/>
       </defs>
       <use xlink:href="#DejaVuSans-31"/>
       <use xlink:href="#DejaVuSans-2e" x="63.623047"/>
       <use xlink:href="#DejaVuSans-30" x="95.410156"/>
      </g>
     </g>
    </g>
    <g id="text_8">
     <!-- Time (s) -->
     <g transform="translate(215.831094 335.860562) scale(0.1 -0.1)">
      <defs>
       <path id="DejaVuSans-54" d="M -19 4666 
L 3928 4666 
L 3928 4134 
L 2272 4134 
L 2272 0 
L 1638 0 
L 1638 4134 
L -19 4134 
L -19 4666 
z
" transform="scale(0.015625)"/>
       <path id="DejaVuSans-69" d="M 603 3500 
L 1178 3500 
L 1178 0 
L 603 0 
L 603 3500 
z
M 603 4863 
L 1178 4863 
L 1178 4134 
L 603 4134 
L 603 4863 
z
" transform="scale(0.015625)"/>
       <path id="DejaVuSans-6d" d="M 3328 2828 
Q 3544 3216 3844 3400 
Q 4144 3584 4550 3584 
Q 5097 3584 5394 3201 
Q 5691 2819 5691 2113 
L 5691 0 
L 5113 0 
L 5113 2094 
Q 5113 2597 4934 2840 
Q 4756 3084 4391 3084 
Q 3944 3084 3684 2787 
Q 3425 2491 3425 1978 
L 3425 0 
L 2847 0 
L 2847 2094 
Q 2847 2600 2669 2842 
Q 2491 3084 2119 3084 
Q 1678 3084 1418 2786 
Q 1159 2488 1159 1978 
L 1159 0 
L 581 0 
L 581 3500 
L 1159 3500 
L 1159 2956 
Q 1356 3278 1631 3431 
Q 1906 3584 2284 3584 
Q 2666 3584 2933 3390 
Q 3200 3197 3328 2828 
z
" transform="scale(0.015625)"/>
       <path id="DejaVuSans-65" d="M 3597 1894 
L 3597 1613 
L 953 1613 
Q 991 1019 1311 708 
Q 1631 397 2203 397 
Q 2534 397 2845 478 
Q 3156 559 3463 722 
L 3463 178 
Q 3153 47 2828 -22 
Q 2503 -91 2169 -91 
Q 1331 -91 842 396 
Q 353 884 353 1716 
Q 353 2575 817 3079 
Q 1281 3584 2069 3584 
Q 2775 3584 3186 3129 
Q 3597 2675 3597 1894 
z
M 3022 2063 
Q 3016 2534 2758 2815 
Q 2500 3097 2075 3097 
Q 1594 3097 1305 2825 
Q 1016 2553 972 2059 
L 3022 2063 
z
" transform="scale(0.015625)"/>
       <path id="DejaVuSans-20" transform="scale(0.015625)"/>
       <path id="DejaVuSans-28" d="M 1984 4856 
Q 1566 4138 1362 3434 
Q 1159 2731 1159 2009 
Q 1159 1288 1364 580 
Q 1569 -128 1984 -844 
L 1484 -844 
Q 1016 -109 783 600 
Q 550 1309 550 2009 
Q 550 2706 781 3412 
Q 1013 4119 1484 4856 
L 1984 4856 
z
" transform="scale(0.015625)"/>
       <path id="DejaVuSans-73" d="M 2834 3397 
L 2834 2853 
Q 2591 2978 2328 3040 
Q 2066 3103 1784 3103 
Q 1356 3103 1142 2972 
Q 928 2841 928 2578 
Q 928 2378 1081 2264 
Q 1234 2150 1697 2047 
L 1894 2003 
Q 2506 1872 2764 1633 
Q 3022 1394 3022 966 
Q 3022 478 2636 193 
Q 2250 -91 1575 -91 
Q 1294 -91 989 -36 
Q 684 19 347 128 
L 347 722 
Q 666 556 975 473 
Q 1284 391 1588 391 
Q 1994 391 2212 530 
Q 2431 669 2431 922 
Q 2431 1156 2273 1281 
Q 2116 1406 1581 1522 
L 1381 1569 
Q 847 1681 609 1914 
Q 372 2147 372 2553 
Q 372 3047 722 3315 
Q 1072 3584 1716 3584 
Q 2034 3584 2315 3537 
Q 2597 3491 2834 3397 
z
" transform="scale(0.015625)"/>
       <path id="DejaVuSans-29" d="M 513 4856 
L 1013 4856 
Q 1481 4119 1714 3412 
Q 1947 2706 1947 2009 
Q 1947 1309 1714 600 
Q 1481 -109 1013 -844 
L 513 -844 
Q 928 -128 1133 580 
Q 1338 1288 1338 2009 
Q 1338 2731 1133 3434 
Q 928 4138 513 4856 
z
" transform="scale(0.015625)"/>
      </defs>
      <use xlink:href="#DejaVuSans-54"/>
      <use xlink:href="#DejaVuSans-69" x="57.958984"/>
      <use xlink:href="#DejaVuSans-6d" x="85.742188"/>
      <use xlink:href="#DejaVuSans-65" x="183.154297"/>
      <use xlink:href="#DejaVuSans-20" x="244.677734"/>
      <use xlink:href="#DejaVuSans-28" x="276.464844"/>
      <use xlink:href="#DejaVuSans-73" x="315.478516"/>
      <use xlink:href="#DejaVuSans-29" x="367.578125"/>
     </g>
    </g>
   </g>
   <g id="matplotlib.axis_2">
    <g id="ytick_1">
     <g id="line2d_8">
      <defs>
       <path id="m77a525c641" d="M 0 0 
L -3.5 0 
" style="stroke: #000000; stroke-width: 0.8"/>
      </defs>
      <g>
       <use xlink:href="#m77a525c641" x="57.6" y="297.408" style="stroke: #000000; stroke-width: 0.8"/>
      </g>
     </g>
     <g id="text_9">
      <!-- 0 -->
      <g transform="translate(44.2375 301.207219) scale(0.1 -0.1)">
       <use xlink:href="#DejaVuSans-30"/>
      </g>
     </g>
    </g>
    <g id="ytick_2">
     <g id="line2d_9">
      <g>
       <use xlink:href="#m77a525c641" x="57.6" y="259.008" style="stroke: #000000; stroke-width: 0.8"/>
      </g>
     </g>
     <g id="text_10">
      <!-- 20 -->
      <g transform="translate(37.875 262.807219) scale(0.1 -0.1)">
       <use xlink:href="#DejaVuSans-32"/>
       <use xlink:href="#DejaVuSans-30" x="63.623047"/>
      </g>
     </g>
    </g>
    <g id="ytick_3">
     <g id="line2d_10">
      <g>
       <use xlink:href="#m77a525c641" x="57.6" y="220.608" style="stroke: #000000; stroke-width: 0.8"/>
      </g>
     </g>
     <g id="text_11">
      <!-- 40 -->
      <g transform="translate(37.875 224.407219) scale(0.1 -0.1)">
       <use xlink:href="#DejaVuSans-34"/>
       <use xlink:href="#DejaVuSans-30" x="63.623047"/>
      </g>
     </g>
    </g>
    <g id="ytick_4">
     <g id="line2d_11">
      <g>
       <use xlink:href="#m77a525c641" x="57.6" y="182.208" style="stroke: #000000; stroke-width: 0.8"/>
      </g>
     </g>
     <g id="text_12">
      <!-- 60 -->
      <g transform="translate(37.875 186.007219) scale(0.1 -0.1)">
       <use xlink:href="#DejaVuSans-36"/>
       <use xlink:href="#DejaVuSans-30" x="63.623047"/>
      </g>
     </g>
    </g>
    <g id="ytick_5">
     <g id="line2d_12">
      <g>
       <use xlink:href="#m77a525c641" x="57.6" y="143.808" style="stroke: #000000; stroke-width: 0.8"/>
      </g>
     </g>
     <g id="text_13">
      <!-- 80 -->
      <g transform="translate(37.875 147.607219) scale(0.1 -0.1)">
       <use xlink:href="#DejaVuSans-38"/>
       <use xlink:href="#DejaVuSans-30" x="63.623047"/>
      </g>
     </g>
    </g>
    <g id="ytick_6">
     <g id="line2d_13">
      <g>
       <use xlink:href="#m77a525c641" x="57.6" y="105.408" style="stroke: #000000; stroke-width: 0.8"/>
      </g>
     </g>
     <g id="text_14">
      <!-- 100 -->
      <g transform="translate(31.5125 109.207219) scale(0.1 -0.1)">
       <use xlink:href="#DejaVuSans-31"/>
       <use xlink:href="#DejaVuSans-30" x="63.623047"/>
       <use xlink:href="#DejaVuSans-30" x="127.246094"/>
      </g>
     </g>
    </g>
    <g id="ytick_7">
     <g id="line2d_14">
      <g>
       <use xlink:href="#m77a525c641" x="57.6" y="67.008" style="stroke: #000000; stroke-width: 0.8"/>
      </g>
     </g>
     <g id="text_15">
      <!-- 120 -->
      <g transform="translate(31.5125 70.807219) scale(0.1 -0.1)">
       <use xlink:href="#DejaVuSans-31"/>
       <use xlink:href="#DejaVuSans-32" x="63.623047"/>
       <use xlink:href="#DejaVuSans-30" x="127.246094"/>
      </g>
     </g>
    </g>
    <g id="text_16">
     <!-- Trial -->
     <g transform="translate(25.432812 184.742063) rotate(-90) scale(0.1 -0.1)">
      <defs>
       <path id="DejaVuSans-72" d="M 2631 2963 
Q 2534 3019 2420 3045 
Q 2306 3072 2169 3072 
Q 1681 3072 1420 2755 
Q 1159 2438 1159 1844 
L 1159 0 
L 581 0 
L 581 3500 
L 1159 3500 
L 1159 2956 
Q 1341 3275 1631 3429 
Q 1922 3584 2338 3584 
Q 2397 3584 2469 3576 
Q 2541 3569 2628 3553 
L 2631 2963 
z
" transform="scale(0.015625)"/>
       <path id="DejaVuSans-61" d="M 2194 1759 
Q 1497 1759 1228 1600 
Q 959 1441 959 1056 
Q 959 750 1161 570 
Q 1363 391 1709 391 
Q 2188 391 2477 730 
Q 2766 1069 2766 1631 
L 2766 1759 
L 2194 1759 
z
M 3341 1997 
L 3341 0 
L 2766 0 
L 2766 531 
Q 2569 213 2275 61 
Q 1981 -91 1556 -91 
Q 1019 -91 701 211 
Q 384 513 384 1019 
Q 384 1609 779 1909 
Q 1175 2209 1959 2209 
L 2766 2209 
L 2766 2266 
Q 2766 2663 2505 2880 
Q 2244 3097 1772 3097 
Q 1472 3097 1187 3025 
Q 903 2953 641 2809 
L 641 3341 
Q 956 3463 1253 3523 
Q 1550 3584 1831 3584 
Q 2591 3584 2966 3190 
Q 3341 2797 3341 1997 
z
" transform="scale(0.015625)"/>
       <path id="DejaVuSans-6c" d="M 603 4863 
L 1178 4863 
L 1178 0 
L 603 0 
L 603 4863 
z
" transform="scale(0.015625)"/>
      </defs>
      <use xlink:href="#DejaVuSans-54"/>
      <use xlink:href="#DejaVuSans-72" x="46.333984"/>
      <use xlink:href="#DejaVuSans-69" x="87.447266"/>
      <use xlink:href="#DejaVuSans-61" x="115.230469"/>
      <use xlink:href="#DejaVuSans-6c" x="176.509766"/>
     </g>
    </g>
   </g>
   <g id="EventCollection_1"/>
   <g id="EventCollection_2">
    <path d="M 81.708234 292.608 
L 81.708234 294.528 
" clip-path="url(#pe12616e18b)" style="fill: none; stroke: #000000; stroke-width: 0.5"/>
    <path d="M 81.797795 292.608 
L 81.797795 294.528 
" clip-path="url(#pe12616e18b)" style="fill: none; stroke: #000000; stroke-width: 0.5"/>
    <path d="M 85.116675 292.608 
L 85.116675 294.528 
" clip-path="url(#pe12616e18b)" style="fill: none; stroke: #000000; stroke-width: 0.5"/>
    <path d="M 91.144347 292.608 
L 91.144347 294.528 
" clip-path="url(#pe12616e18b)" style="fill: none; stroke: #000000; stroke-width: 0.5"/>
   </g>
   <g id="EventCollection_3"/>
   <g id="EventCollection_4"/>
   <g id="EventCollection_5">
    <path d="M 176.453472 286.848 
L 176.453472 288.768 
" clip-path="url(#pe12616e18b)" style="fill: none; stroke: #000000; stroke-width: 0.5"/>
   </g>
   <g id="EventCollection_6"/>
   <g id="EventCollection_7"/>
   <g id="EventCollection_8"/>
   <g id="EventCollection_9"/>
   <g id="EventCollection_10"/>
   <g id="EventCollection_11"/>
   <g id="EventCollection_12"/>
   <g id="EventCollection_13"/>
   <g id="EventCollection_14"/>
   <g id="EventCollection_15"/>
   <g id="EventCollection_16"/>
   <g id="EventCollection_17"/>
   <g id="EventCollection_18"/>
   <g id="EventCollection_19"/>
   <g id="EventCollection_20"/>
   <g id="EventCollection_21"/>
   <g id="EventCollection_22"/>
   <g id="EventCollection_23"/>
   <g id="EventCollection_24"/>
   <g id="EventCollection_25"/>
   <g id="EventCollection_26"/>
   <g id="EventCollection_27"/>
   <g id="EventCollection_28"/>
   <g id="EventCollection_29"/>
   <g id="EventCollection_30"/>
   <g id="EventCollection_31"/>
   <g id="EventCollection_32"/>
   <g id="EventCollection_33"/>
   <g id="EventCollection_34"/>
   <g id="EventCollection_35">
    <path d="M 336.127471 229.248 
L 336.127471 231.168 
" clip-path="url(#pe12616e18b)" style="fill: none; stroke: #000000; stroke-width: 0.5"/>
   </g>
   <g id="EventCollection_36"/>
   <g id="EventCollection_37"/>
   <g id="EventCollection_38"/>
   <g id="EventCollection_39"/>
   <g id="EventCollection_40"/>
   <g id="EventCollection_41">
    <path d="M 208.79376 217.728 
L 208.79376 219.648 
" clip-path="url(#pe12616e18b)" style="fill: none; stroke: #000000; stroke-width: 0.5"/>
   </g>
   <g id="EventCollection_42">
    <path d="M 219.349751 215.808 
L 219.349751 217.728 
" clip-path="url(#pe12616e18b)" style="fill: none; stroke: #000000; stroke-width: 0.5"/>
   </g>
   <g id="EventCollection_43"/>
   <g id="EventCollection_44"/>
   <g id="EventCollection_45"/>
   <g id="EventCollection_46"/>
   <g id="EventCollection_47"/>
   <g id="EventCollection_48"/>
   <g id="EventCollection_49"/>
   <g id="EventCollection_50"/>
   <g id="EventCollection_51"/>
   <g id="EventCollection_52">
    <path d="M 242.510408 196.608 
L 242.510408 198.528 
" clip-path="url(#pe12616e18b)" style="fill: none; stroke: #000000; stroke-width: 0.5"/>
    <path d="M 273.185644 196.608 
L 273.185644 198.528 
" clip-path="url(#pe12616e18b)" style="fill: none; stroke: #000000; stroke-width: 0.5"/>
    <path d="M 300.5093 196.608 
L 300.5093 198.528 
" clip-path="url(#pe12616e18b)" style="fill: none; stroke: #000000; stroke-width: 0.5"/>
   </g>
   <g id="EventCollection_53"/>
   <g id="EventCollection_54"/>
   <g id="EventCollection_55"/>
   <g id="EventCollection_56"/>
   <g id="EventCollection_57">
    <path d="M 73.832727 187.008 
L 73.832727 188.928 
" clip-path="url(#pe12616e18b)" style="fill: none; stroke: #000000; stroke-width: 0.5"/>
    <path d="M 74.638044 187.008 
L 74.638044 188.928 
" clip-path="url(#pe12616e18b)" style="fill: none; stroke: #000000; stroke-width: 0.5"/>
    <path d="M 89.182547 187.008 
L 89.182547 188.928 
" clip-path="url(#pe12616e18b)" style="fill: none; stroke: #000000; stroke-width: 0.5"/>
    <path d="M 150.711897 187.008 
L 150.711897 188.928 
" clip-path="url(#pe12616e18b)" style="fill: none; stroke: #000000; stroke-width: 0.5"/>
    <path d="M 152.078495 187.008 
L 152.078495 188.928 
" clip-path="url(#pe12616e18b)" style="fill: none; stroke: #000000; stroke-width: 0.5"/>
    <path d="M 197.778251 187.008 
L 197.778251 188.928 
" clip-path="url(#pe12616e18b)" style="fill: none; stroke: #000000; stroke-width: 0.5"/>
    <path d="M 199.315674 187.008 
L 199.315674 188.928 
" clip-path="url(#pe12616e18b)" style="fill: none; stroke: #000000; stroke-width: 0.5"/>
    <path d="M 199.974569 187.008 
L 199.974569 188.928 
" clip-path="url(#pe12616e18b)" style="fill: none; stroke: #000000; stroke-width: 0.5"/>
   </g>
   <g id="EventCollection_58"/>
   <g id="EventCollection_59"/>
   <g id="EventCollection_60">
    <path d="M 234.907245 181.248 
L 234.907245 183.168 
" clip-path="url(#pe12616e18b)" style="fill: none; stroke: #000000; stroke-width: 0.5"/>
   </g>
   <g id="EventCollection_61"/>
   <g id="EventCollection_62">
    <path d="M 294.2332 177.408 
L 294.2332 179.328 
" clip-path="url(#pe12616e18b)" style="fill: none; stroke: #000000; stroke-width: 0.5"/>
   </g>
   <g id="EventCollection_63"/>
   <g id="EventCollection_64">
    <path d="M 250.653378 173.568 
L 250.653378 175.488 
" clip-path="url(#pe12616e18b)" style="fill: none; stroke: #000000; stroke-width: 0.5"/>
    <path d="M 279.962016 173.568 
L 279.962016 175.488 
" clip-path="url(#pe12616e18b)" style="fill: none; stroke: #000000; stroke-width: 0.5"/>
    <path d="M 283.565686 173.568 
L 283.565686 175.488 
" clip-path="url(#pe12616e18b)" style="fill: none; stroke: #000000; stroke-width: 0.5"/>
    <path d="M 341.11726 173.568 
L 341.11726 175.488 
" clip-path="url(#pe12616e18b)" style="fill: none; stroke: #000000; stroke-width: 0.5"/>
   </g>
   <g id="EventCollection_65">
    <path d="M 331.220897 171.648 
L 331.220897 173.568 
" clip-path="url(#pe12616e18b)" style="fill: none; stroke: #000000; stroke-width: 0.5"/>
   </g>
   <g id="EventCollection_66"/>
   <g id="EventCollection_67"/>
   <g id="EventCollection_68"/>
   <g id="EventCollection_69"/>
   <g id="EventCollection_70"/>
   <g id="EventCollection_71">
    <path d="M 323.088665 160.128 
L 323.088665 162.048 
" clip-path="url(#pe12616e18b)" style="fill: none; stroke: #000000; stroke-width: 0.5"/>
   </g>
   <g id="EventCollection_72"/>
   <g id="EventCollection_73">
    <path d="M 140.988555 156.288 
L 140.988555 158.208 
" clip-path="url(#pe12616e18b)" style="fill: none; stroke: #000000; stroke-width: 0.5"/>
   </g>
   <g id="EventCollection_74"/>
   <g id="EventCollection_75">
    <path d="M 86.68875 152.448 
L 86.68875 154.368 
" clip-path="url(#pe12616e18b)" style="fill: none; stroke: #000000; stroke-width: 0.5"/>
    <path d="M 100.785693 152.448 
L 100.785693 154.368 
" clip-path="url(#pe12616e18b)" style="fill: none; stroke: #000000; stroke-width: 0.5"/>
   </g>
   <g id="EventCollection_76"/>
   <g id="EventCollection_77"/>
   <g id="EventCollection_78">
    <path d="M 221.681996 146.688 
L 221.681996 148.608 
" clip-path="url(#pe12616e18b)" style="fill: none; stroke: #000000; stroke-width: 0.5"/>
   </g>
   <g id="EventCollection_79">
    <path d="M 78.394235 144.768 
L 78.394235 146.688 
" clip-path="url(#pe12616e18b)" style="fill: none; stroke: #000000; stroke-width: 0.5"/>
    <path d="M 101.227885 144.768 
L 101.227885 146.688 
" clip-path="url(#pe12616e18b)" style="fill: none; stroke: #000000; stroke-width: 0.5"/>
    <path d="M 101.333552 144.768 
L 101.333552 146.688 
" clip-path="url(#pe12616e18b)" style="fill: none; stroke: #000000; stroke-width: 0.5"/>
    <path d="M 110.257191 144.768 
L 110.257191 146.688 
" clip-path="url(#pe12616e18b)" style="fill: none; stroke: #000000; stroke-width: 0.5"/>
    <path d="M 111.989841 144.768 
L 111.989841 146.688 
" clip-path="url(#pe12616e18b)" style="fill: none; stroke: #000000; stroke-width: 0.5"/>
    <path d="M 112.616036 144.768 
L 112.616036 146.688 
" clip-path="url(#pe12616e18b)" style="fill: none; stroke: #000000; stroke-width: 0.5"/>
    <path d="M 135.97851 144.768 
L 135.97851 146.688 
" clip-path="url(#pe12616e18b)" style="fill: none; stroke: #000000; stroke-width: 0.5"/>
    <path d="M 137.271897 144.768 
L 137.271897 146.688 
" clip-path="url(#pe12616e18b)" style="fill: none; stroke: #000000; stroke-width: 0.5"/>
    <path d="M 142.396639 144.768 
L 142.396639 146.688 
" clip-path="url(#pe12616e18b)" style="fill: none; stroke: #000000; stroke-width: 0.5"/>
    <path d="M 147.415468 144.768 
L 147.415468 146.688 
" clip-path="url(#pe12616e18b)" style="fill: none; stroke: #000000; stroke-width: 0.5"/>
    <path d="M 147.960643 144.768 
L 147.960643 146.688 
" clip-path="url(#pe12616e18b)" style="fill: none; stroke: #000000; stroke-width: 0.5"/>
    <path d="M 154.980562 144.768 
L 154.980562 146.688 
" clip-path="url(#pe12616e18b)" style="fill: none; stroke: #000000; stroke-width: 0.5"/>
    <path d="M 157.575634 144.768 
L 157.575634 146.688 
" clip-path="url(#pe12616e18b)" style="fill: none; stroke: #000000; stroke-width: 0.5"/>
    <path d="M 159.226776 144.768 
L 159.226776 146.688 
" clip-path="url(#pe12616e18b)" style="fill: none; stroke: #000000; stroke-width: 0.5"/>
    <path d="M 178.180265 144.768 
L 178.180265 146.688 
" clip-path="url(#pe12616e18b)" style="fill: none; stroke: #000000; stroke-width: 0.5"/>
   </g>
   <g id="EventCollection_80"/>
   <g id="EventCollection_81"/>
   <g id="EventCollection_82">
    <path d="M 343.384104 139.008 
L 343.384104 140.928 
" clip-path="url(#pe12616e18b)" style="fill: none; stroke: #000000; stroke-width: 0.5"/>
    <path d="M 353.137218 139.008 
L 353.137218 140.928 
" clip-path="url(#pe12616e18b)" style="fill: none; stroke: #000000; stroke-width: 0.5"/>
    <path d="M 371.618987 139.008 
L 371.618987 140.928 
" clip-path="url(#pe12616e18b)" style="fill: none; stroke: #000000; stroke-width: 0.5"/>
    <path d="M 372.578778 139.008 
L 372.578778 140.928 
" clip-path="url(#pe12616e18b)" style="fill: none; stroke: #000000; stroke-width: 0.5"/>
    <path d="M 373.091252 139.008 
L 373.091252 140.928 
" clip-path="url(#pe12616e18b)" style="fill: none; stroke: #000000; stroke-width: 0.5"/>
    <path d="M 374.742639 139.008 
L 374.742639 140.928 
" clip-path="url(#pe12616e18b)" style="fill: none; stroke: #000000; stroke-width: 0.5"/>
    <path d="M 374.897113 139.008 
L 374.897113 140.928 
" clip-path="url(#pe12616e18b)" style="fill: none; stroke: #000000; stroke-width: 0.5"/>
    <path d="M 376.019676 139.008 
L 376.019676 140.928 
" clip-path="url(#pe12616e18b)" style="fill: none; stroke: #000000; stroke-width: 0.5"/>
    <path d="M 395.29041 139.008 
L 395.29041 140.928 
" clip-path="url(#pe12616e18b)" style="fill: none; stroke: #000000; stroke-width: 0.5"/>
    <path d="M 398.487273 139.008 
L 398.487273 140.928 
" clip-path="url(#pe12616e18b)" style="fill: none; stroke: #000000; stroke-width: 0.5"/>
   </g>
   <g id="EventCollection_83"/>
   <g id="EventCollection_84"/>
   <g id="EventCollection_85"/>
   <g id="EventCollection_86">
    <path d="M 289.416432 131.328 
L 289.416432 133.248 
" clip-path="url(#pe12616e18b)" style="fill: none; stroke: #000000; stroke-width: 0.5"/>
    <path d="M 307.271762 131.328 
L 307.271762 133.248 
" clip-path="url(#pe12616e18b)" style="fill: none; stroke: #000000; stroke-width: 0.5"/>
   </g>
   <g id="EventCollection_87"/>
   <g id="EventCollection_88"/>
   <g id="EventCollection_89">
    <path d="M 277.905287 125.568 
L 277.905287 127.488 
" clip-path="url(#pe12616e18b)" style="fill: none; stroke: #000000; stroke-width: 0.5"/>
    <path d="M 312.265456 125.568 
L 312.265456 127.488 
" clip-path="url(#pe12616e18b)" style="fill: none; stroke: #000000; stroke-width: 0.5"/>
    <path d="M 336.815406 125.568 
L 336.815406 127.488 
" clip-path="url(#pe12616e18b)" style="fill: none; stroke: #000000; stroke-width: 0.5"/>
   </g>
   <g id="EventCollection_90"/>
   <g id="EventCollection_91"/>
   <g id="EventCollection_92"/>
   <g id="EventCollection_93"/>
   <g id="EventCollection_94"/>
   <g id="EventCollection_95">
    <path d="M 74.952849 114.048 
L 74.952849 115.968 
" clip-path="url(#pe12616e18b)" style="fill: none; stroke: #000000; stroke-width: 0.5"/>
    <path d="M 91.490389 114.048 
L 91.490389 115.968 
" clip-path="url(#pe12616e18b)" style="fill: none; stroke: #000000; stroke-width: 0.5"/>
    <path d="M 198.613828 114.048 
L 198.613828 115.968 
" clip-path="url(#pe12616e18b)" style="fill: none; stroke: #000000; stroke-width: 0.5"/>
   </g>
   <g id="EventCollection_96"/>
   <g id="EventCollection_97"/>
   <g id="EventCollection_98"/>
   <g id="EventCollection_99"/>
   <g id="EventCollection_100"/>
   <g id="EventCollection_101">
    <path d="M 95.383484 102.528 
L 95.383484 104.448 
" clip-path="url(#pe12616e18b)" style="fill: none; stroke: #000000; stroke-width: 0.5"/>
    <path d="M 99.044013 102.528 
L 99.044013 104.448 
" clip-path="url(#pe12616e18b)" style="fill: none; stroke: #000000; stroke-width: 0.5"/>
    <path d="M 104.835703 102.528 
L 104.835703 104.448 
" clip-path="url(#pe12616e18b)" style="fill: none; stroke: #000000; stroke-width: 0.5"/>
    <path d="M 112.35199 102.528 
L 112.35199 104.448 
" clip-path="url(#pe12616e18b)" style="fill: none; stroke: #000000; stroke-width: 0.5"/>
    <path d="M 113.002832 102.528 
L 113.002832 104.448 
" clip-path="url(#pe12616e18b)" style="fill: none; stroke: #000000; stroke-width: 0.5"/>
    <path d="M 116.126484 102.528 
L 116.126484 104.448 
" clip-path="url(#pe12616e18b)" style="fill: none; stroke: #000000; stroke-width: 0.5"/>
    <path d="M 320.473339 102.528 
L 320.473339 104.448 
" clip-path="url(#pe12616e18b)" style="fill: none; stroke: #000000; stroke-width: 0.5"/>
   </g>
   <g id="EventCollection_102"/>
   <g id="EventCollection_103"/>
   <g id="EventCollection_104">
    <path d="M 152.855503 96.768 
L 152.855503 98.688 
" clip-path="url(#pe12616e18b)" style="fill: none; stroke: #000000; stroke-width: 0.5"/>
    <path d="M 192.193992 96.768 
L 192.193992 98.688 
" clip-path="url(#pe12616e18b)" style="fill: none; stroke: #000000; stroke-width: 0.5"/>
    <path d="M 196.334539 96.768 
L 196.334539 98.688 
" clip-path="url(#pe12616e18b)" style="fill: none; stroke: #000000; stroke-width: 0.5"/>
   </g>
   <g id="EventCollection_105">
    <path d="M 83.970685 94.848 
L 83.970685 96.768 
" clip-path="url(#pe12616e18b)" style="fill: none; stroke: #000000; stroke-width: 0.5"/>
    <path d="M 84.474862 94.848 
L 84.474862 96.768 
" clip-path="url(#pe12616e18b)" style="fill: none; stroke: #000000; stroke-width: 0.5"/>
    <path d="M 104.973827 94.848 
L 104.973827 96.768 
" clip-path="url(#pe12616e18b)" style="fill: none; stroke: #000000; stroke-width: 0.5"/>
    <path d="M 123.504402 94.848 
L 123.504402 96.768 
" clip-path="url(#pe12616e18b)" style="fill: none; stroke: #000000; stroke-width: 0.5"/>
    <path d="M 127.701809 94.848 
L 127.701809 96.768 
" clip-path="url(#pe12616e18b)" style="fill: none; stroke: #000000; stroke-width: 0.5"/>
    <path d="M 127.783073 94.848 
L 127.783073 96.768 
" clip-path="url(#pe12616e18b)" style="fill: none; stroke: #000000; stroke-width: 0.5"/>
    <path d="M 139.537521 94.848 
L 139.537521 96.768 
" clip-path="url(#pe12616e18b)" style="fill: none; stroke: #000000; stroke-width: 0.5"/>
    <path d="M 144.694719 94.848 
L 144.694719 96.768 
" clip-path="url(#pe12616e18b)" style="fill: none; stroke: #000000; stroke-width: 0.5"/>
    <path d="M 145.980053 94.848 
L 145.980053 96.768 
" clip-path="url(#pe12616e18b)" style="fill: none; stroke: #000000; stroke-width: 0.5"/>
    <path d="M 147.549932 94.848 
L 147.549932 96.768 
" clip-path="url(#pe12616e18b)" style="fill: none; stroke: #000000; stroke-width: 0.5"/>
    <path d="M 148.550476 94.848 
L 148.550476 96.768 
" clip-path="url(#pe12616e18b)" style="fill: none; stroke: #000000; stroke-width: 0.5"/>
    <path d="M 151.015233 94.848 
L 151.015233 96.768 
" clip-path="url(#pe12616e18b)" style="fill: none; stroke: #000000; stroke-width: 0.5"/>
    <path d="M 158.11666 94.848 
L 158.11666 96.768 
" clip-path="url(#pe12616e18b)" style="fill: none; stroke: #000000; stroke-width: 0.5"/>
    <path d="M 171.733829 94.848 
L 171.733829 96.768 
" clip-path="url(#pe12616e18b)" style="fill: none; stroke: #000000; stroke-width: 0.5"/>
    <path d="M 178.656378 94.848 
L 178.656378 96.768 
" clip-path="url(#pe12616e18b)" style="fill: none; stroke: #000000; stroke-width: 0.5"/>
    <path d="M 181.658012 94.848 
L 181.658012 96.768 
" clip-path="url(#pe12616e18b)" style="fill: none; stroke: #000000; stroke-width: 0.5"/>
    <path d="M 192.525636 94.848 
L 192.525636 96.768 
" clip-path="url(#pe12616e18b)" style="fill: none; stroke: #000000; stroke-width: 0.5"/>
    <path d="M 195.568024 94.848 
L 195.568024 96.768 
" clip-path="url(#pe12616e18b)" style="fill: none; stroke: #000000; stroke-width: 0.5"/>
    <path d="M 219.393921 94.848 
L 219.393921 96.768 
" clip-path="url(#pe12616e18b)" style="fill: none; stroke: #000000; stroke-width: 0.5"/>
    <path d="M 242.341292 94.848 
L 242.341292 96.768 
" clip-path="url(#pe12616e18b)" style="fill: none; stroke: #000000; stroke-width: 0.5"/>
   </g>
   <g id="EventCollection_106">
    <path d="M 73.901789 92.928 
L 73.901789 94.848 
" clip-path="url(#pe12616e18b)" style="fill: none; stroke: #000000; stroke-width: 0.5"/>
   </g>
   <g id="EventCollection_107">
    <path d="M 250.813221 91.008 
L 250.813221 92.928 
" clip-path="url(#pe12616e18b)" style="fill: none; stroke: #000000; stroke-width: 0.5"/>
    <path d="M 268.603394 91.008 
L 268.603394 92.928 
" clip-path="url(#pe12616e18b)" style="fill: none; stroke: #000000; stroke-width: 0.5"/>
    <path d="M 273.703731 91.008 
L 273.703731 92.928 
" clip-path="url(#pe12616e18b)" style="fill: none; stroke: #000000; stroke-width: 0.5"/>
    <path d="M 286.035811 91.008 
L 286.035811 92.928 
" clip-path="url(#pe12616e18b)" style="fill: none; stroke: #000000; stroke-width: 0.5"/>
    <path d="M 302.434982 91.008 
L 302.434982 92.928 
" clip-path="url(#pe12616e18b)" style="fill: none; stroke: #000000; stroke-width: 0.5"/>
    <path d="M 314.62845 91.008 
L 314.62845 92.928 
" clip-path="url(#pe12616e18b)" style="fill: none; stroke: #000000; stroke-width: 0.5"/>
    <path d="M 323.901791 91.008 
L 323.901791 92.928 
" clip-path="url(#pe12616e18b)" style="fill: none; stroke: #000000; stroke-width: 0.5"/>
    <path d="M 325.463617 91.008 
L 325.463617 92.928 
" clip-path="url(#pe12616e18b)" style="fill: none; stroke: #000000; stroke-width: 0.5"/>
   </g>
   <g id="EventCollection_108"/>
   <g id="EventCollection_109"/>
   <g id="EventCollection_110">
    <path d="M 203.398872 85.248 
L 203.398872 87.168 
" clip-path="url(#pe12616e18b)" style="fill: none; stroke: #000000; stroke-width: 0.5"/>
   </g>
   <g id="EventCollection_111"/>
   <g id="EventCollection_112">
    <path d="M 343.917321 81.408 
L 343.917321 83.328 
" clip-path="url(#pe12616e18b)" style="fill: none; stroke: #000000; stroke-width: 0.5"/>
   </g>
   <g id="EventCollection_113">
    <path d="M 91.185589 79.488 
L 91.185589 81.408 
" clip-path="url(#pe12616e18b)" style="fill: none; stroke: #000000; stroke-width: 0.5"/>
    <path d="M 92.088519 79.488 
L 92.088519 81.408 
" clip-path="url(#pe12616e18b)" style="fill: none; stroke: #000000; stroke-width: 0.5"/>
    <path d="M 292.254562 79.488 
L 292.254562 81.408 
" clip-path="url(#pe12616e18b)" style="fill: none; stroke: #000000; stroke-width: 0.5"/>
   </g>
   <g id="EventCollection_114">
    <path d="M 104.942346 77.568 
L 104.942346 79.488 
" clip-path="url(#pe12616e18b)" style="fill: none; stroke: #000000; stroke-width: 0.5"/>
   </g>
   <g id="EventCollection_115"/>
   <g id="EventCollection_116">
    <path d="M 84.087822 73.728 
L 84.087822 75.648 
" clip-path="url(#pe12616e18b)" style="fill: none; stroke: #000000; stroke-width: 0.5"/>
   </g>
   <g id="EventCollection_117">
    <path d="M 111.163538 71.808 
L 111.163538 73.728 
" clip-path="url(#pe12616e18b)" style="fill: none; stroke: #000000; stroke-width: 0.5"/>
   </g>
   <g id="EventCollection_118">
    <path d="M 93.180333 69.888 
L 93.180333 71.808 
" clip-path="url(#pe12616e18b)" style="fill: none; stroke: #000000; stroke-width: 0.5"/>
    <path d="M 94.978141 69.888 
L 94.978141 71.808 
" clip-path="url(#pe12616e18b)" style="fill: none; stroke: #000000; stroke-width: 0.5"/>
    <path d="M 96.938477 69.888 
L 96.938477 71.808 
" clip-path="url(#pe12616e18b)" style="fill: none; stroke: #000000; stroke-width: 0.5"/>
    <path d="M 98.711881 69.888 
L 98.711881 71.808 
" clip-path="url(#pe12616e18b)" style="fill: none; stroke: #000000; stroke-width: 0.5"/>
    <path d="M 117.827898 69.888 
L 117.827898 71.808 
" clip-path="url(#pe12616e18b)" style="fill: none; stroke: #000000; stroke-width: 0.5"/>
    <path d="M 126.572658 69.888 
L 126.572658 71.808 
" clip-path="url(#pe12616e18b)" style="fill: none; stroke: #000000; stroke-width: 0.5"/>
    <path d="M 134.414244 69.888 
L 134.414244 71.808 
" clip-path="url(#pe12616e18b)" style="fill: none; stroke: #000000; stroke-width: 0.5"/>
    <path d="M 146.111588 69.888 
L 146.111588 71.808 
" clip-path="url(#pe12616e18b)" style="fill: none; stroke: #000000; stroke-width: 0.5"/>
    <path d="M 146.225552 69.888 
L 146.225552 71.808 
" clip-path="url(#pe12616e18b)" style="fill: none; stroke: #000000; stroke-width: 0.5"/>
    <path d="M 150.422959 69.888 
L 150.422959 71.808 
" clip-path="url(#pe12616e18b)" style="fill: none; stroke: #000000; stroke-width: 0.5"/>
    <path d="M 153.180558 69.888 
L 153.180558 71.808 
" clip-path="url(#pe12616e18b)" style="fill: none; stroke: #000000; stroke-width: 0.5"/>
    <path d="M 165.471884 69.888 
L 165.471884 71.808 
" clip-path="url(#pe12616e18b)" style="fill: none; stroke: #000000; stroke-width: 0.5"/>
    <path d="M 171.540065 69.888 
L 171.540065 71.808 
" clip-path="url(#pe12616e18b)" style="fill: none; stroke: #000000; stroke-width: 0.5"/>
    <path d="M 176.30705 69.888 
L 176.30705 71.808 
" clip-path="url(#pe12616e18b)" style="fill: none; stroke: #000000; stroke-width: 0.5"/>
    <path d="M 177.047209 69.888 
L 177.047209 71.808 
" clip-path="url(#pe12616e18b)" style="fill: none; stroke: #000000; stroke-width: 0.5"/>
    <path d="M 180.976178 69.888 
L 180.976178 71.808 
" clip-path="url(#pe12616e18b)" style="fill: none; stroke: #000000; stroke-width: 0.5"/>
    <path d="M 196.651297 69.888 
L 196.651297 71.808 
" clip-path="url(#pe12616e18b)" style="fill: none; stroke: #000000; stroke-width: 0.5"/>
    <path d="M 204.940443 69.888 
L 204.940443 71.808 
" clip-path="url(#pe12616e18b)" style="fill: none; stroke: #000000; stroke-width: 0.5"/>
    <path d="M 208.072148 69.888 
L 208.072148 71.808 
" clip-path="url(#pe12616e18b)" style="fill: none; stroke: #000000; stroke-width: 0.5"/>
    <path d="M 218.394841 69.888 
L 218.394841 71.808 
" clip-path="url(#pe12616e18b)" style="fill: none; stroke: #000000; stroke-width: 0.5"/>
    <path d="M 226.928023 69.888 
L 226.928023 71.808 
" clip-path="url(#pe12616e18b)" style="fill: none; stroke: #000000; stroke-width: 0.5"/>
    <path d="M 237.714383 69.888 
L 237.714383 71.808 
" clip-path="url(#pe12616e18b)" style="fill: none; stroke: #000000; stroke-width: 0.5"/>
    <path d="M 261.524174 69.888 
L 261.524174 71.808 
" clip-path="url(#pe12616e18b)" style="fill: none; stroke: #000000; stroke-width: 0.5"/>
    <path d="M 265.461195 69.888 
L 265.461195 71.808 
" clip-path="url(#pe12616e18b)" style="fill: none; stroke: #000000; stroke-width: 0.5"/>
    <path d="M 272.261727 69.888 
L 272.261727 71.808 
" clip-path="url(#pe12616e18b)" style="fill: none; stroke: #000000; stroke-width: 0.5"/>
    <path d="M 275.621117 69.888 
L 275.621117 71.808 
" clip-path="url(#pe12616e18b)" style="fill: none; stroke: #000000; stroke-width: 0.5"/>
    <path d="M 276.507941 69.888 
L 276.507941 71.808 
" clip-path="url(#pe12616e18b)" style="fill: none; stroke: #000000; stroke-width: 0.5"/>
    <path d="M 285.374475 69.888 
L 285.374475 71.808 
" clip-path="url(#pe12616e18b)" style="fill: none; stroke: #000000; stroke-width: 0.5"/>
    <path d="M 298.161924 69.888 
L 298.161924 71.808 
" clip-path="url(#pe12616e18b)" style="fill: none; stroke: #000000; stroke-width: 0.5"/>
    <path d="M 313.951008 69.888 
L 313.951008 71.808 
" clip-path="url(#pe12616e18b)" style="fill: none; stroke: #000000; stroke-width: 0.5"/>
    <path d="M 314.520342 69.888 
L 314.520342 71.808 
" clip-path="url(#pe12616e18b)" style="fill: none; stroke: #000000; stroke-width: 0.5"/>
    <path d="M 322.077383 69.888 
L 322.077383 71.808 
" clip-path="url(#pe12616e18b)" style="fill: none; stroke: #000000; stroke-width: 0.5"/>
    <path d="M 346.220526 69.888 
L 346.220526 71.808 
" clip-path="url(#pe12616e18b)" style="fill: none; stroke: #000000; stroke-width: 0.5"/>
    <path d="M 348.937615 69.888 
L 348.937615 71.808 
" clip-path="url(#pe12616e18b)" style="fill: none; stroke: #000000; stroke-width: 0.5"/>
   </g>
   <g id="EventCollection_119"/>
   <g id="EventCollection_120"/>
   <g id="EventCollection_121">
    <path d="M 129.383213 64.128 
L 129.383213 66.048 
" clip-path="url(#pe12616e18b)" style="fill: none; stroke: #000000; stroke-width: 0.5"/>
    <path d="M 130.37546 64.128 
L 130.37546 66.048 
" clip-path="url(#pe12616e18b)" style="fill: none; stroke: #000000; stroke-width: 0.5"/>
    <path d="M 134.353235 64.128 
L 134.353235 66.048 
" clip-path="url(#pe12616e18b)" style="fill: none; stroke: #000000; stroke-width: 0.5"/>
    <path d="M 146.945456 64.128 
L 146.945456 66.048 
" clip-path="url(#pe12616e18b)" style="fill: none; stroke: #000000; stroke-width: 0.5"/>
    <path d="M 149.442914 64.128 
L 149.442914 66.048 
" clip-path="url(#pe12616e18b)" style="fill: none; stroke: #000000; stroke-width: 0.5"/>
    <path d="M 169.982388 64.128 
L 169.982388 66.048 
" clip-path="url(#pe12616e18b)" style="fill: none; stroke: #000000; stroke-width: 0.5"/>
    <path d="M 174.090478 64.128 
L 174.090478 66.048 
" clip-path="url(#pe12616e18b)" style="fill: none; stroke: #000000; stroke-width: 0.5"/>
    <path d="M 174.31011 64.128 
L 174.31011 66.048 
" clip-path="url(#pe12616e18b)" style="fill: none; stroke: #000000; stroke-width: 0.5"/>
    <path d="M 189.578422 64.128 
L 189.578422 66.048 
" clip-path="url(#pe12616e18b)" style="fill: none; stroke: #000000; stroke-width: 0.5"/>
   </g>
   <g id="EventCollection_122"/>
   <g id="EventCollection_123"/>
   <g id="EventCollection_124">
    <path d="M 175.099564 58.368 
L 175.099564 60.288 
" clip-path="url(#pe12616e18b)" style="fill: none; stroke: #000000; stroke-width: 0.5"/>
   </g>
   <g id="EventCollection_125">
    <path d="M 95.260246 56.448 
L 95.260246 58.368 
" clip-path="url(#pe12616e18b)" style="fill: none; stroke: #000000; stroke-width: 0.5"/>
    <path d="M 110.032434 56.448 
L 110.032434 58.368 
" clip-path="url(#pe12616e18b)" style="fill: none; stroke: #000000; stroke-width: 0.5"/>
    <path d="M 122.641006 56.448 
L 122.641006 58.368 
" clip-path="url(#pe12616e18b)" style="fill: none; stroke: #000000; stroke-width: 0.5"/>
    <path d="M 128.774345 56.448 
L 128.774345 58.368 
" clip-path="url(#pe12616e18b)" style="fill: none; stroke: #000000; stroke-width: 0.5"/>
    <path d="M 170.748415 56.448 
L 170.748415 58.368 
" clip-path="url(#pe12616e18b)" style="fill: none; stroke: #000000; stroke-width: 0.5"/>
    <path d="M 182.242477 56.448 
L 182.242477 58.368 
" clip-path="url(#pe12616e18b)" style="fill: none; stroke: #000000; stroke-width: 0.5"/>
    <path d="M 184.357531 56.448 
L 184.357531 58.368 
" clip-path="url(#pe12616e18b)" style="fill: none; stroke: #000000; stroke-width: 0.5"/>
    <path d="M 196.120032 56.448 
L 196.120032 58.368 
" clip-path="url(#pe12616e18b)" style="fill: none; stroke: #000000; stroke-width: 0.5"/>
   </g>
   <g id="EventCollection_126">
    <path d="M 326.920995 54.528 
L 326.920995 56.448 
" clip-path="url(#pe12616e18b)" style="fill: none; stroke: #000000; stroke-width: 0.5"/>
   </g>
   <g id="EventCollection_127"/>
   <g id="patch_3">
    <path d="M 57.6 307.584 
L 57.6 41.472 
" style="fill: none; stroke: #000000; stroke-width: 0.8; stroke-linejoin: miter; stroke-linecap: square"/>
   </g>
   <g id="patch_4">
    <path d="M 414.72 307.584 
L 414.72 41.472 
" style="fill: none; stroke: #000000; stroke-width: 0.8; stroke-linejoin: miter; stroke-linecap: square"/>
   </g>
   <g id="patch_5">
    <path d="M 57.6 307.584 
L 414.72 307.584 
" style="fill: none; stroke: #000000; stroke-width: 0.8; stroke-linejoin: miter; stroke-linecap: square"/>
   </g>
   <g id="patch_6">
    <path d="M 57.6 41.472 
L 414.72 41.472 
" style="fill: none; stroke: #000000; stroke-width: 0.8; stroke-linejoin: miter; stroke-linecap: square"/>
   </g>
   <g id="text_17">
    <!-- Raster Plot - Cluster 347 -->
    <g transform="translate(162.964687 35.472) scale(0.12 -0.12)">
     <defs>
      <path id="DejaVuSans-52" d="M 2841 2188 
Q 3044 2119 3236 1894 
Q 3428 1669 3622 1275 
L 4263 0 
L 3584 0 
L 2988 1197 
Q 2756 1666 2539 1819 
Q 2322 1972 1947 1972 
L 1259 1972 
L 1259 0 
L 628 0 
L 628 4666 
L 2053 4666 
Q 2853 4666 3247 4331 
Q 3641 3997 3641 3322 
Q 3641 2881 3436 2590 
Q 3231 2300 2841 2188 
z
M 1259 4147 
L 1259 2491 
L 2053 2491 
Q 2509 2491 2742 2702 
Q 2975 2913 2975 3322 
Q 2975 3731 2742 3939 
Q 2509 4147 2053 4147 
L 1259 4147 
z
" transform="scale(0.015625)"/>
      <path id="DejaVuSans-74" d="M 1172 4494 
L 1172 3500 
L 2356 3500 
L 2356 3053 
L 1172 3053 
L 1172 1153 
Q 1172 725 1289 603 
Q 1406 481 1766 481 
L 2356 481 
L 2356 0 
L 1766 0 
Q 1100 0 847 248 
Q 594 497 594 1153 
L 594 3053 
L 172 3053 
L 172 3500 
L 594 3500 
L 594 4494 
L 1172 4494 
z
" transform="scale(0.015625)"/>
      <path id="DejaVuSans-50" d="M 1259 4147 
L 1259 2394 
L 2053 2394 
Q 2494 2394 2734 2622 
Q 2975 2850 2975 3272 
Q 2975 3691 2734 3919 
Q 2494 4147 2053 4147 
L 1259 4147 
z
M 628 4666 
L 2053 4666 
Q 2838 4666 3239 4311 
Q 3641 3956 3641 3272 
Q 3641 2581 3239 2228 
Q 2838 1875 2053 1875 
L 1259 1875 
L 1259 0 
L 628 0 
L 628 4666 
z
" transform="scale(0.015625)"/>
      <path id="DejaVuSans-6f" d="M 1959 3097 
Q 1497 3097 1228 2736 
Q 959 2375 959 1747 
Q 959 1119 1226 758 
Q 1494 397 1959 397 
Q 2419 397 2687 759 
Q 2956 1122 2956 1747 
Q 2956 2369 2687 2733 
Q 2419 3097 1959 3097 
z
M 1959 3584 
Q 2709 3584 3137 3096 
Q 3566 2609 3566 1747 
Q 3566 888 3137 398 
Q 2709 -91 1959 -91 
Q 1206 -91 779 398 
Q 353 888 353 1747 
Q 353 2609 779 3096 
Q 1206 3584 1959 3584 
z
" transform="scale(0.015625)"/>
      <path id="DejaVuSans-2d" d="M 313 2009 
L 1997 2009 
L 1997 1497 
L 313 1497 
L 313 2009 
z
" transform="scale(0.015625)"/>
      <path id="DejaVuSans-43" d="M 4122 4306 
L 4122 3641 
Q 3803 3938 3442 4084 
Q 3081 4231 2675 4231 
Q 1875 4231 1450 3742 
Q 1025 3253 1025 2328 
Q 1025 1406 1450 917 
Q 1875 428 2675 428 
Q 3081 428 3442 575 
Q 3803 722 4122 1019 
L 4122 359 
Q 3791 134 3420 21 
Q 3050 -91 2638 -91 
Q 1578 -91 968 557 
Q 359 1206 359 2328 
Q 359 3453 968 4101 
Q 1578 4750 2638 4750 
Q 3056 4750 3426 4639 
Q 3797 4528 4122 4306 
z
" transform="scale(0.015625)"/>
      <path id="DejaVuSans-75" d="M 544 1381 
L 544 3500 
L 1119 3500 
L 1119 1403 
Q 1119 906 1312 657 
Q 1506 409 1894 409 
Q 2359 409 2629 706 
Q 2900 1003 2900 1516 
L 2900 3500 
L 3475 3500 
L 3475 0 
L 2900 0 
L 2900 538 
Q 2691 219 2414 64 
Q 2138 -91 1772 -91 
Q 1169 -91 856 284 
Q 544 659 544 1381 
z
M 1991 3584 
L 1991 3584 
z
" transform="scale(0.015625)"/>
      <path id="DejaVuSans-33" d="M 2597 2516 
Q 3050 2419 3304 2112 
Q 3559 1806 3559 1356 
Q 3559 666 3084 287 
Q 2609 -91 1734 -91 
Q 1441 -91 1130 -33 
Q 819 25 488 141 
L 488 750 
Q 750 597 1062 519 
Q 1375 441 1716 441 
Q 2309 441 2620 675 
Q 2931 909 2931 1356 
Q 2931 1769 2642 2001 
Q 2353 2234 1838 2234 
L 1294 2234 
L 1294 2753 
L 1863 2753 
Q 2328 2753 2575 2939 
Q 2822 3125 2822 3475 
Q 2822 3834 2567 4026 
Q 2313 4219 1838 4219 
Q 1578 4219 1281 4162 
Q 984 4106 628 3988 
L 628 4550 
Q 988 4650 1302 4700 
Q 1616 4750 1894 4750 
Q 2613 4750 3031 4423 
Q 3450 4097 3450 3541 
Q 3450 3153 3228 2886 
Q 3006 2619 2597 2516 
z
" transform="scale(0.015625)"/>
      <path id="DejaVuSans-37" d="M 525 4666 
L 3525 4666 
L 3525 4397 
L 1831 0 
L 1172 0 
L 2766 4134 
L 525 4134 
L 525 4666 
z
" transform="scale(0.015625)"/>
     </defs>
     <use xlink:href="#DejaVuSans-52"/>
     <use xlink:href="#DejaVuSans-61" x="67.232422"/>
     <use xlink:href="#DejaVuSans-73" x="128.511719"/>
     <use xlink:href="#DejaVuSans-74" x="180.611328"/>
     <use xlink:href="#DejaVuSans-65" x="219.820312"/>
     <use xlink:href="#DejaVuSans-72" x="281.34375"/>
     <use xlink:href="#DejaVuSans-20" x="322.457031"/>
     <use xlink:href="#DejaVuSans-50" x="354.244141"/>
     <use xlink:href="#DejaVuSans-6c" x="414.546875"/>
     <use xlink:href="#DejaVuSans-6f" x="442.330078"/>
     <use xlink:href="#DejaVuSans-74" x="503.511719"/>
     <use xlink:href="#DejaVuSans-20" x="542.720703"/>
     <use xlink:href="#DejaVuSans-2d" x="574.507812"/>
     <use xlink:href="#DejaVuSans-20" x="610.591797"/>
     <use xlink:href="#DejaVuSans-43" x="642.378906"/>
     <use xlink:href="#DejaVuSans-6c" x="712.203125"/>
     <use xlink:href="#DejaVuSans-75" x="739.986328"/>
     <use xlink:href="#DejaVuSans-73" x="803.365234"/>
     <use xlink:href="#DejaVuSans-74" x="855.464844"/>
     <use xlink:href="#DejaVuSans-65" x="894.673828"/>
     <use xlink:href="#DejaVuSans-72" x="956.197266"/>
     <use xlink:href="#DejaVuSans-20" x="997.310547"/>
     <use xlink:href="#DejaVuSans-33" x="1029.097656"/>
     <use xlink:href="#DejaVuSans-34" x="1092.720703"/>
     <use xlink:href="#DejaVuSans-37" x="1156.34375"/>
    </g>
   </g>
  </g>
 </g>
 <defs>
  <clipPath id="pe12616e18b">
   <rect x="57.6" y="41.472" width="357.12" height="266.112"/>
  </clipPath>
 </defs>
</svg>
